<?xml version="1.0" encoding="utf-8"?>
<!-- Generator: Adobe Illustrator 27.9.0, SVG Export Plug-In . SVG Version: 6.00 Build 0)  -->
<svg version="1.1" id="Layer_1" xmlns="http://www.w3.org/2000/svg" xmlns:xlink="http://www.w3.org/1999/xlink" x="0px" y="0px"
	 viewBox="0 0 335 211.6" style="enable-background:new 0 0 335 211.6;" xml:space="preserve">
<style type="text/css">
	.st0{fill-rule:evenodd;clip-rule:evenodd;fill:#FFFFFF;}
	.st1{fill:none;stroke:#000000;stroke-width:0.289;stroke-linecap:round;stroke-linejoin:round;}
	.st2{font-family:'HelveticaNeue-Bold';}
	.st3{font-size:7.0003px;}
	.st4{fill-rule:evenodd;clip-rule:evenodd;}
	.st5{fill:none;stroke:#000000;stroke-width:0.289;stroke-linecap:round;stroke-miterlimit:10;}
	.st6{font-family:'TimesNewRomanPSMT';}
	.st7{font-size:12px;}
</style>
<g>
	<path d="M204.9,3.6h-0.2v1.3h0.1V5h0.1V4.8"/>
	<path d="M204.9,5.6h-0.2V7h0.1v0.1h0.1V6.8"/>
	<path d="M204.9,7.7h-0.2V9h0.1v0.1h0.1V8.9"/>
	<path d="M204.9,9.7h-0.2V11h0.1v0.1h0.1v-0.2"/>
	<path d="M204.9,11.8h-0.2v1.3h0.1v0.1h0.1V13"/>
	<path d="M204.9,13.8h-0.2v1.3h0.1v0.1h0.1V15"/>
	<path d="M204.9,15.8h-0.2v1.3h0.1v0.1h0.1V17"/>
	<path d="M204.9,17.9h-0.2v1.3h0.1v0.1h0.1v-0.2"/>
	<path d="M204.9,19.9h-0.2v1.3h0.1v0.1h0.1v-0.2"/>
	<path d="M204.9,22.1V22h-0.2v1.3h0.1v0.1h0.1v-0.2"/>
	<path d="M204.9,24.1V24h-0.2v1.3h0.1v0.1h0.1v-0.2"/>
	<path d="M204.9,26.2V26h-0.2v1.3h0.1v0.1h0.1v-0.2"/>
	<path d="M204.9,28.2v-0.1h-0.2v1.3h0.1v0.1h0.1v-0.2"/>
	<path d="M204.9,30.2v-0.1h-0.2v1.3l0.1,0.1h0.1v-0.2"/>
	<path d="M204.9,32.3v-0.1h-0.2v1.3l0.1,0.1h0.1v-0.2"/>
	<path d="M204.9,34.3v-0.1h-0.2v1.3l0.1,0.1h0.1v-0.2"/>
	<path d="M204.9,36.4v-0.1h-0.2v1.3l0.1,0.1h0.1v-0.2"/>
	<path d="M204.9,38.4v-0.1h-0.2v1.3l0.1,0.1h0.1v-0.2"/>
	<path d="M204.9,40.4v-0.1h-0.2v1.3l0.1,0.1h0.1v-0.2"/>
	<path d="M204.9,42.5v-0.1h-0.2v1.3l0.1,0.1h0.1v-0.2"/>
	<path d="M204.9,44.5v-0.1h-0.2v1.3l0.1,0.1h0.1v-0.2"/>
	<path d="M204.9,46.6v-0.1h-0.2v1.3l0.1,0.1h0.1v-0.2"/>
	<path d="M204.9,48.6v-0.1h-0.2v1.3l0.1,0.1h0.1v-0.2"/>
	<path d="M204.9,50.6v-0.1h-0.2v1.3l0.1,0.1h0.1v-0.2"/>
	<path d="M204.9,52.7v-0.1h-0.2v1.3l0.1,0.1h0.1v-0.2"/>
	<path d="M204.9,54.7v-0.1h-0.2v1.3l0.1,0.1h0.1v-0.2"/>
	<path d="M204.9,56.8v-0.1h-0.2V58l0.1,0.1h0.1v-0.2"/>
	<path d="M204.9,58.8v-0.1h-0.2V60l0.1,0.1h0.1V60"/>
	<path d="M204.9,60.8v-0.1h-0.2V62l0.1,0.1h0.1V62"/>
	<path d="M204.9,62.9v-0.1h-0.2v1.3l0.1,0.1h0.1v-0.1"/>
	<path d="M204.9,64.9v-0.1h-0.2v1.3l0.1,0.1h0.1v-0.1"/>
	<path d="M204.9,67v-0.1h-0.2v1.3l0.1,0.1h0.1v-0.1"/>
	<path d="M204.9,69v-0.1h-0.2v1.3l0.1,0.1h0.1v-0.1"/>
	<path d="M204.9,71v-0.1h-0.2v1.3l0.1,0.1h0.1v-0.1"/>
	<path d="M204.9,73.1V73h-0.2v1.3l0.1,0.1h0.1v-0.1"/>
	<path d="M204.9,75.1V75h-0.1l-0.1,0.1v1.2l0.1,0.1h0.1v-0.1"/>
	<path d="M204.9,77.2V77h-0.1l-0.1,0.1v1.2l0.1,0.1h0.1v-0.1"/>
	<path d="M204.9,79.2v-0.1h-0.1l-0.1,0.1v1.2l0.1,0.1h0.1v-0.1"/>
	<path d="M204.9,81.2v-0.1h-0.1l-0.1,0.1v1.2l0.1,0.1h0.1v-0.1"/>
	<path d="M204.9,83.3v-0.1h-0.1l-0.1,0.1v1.2l0.1,0.1h0.1v-0.1"/>
	<path d="M204.9,85.3v-0.1h-0.1l-0.1,0.1v1.3h0.2v-0.1"/>
	<path d="M204.9,87.4v-0.1h-0.1l-0.1,0.1v1.3h0.2v-0.1"/>
	<path d="M204.9,89.4v-0.1h-0.1l-0.1,0.1v1.3h0.2v-0.1"/>
	<path d="M204.9,91.4v-0.1h-0.1l-0.1,0.1v1.3h0.2v-0.1"/>
	<path d="M204.9,93.5v-0.1h-0.1l-0.1,0.1v1.3h0.2v-0.1"/>
	<path d="M204.9,95.5v-0.1h-0.1l-0.1,0.1v1.3h0.2v-0.1"/>
	<path d="M205,97.6h-0.1v-0.1h-0.1l-0.1,0.1v1.3h0.2l0.1-0.1"/>
	<path d="M205,99.6h-0.1v-0.1h-0.1l-0.1,0.1v1.3h0.2l0.1-0.1"/>
	<path d="M205,101.6h-0.1v-0.1h-0.1l-0.1,0.1v1.3h0.2l0.1-0.1"/>
	<path d="M205,103.7h-0.1v-0.1h-0.1l-0.1,0.1v1.3h0.2l0.1-0.1"/>
	<path d="M205,105.7h-0.1v-0.1h-0.1l-0.1,0.1v1.3h0.2l0.1-0.1"/>
	<path d="M205,107.8h-0.1v-0.1h-0.1l-0.1,0.1v1.3h0.2l0.1-0.1"/>
	<path d="M205,109.8h-0.1v-0.1h-0.1l-0.1,0.1v1.3h0.1v0.1h0.1v-0.1l0.1-0.1"/>
	<path d="M205,111.8h-0.1v-0.1h-0.1l-0.1,0.1v1.3h0.1v0.1h0.1v-0.1l0.1-0.1"/>
	<path d="M205,113.9h-0.1v-0.1h-0.1l-0.1,0.1v1.3h0.1v0.1h0.1v-0.1l0.1-0.1"/>
	<path d="M205,115.9h-0.1v-0.1h-0.1l-0.1,0.1v1.3h0.1v0.1h0.1v-0.1l0.1-0.1"/>
	<path d="M205,118h-0.1v-0.1h-0.1l-0.1,0.1v1.3h0.1v0.1h0.1v-0.1l0.1-0.1"/>
	<path d="M205,120h-0.1v-0.1h-0.1l-0.1,0.1v1.3h0.1v0.1h0.1v-0.1l0.1-0.1"/>
	<path d="M205,122h-0.1v-0.1h-0.1l-0.1,0.1v1.3h0.1v0.1h0.1v-0.1l0.1-0.1"/>
	<path d="M205,124.1h-0.1V124h-0.1l-0.1,0.1v1.3h0.1v0.1h0.1v-0.1l0.1-0.1"/>
	<path d="M205,126.1h-0.1V126h-0.1l-0.1,0.1v1.3h0.1v0.1h0.1v-0.1l0.1-0.1"/>
	<path d="M205,128.2h-0.1V128h-0.1l-0.1,0.1v1.3h0.1v0.1h0.1v-0.1l0.1-0.1"/>
	<path d="M205,130.2h-0.4v1.3h0.1v0.1h0.1v-0.1l0.1-0.1"/>
	<path d="M205,132.2h-0.4v1.3h0.1v0.1h0.1v-0.1l0.1-0.1"/>
	<path d="M205,134.3h-0.4v1.3h0.1v0.1h0.1v-0.1l0.1-0.1"/>
	<path d="M205,136.3h-0.4v1.3h0.1v0.1h0.1v-0.1l0.1-0.1"/>
	<path d="M205,138.4h-0.4v1.3h0.1v0.1h0.1v-0.1h0.1v-0.1"/>
	<path d="M205,140.4h-0.4v1.3h0.1v0.1h0.1v-0.1h0.1v-0.1"/>
	<path d="M205,142.4h-0.4v1.3h0.1v0.1h0.1v-0.1h0.1v-0.1"/>
	<path d="M205,144.5h-0.4v1.3h0.1v0.1h0.1v-0.1h0.1v-0.1"/>
	<path d="M205,146.5h-0.4v1.3h0.1v0.1h0.1v-0.1h0.1v-0.1"/>
	<path d="M205,148.6h-0.4v1.3h0.1v0.1h0.1v-0.1h0.1v-0.1"/>
	<path d="M205,150.6h-0.4v1.3h0.1v0.1h0.1v-0.1h0.1v-0.1"/>
	<path d="M205,152.6h-0.4v1.3h0.1v0.1h0.1V154h0.1v-0.1"/>
	<path d="M205,154.7h-0.4v1.3h0.1v0.1h0.1V156h0.1v-0.1"/>
	<path d="M205,156.8l-0.1-0.1h-0.2v1.3h0.1v0.1h0.1V158h0.1v-0.1"/>
	<path d="M205,158.9l-0.1-0.1h-0.2v1.3h0.1v0.1h0.1v-0.1h0.1V160"/>
	<path d="M205,160.9l-0.1-0.1h-0.2v1.3h0.1v0.1h0.1v-0.1h0.1V162"/>
	<path d="M205,163l-0.1-0.1h-0.2v1.3h0.1v0.1h0.1v-0.1h0.1V164"/>
	<path d="M205,165l-0.1-0.1h-0.2v1.3l0.1,0.1h0.1v-0.1h0.1v-0.1"/>
	<path d="M205,167l-0.1-0.1h-0.2v1.3l0.1,0.1h0.1v-0.1h0.1v-0.1"/>
	<path d="M205,169.1l-0.1-0.1h-0.2v1.3l0.1,0.1h0.1v-0.1h0.1v-0.1"/>
	<path d="M205,171.1l-0.1-0.1h-0.2v1.3l0.1,0.1h0.1v-0.1h0.1v-0.1"/>
	<path d="M205,173.2l-0.1-0.1h-0.2v1.3l0.1,0.1h0.1v-0.1h0.1v-0.1"/>
	<path d="M205,175.2l-0.1-0.1h-0.2v1.3l0.1,0.1h0.1v-0.1h0.1v-0.1"/>
	<path d="M205,177.2l-0.1-0.1h-0.2v1.3l0.1,0.1h0.1v-0.1h0.1v-0.1"/>
	<path d="M205,179.3l-0.1-0.1h-0.2v1.3l0.1,0.1h0.1v-0.1h0.1v-0.1"/>
	<path d="M205,181.3l-0.1-0.1h-0.2v1.3l0.1,0.1h0.1v-0.1h0.1v-0.1"/>
	<path d="M205,183.4l-0.1-0.1h-0.2v1.3l0.1,0.1h0.1v-0.1h0.1v-0.1"/>
	<path d="M205,185.4l-0.1-0.1h-0.2v1.3l0.1,0.1h0.1v-0.1h0.1v-0.1"/>
	<path d="M205,187.4l-0.1-0.1h-0.2v1.3l0.1,0.1h0.1v-0.1h0.1v-0.1"/>
	<path d="M205,189.5l-0.1-0.1h-0.2v1.3l0.1,0.1h0.1v-0.1h0.1v-0.1"/>
	<path class="st0" d="M186.1,3.7l-33.6,76.4h169V3.7H186.1z"/>
	<path class="st1" d="M186.1,3.7l-33.6,76.4h169V3.7H186.1z"/>
	<text transform="matrix(1 0 0 1 187.109 14.9981)" class="st2 st3">T</text>
	<text transform="matrix(1 0 0 1 191.326 14.9981)" class="st2 st3">h</text>
	<text transform="matrix(1 0 0 1 195.6459 14.9981)" class="st2 st3">y</text>
	<text transform="matrix(1 0 0 1 199.4779 14.9981)" class="st2 st3">r</text>
	<text transform="matrix(1 0 0 1 202.2381 14.9981)" class="st2 st3">i</text>
	<text transform="matrix(1 0 0 1 204.1582 14.9981)" class="st2 st3">s</text>
	<text transform="matrix(1 0 0 1 208.1183 14.9981)" class="st2 st3">t</text>
	<text transform="matrix(1 0 0 1 210.3892 14.9981)" class="st2 st3">o</text>
	<text transform="matrix(1 0 0 1 214.7091 14.9981)" class="st2 st3">r</text>
	<path d="M235.1,38.9v-0.1h0.1v-0.1h-0.1v-0.1h-1.2v0.1h-0.1v0.1h0.1v0.1h0.1"/>
	<path d="M233.1,38.9v-0.1h0.1v-0.1h-0.1v-0.1h-1.2v0.1h-0.1v0.1h0.1v0.1h0.1"/>
	<path d="M231,38.9v-0.1h0.1v-0.1H231v-0.1h-1.2v0.1h-0.1v0.1h0.1v0.1h0.1"/>
	<path d="M229,38.9v-0.1h0.1v-0.1H229v-0.1h-1.2v0.1h-0.1v0.1h0.1v0.1h0.1"/>
	<path d="M226.9,38.9v-0.1h0.1v-0.1h-0.1v-0.1h-1.2v0.1h-0.1v0.1h0.1v0.1h0.1"/>
	<path d="M224.9,38.9v-0.1h0.1v-0.1h-0.1v-0.1h-1.2v0.1h-0.1v0.1h0.1v0.1h0.1"/>
	<path d="M222.9,38.9v-0.1h0.1v-0.1h-0.1v-0.1h-1.2v0.1h-0.1v0.1h0.1v0.1h0.1"/>
	<path d="M220.8,38.9v-0.1h0.1v-0.1h-0.1v-0.1h-1.2v0.1h-0.1v0.1h0.1v0.1h0.1"/>
	<path d="M218.8,38.9v-0.1h0.1v-0.1h-0.1v-0.1h-1.2v0.1h-0.1v0.1h0.1v0.1h0.1"/>
	<path d="M216.7,38.9v-0.1h0.1v-0.1h-0.1v-0.1h-1.2v0.1h-0.1v0.1h0.1v0.1h0.1"/>
	<path d="M214.7,38.9v-0.1h0.1v-0.1h-0.1v-0.1h-1.2v0.1h-0.1v0.1h0.1v0.1h0.1"/>
	<path d="M212.7,38.9v-0.1h0.1v-0.1h-0.1v-0.1h-1.2v0.1h-0.1v0.1h0.1v0.1"/>
	<path d="M210.6,38.9v-0.1h0.1v-0.1h-0.1v-0.1h-1.2v0.1h-0.1v0.1h0.1v0.1"/>
	<path d="M208.6,38.9v-0.1h0.1v-0.1h-0.1v-0.1h-1.2v0.1h-0.1v0.1h0.1v0.1"/>
	<path d="M206.5,38.9v-0.1h0.1v-0.1h-0.1v-0.1h-1.2v0.1h-0.1v0.1h0.1v0.1"/>
	<path d="M204.5,38.9v-0.1h0.1v-0.1h-0.1v-0.1h-1.2v0.1h-0.1v0.1h0.1v0.1"/>
	<path d="M202.5,38.9v-0.1h0.1v-0.1h-0.1v-0.1h-1.2v0.1h-0.1v0.1h0.1v0.1"/>
	<path d="M200.4,38.9v-0.1l0.1-0.1h-0.1v-0.1h-1.2v0.1h-0.1v0.1h0.1v0.1"/>
	<path d="M198.4,38.9v-0.1l0.1-0.1h-0.1v-0.1h-1.2v0.1h-0.1v0.1h0.1v0.1"/>
	<path d="M196.3,38.9v-0.1l0.1-0.1h-0.1v-0.1h-1.2v0.1H195v0.1h0.1v0.1"/>
	<path d="M194.3,38.9v-0.1l0.1-0.1h-0.1v-0.1h-1.2l-0.1,0.1v0.1l0.1,0.1"/>
	<path d="M192.3,38.9v-0.1l0.1-0.1h-0.1v-0.1h-1.2l-0.1,0.1v0.1l0.1,0.1"/>
	<path d="M190.2,38.9v-0.1l0.1-0.1h-0.1v-0.1H189l-0.1,0.1v0.1l0.1,0.1"/>
	<path d="M188.2,38.9v-0.1l0.1-0.1h-0.1v-0.1H187l-0.1,0.1v0.1l0.1,0.1"/>
	<path d="M186.1,38.9v-0.1l0.1-0.1h-0.1v-0.1h-1.2l-0.1,0.1v0.1l0.1,0.1"/>
	<path d="M184.1,38.9v-0.1l0.1-0.1h-0.1v-0.1h-1.2l-0.1,0.1v0.1l0.1,0.1"/>
	<path d="M182.1,38.9v-0.1l0.1-0.1h-0.1l-0.1-0.1h-1.1l-0.1,0.1v0.1l0.1,0.1"/>
	<path d="M180,38.9v-0.1l0.1-0.1H180l-0.1-0.1h-1.1l-0.1,0.1v0.1l0.1,0.1"/>
	<path d="M178,38.9v-0.1l0.1-0.1H178l-0.1-0.1h-1.1l-0.1,0.1v0.1l0.1,0.1"/>
	<path d="M175.9,38.9v-0.1l0.1-0.1h-0.1l-0.1-0.1h-1.1l-0.1,0.1h-0.1l0.2,0.2"/>
	<path d="M173.9,38.9v-0.1l0.1-0.1h-0.1l-0.1-0.1h-1.1l-0.1,0.1h-0.1l0.2,0.2"/>
	<path d="M171.9,38.9v-0.1l0.1-0.1h-0.1l-0.1-0.1h-1.1l-0.1,0.1h-0.1l0.2,0.2"/>
	<path d="M169.8,38.9v-0.1l0.1-0.1h-0.1l-0.1-0.1h-1.1l-0.1,0.1h-0.1l0.2,0.2"/>
	<path d="M167.8,38.9v-0.1l0.1-0.1h-0.1l-0.1-0.1h-1.1l-0.1,0.1h-0.1l0.2,0.2"/>
	<path d="M165.7,38.9v-0.1l0.1-0.1h-0.1l-0.1-0.1h-1.1l-0.1,0.1h-0.1l0.2,0.2"/>
	<path d="M163.7,38.9v-0.1l0.1-0.1h-0.1l-0.1-0.1h-1.1l-0.1,0.1h-0.1l0.2,0.2"/>
	<path d="M161.7,38.9v-0.2l-0.1-0.1h-1.1l-0.1,0.1h-0.1l0.2,0.2"/>
	<path d="M159.6,38.9v-0.2l-0.1-0.1h-1.1l-0.1,0.1h-0.1l0.2,0.2"/>
	<path d="M157.6,38.9v-0.2l-0.1-0.1h-1.1l-0.1,0.1h-0.1l0.2,0.2"/>
	<path d="M155.5,38.9v-0.2l-0.1-0.1h-1.2v0.1h-0.1l0.1,0.1v0.1h0.1"/>
	<path d="M153.5,38.9v-0.2l-0.1-0.1h-1.2v0.1h-0.1l0.1,0.1v0.1h0.1"/>
	<path d="M151.5,38.9v-0.2l-0.1-0.1h-1.2v0.1H150l0.1,0.1v0.1h0.1"/>
	<path d="M149.4,38.9v-0.2l-0.1-0.1h-1.2v0.1H148l0.1,0.1v0.1h0.1"/>
	<path d="M147.4,38.9v-0.2l-0.1-0.1h-1.2v0.1h-0.1l0.1,0.1v0.1h0.1"/>
	<path d="M145.3,38.9v-0.2l-0.1-0.1H144v0.1h-0.1l0.1,0.1v0.1h0.1"/>
	<path d="M143.3,38.9v-0.2l-0.1-0.1H142v0.1h-0.1l0.1,0.1v0.1h0.1"/>
	<path d="M141.1,38.9v-0.1h0.1v-0.1h-0.1v-0.1h-1.2v0.1h-0.1l0.1,0.1v0.1h0.1"/>
	<path d="M139.1,38.9v-0.1h0.1v-0.1h-0.1v-0.1h-1.2v0.1h-0.1l0.1,0.1v0.1h0.1"/>
	<path d="M137.1,38.9v-0.1h0.1v-0.1h-0.1v-0.1h-1.2v0.1h-0.1v0.1h0.1v0.1h0.1"/>
	<path d="M135,38.9v-0.1h0.1v-0.1H135v-0.1h-1.2v0.1h-0.1v0.1h0.1v0.1h0.1"/>
	<path d="M133,38.9v-0.1h0.1v-0.1H133v-0.1h-1.2v0.1h-0.1v0.1h0.1v0.1h0.1"/>
	<path d="M130.9,38.9v-0.1h0.1v-0.1h-0.1v-0.1h-1.2v0.1h-0.1v0.1h0.1v0.1h0.1"/>
	<path d="M128.9,38.9v-0.1h0.1v-0.1h-0.1v-0.1h-1.2v0.1h-0.1v0.1h0.1v0.1h0.1"/>
	<path d="M126.9,38.9v-0.1h0.1v-0.1h-0.1v-0.1h-1.2v0.1h-0.1v0.1h0.1v0.1h0.1"/>
	<path d="M124.8,38.9v-0.1h0.1v-0.1h-0.1v-0.1h-1.2v0.1h-0.1v0.1h0.1v0.1h0.1"/>
	<path d="M122.8,38.9v-0.1h0.1v-0.1h-0.1v-0.1h-1.2v0.1h-0.1v0.1h0.1v0.1h0.1"/>
	<path d="M120.7,38.9v-0.1h0.1v-0.1h-0.1v-0.1h-1.2v0.1h-0.1v0.1h0.1v0.1h0.1"/>
	<path d="M118.7,38.9v-0.1h0.1v-0.1h-0.1v-0.1h-1.2v0.1h-0.1v0.1h0.1v0.1h0.1"/>
	<path d="M116.7,38.9v-0.1h0.1v-0.1h-0.1v-0.1h-1.2v0.1h-0.1v0.1h0.1v0.1h0.1"/>
	<path d="M114.6,38.9v-0.1h0.1v-0.1h-0.1v-0.1h-1.2v0.1h-0.1v0.1h0.1v0.1"/>
	<path d="M112.6,38.9v-0.1h0.1v-0.1h-0.1v-0.1h-1.2v0.1h-0.1v0.1h0.1v0.1"/>
	<path d="M110.5,38.9v-0.1h0.1v-0.1h-0.1v-0.1h-1.2v0.1h-0.1v0.1h0.1v0.1"/>
	<path d="M108.5,38.9v-0.1h0.1v-0.1h-0.1v-0.1h-1.2v0.1h-0.1v0.1h0.1v0.1"/>
	<path d="M106.5,38.9v-0.1h0.1v-0.1h-0.1v-0.1h-1.2v0.1h-0.1v0.1h0.1v0.1"/>
	<path d="M104.4,38.9v-0.1h0.1v-0.1h-0.1v-0.1h-1.2v0.1h-0.1v0.1h0.1v0.1"/>
	<path d="M102.4,38.9v-0.1l0.1-0.1h-0.1v-0.1h-1.2v0.1h-0.1v0.1h0.1v0.1"/>
	<path d="M100.3,38.9v-0.1l0.1-0.1h-0.1v-0.1h-1.2v0.1H99v0.1h0.1v0.1"/>
	<path d="M98.3,38.9v-0.1l0.1-0.1h-0.1v-0.1h-1.2v0.1H97v0.1h0.1v0.1"/>
	<path d="M96.3,38.9v-0.1l0.1-0.1h-0.1v-0.1h-1.2l-0.1,0.1v0.1l0.1,0.1"/>
	<path d="M94.2,38.9v-0.1l0.1-0.1h-0.1v-0.1H93l-0.1,0.1v0.1l0.1,0.1"/>
	<path d="M92.2,38.9v-0.1l0.1-0.1h-0.1v-0.1H91l-0.1,0.1v0.1l0.1,0.1"/>
	<path d="M90.1,38.9v-0.1l0.1-0.1h-0.1v-0.1h-1.2l-0.1,0.1v0.1l0.1,0.1"/>
	<path d="M88.1,38.9v-0.1l0.1-0.1h-0.1v-0.1h-1.2l-0.1,0.1v0.1l0.1,0.1"/>
	<path d="M86.1,38.9v-0.1l0.1-0.1h-0.1v-0.1h-1.2l-0.1,0.1v0.1l0.1,0.1"/>
	<path d="M84,38.9v-0.1l0.1-0.1H84l-0.1-0.1h-1.1l-0.1,0.1v0.1l0.1,0.1"/>
	<path d="M82,38.9v-0.1l0.1-0.1H82l-0.1-0.1h-1.1l-0.1,0.1v0.1l0.1,0.1"/>
	<path d="M79.9,38.9v-0.1l0.1-0.1h-0.1l-0.1-0.1h-1.1l-0.1,0.1v0.1l0.1,0.1"/>
	<path d="M77.9,38.9v-0.1l0.1-0.1h-0.1l-0.1-0.1h-1.1l-0.1,0.1h-0.1l0.2,0.2"/>
	<path d="M75.9,38.9v-0.1l0.1-0.1h-0.1l-0.1-0.1h-1.1l-0.1,0.1h-0.1l0.2,0.2"/>
	<path d="M73.8,38.9v-0.1l0.1-0.1h-0.1l-0.1-0.1h-1.1l-0.1,0.1h-0.1l0.2,0.2"/>
	<path d="M71.8,38.9v-0.1l0.1-0.1h-0.1l-0.1-0.1h-1.1l-0.1,0.1h-0.1l0.2,0.2"/>
	<path d="M69.7,38.9v-0.1l0.1-0.1h-0.1l-0.1-0.1h-1.1l-0.1,0.1h-0.1l0.2,0.2"/>
	<path d="M67.7,38.9v-0.1l0.1-0.1h-0.1l-0.1-0.1h-1.1l-0.1,0.1h-0.1l0.2,0.2"/>
	<path d="M65.7,38.9v-0.1l0.1-0.1h-0.1l-0.1-0.1h-1.1l-0.1,0.1h-0.1l0.2,0.2"/>
	<path d="M63.6,38.9v-0.1l0.1-0.1h-0.1l-0.1-0.1h-1.1l-0.1,0.1h-0.1l0.2,0.2"/>
	<path d="M61.6,38.9v-0.2l-0.1-0.1h-1.1l-0.1,0.1h-0.1l0.2,0.2"/>
	<path d="M59.5,38.9v-0.2l-0.1-0.1h-1.1l-0.1,0.1h-0.1l0.2,0.2"/>
	<path d="M57.5,38.9v-0.2l-0.1-0.1h-1.2v0.1h-0.1l0.1,0.1v0.1h0.1"/>
	<path d="M55.5,38.9v-0.2l-0.1-0.1h-1.2v0.1H54l0.1,0.1v0.1h0.1"/>
	<path d="M53.4,38.9v-0.2l-0.1-0.1h-1.2v0.1H52l0.1,0.1v0.1h0.1"/>
	<path d="M51.4,38.9v-0.2l-0.1-0.1h-1.2v0.1h-0.1l0.1,0.1v0.1h0.1"/>
	<path d="M49.3,38.9v-0.2l-0.1-0.1H48v0.1h-0.1l0.1,0.1v0.1h0.1"/>
	<path d="M47.3,38.9v-0.2l-0.1-0.1H46v0.1h-0.1l0.1,0.1v0.1h0.1"/>
	<path d="M45.3,38.9v-0.2l-0.1-0.1h-1.2v0.1h-0.1l0.1,0.1v0.1h0.1"/>
	<path d="M43.1,38.9v-0.1h0.1v-0.1h-0.1v-0.1h-1.2v0.1h-0.1l0.1,0.1v0.1H42"/>
	<path d="M41.1,38.9v-0.1h0.1v-0.1h-0.1v-0.1h-1.2v0.1h-0.1l0.1,0.1v0.1H40"/>
	<path d="M39,38.9v-0.1h0.1v-0.1H39v-0.1h-1.2v0.1h-0.1l0.1,0.1v0.1h0.1"/>
	<path d="M37,38.9v-0.1h0.1v-0.1H37v-0.1h-0.2l-0.1,0.1h-0.1l0.2,0.2"/>
	<path d="M235.1,55.2v-0.1h0.1V55h-0.1v-0.1h-1.2V55h-0.1v0.1h0.1v0.1h0.1"/>
	<path d="M233.1,55.2v-0.1h0.1V55h-0.1v-0.1h-1.2V55h-0.1v0.1h0.1v0.1h0.1"/>
	<path d="M231,55.2v-0.1h0.1V55H231v-0.1h-1.2V55h-0.1v0.1h0.1v0.1h0.1"/>
	<path d="M229,55.2v-0.1h0.1V55H229v-0.1h-1.2V55h-0.1v0.1h0.1v0.1h0.1"/>
	<path d="M226.9,55.2v-0.1h0.1V55h-0.1v-0.1h-1.2V55h-0.1v0.1h0.1v0.1h0.1"/>
	<path d="M224.9,55.2v-0.1h0.1V55h-0.1v-0.1h-1.2V55h-0.1v0.1h0.1v0.1h0.1"/>
	<path d="M222.9,55.2v-0.1h0.1V55h-0.1v-0.1h-1.2V55h-0.1v0.1h0.1v0.1h0.1"/>
	<path d="M220.8,55.2v-0.1h0.1V55h-0.1v-0.1h-1.2V55h-0.1v0.1h0.1v0.1h0.1"/>
	<path d="M218.8,55.2v-0.1h0.1V55h-0.1v-0.1h-1.2V55h-0.1v0.1h0.1v0.1h0.1"/>
	<path d="M216.7,55.2v-0.1h0.1V55h-0.1v-0.1h-1.2V55h-0.1v0.1h0.1v0.1h0.1"/>
	<path d="M214.7,55.2v-0.1h0.1V55h-0.1v-0.1h-1.2V55h-0.1v0.1h0.1v0.1h0.1"/>
	<path d="M212.7,55.2v-0.1h0.1V55h-0.1v-0.1h-1.2V55h-0.1v0.1h0.1v0.1"/>
	<path d="M210.6,55.2v-0.1h0.1V55h-0.1v-0.1h-1.2V55h-0.1v0.1h0.1v0.1"/>
	<path d="M208.6,55.2v-0.1h0.1V55h-0.1v-0.1h-1.2V55h-0.1v0.1h0.1v0.1"/>
	<path d="M206.5,55.2v-0.1h0.1V55h-0.1v-0.1h-1.2V55h-0.1v0.1h0.1v0.1"/>
	<path d="M204.5,55.2v-0.1h0.1V55h-0.1v-0.1h-1.2V55h-0.1v0.1h0.1v0.1"/>
	<path d="M202.5,55.2v-0.1h0.1V55h-0.1v-0.1h-1.2V55h-0.1v0.1h0.1v0.1"/>
	<path d="M200.4,55.2v-0.1h0.1l-0.1-0.1v-0.1h-1.2V55h-0.1v0.1h0.1v0.1"/>
	<path d="M198.4,55.2v-0.1h0.1l-0.1-0.1v-0.1h-1.2V55h-0.1v0.1h0.1v0.1"/>
	<path d="M196.3,55.2v-0.1h0.1l-0.1-0.1v-0.1h-1.2V55H195v0.1h0.1v0.1"/>
	<path d="M194.3,55.2v-0.1h0.1l-0.1-0.1v-0.1h-1.2L193,55v0.1l0.1,0.1"/>
	<path d="M192.3,55.2v-0.1h0.1l-0.1-0.1v-0.1h-1.2l-0.1,0.1v0.1l0.1,0.1"/>
	<path d="M190.2,55.2v-0.1h0.1l-0.1-0.1v-0.1H189l-0.1,0.1v0.1l0.1,0.1"/>
	<path d="M188.2,55.2v-0.1h0.1l-0.1-0.1v-0.1H187l-0.1,0.1v0.1l0.1,0.1"/>
	<path d="M186.1,55.2v-0.1h0.1l-0.1-0.1v-0.1h-1.2l-0.1,0.1v0.1l0.1,0.1"/>
	<path d="M184.1,55.2v-0.1h0.1l-0.1-0.1v-0.1h-1.2l-0.1,0.1v0.1l0.1,0.1"/>
	<path d="M182.1,55.2v-0.1h0.1l-0.2-0.2h-1.1l-0.1,0.1v0.1l0.1,0.1"/>
	<path d="M180,55.2v-0.1h0.1l-0.2-0.2h-1.1l-0.1,0.1v0.1l0.1,0.1"/>
	<path d="M178,55.2v-0.1h0.1l-0.2-0.2h-1.1l-0.1,0.1v0.1l0.1,0.1"/>
	<path d="M175.9,55.2v-0.1h0.1l-0.2-0.2h-1.1l-0.2,0.2h0.1l0.1,0.1"/>
	<path d="M173.9,55.2v-0.1h0.1l-0.2-0.2h-1.1l-0.2,0.2h0.1l0.1,0.1"/>
	<path d="M171.9,55.2v-0.1h0.1l-0.2-0.2h-1.1l-0.2,0.2h0.1l0.1,0.1"/>
	<path d="M169.8,55.2v-0.1h0.1l-0.2-0.2h-1.1l-0.2,0.2h0.1l0.1,0.1"/>
	<path d="M167.8,55.2v-0.1h0.1l-0.2-0.2h-1.1l-0.2,0.2h0.1l0.1,0.1"/>
	<path d="M165.7,55.2v-0.1h0.1l-0.2-0.2h-1.1l-0.2,0.2h0.1l0.1,0.1"/>
	<path d="M163.7,55.2v-0.1h0.1l-0.2-0.2h-1.1l-0.2,0.2h0.1l0.1,0.1"/>
	<path d="M161.7,55.2V55l-0.1-0.1h-1.1l-0.2,0.2h0.1l0.1,0.1"/>
	<path d="M159.6,55.2V55l-0.1-0.1h-1.1l-0.2,0.2h0.1l0.1,0.1"/>
	<path d="M157.6,55.2V55l-0.1-0.1h-1.1l-0.2,0.2h0.1l0.1,0.1"/>
	<path d="M155.5,55.2V55l-0.1-0.1h-1.2V55l-0.1,0.1h0.1v0.1h0.1"/>
	<path d="M153.5,55.2V55l-0.1-0.1h-1.2V55l-0.1,0.1h0.1v0.1h0.1"/>
	<path d="M151.5,55.2V55l-0.1-0.1h-1.2V55l-0.1,0.1h0.1v0.1h0.1"/>
	<path d="M149.4,55.2V55l-0.1-0.1h-1.2V55l-0.1,0.1h0.1v0.1h0.1"/>
	<path d="M147.4,55.2V55l-0.1-0.1h-1.2V55l-0.1,0.1h0.1v0.1h0.1"/>
	<path d="M145.3,55.2V55l-0.1-0.1H144V55l-0.1,0.1h0.1v0.1h0.1"/>
	<path d="M143.3,55.2V55l-0.1-0.1H142V55l-0.1,0.1h0.1v0.1h0.1"/>
	<path d="M141.1,55.2v-0.1h0.1V55h-0.1v-0.1h-1.2V55l-0.1,0.1h0.1v0.1h0.1"/>
	<path d="M139.1,55.2v-0.1h0.1V55h-0.1v-0.1h-1.2V55l-0.1,0.1h0.1v0.1h0.1"/>
	<path d="M137.1,55.2v-0.1h0.1V55h-0.1v-0.1h-1.2V55h-0.1v0.1h0.1v0.1h0.1"/>
	<path d="M135,55.2v-0.1h0.1V55H135v-0.1h-1.2V55h-0.1v0.1h0.1v0.1h0.1"/>
	<path d="M133,55.2v-0.1h0.1V55H133v-0.1h-1.2V55h-0.1v0.1h0.1v0.1h0.1"/>
	<path d="M130.9,55.2v-0.1h0.1V55h-0.1v-0.1h-1.2V55h-0.1v0.1h0.1v0.1h0.1"/>
	<path d="M128.9,55.2v-0.1h0.1V55h-0.1v-0.1h-1.2V55h-0.1v0.1h0.1v0.1h0.1"/>
	<path d="M126.9,55.2v-0.1h0.1V55h-0.1v-0.1h-1.2V55h-0.1v0.1h0.1v0.1h0.1"/>
	<path d="M124.8,55.2v-0.1h0.1V55h-0.1v-0.1h-1.2V55h-0.1v0.1h0.1v0.1h0.1"/>
	<path d="M122.8,55.2v-0.1h0.1V55h-0.1v-0.1h-1.2V55h-0.1v0.1h0.1v0.1h0.1"/>
	<path d="M120.7,55.2v-0.1h0.1V55h-0.1v-0.1h-1.2V55h-0.1v0.1h0.1v0.1h0.1"/>
	<path d="M118.7,55.2v-0.1h0.1V55h-0.1v-0.1h-1.2V55h-0.1v0.1h0.1v0.1h0.1"/>
	<path d="M116.7,55.2v-0.1h0.1V55h-0.1v-0.1h-1.2V55h-0.1v0.1h0.1v0.1h0.1"/>
	<path d="M114.6,55.2v-0.1h0.1V55h-0.1v-0.1h-1.2V55h-0.1v0.1h0.1v0.1"/>
	<path d="M112.6,55.2v-0.1h0.1V55h-0.1v-0.1h-1.2V55h-0.1v0.1h0.1v0.1"/>
	<path d="M110.5,55.2v-0.1h0.1V55h-0.1v-0.1h-1.2V55h-0.1v0.1h0.1v0.1"/>
	<path d="M108.5,55.2v-0.1h0.1V55h-0.1v-0.1h-1.2V55h-0.1v0.1h0.1v0.1"/>
	<path d="M106.5,55.2v-0.1h0.1V55h-0.1v-0.1h-1.2V55h-0.1v0.1h0.1v0.1"/>
	<path d="M104.4,55.2v-0.1h0.1V55h-0.1v-0.1h-1.2V55h-0.1v0.1h0.1v0.1"/>
	<path d="M102.4,55.2v-0.1h0.1l-0.1-0.1v-0.1h-1.2V55h-0.1v0.1h0.1v0.1"/>
	<path d="M100.3,55.2v-0.1h0.1l-0.1-0.1v-0.1h-1.2V55H99v0.1h0.1v0.1"/>
	<path d="M98.3,55.2v-0.1h0.1L98.3,55v-0.1h-1.2V55H97v0.1h0.1v0.1"/>
	<path d="M96.3,55.2v-0.1h0.1L96.3,55v-0.1h-1.2L94.9,55v0.1l0.1,0.1"/>
	<path d="M94.2,55.2v-0.1h0.1L94.2,55v-0.1H93L92.9,55v0.1l0.1,0.1"/>
	<path d="M92.2,55.2v-0.1h0.1L92.2,55v-0.1H91L90.9,55v0.1l0.1,0.1"/>
	<path d="M90.1,55.2v-0.1h0.1L90.1,55v-0.1h-1.2L88.8,55v0.1l0.1,0.1"/>
	<path d="M88.1,55.2v-0.1h0.1L88.1,55v-0.1h-1.2L86.8,55v0.1l0.1,0.1"/>
	<path d="M86.1,55.2v-0.1h0.1L86.1,55v-0.1h-1.2L84.7,55v0.1l0.1,0.1"/>
	<path d="M84,55.2v-0.1h0.1l-0.2-0.2h-1.1L82.7,55v0.1l0.1,0.1"/>
	<path d="M82,55.2v-0.1h0.1l-0.2-0.2h-1.1L80.7,55v0.1l0.1,0.1"/>
	<path d="M79.9,55.2v-0.1h0.1l-0.2-0.2h-1.1L78.6,55v0.1l0.1,0.1"/>
	<path d="M77.9,55.2v-0.1H78l-0.2-0.2h-1.1l-0.2,0.2h0.1l0.1,0.1"/>
	<path d="M75.9,55.2v-0.1H76l-0.2-0.2h-1.1l-0.2,0.2h0.1l0.1,0.1"/>
	<path d="M73.8,55.2v-0.1h0.1l-0.2-0.2h-1.1l-0.2,0.2h0.1l0.1,0.1"/>
	<path d="M71.8,55.2v-0.1h0.1l-0.2-0.2h-1.1l-0.2,0.2h0.1l0.1,0.1"/>
	<path d="M69.7,55.2v-0.1h0.1l-0.2-0.2h-1.1l-0.2,0.2h0.1l0.1,0.1"/>
	<path d="M67.7,55.2v-0.1h0.1l-0.2-0.2h-1.1l-0.2,0.2h0.1l0.1,0.1"/>
	<path d="M65.7,55.2v-0.1h0.1l-0.2-0.2h-1.1l-0.2,0.2h0.1l0.1,0.1"/>
	<path d="M63.6,55.2v-0.1h0.1l-0.2-0.2h-1.1l-0.2,0.2h0.1l0.1,0.1"/>
	<path d="M61.6,55.2V55l-0.1-0.1h-1.1l-0.2,0.2h0.1l0.1,0.1"/>
	<path d="M59.5,55.2V55l-0.1-0.1h-1.1l-0.2,0.2h0.1l0.1,0.1"/>
	<path d="M57.5,55.2V55l-0.1-0.1h-1.2V55l-0.1,0.1h0.1v0.1h0.1"/>
	<path d="M55.5,55.2V55l-0.1-0.1h-1.2V55L54,55.1h0.1v0.1h0.1"/>
	<path d="M53.4,55.2V55l-0.1-0.1h-1.2V55L52,55.1h0.1v0.1h0.1"/>
	<path d="M51.4,55.2V55l-0.1-0.1h-1.2V55l-0.1,0.1h0.1v0.1h0.1"/>
	<path d="M49.3,55.2V55l-0.1-0.1H48V55l-0.1,0.1H48v0.1h0.1"/>
	<path d="M47.3,55.2V55l-0.1-0.1H46V55l-0.1,0.1H46v0.1h0.1"/>
	<path d="M45.3,55.2V55l-0.1-0.1h-1.2V55l-0.1,0.1h0.1v0.1h0.1"/>
	<path d="M43.1,55.2v-0.1h0.1V55h-0.1v-0.1h-1.2V55l-0.1,0.1h0.1v0.1H42"/>
	<path d="M41.1,55.2v-0.1h0.1V55h-0.1v-0.1h-1.2V55l-0.1,0.1h0.1v0.1H40"/>
	<path d="M39,55.2v-0.1h0.1V55H39v-0.1h-1.2V55l-0.1,0.1h0.1v0.1h0.1"/>
	<path d="M37,55.2v-0.1h0.1V55H37v-0.1h-0.2l-0.2,0.2h0.1l0.1,0.1"/>
	<path d="M125.5,3.6h-0.2v1.3l0.1,0.1l0.1-0.1V4.8"/>
	<path d="M125.5,5.6h-0.2V7l0.1,0.1l0.1-0.1V6.8"/>
	<path d="M125.5,7.7h-0.2V9l0.1,0.1l0.1-0.1V8.9"/>
	<path d="M125.5,9.7h-0.2V11l0.1,0.1l0.1-0.1v-0.1"/>
	<path d="M125.5,11.8h-0.2v1.3l0.1,0.1l0.1-0.1V13"/>
	<path d="M125.5,13.8h-0.2v1.3l0.1,0.1l0.1-0.1V15"/>
	<path d="M125.5,15.8h-0.2v1.3l0.1,0.1l0.1-0.1V17"/>
	<path d="M125.5,17.9h-0.2v1.3l0.1,0.1l0.1-0.1v-0.1"/>
	<path d="M125.5,19.9h-0.2v1.3l0.1,0.1l0.1-0.1v-0.1"/>
	<path d="M125.5,22.1V22h-0.2v1.3l0.1,0.1l0.1-0.1v-0.1"/>
	<path d="M125.5,24.1V24h-0.2v1.3l0.1,0.1l0.1-0.1v-0.1"/>
	<path d="M125.5,26.2V26h-0.2v1.3l0.1,0.1l0.1-0.1v-0.1"/>
	<path d="M125.5,28.2v-0.1h-0.2v1.3l0.1,0.1l0.1-0.1v-0.1"/>
	<path d="M125.5,30.2v-0.1h-0.2v1.3l0.1,0.1h0.1v-0.2"/>
	<path d="M125.5,32.3v-0.1h-0.2v1.3l0.1,0.1h0.1v-0.2"/>
	<path d="M125.5,34.3v-0.1h-0.2v1.3l0.1,0.1h0.1v-0.2"/>
	<path d="M125.5,36.4v-0.1h-0.2v1.3l0.1,0.1h0.1v-0.2"/>
	<path d="M125.5,38.4v-0.1h-0.2v1.3l0.1,0.1h0.1v-0.2"/>
	<path d="M125.5,40.4v-0.1h-0.2v1.3l0.1,0.1h0.1v-0.2"/>
	<path d="M125.5,42.5v-0.1h-0.2v1.3l0.1,0.1h0.1v-0.2"/>
	<path d="M125.7,44.5l-0.1-0.1h-0.2v1.3l0.1,0.1h0.1v-0.1h0.1v-0.1"/>
	<path d="M125.7,46.6l-0.1-0.1h-0.2v1.3l0.1,0.1h0.1v-0.1h0.1v-0.1"/>
	<path d="M125.7,48.6l-0.1-0.1h-0.2v1.3l0.1,0.1h0.1v-0.1h0.1v-0.1"/>
	<path d="M125.7,50.6l-0.1-0.1h-0.2v1.3l0.1,0.1h0.1v-0.1h0.1v-0.1"/>
	<path d="M125.7,52.7l-0.1-0.1h-0.2v1.3l0.1,0.1h0.1v-0.1h0.1v-0.1"/>
	<path d="M125.7,54.7l-0.1-0.1h-0.2v1.3l0.1,0.1h0.1v-0.1h0.1v-0.1"/>
	<path d="M125.7,56.8l-0.1-0.1h-0.2V58h0.1v0.1h0.1l0.1-0.1v-0.1"/>
	<path d="M125.7,58.8v-0.1h-0.2l-0.1,0.1V60h0.1v0.1h0.1l0.1-0.1"/>
	<path d="M125.7,60.8v-0.1h-0.2l-0.1,0.1V62h0.1v0.1h0.1l0.1-0.1"/>
	<path d="M125.7,62.9v-0.1h-0.2l-0.1,0.1v1.2h0.1v0.1h0.1l0.1-0.1"/>
	<path d="M125.7,64.9v-0.1h-0.2l-0.1,0.1v1.2h0.1v0.1h0.1l0.1-0.1"/>
	<path d="M125.7,67v-0.1h-0.2l-0.1,0.1v1.2h0.1v0.1h0.1l0.1-0.1"/>
	<path d="M125.7,69v-0.1h-0.2l-0.1,0.1v1.2h0.1v0.1h0.1l0.1-0.1"/>
	<path d="M125.7,71v-0.1h-0.2v1.4h0.1l0.1-0.1"/>
	<path d="M125.7,73.1V73h-0.2v1.4h0.1l0.1-0.1"/>
	<path d="M125.7,75.1l-0.1-0.1h-0.1v1.4h0.1l0.1-0.1"/>
	<path d="M125.7,77.2l-0.1-0.1h-0.1v1.4h0.1l0.1-0.1"/>
	<path d="M125.7,79.2l-0.1-0.1h-0.1v1.4h0.1l0.1-0.1"/>
	<path d="M125.7,81.2l-0.1-0.1h-0.1v1.4h0.1l0.1-0.1"/>
	<path d="M125.7,83.3l-0.1-0.1h-0.1v1.3l0.1,0.1h0.1v-0.1"/>
	<path d="M125.7,85.3v-0.1h-0.1l-0.1,0.1v1.3h0.2v-0.1"/>
	<path d="M125.7,87.4v-0.1h-0.1l-0.1,0.1v1.3h0.2v-0.1"/>
	<path d="M125.7,89.4v-0.1h-0.1l-0.1,0.1v1.3h0.2v-0.1"/>
	<path d="M125.7,91.4v-0.1h-0.1l-0.1,0.1v1.3h0.2v-0.1"/>
	<path d="M125.7,93.5v-0.1h-0.1l-0.1,0.1v1.3h0.2v-0.1"/>
	<path d="M125.7,95.5v-0.1h-0.1l-0.1,0.1v1.3h0.2v-0.1"/>
	<path d="M125.8,97.6h-0.1v-0.1h-0.1l-0.1,0.1v1.3h0.2l0.1-0.1"/>
	<path d="M125.8,99.6h-0.1v-0.1h-0.1l-0.1,0.1v1.3h0.2l0.1-0.1"/>
	<path d="M125.8,101.6h-0.1v-0.1h-0.1l-0.1,0.1v1.3h0.2l0.1-0.1"/>
	<path d="M125.8,103.7h-0.1v-0.1h-0.1l-0.1,0.1v1.3h0.2l0.1-0.1"/>
	<path d="M125.8,105.7h-0.1v-0.1h-0.1l-0.1,0.1v1.3h0.2l0.1-0.1"/>
	<path d="M125.8,107.8h-0.1v-0.1h-0.1l-0.1,0.1v1.3h0.2l0.1-0.1"/>
	<path d="M125.8,109.8h-0.1v-0.1h-0.1l-0.1,0.1v1.2l0.1,0.1v0.1h0.1v-0.1h0.1V111"/>
	<path d="M125.8,111.8l-0.1-0.1h-0.1v0.1h-0.1v1.2l0.1,0.1v0.1h0.1v-0.1h0.1V113"/>
	<path d="M125.8,113.9l-0.1-0.1h-0.1v0.1h-0.1v1.2l0.1,0.1v0.1h0.1v-0.1h0.1v-0.1"/>
	<path d="M125.8,115.9l-0.1-0.1h-0.1v0.1h-0.1v1.2l0.1,0.1v0.1h0.1v-0.1h0.1v-0.1"/>
	<path d="M125.8,118l-0.1-0.1h-0.1v0.1h-0.1v1.2l0.1,0.1v0.1h0.1v-0.1h0.1v-0.1"/>
	<path d="M125.8,120l-0.1-0.1h-0.1v0.1h-0.1v1.2l0.1,0.1v0.1h0.1v-0.1h0.1v-0.1"/>
	<path d="M125.8,122l-0.1-0.1h-0.1v0.1h-0.1v1.2l0.1,0.1v0.1h0.1v-0.1h0.1v-0.1"/>
	<path d="M125.8,124.1l-0.1-0.1h-0.1v1.6h0.1v-0.1h0.1v-0.1"/>
	<path d="M125.8,126.1l-0.1-0.1h-0.1v1.6h0.1v-0.1h0.1v-0.1"/>
	<path d="M125.8,128.2l-0.1-0.1h-0.1v1.6h0.1v-0.1h0.1v-0.1"/>
	<path d="M125.8,130.2h-0.2v1.4h0.1v-0.1h0.1v-0.1"/>
	<path d="M125.8,132.2h-0.2v1.4h0.1v-0.1h0.1v-0.1"/>
	<path d="M125.8,134.3h-0.2v1.4h0.1v-0.1h0.1v-0.1"/>
	<path d="M125.8,136.3h-0.2v1.3l0.1,0.1l0.1-0.1v-0.1"/>
	<path d="M125.8,138.4h-0.2v1.3l0.1,0.1l0.1-0.1v-0.1"/>
	<path d="M125.8,140.4h-0.2v1.3l0.1,0.1l0.1-0.1v-0.1"/>
	<path d="M125.8,142.4h-0.2v1.3l0.1,0.1l0.1-0.1v-0.1"/>
	<path d="M125.8,144.5h-0.2v1.3l0.1,0.1l0.1-0.1v-0.1"/>
	<path d="M125.8,146.5h-0.2v1.3l0.1,0.1l0.1-0.1v-0.1"/>
	<path d="M125.8,148.6h-0.2v1.3l0.1,0.1l0.1-0.1v-0.1"/>
	<path d="M125.8,150.6h-0.2v1.3l0.1,0.1l0.1-0.1v-0.1"/>
	<path d="M125.8,152.6h-0.2v1.3l0.1,0.1l0.1-0.1v-0.1"/>
	<path d="M125.8,154.7h-0.2v1.3l0.1,0.1l0.1-0.1v-0.1"/>
	<path d="M125.8,156.8v-0.1h-0.2v1.3l0.1,0.1l0.1-0.1v-0.1"/>
	<path d="M125.8,158.9v-0.1h-0.2v1.3l0.1,0.1l0.1-0.1V160"/>
	<path d="M125.8,160.9v-0.1h-0.2v1.3l0.1,0.1l0.1-0.1V162"/>
	<path d="M125.8,163v-0.1h-0.2v1.3h0.1v0.1h0.1V164"/>
	<path d="M125.8,165v-0.1h-0.2v1.3l0.1,0.1h0.1v-0.2"/>
	<path d="M125.8,167v-0.1h-0.2v1.3l0.1,0.1h0.1v-0.2"/>
	<path d="M125.8,169.1V169h-0.2v1.3l0.1,0.1h0.1v-0.2"/>
	<path d="M125.8,171.1V171h-0.2v1.3l0.1,0.1h0.1v-0.2"/>
	<path d="M125.8,173.2V173h-0.2v1.3l0.1,0.1h0.1v-0.2"/>
	<path d="M125.8,175.2v-0.1h-0.2v1.3l0.1,0.1h0.1v-0.2"/>
	<path d="M125.8,177.2v-0.1h-0.2v1.3l0.1,0.1h0.1v-0.1h0.1v-0.1"/>
	<path d="M125.9,179.3l-0.1-0.1h-0.2v1.3l0.1,0.1h0.1v-0.1h0.1v-0.1"/>
	<path d="M125.9,181.3l-0.1-0.1h-0.2v1.3l0.1,0.1h0.1v-0.1h0.1v-0.1"/>
	<path d="M125.9,183.4l-0.1-0.1h-0.2v1.3l0.1,0.1h0.1v-0.1h0.1v-0.1"/>
	<path d="M125.9,185.4l-0.1-0.1h-0.2v1.3l0.1,0.1h0.1v-0.1h0.1v-0.1"/>
	<path d="M125.9,187.4l-0.1-0.1h-0.2v1.3l0.1,0.1h0.1v-0.1h0.1v-0.1"/>
	<path d="M125.9,189.5l-0.1-0.1h-0.2v1.3h0.1l0.1,0.1v-0.1l0.1-0.1"/>
	<path d="M50.9,3.6h-0.4v1.3h0.1V5h0.1V4.9h0.1V4.8"/>
	<path d="M50.9,5.6h-0.4V7h0.1v0.1h0.1V7h0.1V6.8"/>
	<path d="M50.9,7.7h-0.4V9h0.1v0.1h0.1V9h0.1V8.9"/>
	<path d="M50.9,9.7h-0.4V11h0.1v0.1h0.1V11h0.1v-0.1"/>
	<path d="M50.9,11.8h-0.4v1.3h0.1v0.1h0.1v-0.1h0.1V13"/>
	<path d="M50.9,13.8h-0.4v1.3h0.1v0.1h0.1v-0.1h0.1V15"/>
	<path d="M50.9,15.8h-0.4v1.3h0.1v0.1h0.1v-0.1h0.1V17"/>
	<path d="M50.9,17.9h-0.4v1.3h0.1v0.1h0.1v-0.1h0.1v-0.1"/>
	<path d="M50.9,19.9h-0.4v1.3h0.1v0.1h0.1v-0.1h0.1v-0.1"/>
	<path d="M50.9,22.1V22h-0.4v1.3h0.1v0.1h0.1v-0.1h0.1v-0.1"/>
	<path d="M50.9,24.1V24h-0.4v1.3h0.1v0.1h0.1v-0.1h0.1v-0.1"/>
	<path d="M50.9,26.2V26h-0.4v1.3h0.1v0.1h0.1v-0.1h0.1v-0.1"/>
	<path d="M50.9,28.2v-0.1h-0.4v1.3h0.1v0.1h0.1v-0.1h0.1v-0.1"/>
	<path d="M50.9,30.2v-0.1h-0.4v1.3l0.1,0.1h0.1l0.1-0.1v-0.1"/>
	<path d="M50.9,32.3v-0.1h-0.4v1.3l0.1,0.1h0.1l0.1-0.1v-0.1"/>
	<path d="M50.9,34.3v-0.1h-0.4v1.3l0.1,0.1h0.1l0.1-0.1v-0.1"/>
	<path d="M50.9,36.4v-0.1h-0.4v1.3l0.1,0.1h0.1l0.1-0.1v-0.1"/>
	<path d="M50.9,38.4v-0.1h-0.4v1.3l0.1,0.1h0.1l0.1-0.1v-0.1"/>
	<path d="M50.9,40.4v-0.1h-0.4v1.3l0.1,0.1h0.1l0.1-0.1v-0.1"/>
	<path d="M50.9,42.5v-0.1h-0.4v1.3l0.1,0.1h0.1l0.1-0.1v-0.1"/>
	<path d="M50.9,44.5v-0.1h-0.4v1.3l0.1,0.1h0.1l0.1-0.1v-0.1"/>
	<path d="M50.9,46.6v-0.1h-0.4v1.3l0.1,0.1h0.1l0.1-0.1v-0.1"/>
	<path d="M50.9,48.6v-0.1h-0.4v1.3l0.1,0.1h0.1l0.1-0.1v-0.1"/>
	<path d="M50.9,50.6v-0.1h-0.2l-0.1,0.1v1.2h0.1V52h0.2v-0.2"/>
	<path d="M50.9,52.7v-0.1h-0.2l-0.1,0.1v1.2h0.1V54h0.2v-0.2"/>
	<path d="M50.9,54.7v-0.1h-0.2l-0.1,0.1v1.2h0.1V56h0.2v-0.2"/>
	<path d="M50.9,56.8v-0.1h-0.2l-0.1,0.1V58h0.1v0.1h0.2v-0.2"/>
	<path d="M50.9,58.8v-0.1h-0.2l-0.1,0.1V60h0.1v0.1h0.2V60"/>
	<path d="M50.9,60.8v-0.1h-0.2l-0.1,0.1V62h0.1v0.1h0.2V62"/>
	<path d="M50.9,62.9v-0.1h-0.2l-0.1,0.1v1.2h0.1v0.1h0.2v-0.1"/>
	<path d="M50.9,64.9v-0.1h-0.2l-0.1,0.1v1.2h0.1v0.1h0.2v-0.1"/>
	<path d="M50.9,67v-0.1h-0.2L50.5,67v1.2h0.1v0.1h0.2v-0.1"/>
	<path d="M50.9,69v-0.1h-0.2L50.5,69v1.2h0.1v0.1h0.2v-0.1"/>
	<path d="M50.9,71v-0.1h-0.2L50.5,71v1.2h0.1v0.1h0.2v-0.1"/>
	<path d="M50.9,73.1V73h-0.2l-0.1,0.1l0.1,1.2v0.1h0.2v-0.1"/>
	<path d="M50.9,75.1V75h-0.2v1.4h0.2v-0.1"/>
	<path d="M50.9,77.2V77h-0.2v1.4h0.2v-0.1"/>
	<path d="M50.9,79.2v-0.1h-0.2v1.4h0.2v-0.1"/>
	<path d="M50.9,81.2v-0.1h-0.2v1.4h0.2v-0.1"/>
	<path d="M50.9,83.3v-0.1h-0.2v1.4h0.2v-0.1"/>
	<path d="M50.9,85.3v-0.1h-0.2v1.4h0.2v-0.1"/>
	<path d="M50.9,87.4v-0.1h-0.2v1.4h0.2v-0.1"/>
	<path d="M50.9,89.4v-0.1h-0.2v1.4h0.2v-0.1"/>
	<path d="M50.9,91.4v-0.1h-0.2v1.4h0.2v-0.1"/>
	<path d="M50.9,93.5v-0.1h-0.2v1.4h0.2v-0.1"/>
	<path d="M50.9,95.5v-0.1h-0.2v1.4h0.2v-0.1"/>
	<path d="M50.9,97.6v-0.1h-0.1l-0.1,0.1v1.3h0.2v-0.1"/>
	<path d="M50.9,99.6v-0.1h-0.1l-0.1,0.1v1.3h0.2v-0.1"/>
	<path d="M50.9,101.6v-0.1h-0.1l-0.1,0.1v1.3h0.2v-0.1"/>
	<path d="M50.9,103.7v-0.1h-0.1l-0.1,0.1v1.3h0.2v-0.1"/>
	<path d="M50.9,105.7v-0.1h-0.1l-0.1,0.1v1.3h0.2v-0.1"/>
	<path d="M50.9,107.8v-0.1h-0.1l-0.1,0.1v1.3h0.2V109"/>
	<path d="M50.9,109.8v-0.1h-0.1l-0.1,0.1v1.3h0.1v0.1h0.1V111"/>
	<path d="M50.9,111.8v-0.1h-0.1l-0.1,0.1v1.3h0.1v0.1h0.1V113"/>
	<path d="M50.9,113.9v-0.1h-0.1l-0.1,0.1v1.3h0.1v0.1h0.1v-0.2"/>
	<path d="M50.9,115.9v-0.1h-0.1l-0.1,0.1v1.3h0.1v0.1h0.1v-0.2"/>
	<path d="M50.9,118v-0.1h-0.1l-0.1,0.1v1.3h0.1v0.1h0.1v-0.2"/>
	<path d="M51,120h-0.1v-0.1h-0.1l-0.1,0.1v1.3h0.1v0.1h0.1v-0.1l0.1-0.1"/>
	<path d="M51,122h-0.1v-0.1h-0.1l-0.1,0.1v1.3h0.1v0.1h0.1v-0.1l0.1-0.1"/>
	<path d="M51,124.1h-0.1V124h-0.1l-0.1,0.1v1.3h0.1v0.1h0.1v-0.1l0.1-0.1"/>
	<path d="M51,126.1h-0.1V126h-0.1l-0.1,0.1v1.3h0.1v0.1h0.1v-0.1l0.1-0.1"/>
	<path d="M51,128.2h-0.1V128h-0.1l-0.1,0.1v1.3h0.1v0.1h0.1v-0.1l0.1-0.1"/>
	<path d="M51,130.2h-0.4v1.3h0.1v0.1h0.1v-0.1l0.1-0.1"/>
	<path d="M51,132.2h-0.4v1.3h0.1v0.1h0.1v-0.1l0.1-0.1"/>
	<path d="M51,134.3h-0.4v1.3h0.1v0.1h0.1v-0.1l0.1-0.1"/>
	<path d="M51,136.3h-0.4v1.3h0.1v0.1h0.1v-0.1l0.1-0.1"/>
	<path d="M51,138.4h-0.4v1.3h0.1v0.1h0.1v-0.1H51v-0.1"/>
	<path d="M51,140.4h-0.4v1.3h0.1v0.1h0.1v-0.1H51v-0.1"/>
	<path d="M51,142.4h-0.4v1.3h0.1l0.1,0.1v-0.1H51v-0.1"/>
	<path d="M51,144.5h-0.4v1.3h0.1l0.1,0.1v-0.1H51v-0.1"/>
	<path d="M51,146.5h-0.4v1.3h0.1l0.1,0.1v-0.1H51v-0.1"/>
	<path d="M51,148.6h-0.4v1.3h0.1l0.1,0.1v-0.1H51v-0.1"/>
	<path d="M51,150.6h-0.4v1.3h0.1l0.1,0.1v-0.1H51v-0.1"/>
	<path d="M51,152.6h-0.4v1.3h0.1l0.1,0.1V154H51v-0.1"/>
	<path d="M51,154.7h-0.4v1.3h0.1l0.1,0.1V156H51v-0.1"/>
	<path d="M51,156.8v-0.1h-0.2l-0.1,0.1v1.2h0.1l0.1,0.1V158H51v-0.1"/>
	<path d="M51,158.9v-0.1h-0.2l-0.1,0.1v1.2h0.1l0.1,0.1v-0.1H51V160"/>
	<path d="M51,160.9v-0.1h-0.2l-0.1,0.1v1.2h0.1l0.1,0.1v-0.1H51V162"/>
	<path d="M51,163v-0.1h-0.2l-0.1,0.1v1.2h0.1l0.1,0.1v-0.1H51V164"/>
	<path d="M51,165v-0.1h-0.2l-0.1,0.1v1.2h0.1v0.1h0.1l0.1-0.1v-0.1"/>
	<path d="M51,167v-0.1h-0.2v1.4h0.1l0.1-0.1v-0.1"/>
	<path d="M51,169.1V169h-0.2v1.4h0.1l0.1-0.1v-0.1"/>
	<path d="M51,171.1V171h-0.2v1.4h0.1l0.1-0.1v-0.1"/>
	<path d="M51,173.2V173h-0.2v1.4h0.1l0.1-0.1v-0.1"/>
	<path d="M51,175.2v-0.1h-0.2v1.4h0.1l0.1-0.1v-0.1"/>
	<path d="M51,177.2v-0.1h-0.2v1.4h0.1l0.1-0.1v-0.1"/>
	<path d="M51,179.3v-0.1h-0.2v1.4h0.1l0.1-0.1v-0.1"/>
	<path d="M51,181.3v-0.1h-0.2v1.4h0.1l0.1-0.1v-0.1"/>
	<path d="M51,183.4v-0.1h-0.2v1.4h0.1l0.1-0.1v-0.1"/>
	<path d="M51,185.4v-0.1h-0.2v1.4h0.1l0.1-0.1v-0.1"/>
	<path d="M51,187.4v-0.1h-0.2v1.4h0.1l0.1-0.1v-0.1"/>
	<path d="M51,189.5v-0.1h-0.2v0.5h0.1v0.1v-0.1H51"/>
	<path d="M36.3,191.4H37L37.1,7.8h-0.8"/>
	<path class="st4" d="M38.8,7.9l-2-4.2l-2.2,4.2"/>
	<text transform="matrix(1 0 0 1 34.949 198.5981)" class="st2 st3">0</text>
	<text transform="matrix(1 0 0 1 38.8097 198.5981)" class="st2 st3"> </text>
	<text transform="matrix(1 0 0 1 40.7299 198.5981)" class="st2 st3"> </text>
	<text transform="matrix(1 0 0 1 42.6501 198.5981)" class="st2 st3"> </text>
	<text transform="matrix(1 0 0 1 44.69 198.5981)" class="st2 st3"> </text>
	<text transform="matrix(1 0 0 1 46.6101 198.5981)" class="st2 st3">1</text>
	<text transform="matrix(1 0 0 1 50.4708 198.5981)" class="st2 st3">M</text>
	<text transform="matrix(1 0 0 1 56.3511 198.5981)" class="st2 st3">V</text>
	<text transform="matrix(1 0 0 1 61.1512 198.5981)" class="st2 st3">A</text>
	<text transform="matrix(1 0 0 1 66.071 198.5981)" class="st2 st3"> </text>
	<text transform="matrix(1 0 0 1 67.9912 198.5981)" class="st2 st3"> </text>
	<text transform="matrix(1 0 0 1 69.9114 198.5981)" class="st2 st3"> </text>
	<text transform="matrix(1 0 0 1 71.8315 198.5981)" class="st2 st3"> </text>
	<text transform="matrix(1 0 0 1 73.7517 198.5981)" class="st2 st3"> </text>
	<text transform="matrix(1 0 0 1 75.7916 198.5981)" class="st2 st3"> </text>
	<text transform="matrix(1 0 0 1 77.7118 198.5981)" class="st2 st3"> </text>
	<text transform="matrix(1 0 0 1 79.632 198.5981)" class="st2 st3"> </text>
	<text transform="matrix(1 0 0 1 81.5521 198.5981)" class="st2 st3"> </text>
	<text transform="matrix(1 0 0 1 83.592 198.5981)" class="st2 st3"> </text>
	<text transform="matrix(1 0 0 1 85.5122 198.5981)" class="st2 st3"> </text>
	<text transform="matrix(1 0 0 1 87.4324 198.5981)" class="st2 st3"> </text>
	<text transform="matrix(1 0 0 1 89.3526 198.5981)" class="st2 st3"> </text>
	<text transform="matrix(1 0 0 1 91.3925 198.5981)" class="st2 st3"> </text>
	<text transform="matrix(1 0 0 1 93.3126 198.5981)" class="st2 st3"> </text>
	<text transform="matrix(1 0 0 1 95.2328 198.5981)" class="st2 st3"> </text>
	<text transform="matrix(1 0 0 1 97.153 198.5981)" class="st2 st3"> </text>
	<text transform="matrix(1 0 0 1 99.1929 198.5981)" class="st2 st3"> </text>
	<text transform="matrix(1 0 0 1 101.1131 198.5981)" class="st2 st3"> </text>
	<text transform="matrix(1 0 0 1 103.0332 198.5981)" class="st2 st3"> </text>
	<text transform="matrix(1 0 0 1 104.9534 198.5981)" class="st2 st3"> </text>
	<text transform="matrix(1 0 0 1 106.8736 198.5981)" class="st2 st3"> </text>
	<text transform="matrix(1 0 0 1 108.9135 198.5981)" class="st2 st3"> </text>
	<text transform="matrix(1 0 0 1 110.8337 198.5981)" class="st2 st3"> </text>
	<text transform="matrix(1 0 0 1 112.7539 198.5981)" class="st2 st3"> </text>
	<text transform="matrix(1 0 0 1 114.674 198.5981)" class="st2 st3"> </text>
	<text transform="matrix(1 0 0 1 116.5942 198.5981)" class="st2 st3"> </text>
	<text transform="matrix(1 0 0 1 118.6341 198.5981)" class="st2 st3">1</text>
	<text transform="matrix(1 0 0 1 122.4948 198.5981)" class="st2 st3">0</text>
	<text transform="matrix(1 0 0 1 126.3554 198.5981)" class="st2 st3"> </text>
	<text transform="matrix(1 0 0 1 128.3953 198.5981)" class="st2 st3">M</text>
	<text transform="matrix(1 0 0 1 134.1552 198.5981)" class="st2 st3">V</text>
	<text transform="matrix(1 0 0 1 138.9553 198.5981)" class="st2 st3">A</text>
	<text transform="matrix(1 0 0 1 143.8751 198.5981)" class="st2 st3"> </text>
	<text transform="matrix(1 0 0 1 145.7953 198.5981)" class="st2 st3"> </text>
	<text transform="matrix(1 0 0 1 147.7155 198.5981)" class="st2 st3"> </text>
	<text transform="matrix(1 0 0 1 149.7554 198.5981)" class="st2 st3"> </text>
	<text transform="matrix(1 0 0 1 151.6756 198.5981)" class="st2 st3"> </text>
	<text transform="matrix(1 0 0 1 153.5957 198.5981)" class="st2 st3"> </text>
	<text transform="matrix(1 0 0 1 155.5159 198.5981)" class="st2 st3"> </text>
	<text transform="matrix(1 0 0 1 157.4361 198.5981)" class="st2 st3"> </text>
	<text transform="matrix(1 0 0 1 159.476 198.5981)" class="st2 st3"> </text>
	<text transform="matrix(1 0 0 1 161.3962 198.5981)" class="st2 st3"> </text>
	<text transform="matrix(1 0 0 1 163.3164 198.5981)" class="st2 st3"> </text>
	<text transform="matrix(1 0 0 1 165.2366 198.5981)" class="st2 st3"> </text>
	<text transform="matrix(1 0 0 1 167.1568 198.5981)" class="st2 st3"> </text>
	<text transform="matrix(1 0 0 1 169.1967 198.5981)" class="st2 st3"> </text>
	<text transform="matrix(1 0 0 1 171.1169 198.5981)" class="st2 st3"> </text>
	<text transform="matrix(1 0 0 1 173.0371 198.5981)" class="st2 st3"> </text>
	<text transform="matrix(1 0 0 1 174.9573 198.5981)" class="st2 st3"> </text>
	<text transform="matrix(1 0 0 1 176.9972 198.5981)" class="st2 st3"> </text>
	<text transform="matrix(1 0 0 1 178.9174 198.5981)" class="st2 st3"> </text>
	<text transform="matrix(1 0 0 1 180.8376 198.5981)" class="st2 st3"> </text>
	<text transform="matrix(1 0 0 1 182.8775 198.5981)" class="st2 st3"> </text>
	<text transform="matrix(1 0 0 1 184.7977 198.5981)" class="st2 st3"> </text>
	<text transform="matrix(1 0 0 1 194.5176 198.5981)" class="st2 st3">1</text>
	<text transform="matrix(1 0 0 1 198.3783 198.5981)" class="st2 st3">0</text>
	<text transform="matrix(1 0 0 1 202.3383 198.5981)" class="st2 st3">0</text>
	<text transform="matrix(1 0 0 1 206.199 198.5981)" class="st2 st3"> </text>
	<text transform="matrix(1 0 0 1 208.1192 198.5981)" class="st2 st3">M</text>
	<text transform="matrix(1 0 0 1 213.9994 198.5981)" class="st2 st3">V</text>
	<text transform="matrix(1 0 0 1 218.7995 198.5981)" class="st2 st3">A</text>
	<text transform="matrix(1 0 0 1 223.7193 198.5981)" class="st2 st3"> </text>
	<text transform="matrix(1 0 0 1 225.6395 198.5981)" class="st2 st3"> </text>
	<text transform="matrix(1 0 0 1 227.5597 198.5981)" class="st2 st3"> </text>
	<text transform="matrix(1 0 0 1 229.5996 198.5981)" class="st2 st3"> </text>
	<text transform="matrix(1 0 0 1 231.5198 198.5981)" class="st2 st3"> </text>
	<text transform="matrix(1 0 0 1 233.44 198.5981)" class="st2 st3"> </text>
	<text transform="matrix(1 0 0 1 235.3602 198.5981)" class="st2 st3"> </text>
	<text transform="matrix(1 0 0 1 237.2804 198.5981)" class="st2 st3"> </text>
	<text transform="matrix(1 0 0 1 239.3203 198.5981)" class="st2 st3"> </text>
	<text transform="matrix(1 0 0 1 241.2405 198.5981)" class="st2 st3"> </text>
	<text transform="matrix(1 0 0 1 243.1607 198.5981)" class="st2 st3"> </text>
	<text transform="matrix(1 0 0 1 245.0809 198.5981)" class="st2 st3"> </text>
	<text transform="matrix(1 0 0 1 247.1207 198.5981)" class="st2 st3"> </text>
	<text transform="matrix(1 0 0 1 249.0409 198.5981)" class="st2 st3"> </text>
	<text transform="matrix(1 0 0 1 250.9611 198.5981)" class="st2 st3"> </text>
	<text transform="matrix(1 0 0 1 252.8813 198.5981)" class="st2 st3"> </text>
	<text transform="matrix(1 0 0 1 254.8015 198.5981)" class="st2 st3"> </text>
	<text transform="matrix(1 0 0 1 256.8414 198.5981)" class="st2 st3"> </text>
	<text transform="matrix(1 0 0 1 258.7616 198.5981)" class="st2 st3"> </text>
	<text transform="matrix(1 0 0 1 260.6818 198.5981)" class="st2 st3"> </text>
	<text transform="matrix(1 0 0 1 262.602 198.5981)" class="st2 st3"> </text>
	<text transform="matrix(1 0 0 1 264.5222 198.5981)" class="st2 st3"> </text>
	<text transform="matrix(1 0 0 1 266.5621 198.5981)" class="st2 st3"> </text>
	<text transform="matrix(1 0 0 1 268.4823 198.5981)" class="st2 st3">1</text>
	<text transform="matrix(1 0 0 1 272.3429 198.5981)" class="st2 st3">0</text>
	<text transform="matrix(1 0 0 1 276.303 198.5981)" class="st2 st3">0</text>
	<text transform="matrix(1 0 0 1 280.1636 198.5981)" class="st2 st3">0</text>
	<text transform="matrix(1 0 0 1 284.1237 198.5981)" class="st2 st3"> </text>
	<text transform="matrix(1 0 0 1 286.0439 198.5981)" class="st2 st3">M</text>
	<text transform="matrix(1 0 0 1 291.8037 198.5981)" class="st2 st3">V</text>
	<text transform="matrix(1 0 0 1 296.6039 198.5981)" class="st2 st3">A</text>
	<text transform="matrix(1 0 0 1 301.5237 198.5981)" class="st2 st3"> </text>
	<g transform="matrix(.3611765,0,0,.36153848,116.592098,368.15434)">
		
			<image style="overflow:visible;enable-background:new    ;" width="102" height="78" id="image_0" xlink:href="5548C7EE.jpg"  transform="matrix(1 0 0 1 -141.9894 -567.5659)">
		</image>
	</g>
	<text transform="matrix(1 0 0 1 11.5491 40.7981)" class="st2 st3">3</text>
	<text transform="matrix(1 0 0 1 15.395 40.7981)" class="st2 st3">0</text>
	<text transform="matrix(1 0 0 1 19.241 40.7981)" class="st2 st3">0</text>
	<text transform="matrix(1 0 0 1 23.201 40.7981)" class="st2 st3"> </text>
	<text transform="matrix(1 0 0 1 25.1212 40.7981)" class="st2 st3">k</text>
	<text transform="matrix(1 0 0 1 29.0813 40.7981)" class="st2 st3">V</text>
	<text transform="matrix(1 0 0 1 11.5491 57.5982)" class="st2 st3">1</text>
	<text transform="matrix(1 0 0 1 15.395 57.5982)" class="st2 st3">5</text>
	<text transform="matrix(1 0 0 1 19.241 57.5982)" class="st2 st3">0</text>
	<text transform="matrix(1 0 0 1 23.201 57.5982)" class="st2 st3"> </text>
	<text transform="matrix(1 0 0 1 25.1212 57.5982)" class="st2 st3">k</text>
	<text transform="matrix(1 0 0 1 29.0813 57.5982)" class="st2 st3">V</text>
	<text transform="matrix(1 0 0 1 15.3887 82.7978)" class="st2 st3">1</text>
	<text transform="matrix(1 0 0 1 19.3488 82.7978)" class="st2 st3">5</text>
	<text transform="matrix(1 0 0 1 23.1884 82.7978)" class="st2 st3"> </text>
	<text transform="matrix(1 0 0 1 25.1086 82.7978)" class="st2 st3">k</text>
	<text transform="matrix(1 0 0 1 29.0687 82.7978)" class="st2 st3">V</text>
	<text transform="matrix(1 0 0 1 15.3887 122.9977)" class="st2 st3">7</text>
	<text transform="matrix(1 0 0 1 19.3488 122.9977)" class="st2 st3">.</text>
	<text transform="matrix(1 0 0 1 21.269 122.9977)" class="st2 st3">2</text>
	<text transform="matrix(1 0 0 1 25.1086 122.9977)" class="st2 st3">k</text>
	<text transform="matrix(1 0 0 1 29.0687 122.9977)" class="st2 st3">V</text>
	<text transform="matrix(1 0 0 1 13.4685 152.8778)" class="st2 st3">2</text>
	<text transform="matrix(1 0 0 1 17.3082 152.8778)" class="st2 st3">.</text>
	<text transform="matrix(1 0 0 1 19.2284 152.8778)" class="st2 st3">3</text>
	<text transform="matrix(1 0 0 1 23.1884 152.8778)" class="st2 st3"> </text>
	<text transform="matrix(1 0 0 1 25.1086 152.8778)" class="st2 st3">k</text>
	<text transform="matrix(1 0 0 1 29.0687 152.8778)" class="st2 st3">V</text>
	<text transform="matrix(1 0 0 1 15.3887 169.6778)" class="st2 st3">6</text>
	<text transform="matrix(1 0 0 1 19.3488 169.6778)" class="st2 st3">9</text>
	<text transform="matrix(1 0 0 1 23.1884 169.6778)" class="st2 st3">0</text>
	<text transform="matrix(1 0 0 1 27.0281 169.6778)" class="st2 st3"> </text>
	<text transform="matrix(1 0 0 1 29.068 169.6778)" class="st2 st3">V</text>
	<path d="M31.9,186.2v0.8l294.1-0.2V186"/>
	<path class="st4" d="M325.9,188.5l4.3-2l-4.3-2.2"/>
	<path class="st5" d="M99.7,166.7H36.5v19.6h63.2V166.7z"/>
	<text transform="matrix(1 0 0 1 39.509 174.9581)" class="st2 st3">L</text>
	<text transform="matrix(1 0 0 1 43.8366 174.9581)" class="st2 st3">V</text>
	<text transform="matrix(1 0 0 1 48.5562 174.9581)" class="st2 st3">-</text>
	<text transform="matrix(1 0 0 1 50.8362 174.9581)" class="st2 st3">I</text>
	<text transform="matrix(1 0 0 1 52.7564 174.9581)" class="st2 st3">G</text>
	<text transform="matrix(1 0 0 1 58.2531 174.9581)" class="st2 st3">B</text>
	<text transform="matrix(1 0 0 1 63.2933 174.9581)" class="st2 st3">T</text>
	<text transform="matrix(1 0 0 1 39.509 183.3584)" class="st2 st3">M</text>
	<text transform="matrix(1 0 0 1 45.3858 183.3584)" class="st2 st3">o</text>
	<text transform="matrix(1 0 0 1 49.586 183.3584)" class="st2 st3">d</text>
	<text transform="matrix(1 0 0 1 53.9086 183.3584)" class="st2 st3">u</text>
	<text transform="matrix(1 0 0 1 58.2313 183.3584)" class="st2 st3">l</text>
	<text transform="matrix(1 0 0 1 60.1515 183.3584)" class="st2 st3">e</text>
	<path class="st0" d="M53.3,118.6l-13.6,43.7h68.2v-43.7H53.3z"/>
	<path class="st1" d="M53.3,118.6l-13.6,43.7h68.2v-43.7H53.3z"/>
	<text transform="matrix(1 0 0 1 54.149 126.1181)" class="st2 st3">H</text>
	<text transform="matrix(1 0 0 1 59.2929 126.1181)" class="st2 st3">V</text>
	<text transform="matrix(1 0 0 1 63.9725 126.1181)" class="st2 st3">-</text>
	<text transform="matrix(1 0 0 1 66.2525 126.1181)" class="st2 st3">I</text>
	<text transform="matrix(1 0 0 1 68.1727 126.1181)" class="st2 st3">G</text>
	<text transform="matrix(1 0 0 1 73.7086 126.1181)" class="st2 st3">B</text>
	<text transform="matrix(1 0 0 1 78.7488 126.1181)" class="st2 st3">T</text>
	<text transform="matrix(1 0 0 1 54.149 134.5184)" class="st2 st3">M</text>
	<text transform="matrix(1 0 0 1 60.0265 134.5184)" class="st2 st3">o</text>
	<text transform="matrix(1 0 0 1 64.3499 134.5184)" class="st2 st3">d</text>
	<text transform="matrix(1 0 0 1 68.5501 134.5184)" class="st2 st3">u</text>
	<text transform="matrix(1 0 0 1 72.8699 134.5184)" class="st2 st3">l</text>
	<text transform="matrix(1 0 0 1 74.7901 134.5184)" class="st2 st3">e</text>
	<path d="M107.3,80.3V80l-0.1-0.1H106V80l-0.1,0.1h0.1v0.1h0.1"/>
	<path d="M105.3,80.3V80l-0.1-0.1h-1.2V80l-0.1,0.1h0.1v0.1h0.1"/>
	<path d="M103.2,80.3V80l-0.1-0.1h-1.2V80l-0.1,0.1h0.1v0.1h0.1"/>
	<path d="M101.2,80.3V80l-0.1-0.1h-1.2V80l-0.1,0.1h0.1v0.1h0.1"/>
	<path d="M99.1,80.3V80L99,79.9h-1.2V80l-0.1,0.1h0.1v0.1h0.1"/>
	<path d="M97.1,80.3V80L97,79.9h-1.2V80l-0.1,0.1h0.1v0.1h0.1"/>
	<path d="M94.9,80.3v-0.1h0.1V80h-0.1v-0.1h-1.2V80l-0.1,0.1h0.1v0.1h0.1"/>
	<path d="M92.9,80.3v-0.1H93V80h-0.1v-0.1h-1.2V80l-0.1,0.1h0.1v0.1h0.1"/>
	<path d="M90.9,80.3v-0.1H91V80h-0.1v-0.1h-1.2V80l-0.1,0.1h0.1v0.1h0.1"/>
	<path d="M88.8,80.3v-0.1h0.1V80h-0.1v-0.1h-1.2V80h-0.1v0.1h0.1v0.1h0.1"/>
	<path d="M86.8,80.3v-0.1h0.1V80h-0.1v-0.1h-1.2V80h-0.1v0.1h0.1v0.1h0.1"/>
	<path d="M84.7,80.3v-0.1h0.1V80h-0.1v-0.1h-1.2V80h-0.1v0.1h0.1v0.1h0.1"/>
	<path d="M82.7,80.3v-0.1h0.1V80h-0.1v-0.1h-1.2V80h-0.1v0.1h0.1v0.1h0.1"/>
	<path d="M80.7,80.3v-0.1h0.1V80h-0.1v-0.1h-1.2V80h-0.1v0.1h0.1v0.1h0.1"/>
	<path d="M78.6,80.3v-0.1h0.1V80h-0.1v-0.1h-1.2V80h-0.1v0.1h0.1v0.1h0.1"/>
	<path d="M76.6,80.3v-0.1h0.1V80h-0.1v-0.1h-1.2V80h-0.1v0.1h0.1v0.1h0.1"/>
	<path d="M74.5,80.3v-0.1h0.1V80h-0.1v-0.1h-1.2V80h-0.1v0.1h0.1v0.1h0.1"/>
	<path d="M72.5,80.3v-0.1h0.1V80h-0.1v-0.1h-1.2V80h-0.1v0.1h0.1v0.1h0.1"/>
	<path d="M70.5,80.3v-0.1h0.1V80h-0.1v-0.1h-1.2V80h-0.1v0.1h0.1v0.1h0.1"/>
	<path d="M68.4,80.3v-0.1h0.1V80h-0.1v-0.1h-1.2V80h-0.1v0.1h0.1v0.1"/>
	<path d="M66.4,80.3v-0.1h0.1V80h-0.1v-0.1h-1.2V80h-0.1v0.1h0.1v0.1"/>
	<path d="M64.3,80.3v-0.1h0.1V80h-0.1v-0.1h-1.2V80H63v0.1h0.1v0.1"/>
	<path d="M62.3,80.3v-0.1h0.1V80h-0.1v-0.1h-1.2V80H61v0.1h0.1v0.1"/>
	<path d="M60.3,80.3v-0.1h0.1V80h-0.1v-0.1h-1.2V80h-0.1v0.1h0.1v0.1"/>
	<path d="M58.2,80.3v-0.1h0.1V80h-0.1v-0.1H57V80h-0.1v0.1H57v0.1"/>
	<path d="M56.2,80.3v-0.1h0.1L56.2,80v-0.1H55V80h-0.1v0.1H55v0.1"/>
	<path d="M54.1,80.3v-0.1h0.1L54.1,80v-0.1h-1.2V80h-0.1v0.1h0.1v0.1"/>
	<path d="M52.1,80.3v-0.1h0.1L52.1,80v-0.1h-1.2V80h-0.1v0.1h0.1v0.1"/>
	<path d="M50.1,80.3v-0.1h0.1L50.1,80v-0.1h-1.2L48.7,80v0.1l0.1,0.1"/>
	<path d="M48,80.3v-0.1h0.1L48,80v-0.1h-1.2L46.7,80v0.1l0.1,0.1"/>
	<path d="M46,80.3v-0.1h0.1L46,80v-0.1h-1.2L44.7,80v0.1l0.1,0.1"/>
	<path d="M43.9,80.3v-0.1h0.1L43.9,80v-0.1h-1.2L42.6,80v0.1l0.1,0.1"/>
	<path d="M41.9,80.3v-0.1H42L41.9,80v-0.1h-1.2L40.6,80v0.1l0.1,0.1"/>
	<path d="M39.9,80.3v-0.1H40L39.9,80v-0.1h-1.2L38.5,80v0.1l0.1,0.1"/>
	<path d="M37.8,80.3v-0.1h0.1L37.8,80v-0.1h-1.2L36.5,80v0.1l0.1,0.1"/>
	<path d="M89.7,118.7v-0.1h0.1v-0.1h-0.1v-0.1h-1.2v0.1h-0.1v0.1h0.1v0.1h0.1"/>
	<path d="M87.6,118.7v-0.1h0.1v-0.1h-0.1v-0.1h-1.2v0.1h-0.1v0.1h0.1v0.1h0.1"/>
	<path d="M85.6,118.7v-0.1h0.1v-0.1h-0.1v-0.1h-1.2v0.1h-0.1v0.1h0.1v0.1h0.1"/>
	<path d="M83.5,118.7v-0.1h0.1v-0.1h-0.1v-0.1h-1.2v0.1h-0.1v0.1h0.1v0.1h0.1"/>
	<path d="M81.5,118.7v-0.1h0.1v-0.1h-0.1v-0.1h-1.2v0.1h-0.1v0.1h0.1v0.1h0.1"/>
	<path d="M79.5,118.7v-0.1h0.1v-0.1h-0.1v-0.1h-1.2v0.1h-0.1v0.1h0.1v0.1"/>
	<path d="M77.4,118.7v-0.1h0.1v-0.1h-0.1v-0.1h-1.2v0.1h-0.1v0.1h0.1v0.1"/>
	<path d="M75.4,118.7v-0.1h0.1v-0.1h-0.1v-0.1h-1.2v0.1h-0.1v0.1h0.1v0.1"/>
	<path d="M73.3,118.7v-0.1h0.1v-0.1h-0.1v-0.1h-1.2v0.1H72v0.1h0.1v0.1"/>
	<path d="M71.3,118.7v-0.1h0.1v-0.1h-0.1v-0.1h-1.2v0.1H70v0.1h0.1v0.1"/>
	<path d="M69.3,118.7v-0.1h0.1v-0.1h-0.1v-0.1h-1.2v0.1h-0.1v0.1h0.1v0.1"/>
	<path d="M67.2,118.7v-0.1h0.1l-0.1-0.1v-0.1H66v0.1h-0.1v0.1H66v0.1"/>
	<path d="M65.2,118.7v-0.1h0.1l-0.1-0.1v-0.1H64v0.1h-0.1v0.1H64v0.1"/>
	<path d="M63.1,118.7v-0.1h0.1l-0.1-0.1v-0.1h-1.2v0.1h-0.1v0.1h0.1v0.1"/>
	<path d="M61.1,118.7v-0.1h0.1l-0.1-0.1v-0.1h-1.2l-0.1,0.1v0.1l0.1,0.1"/>
	<path d="M59.1,118.7v-0.1h0.1l-0.1-0.1v-0.1h-1.2l-0.1,0.1v0.1l0.1,0.1"/>
	<path d="M57,118.7v-0.1h0.1l-0.1-0.1v-0.1h-1.2l-0.1,0.1v0.1l0.1,0.1"/>
	<path d="M55,118.7v-0.1h0.1l-0.1-0.1v-0.1h-1.2l-0.1,0.1v0.1l0.1,0.1"/>
	<path d="M52.9,118.7v-0.1h0.1l-0.1-0.1v-0.1h-1.2l-0.1,0.1v0.1l0.1,0.1"/>
	<path d="M50.9,118.7v-0.1H51l-0.1-0.1v-0.1h-1.2l-0.1,0.1v0.1l0.1,0.1"/>
	<path d="M48.9,118.7v-0.1H49l-0.2-0.2h-1.1l-0.1,0.1v0.1l0.1,0.1"/>
	<path d="M46.8,118.7v-0.1h0.1l-0.2-0.2h-1.1l-0.1,0.1v0.1l0.1,0.1"/>
	<path d="M44.8,118.7v-0.1h0.1l-0.2-0.2h-1.1l-0.1,0.1v0.1l0.1,0.1"/>
	<path d="M42.7,118.7v-0.1h0.1l-0.2-0.2h-1.1l-0.2,0.2h0.1l0.1,0.1"/>
	<path d="M40.7,118.7v-0.1h0.1l-0.2-0.2h-1.1l-0.2,0.2h0.1l0.1,0.1"/>
	<path d="M38.7,118.7v-0.1h0.1l-0.2-0.2h-1.1l-0.2,0.2h0.1l0.1,0.1"/>
	<path d="M36.6,118.7v-0.1h0.1l-0.2-0.2h-1.1l-0.2,0.2h0.1l0.1,0.1"/>
	<path d="M90.6,151.7v-0.1h0.1v-0.1h-0.1v-0.1h-1.2v0.1h-0.1v0.1h0.1v0.1h0.1"/>
	<path d="M88.6,151.7v-0.1h0.1v-0.1h-0.1v-0.1h-1.2v0.1h-0.1v0.1h0.1v0.1h0.1"/>
	<path d="M86.5,151.7v-0.1h0.1v-0.1h-0.1v-0.1h-1.2v0.1h-0.1v0.1h0.1v0.1h0.1"/>
	<path d="M84.5,151.7v-0.1h0.1v-0.1h-0.1v-0.1h-1.2v0.1h-0.1v0.1h0.1v0.1h0.1"/>
	<path d="M82.5,151.7v-0.1h0.1v-0.1h-0.1v-0.1h-1.2v0.1h-0.1v0.1h0.1v0.1h0.1"/>
	<path d="M80.4,151.7v-0.1h0.1v-0.1h-0.1v-0.1h-1.2v0.1h-0.1v0.1h0.1v0.1h0.1"/>
	<path d="M78.4,151.7v-0.1h0.1v-0.1h-0.1v-0.1h-1.2v0.1h-0.1v0.1h0.1v0.1h0.1"/>
	<path d="M76.3,151.7v-0.1h0.1v-0.1h-0.1v-0.1h-1.2v0.1H75v0.1h0.1v0.1h0.1"/>
	<path d="M74.3,151.7v-0.1h0.1v-0.1h-0.1v-0.1h-1.2v0.1H73v0.1h0.1v0.1h0.1"/>
	<path d="M72.3,151.7v-0.1h0.1v-0.1h-0.1v-0.1h-1.2v0.1h-0.1v0.1h0.1v0.1h0.1"/>
	<path d="M70.2,151.7v-0.1h0.1v-0.1h-0.1v-0.1H69v0.1h-0.1v0.1H69v0.1"/>
	<path d="M68.2,151.7v-0.1h0.1v-0.1h-0.1v-0.1H67v0.1h-0.1v0.1H67v0.1"/>
	<path d="M66.1,151.7v-0.1h0.1v-0.1h-0.1v-0.1h-1.2v0.1h-0.1v0.1h0.1v0.1"/>
	<path d="M64.1,151.7v-0.1h0.1v-0.1h-0.1v-0.1h-1.2v0.1h-0.1v0.1h0.1v0.1"/>
	<path d="M62.1,151.7v-0.1h0.1v-0.1h-0.1v-0.1h-1.2v0.1h-0.1v0.1h0.1v0.1"/>
	<path d="M60,151.7v-0.1h0.1v-0.1H60v-0.1h-1.2v0.1h-0.1v0.1h0.1v0.1"/>
	<path d="M58,151.7v-0.1l0.1-0.1H58v-0.1h-1.2v0.1h-0.1v0.1h0.1v0.1"/>
	<path d="M55.9,151.7v-0.1l0.1-0.1h-0.1v-0.1h-1.2v0.1h-0.1v0.1h0.1v0.1"/>
	<path d="M53.9,151.7v-0.1l0.1-0.1h-0.1v-0.1h-1.2v0.1h-0.1v0.1h0.1v0.1"/>
	<path d="M51.9,151.7v-0.1l0.1-0.1h-0.1v-0.1h-1.2l-0.1,0.1v0.1l0.1,0.1"/>
	<path d="M49.8,151.7v-0.1l0.1-0.1h-0.1v-0.1h-1.2l-0.1,0.1v0.1l0.1,0.1"/>
	<path d="M47.8,151.7v-0.1l0.1-0.1h-0.1v-0.1h-1.2l-0.1,0.1v0.1l0.1,0.1"/>
	<path d="M45.7,151.7v-0.1l0.1-0.1h-0.1v-0.1h-1.2l-0.1,0.1v0.1l0.1,0.1"/>
	<path d="M43.7,151.7v-0.1l0.1-0.1h-0.1v-0.1h-1.2l-0.1,0.1v0.1l0.1,0.1"/>
	<path d="M41.7,151.7v-0.1l0.1-0.1h-0.1v-0.1h-1.2l-0.1,0.1v0.1l0.1,0.1"/>
	<path d="M39.6,151.7v-0.1l0.1-0.1h-0.1l-0.1-0.1h-1.1l-0.1,0.1v0.1l0.1,0.1"/>
	<path d="M37.6,151.7v-0.1l0.1-0.1h-0.1l-0.1-0.1h-1.1l-0.1,0.1v0.1l0.1,0.1"/>
	<g transform="matrix(.4796923,0,0,.47759999,99.312099,342.47434)">
		
			<image style="overflow:visible;enable-background:new    ;" width="65" height="50" id="image_1" xlink:href="5548C7F2.jpg"  transform="matrix(1 0 0 1 -106.9085 -429.6412)">
		</image>
	</g>
	<path class="st0" d="M102.5,80.2l-25.4,71.5h127.8V80.2H102.5z"/>
	<path class="st1" d="M102.5,80.2l-25.4,71.5h127.8V80.2H102.5z"/>
	<text transform="matrix(1 0 0 1 103.469 93.2381)" class="st2 st3">I</text>
	<text transform="matrix(1 0 0 1 105.3899 93.2381)" class="st2 st3">G</text>
	<text transform="matrix(1 0 0 1 110.811 93.2381)" class="st2 st3">C</text>
	<text transform="matrix(1 0 0 1 115.84 93.2381)" class="st2 st3">T</text>
	<text transform="matrix(1 0 0 1 103.469 101.6384)" class="st2 st3">P</text>
	<text transform="matrix(1 0 0 1 108.029 101.6384)" class="st2 st3">r</text>
	<text transform="matrix(1 0 0 1 110.7893 101.6384)" class="st2 st3">e</text>
	<text transform="matrix(1 0 0 1 114.7493 101.6384)" class="st2 st3">s</text>
	<text transform="matrix(1 0 0 1 118.589 101.6384)" class="st2 st3">s</text>
	<text transform="matrix(1 0 0 1 122.4286 101.6384)" class="st2 st3">p</text>
	<text transform="matrix(1 0 0 1 126.7485 101.6384)" class="st2 st3">a</text>
	<text transform="matrix(1 0 0 1 130.7086 101.6384)" class="st2 st3">c</text>
	<text transform="matrix(1 0 0 1 134.5482 101.6384)" class="st2 st3">k</text>
	<path class="st0" d="M170.1,38.8l-28.3,64.6h142.4V38.8H170.1z"/>
	<path class="st1" d="M170.1,38.8l-28.3,64.6h142.4V38.8H170.1z"/>
	<text transform="matrix(1 0 0 1 170.9089 48.3581)" class="st2 st3">I</text>
	<text transform="matrix(1 0 0 1 172.9488 48.3581)" class="st2 st3">G</text>
	<text transform="matrix(1 0 0 1 178.3488 48.3581)" class="st2 st3">B</text>
	<text transform="matrix(1 0 0 1 183.389 48.3581)" class="st2 st3">T</text>
	<text transform="matrix(1 0 0 1 170.9089 56.8782)" class="st2 st3">P</text>
	<text transform="matrix(1 0 0 1 175.5886 56.8782)" class="st2 st3">r</text>
	<text transform="matrix(1 0 0 1 178.3488 56.8782)" class="st2 st3">e</text>
	<text transform="matrix(1 0 0 1 182.1885 56.8782)" class="st2 st3">s</text>
	<text transform="matrix(1 0 0 1 186.1485 56.8782)" class="st2 st3">s</text>
	<text transform="matrix(1 0 0 1 189.9882 56.8782)" class="st2 st3">p</text>
	<text transform="matrix(1 0 0 1 194.3081 56.8782)" class="st2 st3">a</text>
	<text transform="matrix(1 0 0 1 198.1478 56.8782)" class="st2 st3">c</text>
	<text transform="matrix(1 0 0 1 202.1078 56.8782)" class="st2 st3">k</text>
	<path d="M284.3,44.9h-0.1v-0.1h-0.1v0.1h-0.1v1.2h0.1l0.1,0.1v-0.1h0.1"/>
	<path d="M284.3,46.9v-0.1h-0.2l-0.1,0.1v1.2h0.1l0.1,0.1v-0.1h0.1"/>
	<path d="M284.3,49v-0.1h-0.2l-0.1,0.1v1.2h0.1l0.1,0.1v-0.1h0.1"/>
	<path d="M284.3,51v-0.1h-0.2l-0.1,0.1v1.2h0.1l0.1,0.1v-0.1h0.1"/>
	<path d="M284.3,53v-0.1h-0.2l-0.1,0.1v1.2h0.1v0.1h0.1l0.1-0.1"/>
	<path d="M284.3,55.1V55h-0.2l-0.1,0.1v1.2h0.1v0.1h0.1l0.1-0.1"/>
	<path d="M284.3,57.1V57h-0.2l-0.1,0.1v1.2h0.1v0.1h0.1l0.1-0.1"/>
	<path d="M284.3,59.2V59h-0.2l-0.1,0.1v1.2h0.1v0.1h0.1l0.1-0.1"/>
	<path d="M284.3,61.2v-0.1h-0.2l-0.1,0.1v1.2h0.1v0.1h0.1l0.1-0.1"/>
	<path d="M284.3,63.2v-0.1h-0.2l-0.1,0.1v1.2h0.1v0.1h0.1l0.1-0.1"/>
	<path d="M284.3,65.3v-0.1h-0.2l-0.1,0.1v1.2h0.1v0.1h0.1l0.1-0.1"/>
	<path d="M284.3,67.3v-0.1h-0.2l-0.1,0.1v1.2h0.1v0.1h0.1l0.1-0.1"/>
	<path d="M284.3,69.4v-0.1h-0.2l-0.1,0.1v1.2h0.1v0.1h0.1l0.1-0.1"/>
	<path d="M284.3,71.4v-0.1h-0.2l-0.1,0.1v1.2h0.1v0.1h0.1l0.1-0.1"/>
	<path d="M284.3,73.4v-0.1h-0.2l-0.1,0.1v1.2h0.1v0.1h0.1l0.1-0.1"/>
	<path d="M284.3,75.5v-0.1h-0.2l-0.1,0.1v1.2h0.1v0.1h0.1l0.1-0.1"/>
	<path d="M284.3,77.5v-0.1h-0.2l-0.1,0.1v1.2h0.1v0.1h0.1l0.1-0.1"/>
	<path d="M284.3,79.6v-0.1h-0.2l-0.1,0.1v1.2h0.1v0.1h0.1l0.1-0.1"/>
	<path d="M284.3,81.6v-0.1h-0.2l-0.1,0.1v1.2h0.1v0.1h0.1l0.1-0.1"/>
	<path d="M284.3,83.6v-0.1h-0.2l-0.1,0.1v1.2h0.1V85h0.1l0.1-0.1"/>
	<path d="M284.3,85.7v-0.1h-0.2l-0.1,0.1v1.2h0.1V87h0.1l0.1-0.1"/>
	<path d="M284.3,87.7v-0.1h-0.2l-0.1,0.1v1.2h0.1V89h0.1l0.1-0.1"/>
	<path d="M284.3,89.8v-0.1h-0.2l-0.1,0.1V91h0.1v0.1h0.1l0.1-0.1"/>
	<path d="M284.3,91.8v-0.1h-0.2l-0.1,0.1V93h0.1v0.1h0.1l0.1-0.1"/>
	<path d="M284.3,93.8v-0.1h-0.2l-0.1,0.1V95h0.1v0.1h0.1l0.1-0.1"/>
	<path d="M284.3,95.9v-0.1h-0.2l-0.1,0.1v1.2h0.1v0.1h0.1l0.1-0.1"/>
	<path d="M284.3,97.9l-0.1-0.1h-0.1v0.1h-0.1v1.2h0.1v0.1h0.1l0.1-0.1"/>
	<path d="M284.3,100l-0.1-0.1h-0.1v0.1h-0.1v1.2h0.1v0.1h0.1l0.1-0.1"/>
	<path d="M284.3,102l-0.1-0.1h-0.1v0.1h-0.1v1.2h0.1v0.1h0.1l0.1-0.1"/>
	<path d="M284.3,104l-0.1-0.1h-0.1v0.1h-0.1v1.2h0.1v0.1h0.1l0.1-0.1"/>
	<path d="M284.3,106.1l-0.1-0.1h-0.1v0.1h-0.1v1.2l0.1,0.1h0.2v-0.1"/>
	<path d="M284.3,108.1l-0.1-0.1h-0.1v0.1h-0.1v1.2l0.1,0.1h0.2v-0.1"/>
	<path d="M284.3,110.2l-0.1-0.1h-0.1v0.1h-0.1v1.2l0.1,0.1h0.2v-0.1"/>
	<path d="M284.3,112.2l-0.1-0.1h-0.1v0.1h-0.1v1.2l0.1,0.1h0.2v-0.1"/>
	<path d="M284.3,114.2l-0.1-0.1h-0.1v0.1h-0.1v1.2l0.1,0.1h0.2v-0.1"/>
	<path d="M284.3,116.3l-0.1-0.1h-0.1v0.1h-0.1v1.2l0.1,0.1h0.2v-0.1"/>
	<path d="M284.3,118.3l-0.1-0.1h-0.1v0.1h-0.1v1.2l0.1,0.1h0.2v-0.1"/>
	<path d="M284.3,120.4l-0.1-0.1h-0.1v0.1h-0.1v1.2l0.1,0.1h0.2v-0.1"/>
	<path d="M284.3,122.4l-0.1-0.1h-0.1v0.1h-0.1v1.2l0.1,0.1h0.2v-0.1"/>
	<path d="M284.3,124.6v-0.1l-0.1-0.1h-0.1v0.1h-0.1v1.2l0.1,0.1h0.2v-0.1"/>
	<path d="M284.3,126.6v-0.1l-0.1-0.1h-0.1v0.1h-0.1v1.2l0.1,0.1h0.2v-0.1"/>
	<path d="M284.3,128.6v-0.1l-0.1-0.1h-0.1v0.1h-0.1v1.2l0.1,0.1h0.2v-0.1"/>
	<path d="M284.3,130.7v-0.1l-0.1-0.1h-0.1v0.1h-0.1v1.2l0.1,0.1h0.2v-0.1"/>
	<path d="M284.3,132.7v-0.1l-0.1-0.1h-0.1v0.1h-0.1v1.2l0.2,0.2v-0.1h0.1v-0.1"/>
	<path d="M284.3,134.8v-0.1l-0.1-0.1h-0.1v0.1h-0.1v1.2l0.2,0.2V136h0.1v-0.1"/>
	<path d="M284.3,136.8v-0.1l-0.1-0.1h-0.1v0.1h-0.1v1.2l0.2,0.2V138h0.1v-0.1"/>
	<path d="M284.3,138.8v-0.1l-0.1-0.1h-0.1v0.1h-0.1v1.2l0.2,0.2V140h0.1v-0.1"/>
	<path d="M284.3,140.9v-0.1l-0.1-0.1h-0.1v0.1h-0.1v1.2l0.2,0.2v-0.1h0.1V142"/>
	<path d="M284.3,142.9v-0.1l-0.1-0.1h-0.1v0.1h-0.1v1.2l0.2,0.2v-0.1h0.1V144"/>
	<path d="M284.3,145v-0.1l-0.1-0.1h-0.1v0.1h-0.1v1.2l0.2,0.2v-0.1h0.1V146"/>
	<path d="M284.3,147v-0.1l-0.1-0.1h-0.1v0.1h-0.1v1.2l0.2,0.2v-0.1h0.1v-0.1"/>
	<path d="M284.3,149v-0.1l-0.1-0.1h-0.1v0.1h-0.1v1.2l0.2,0.2v-0.1h0.1v-0.1"/>
	<path d="M284.3,151.1V151l-0.1-0.1h-0.1v0.1h-0.1v1.2l0.2,0.2v-0.1h0.1v-0.1"/>
	<path d="M284.3,153.1V153h-0.4v1.2l0.2,0.2v-0.1h0.1v-0.1"/>
	<path d="M284.3,155.2V155h-0.4v1.2l0.2,0.2v-0.1h0.1v-0.1"/>
	<path d="M284.3,157.2v-0.1h-0.4v1.2l0.2,0.2v-0.1h0.1v-0.1"/>
	<path d="M284.3,159.2v-0.1h-0.4v1.2l0.2,0.2v-0.1h0.1v-0.1"/>
	<path d="M284.3,161.3v-0.1h-0.4v1.3h0.1l0.1,0.1v-0.1h0.1"/>
	<path d="M284.3,163.3v-0.1h-0.4v1.3h0.1l0.1,0.1v-0.1h0.1"/>
	<path d="M284.3,165.4v-0.1h-0.4v1.3h0.1l0.1,0.1v-0.1h0.1"/>
	<path d="M284.3,167.4v-0.1h-0.4v1.3h0.1l0.1,0.1v-0.1h0.1"/>
	<path d="M284.3,169.4v-0.1h-0.4v1.3h0.1l0.1,0.1v-0.1h0.1"/>
	<path d="M284.3,171.5v-0.1h-0.4v1.3h0.1l0.1,0.1v-0.1h0.1"/>
	<path d="M284.3,173.5v-0.1h-0.4v1.3h0.1l0.1,0.1v-0.1h0.1"/>
	<path d="M284.3,175.6v-0.1h-0.4v1.3h0.1l0.1,0.1v-0.1h0.1"/>
	<path d="M284.3,177.6v-0.1h-0.4v1.3h0.1l0.1,0.1v-0.1h0.1"/>
	<path d="M284.3,179.6v-0.1h-0.2l-0.1,0.1v1.2h0.1l0.1,0.1v-0.1h0.1"/>
	<path d="M284.3,181.7v-0.1h-0.2l-0.1,0.1v1.2h0.1l0.1,0.1v-0.1h0.1"/>
	<path d="M284.3,183.7v-0.1h-0.2l-0.1,0.1v1.2h0.1l0.1,0.1v-0.1h0.1"/>
	<path d="M284.3,185.8v-0.1h-0.2l-0.1,0.1v1.2h0.1l0.1,0.1V187h0.1"/>
	<path d="M284.3,187.8v-0.1h-0.2l-0.1,0.1v1.2h0.1v0.1h0.1l0.1-0.1"/>
	<path d="M284.3,189.8v-0.1h-0.2l-0.1,0.1v0.5l0.2,0.2v-0.1h0.1"/>
	<g transform="matrix(.48021636,0,0,.4771084,167.35211,311.51435)">
		
			<image style="overflow:visible;enable-background:new    ;" width="171" height="83" id="image_2" xlink:href="5548C7F5.jpg"  transform="matrix(1 0 0 1 -106.7919 -430.0843)">
		</image>
	</g>
	<g transform="matrix(.47946478,0,0,.47855423,260.7121,262.55436)">
		
			<image style="overflow:visible;enable-background:new    ;" width="142" height="83" id="image_3" xlink:href="5548C7F6.jpg"  transform="matrix(1 0 0 1 -106.9591 -428.7847)">
		</image>
	</g>
	<text transform="matrix(1 0 0 1 256.589 207.9581)" class="st2 st3">P</text>
	<text transform="matrix(1 0 0 1 261.2918 207.9581)" class="st2 st3">o</text>
	<text transform="matrix(1 0 0 1 265.492 207.9581)" class="st2 st3">w</text>
	<text transform="matrix(1 0 0 1 271.1321 207.9581)" class="st2 st3">e</text>
	<text transform="matrix(1 0 0 1 274.9718 207.9581)" class="st2 st3">r</text>
	<text transform="matrix(1 0 0 1 277.7285 207.9581)" class="st2 st3"> </text>
	<text transform="matrix(1 0 0 1 279.6487 207.9581)" class="st2 st3">o</text>
	<text transform="matrix(1 0 0 1 283.9595 207.9581)" class="st2 st3">f</text>
	<text transform="matrix(1 0 0 1 286.2395 207.9581)" class="st2 st3"> </text>
	<text transform="matrix(1 0 0 1 288.2794 207.9581)" class="st2 st3">A</text>
	<text transform="matrix(1 0 0 1 293.1992 207.9581)" class="st2 st3">p</text>
	<text transform="matrix(1 0 0 1 297.3994 207.9581)" class="st2 st3">p</text>
	<text transform="matrix(1 0 0 1 301.7102 207.9581)" class="st2 st3">l</text>
	<text transform="matrix(1 0 0 1 303.6303 207.9581)" class="st2 st3">i</text>
	<text transform="matrix(1 0 0 1 305.6702 207.9581)" class="st2 st3">c</text>
	<text transform="matrix(1 0 0 1 309.5099 207.9581)" class="st2 st3">a</text>
	<text transform="matrix(1 0 0 1 313.3496 207.9581)" class="st2 st3">t</text>
	<text transform="matrix(1 0 0 1 315.7493 207.9581)" class="st2 st3">i</text>
	<text transform="matrix(1 0 0 1 317.6695 207.9581)" class="st2 st3">o</text>
	<text transform="matrix(1 0 0 1 321.9894 207.9581)" class="st2 st3">n</text>
	<text transform="matrix(1 0 0 1 0.8695 11.879)" class="st2 st3">C</text>
	<text transform="matrix(1 0 0 1 5.9097 11.879)" class="st2 st3">o</text>
	<text transform="matrix(1 0 0 1 10.1099 11.879)" class="st2 st3">n</text>
	<text transform="matrix(1 0 0 1 14.4298 11.879)" class="st2 st3">v</text>
	<text transform="matrix(1 0 0 1 18.2694 11.879)" class="st2 st3">e</text>
	<text transform="matrix(1 0 0 1 22.1091 11.879)" class="st2 st3">r</text>
	<text transform="matrix(1 0 0 1 24.8693 11.879)" class="st2 st3">t</text>
	<text transform="matrix(1 0 0 1 27.269 11.879)" class="st2 st3">e</text>
	<text transform="matrix(1 0 0 1 31.1087 11.879)" class="st2 st3">r</text>
	<text transform="matrix(1 0 0 1 8.5495 20.2794)" class="st2 st3">V</text>
	<text transform="matrix(1 0 0 1 13.2453 20.2794)" class="st2 st3">o</text>
	<text transform="matrix(1 0 0 1 17.5491 20.2794)" class="st2 st3">l</text>
	<text transform="matrix(1 0 0 1 19.4693 20.2794)" class="st2 st3">t</text>
	<text transform="matrix(1 0 0 1 21.869 20.2794)" class="st2 st3">a</text>
	<text transform="matrix(1 0 0 1 25.7086 20.2794)" class="st2 st3">g</text>
	<text transform="matrix(1 0 0 1 30.0285 20.2794)" class="st2 st3">e</text>
	<g transform="matrix(.4801569,0,0,.4709434,312.07209,213.59436)">
		
			<image style="overflow:visible;enable-background:new    ;" width="102" height="53" id="image_4" xlink:href="5548C7F4.jpg"  transform="matrix(1 0 0 1 -106.805 -435.7144)">
		</image>
	</g>
	<path d="M248.8,15.4h0.6v-4.7h-0.6V15.4z"/>
	<path d="M248.8,29.4h0.6v-7.1h-0.6V29.4z"/>
	<path d="M244.5,22.7h9.4v-0.6h-9.4V22.7z"/>
	<path d="M244.6,15.1l-0.4,0.5l4.7,7l0.4-0.4"/>
	<path d="M248.9,22.2l0.4,0.4l4.7-7l-0.4-0.5"/>
	<path d="M244.5,15.6h9.4v-0.5h-9.4V15.6z"/>
	<path d="M249.3,22.7l-0.2-0.6l-4.7,2.4l0.2,0.5"/>
	<path d="M239.8,25h4.7v-0.6h-4.7V25z"/>
	<path d="M248.8,15.4h0.6v-4.7h-0.6V15.4z"/>
	<path d="M248.8,29.4h0.6v-7.1h-0.6V29.4z"/>
	<path d="M244.5,22.7h9.4v-0.6h-9.4V22.7z"/>
	<path d="M244.6,15.1l-0.4,0.5l4.7,7l0.4-0.4"/>
	<path d="M248.9,22.2l0.4,0.4l4.7-7l-0.4-0.5"/>
	<path d="M244.5,15.6h9.4v-0.5h-9.4V15.6z"/>
	<path d="M249.3,22.7l-0.2-0.6l-4.7,2.4l0.2,0.5"/>
	<path d="M239.8,25h4.7v-0.6h-4.7V25z"/>
	<path d="M244.5,22.7h9.4v-0.6h-9.4V22.7z"/>
	<path d="M244.6,15.1l-0.4,0.5l4.7,7l0.4-0.4"/>
	<path d="M248.9,22.2l0.4,0.4l4.7-7l-0.4-0.5"/>
	<path d="M244.5,15.6h9.4v-0.5h-9.4V15.6z"/>
	<path d="M249.3,22.7l-0.2-0.6l-4.7,2.4l0.2,0.5"/>
	<path d="M239.8,25h4.7v-0.6h-4.7V25z"/>
	<path d="M175.3,73.7h0.5v-7h-0.5V73.7z"/>
	<path d="M177.9,76.6h7.1V76h-7.1V76.6z"/>
	<path d="M177.7,80.6l0.4,0.5l3.4-4.8l-0.5-0.5"/>
	<path d="M181.6,76.2l-0.4,0.5l3.5,4.4l0.4-0.5"/>
	<path d="M177.9,81.2h7.1v-0.6h-7.1V81.2z"/>
	<path d="M170.7,83h0.6v-9.4h-0.6V83z"/>
	<path d="M169.5,81.7h0.6v-6.8h-0.6V81.7z"/>
	<path d="M167.4,82h2.3v-0.6h-2.3V82z"/>
	<path d="M171,80.4l-0.2,0.6l2.6,1.2l0.2-0.5"/>
	<path class="st4" d="M172.9,83h2.6l-1.6-2.2"/>
	<path d="M170.8,75.8l0.2,0.5l4.7-2.3l-0.2-0.6"/>
	<path d="M175.6,71.6h5.3V71h-5.3V71.6z"/>
	<path d="M180.7,76.1h0.6v-4.7h-0.6V76.1z"/>
	<path d="M175.9,85.7h5.3v-0.6h-5.3V85.7z"/>
	<path d="M181,85.6h0.5v-4.7H181V85.6z"/>
	<path d="M175.3,89.9h0.5v-7.1h-0.5V89.9z"/>
	<path d="M175.3,73.7h0.5v-7h-0.5V73.7z"/>
	<path d="M177.9,76.6h7.1V76h-7.1V76.6z"/>
	<path d="M177.7,80.6l0.4,0.5l3.4-4.8l-0.5-0.5"/>
	<path d="M181.6,76.2l-0.4,0.5l3.5,4.4l0.4-0.5"/>
	<path d="M177.9,81.2h7.1v-0.6h-7.1V81.2z"/>
	<path d="M170.7,83h0.6v-9.4h-0.6V83z"/>
	<path d="M169.5,81.7h0.6v-6.8h-0.6V81.7z"/>
	<path d="M167.4,82h2.3v-0.6h-2.3V82z"/>
	<path d="M171,80.4l-0.2,0.6l2.6,1.2l0.2-0.5"/>
	<path class="st4" d="M172.9,83h2.6l-1.6-2.2"/>
	<path d="M170.8,75.8l0.2,0.5l4.7-2.3l-0.2-0.6"/>
	<path d="M175.6,71.6h5.3V71h-5.3V71.6z"/>
	<path d="M180.7,76.1h0.6v-4.7h-0.6V76.1z"/>
	<path d="M175.9,85.7h5.3v-0.6h-5.3V85.7z"/>
	<path d="M181,85.6h0.5v-4.7H181V85.6z"/>
	<path d="M175.3,89.9h0.5v-7.1h-0.5V89.9z"/>
	<path d="M106.6,125.5h7v-0.6h-7V125.5z"/>
	<path d="M106.3,129.7l0.4,0.5l3.4-4.9l-0.5-0.5"/>
	<path d="M110.2,125.3l-0.4,0.4l3.5,4.6l0.5-0.5"/>
	<path d="M106.6,130.2h7v-0.6h-7V130.2z"/>
	<path d="M109.3,125h0.6v-4.7h-0.6V125z"/>
	<path d="M109.6,134.5h0.6v-4.7h-0.6V134.5z"/>
	<path d="M96,130.2h7v-0.6h-7V130.2z"/>
	<path d="M96.3,125l-0.5,0.5l3.4,4.8l0.4-0.5"/>
	<path d="M99.4,129.5l0.4,0.5l3.5-4.4l-0.4-0.5"/>
	<path d="M96,125.5h7v-0.6h-7V125.5z"/>
	<path d="M98.9,134.8h0.5v-4.7h-0.5V134.8z"/>
	<path d="M99,125.3h0.6v-4.7H99V125.3z"/>
	<path d="M94.7,131.8l0.2,0.6l4.3-2.2l-0.2-0.6"/>
	<path d="M90.4,132.5h4.7v-0.6h-4.7V132.5z"/>
	<path d="M91.5,134.2h0.6v-3.8h-0.6V134.2z"/>
	<path d="M99.4,120.5h10.2v-0.6H99.4V120.5z"/>
	<path d="M99.5,134.9h10.3v-0.6H99.5V134.9z"/>
	<path d="M103.9,120.1h0.6v-7h-0.6V120.1z"/>
	<path d="M103.9,141.4h0.6v-7h-0.6V141.4z"/>
	<path d="M106.6,125.5h7v-0.6h-7V125.5z"/>
	<path d="M106.3,129.7l0.4,0.5l3.4-4.9l-0.5-0.5"/>
	<path d="M110.2,125.3l-0.4,0.4l3.5,4.6l0.5-0.5"/>
	<path d="M106.6,130.2h7v-0.6h-7V130.2z"/>
	<path d="M109.3,125h0.6v-4.7h-0.6V125z"/>
	<path d="M109.6,134.5h0.6v-4.7h-0.6V134.5z"/>
	<path d="M106.6,125.5h7v-0.6h-7V125.5z"/>
	<path d="M106.3,129.7l0.4,0.5l3.4-4.9l-0.5-0.5"/>
	<path d="M110.2,125.3l-0.4,0.4l3.5,4.6l0.5-0.5"/>
	<path d="M106.6,130.2h7v-0.6h-7V130.2z"/>
	<path d="M109.3,125h0.6v-4.7h-0.6V125z"/>
	<path d="M109.6,134.5h0.6v-4.7h-0.6V134.5z"/>
	<path d="M96,130.2h7v-0.6h-7V130.2z"/>
	<path d="M96.3,125l-0.5,0.5l3.4,4.8l0.4-0.5"/>
	<path d="M99.4,129.5l0.4,0.5l3.5-4.4l-0.4-0.5"/>
	<path d="M96,125.5h7v-0.6h-7V125.5z"/>
	<path d="M98.9,134.8h0.5v-4.7h-0.5V134.8z"/>
	<path d="M99,125.3h0.6v-4.7H99V125.3z"/>
	<path d="M96,130.2h7v-0.6h-7V130.2z"/>
	<path d="M96.3,125l-0.5,0.5l3.4,4.8l0.4-0.5"/>
	<path d="M99.4,129.5l0.4,0.5l3.5-4.4l-0.4-0.5"/>
	<path d="M96,125.5h7v-0.6h-7V125.5z"/>
	<path d="M98.9,134.8h0.5v-4.7h-0.5V134.8z"/>
	<path d="M99,125.3h0.6v-4.7H99V125.3z"/>
	<path d="M94.7,131.8l0.2,0.6l4.3-2.2l-0.2-0.6"/>
	<path d="M90.4,132.5h4.7v-0.6h-4.7V132.5z"/>
	<path d="M91.5,134.2h0.6v-3.8h-0.6V134.2z"/>
	<path d="M99.4,120.5h10.2v-0.6H99.4V120.5z"/>
	<path d="M99.5,134.9h10.3v-0.6H99.5V134.9z"/>
	<path d="M103.9,120.1h0.6v-7h-0.6V120.1z"/>
	<path d="M103.9,141.4h0.6v-7h-0.6V141.4z"/>
	<text transform="matrix(1 0 0 1 331.109 211.318)" class="st6 st7"> </text>
</g>
</svg>
