<?xml version="1.0" encoding="utf-8"?>
<!-- Generator: Adobe Illustrator 27.9.0, SVG Export Plug-In . SVG Version: 6.00 Build 0)  -->
<svg version="1.1" id="Layer_1" xmlns="http://www.w3.org/2000/svg" xmlns:xlink="http://www.w3.org/1999/xlink" x="0px" y="0px"
	 viewBox="0 0 307.4 198.6" style="enable-background:new 0 0 307.4 198.6;" xml:space="preserve">
<style type="text/css">
	.st0{fill:none;stroke:#131413;stroke-width:1.913;stroke-linecap:round;stroke-linejoin:round;stroke-miterlimit:10;}
	.st1{fill-rule:evenodd;clip-rule:evenodd;fill:#131413;}
	.st2{fill:#131413;}
	.st3{fill:none;stroke:#008141;stroke-width:1.913;stroke-linecap:round;stroke-linejoin:round;stroke-miterlimit:10;}
	
		.st4{fill:none;stroke:#DF3224;stroke-width:0.399;stroke-linecap:round;stroke-linejoin:round;stroke-miterlimit:10;stroke-dasharray:0.7971,0.7971;}
	
		.st5{fill:none;stroke:#008141;stroke-width:0.399;stroke-linecap:round;stroke-linejoin:round;stroke-miterlimit:10;stroke-dasharray:0.7971,0.7971;}
	.st6{fill:none;stroke:#131413;stroke-width:0.399;stroke-linecap:round;stroke-linejoin:round;stroke-miterlimit:10;}
	.st7{fill:none;stroke:#DF3224;stroke-width:1.913;stroke-linecap:round;stroke-linejoin:round;stroke-miterlimit:10;}
	.st8{clip-path:url(#SVGID_00000058566153733471046310000010824653186371318917_);}
	.st9{clip-path:url(#SVGID_00000080887552244200726650000004421233819213178029_);}
	.st10{fill:none;stroke:#4373B6;stroke-width:1.913;stroke-linecap:round;stroke-linejoin:round;stroke-miterlimit:10;}
</style>
<g>
	<path class="st0" d="M22.4,176.1h271.5"/>
	<path class="st1" d="M298,176.1l-5.5-1.3l1.4,1.3l-1.4,1.3L298,176.1"/>
	<path class="st2" d="M297.9,176.7l-5.5-1.3l0.5-0.9l1.4,1.3c0.1,0.1,0.2,0.3,0.2,0.4c0,0.2-0.1,0.3-0.2,0.4l-1.4,1.4l-0.5-0.9
		l5.5-1.4c0.3-0.1,0.6,0.1,0.7,0.4c0.1,0.3-0.1,0.6-0.4,0.7l-5.5,1.4c-0.2,0.1-0.5-0.1-0.6-0.3c-0.1-0.2-0.1-0.5,0.1-0.7l1.3-1.4
		l0,0.8l-1.4-1.3c-0.2-0.2-0.2-0.4-0.1-0.7c0.1-0.2,0.4-0.3,0.6-0.3l5.5,1.3c0.3,0.1,0.5,0.4,0.4,0.7
		C298.5,176.5,298.2,176.7,297.9,176.7"/>
	<path class="st3" d="M158.3,55.4l135.9-15.1"/>
	<path class="st4" d="M158.3,176.1L22.4,70.5 M158.3,176.1L113,59.2"/>
	<path class="st5" d="M158.3,176.1L294.2,40.4"/>
	<path class="st6" d="M196.1,51.7v124.4"/>
	<path class="st6" d="M158.3,51.7h37.8"/>
	<path class="st1" d="M193.8,51.6c0-0.8,0.2-1.4,0.6-1.9c0.4-0.4,1-0.7,1.7-0.7c0.5,0,0.9,0.1,1.2,0.3c0.4,0.2,0.6,0.5,0.8,0.9
		c0.2,0.4,0.3,0.8,0.3,1.3c0,0.5-0.1,0.9-0.3,1.3c-0.2,0.4-0.5,0.7-0.9,0.9c-0.4,0.2-0.8,0.3-1.2,0.3c-0.5,0-0.9-0.1-1.3-0.3
		c-0.3-0.2-0.6-0.5-0.8-0.9C193.8,52.4,193.8,52,193.8,51.6z M194.4,51.6c0,0.6,0.2,1,0.5,1.4c0.3,0.3,0.7,0.5,1.2,0.5
		c0.5,0,0.9-0.2,1.2-0.5c0.3-0.3,0.5-0.8,0.5-1.4c0-0.4-0.1-0.7-0.2-1c-0.1-0.3-0.3-0.5-0.6-0.7c-0.3-0.2-0.6-0.2-0.9-0.2
		c-0.5,0-0.9,0.2-1.2,0.5C194.6,50.4,194.4,50.9,194.4,51.6"/>
	<path class="st1" d="M9.9,136.5l0.8-0.1c0,0.3,0.1,0.6,0.3,0.8c0.1,0.2,0.3,0.3,0.6,0.5c0.3,0.1,0.6,0.2,0.9,0.2
		c0.3,0,0.6-0.1,0.8-0.1c0.2-0.1,0.4-0.2,0.5-0.4c0.1-0.1,0.2-0.3,0.2-0.5c0-0.2-0.1-0.3-0.2-0.5c-0.1-0.1-0.3-0.3-0.6-0.3
		c-0.2-0.1-0.5-0.2-1.1-0.3c-0.6-0.1-1-0.2-1.2-0.4c-0.3-0.1-0.5-0.3-0.7-0.6c-0.1-0.2-0.2-0.5-0.2-0.8c0-0.3,0.1-0.6,0.2-0.9
		c0.2-0.3,0.4-0.5,0.8-0.6c0.3-0.1,0.7-0.2,1.1-0.2c0.5,0,0.9,0.1,1.2,0.2c0.4,0.1,0.6,0.4,0.8,0.6c0.2,0.3,0.3,0.6,0.3,0.9
		l-0.8,0.1c0-0.4-0.2-0.7-0.4-0.9c-0.2-0.2-0.6-0.3-1.1-0.3c-0.5,0-0.9,0.1-1.1,0.3c-0.2,0.2-0.3,0.4-0.3,0.6c0,0.2,0.1,0.4,0.2,0.5
		c0.2,0.1,0.6,0.3,1.2,0.4c0.7,0.2,1.1,0.3,1.4,0.4c0.4,0.2,0.6,0.4,0.8,0.6c0.2,0.2,0.2,0.5,0.2,0.9c0,0.3-0.1,0.6-0.3,0.9
		c-0.2,0.3-0.5,0.5-0.8,0.6c-0.4,0.2-0.8,0.2-1.2,0.2c-0.6,0-1-0.1-1.4-0.2c-0.4-0.1-0.7-0.4-0.9-0.7C10,137.3,9.9,136.9,9.9,136.5z
		 M16.6,138.5l-1.4-4.3H16l0.7,2.5l0.3,0.9c0-0.1,0.1-0.4,0.2-0.9l0.7-2.5h0.8l0.7,2.5l0.2,0.9l0.2-0.9l0.8-2.5h0.7l-1.4,4.3h-0.8
		l-0.7-2.6l-0.2-0.7l-0.9,3.3H16.6z M22.8,133.3H22v-0.8h0.8V133.3z M22.8,138.5H22v-4.3h0.8V138.5z M25.6,137.8l0.1,0.7
		c-0.2,0-0.4,0.1-0.6,0.1c-0.3,0-0.5,0-0.6-0.1c-0.1-0.1-0.3-0.2-0.3-0.3c-0.1-0.1-0.1-0.4-0.1-0.9v-2.5h-0.6v-0.6h0.6v-1.1l0.8-0.5
		v1.5h0.8v0.6h-0.8v2.5c0,0.2,0,0.4,0,0.4c0,0.1,0.1,0.1,0.1,0.1c0.1,0,0.1,0,0.3,0C25.4,137.8,25.5,137.8,25.6,137.8z M29.3,136.9
		L30,137c-0.1,0.5-0.3,0.9-0.6,1.2c-0.3,0.3-0.8,0.4-1.2,0.4c-0.6,0-1.1-0.2-1.5-0.6c-0.4-0.4-0.6-1-0.6-1.7c0-0.5,0.1-0.9,0.2-1.2
		c0.2-0.4,0.4-0.6,0.7-0.8c0.3-0.2,0.7-0.3,1.1-0.3c0.5,0,0.9,0.1,1.2,0.4c0.3,0.2,0.5,0.6,0.6,1l-0.7,0.1c-0.1-0.3-0.2-0.5-0.4-0.7
		c-0.2-0.1-0.4-0.2-0.6-0.2c-0.4,0-0.7,0.1-0.9,0.4c-0.2,0.3-0.3,0.7-0.3,1.3c0,0.6,0.1,1,0.3,1.3c0.2,0.3,0.5,0.4,0.9,0.4
		c0.3,0,0.6-0.1,0.8-0.3C29.1,137.5,29.2,137.2,29.3,136.9z M30.7,138.5v-6h0.8v2.2c0.4-0.4,0.8-0.6,1.3-0.6c0.3,0,0.6,0.1,0.9,0.2
		c0.2,0.1,0.4,0.3,0.5,0.5c0.1,0.2,0.2,0.5,0.2,1v2.8h-0.8v-2.8c0-0.4-0.1-0.6-0.2-0.8c-0.2-0.2-0.4-0.2-0.7-0.2
		c-0.2,0-0.4,0.1-0.6,0.2c-0.2,0.1-0.4,0.3-0.4,0.5c-0.1,0.2-0.1,0.5-0.1,0.8v2.4H30.7z M38.5,137.1l0.8,0.1c-0.1,0.4-0.4,0.8-0.7,1
		c-0.3,0.2-0.8,0.4-1.3,0.4c-0.7,0-1.2-0.2-1.6-0.6c-0.4-0.4-0.6-0.9-0.6-1.7c0-0.7,0.2-1.3,0.6-1.7c0.4-0.4,0.9-0.6,1.5-0.6
		c0.6,0,1.1,0.2,1.5,0.6c0.4,0.4,0.6,0.9,0.6,1.7c0,0,0,0.1,0,0.2H36c0,0.5,0.2,0.8,0.4,1.1c0.2,0.2,0.6,0.4,0.9,0.4
		c0.3,0,0.5-0.1,0.7-0.2C38.3,137.6,38.4,137.4,38.5,137.1z M36.1,135.9h2.5c0-0.4-0.1-0.6-0.3-0.8c-0.2-0.3-0.6-0.4-0.9-0.4
		c-0.3,0-0.6,0.1-0.9,0.3C36.2,135.2,36.1,135.5,36.1,135.9z M43.2,138.5v-0.6c-0.3,0.4-0.7,0.7-1.3,0.7c-0.3,0-0.7-0.1-1-0.3
		c-0.3-0.2-0.5-0.5-0.7-0.8c-0.2-0.4-0.2-0.7-0.2-1.2c0-0.4,0.1-0.8,0.2-1.2c0.1-0.4,0.4-0.6,0.7-0.8c0.3-0.2,0.6-0.3,1-0.3
		c0.3,0,0.5,0.1,0.7,0.2c0.2,0.1,0.4,0.3,0.5,0.4v-2.2h0.8v6H43.2z M40.8,136.3c0,0.6,0.1,1,0.4,1.2c0.2,0.3,0.5,0.4,0.9,0.4
		c0.3,0,0.6-0.1,0.8-0.4c0.2-0.3,0.3-0.7,0.3-1.2c0-0.6-0.1-1-0.3-1.3c-0.2-0.3-0.5-0.4-0.9-0.4c-0.3,0-0.6,0.1-0.8,0.4
		C40.9,135.3,40.8,135.7,40.8,136.3z M52,136.4l0.8,0.2c-0.2,0.6-0.5,1.1-0.9,1.5c-0.4,0.4-1,0.5-1.6,0.5c-0.7,0-1.2-0.1-1.6-0.4
		c-0.4-0.3-0.7-0.6-0.9-1.1c-0.2-0.5-0.3-1-0.3-1.6c0-0.6,0.1-1.2,0.4-1.6c0.2-0.5,0.6-0.8,1.1-1.1c0.4-0.2,1-0.4,1.5-0.4
		c0.6,0,1.1,0.1,1.6,0.5c0.4,0.3,0.7,0.7,0.9,1.3l-0.8,0.2c-0.1-0.4-0.4-0.8-0.6-1c-0.3-0.2-0.6-0.3-1-0.3c-0.5,0-0.9,0.1-1.2,0.3
		c-0.3,0.2-0.5,0.5-0.7,0.9c-0.1,0.4-0.2,0.8-0.2,1.2c0,0.5,0.1,1,0.2,1.3c0.2,0.4,0.4,0.7,0.7,0.9c0.3,0.2,0.7,0.3,1.1,0.3
		c0.5,0,0.8-0.1,1.2-0.4C51.7,137.3,51.9,136.9,52,136.4z M56.7,137.9c-0.3,0.2-0.6,0.4-0.8,0.5c-0.3,0.1-0.5,0.2-0.8,0.2
		c-0.5,0-0.9-0.1-1.1-0.4c-0.3-0.2-0.4-0.5-0.4-0.9c0-0.2,0.1-0.4,0.2-0.6c0.1-0.2,0.2-0.3,0.4-0.4c0.2-0.1,0.3-0.2,0.5-0.2
		c0.2,0,0.4-0.1,0.7-0.1c0.6-0.1,1.1-0.2,1.4-0.2c0-0.1,0-0.2,0-0.2c0-0.3-0.1-0.5-0.2-0.6c-0.2-0.2-0.5-0.2-0.9-0.2
		c-0.4,0-0.6,0.1-0.8,0.2c-0.2,0.1-0.3,0.3-0.4,0.7l-0.8-0.1c0.1-0.3,0.2-0.6,0.3-0.7c0.2-0.2,0.4-0.3,0.7-0.4
		c0.3-0.1,0.6-0.2,1-0.2s0.7,0,0.9,0.1c0.2,0.1,0.4,0.2,0.5,0.3c0.1,0.1,0.2,0.3,0.2,0.5c0,0.1,0,0.3,0,0.7v1c0,0.7,0,1.1,0.1,1.3
		c0,0.2,0.1,0.4,0.2,0.5h-0.8C56.7,138.3,56.7,138.1,56.7,137.9z M56.6,136.3c-0.3,0.1-0.7,0.2-1.2,0.3c-0.3,0-0.5,0.1-0.7,0.1
		c-0.1,0.1-0.2,0.1-0.3,0.2c-0.1,0.1-0.1,0.2-0.1,0.4c0,0.2,0.1,0.4,0.2,0.5c0.2,0.1,0.4,0.2,0.7,0.2c0.3,0,0.5-0.1,0.8-0.2
		c0.2-0.1,0.4-0.3,0.5-0.5c0.1-0.2,0.1-0.4,0.1-0.7V136.3z M58.5,140.1v-6h0.7v0.6c0.2-0.2,0.4-0.4,0.6-0.5c0.2-0.1,0.4-0.2,0.8-0.2
		c0.4,0,0.7,0.1,1,0.3c0.3,0.2,0.5,0.5,0.7,0.8c0.2,0.3,0.2,0.7,0.2,1.1c0,0.5-0.1,0.9-0.2,1.2c-0.2,0.4-0.4,0.6-0.7,0.8
		c-0.3,0.2-0.6,0.3-1,0.3c-0.2,0-0.5-0.1-0.7-0.2c-0.2-0.1-0.4-0.2-0.5-0.4v2.1H58.5z M59.2,136.3c0,0.6,0.1,1,0.4,1.2
		s0.5,0.4,0.9,0.4c0.3,0,0.6-0.1,0.9-0.4c0.2-0.3,0.4-0.7,0.4-1.3c0-0.6-0.1-1-0.4-1.2c-0.2-0.3-0.5-0.4-0.9-0.4
		c-0.3,0-0.6,0.2-0.8,0.5C59.4,135.3,59.2,135.8,59.2,136.3z M66.3,137.9c-0.3,0.2-0.6,0.4-0.8,0.5c-0.3,0.1-0.5,0.2-0.8,0.2
		c-0.5,0-0.9-0.1-1.1-0.4c-0.3-0.2-0.4-0.5-0.4-0.9c0-0.2,0-0.4,0.1-0.6c0.1-0.2,0.2-0.3,0.4-0.4c0.2-0.1,0.3-0.2,0.5-0.2
		c0.1,0,0.4-0.1,0.7-0.1c0.6-0.1,1.1-0.2,1.3-0.2c0-0.1,0-0.2,0-0.2c0-0.3-0.1-0.5-0.2-0.6c-0.2-0.2-0.5-0.2-0.9-0.2
		c-0.4,0-0.6,0.1-0.8,0.2c-0.2,0.1-0.3,0.3-0.4,0.7l-0.7-0.1c0.1-0.3,0.2-0.6,0.3-0.7c0.1-0.2,0.4-0.3,0.7-0.4
		c0.3-0.1,0.6-0.2,1-0.2c0.4,0,0.7,0,0.9,0.1c0.2,0.1,0.4,0.2,0.5,0.3c0.1,0.1,0.2,0.3,0.2,0.5c0,0.1,0,0.3,0,0.7v1
		c0,0.7,0,1.1,0.1,1.3c0,0.2,0.1,0.4,0.2,0.5h-0.8C66.3,138.3,66.3,138.1,66.3,137.9z M66.2,136.3c-0.3,0.1-0.7,0.2-1.2,0.3
		c-0.3,0-0.5,0.1-0.7,0.1c-0.1,0.1-0.2,0.1-0.3,0.2c-0.1,0.1-0.1,0.2-0.1,0.4c0,0.2,0.1,0.4,0.2,0.5c0.2,0.1,0.4,0.2,0.7,0.2
		c0.3,0,0.6-0.1,0.8-0.2c0.2-0.1,0.4-0.3,0.5-0.5c0.1-0.2,0.1-0.4,0.1-0.7V136.3z M71.1,136.9l0.8,0.1c-0.1,0.5-0.3,0.9-0.6,1.2
		c-0.3,0.3-0.8,0.4-1.2,0.4c-0.6,0-1.1-0.2-1.5-0.6c-0.4-0.4-0.6-1-0.6-1.7c0-0.5,0.1-0.9,0.2-1.2c0.2-0.4,0.4-0.6,0.7-0.8
		c0.3-0.2,0.7-0.3,1.1-0.3c0.5,0,0.9,0.1,1.2,0.4c0.3,0.2,0.5,0.6,0.6,1l-0.7,0.1c-0.1-0.3-0.2-0.5-0.4-0.7
		c-0.2-0.1-0.4-0.2-0.6-0.2c-0.4,0-0.7,0.1-0.9,0.4c-0.2,0.3-0.4,0.7-0.4,1.3c0,0.6,0.1,1,0.3,1.3c0.2,0.3,0.5,0.4,0.9,0.4
		c0.3,0,0.6-0.1,0.8-0.3C70.9,137.5,71,137.2,71.1,136.9z M73.2,133.3h-0.8v-0.8h0.8V133.3z M73.2,138.5h-0.8v-4.3h0.8V138.5z
		 M76.1,137.8l0.1,0.7c-0.2,0-0.4,0.1-0.6,0.1c-0.3,0-0.5,0-0.7-0.1c-0.1-0.1-0.2-0.2-0.3-0.3c-0.1-0.1-0.1-0.4-0.1-0.9v-2.5H74
		v-0.6h0.6v-1.1l0.8-0.5v1.5h0.8v0.6h-0.8v2.5c0,0.2,0,0.4,0.1,0.4c0,0.1,0.1,0.1,0.1,0.1c0.1,0,0.1,0,0.3,0
		C75.8,137.8,75.9,137.8,76.1,137.8z M76.5,136.3c0-0.8,0.2-1.4,0.7-1.8c0.4-0.3,0.9-0.5,1.4-0.5c0.6,0,1.1,0.2,1.5,0.6
		s0.6,0.9,0.6,1.6c0,0.6-0.1,1-0.3,1.3c-0.2,0.3-0.4,0.6-0.8,0.8c-0.3,0.2-0.7,0.3-1.1,0.3c-0.6,0-1.1-0.2-1.5-0.6
		C76.7,137.6,76.5,137,76.5,136.3z M77.3,136.3c0,0.5,0.1,1,0.4,1.2c0.2,0.3,0.6,0.4,0.9,0.4c0.4,0,0.7-0.1,0.9-0.4
		c0.2-0.3,0.4-0.7,0.4-1.3c0-0.5-0.1-0.9-0.4-1.2c-0.2-0.3-0.6-0.4-0.9-0.4c-0.4,0-0.7,0.1-0.9,0.4
		C77.4,135.3,77.3,135.8,77.3,136.3z M81.6,138.5v-4.3h0.7v0.7c0.2-0.3,0.3-0.5,0.5-0.6c0.1-0.1,0.3-0.1,0.5-0.1
		c0.2,0,0.5,0.1,0.8,0.2l-0.3,0.7c-0.2-0.1-0.4-0.2-0.6-0.2c-0.2,0-0.3,0-0.4,0.1c-0.1,0.1-0.2,0.2-0.3,0.4
		c-0.1,0.3-0.1,0.6-0.1,0.9v2.3H81.6"/>
	<path class="st1" d="M46.3,147v-1.6h-1.7v-0.7h1.7V143h0.7v1.6h1.7v0.7h-1.7v1.6H46.3"/>
	<path class="st1" d="M3.5,157.5v-6h4.2v0.7H4.3v1.9h2.9v0.7H4.3v2.7H3.5z M9.4,152.3H8.6v-0.8h0.8V152.3z M9.4,157.5H8.6v-4.3h0.8
		V157.5z M10,157.5l1.6-2.3l-1.5-2.1h0.9l0.7,1c0.1,0.2,0.2,0.4,0.3,0.5c0.1-0.2,0.2-0.3,0.3-0.5l0.8-1h0.9l-1.5,2.1l1.7,2.3h-0.9
		l-0.9-1.3l-0.2-0.4l-1.2,1.7H10z M17.9,156.1l0.8,0.1c-0.1,0.4-0.3,0.8-0.7,1c-0.3,0.2-0.8,0.4-1.3,0.4c-0.7,0-1.2-0.2-1.6-0.6
		c-0.4-0.4-0.6-0.9-0.6-1.7c0-0.7,0.2-1.3,0.6-1.7c0.4-0.4,0.9-0.6,1.5-0.6c0.6,0,1.1,0.2,1.5,0.6c0.4,0.4,0.6,1,0.6,1.7
		c0,0,0,0.1,0,0.2h-3.3c0,0.5,0.2,0.8,0.4,1.1c0.3,0.2,0.6,0.4,0.9,0.4c0.3,0,0.5-0.1,0.7-0.2C17.6,156.6,17.8,156.4,17.9,156.1z
		 M15.4,154.9h2.5c0-0.4-0.1-0.6-0.3-0.8c-0.2-0.3-0.6-0.4-0.9-0.4c-0.3,0-0.6,0.1-0.9,0.4C15.6,154.2,15.4,154.5,15.4,154.9z
		 M22.5,157.5V157c-0.3,0.4-0.7,0.6-1.2,0.6c-0.4,0-0.7-0.1-1-0.3c-0.3-0.2-0.5-0.5-0.7-0.8c-0.2-0.3-0.2-0.7-0.2-1.2
		c0-0.4,0.1-0.8,0.2-1.2c0.1-0.4,0.4-0.6,0.7-0.8c0.3-0.2,0.6-0.3,1-0.3c0.3,0,0.5,0.1,0.7,0.2c0.2,0.1,0.4,0.2,0.5,0.4v-2.2h0.7v6
		H22.5z M20.1,155.3c0,0.6,0.1,1,0.4,1.2c0.2,0.3,0.5,0.4,0.9,0.4c0.3,0,0.6-0.1,0.9-0.4c0.2-0.3,0.3-0.7,0.3-1.2
		c0-0.6-0.1-1-0.4-1.3c-0.2-0.3-0.5-0.4-0.9-0.4c-0.3,0-0.6,0.2-0.8,0.4C20.3,154.3,20.1,154.8,20.1,155.3z M31.4,155.4l0.8,0.2
		c-0.2,0.7-0.5,1.2-0.9,1.5c-0.4,0.3-1,0.5-1.6,0.5c-0.7,0-1.2-0.1-1.6-0.4c-0.4-0.3-0.8-0.6-0.9-1.1c-0.2-0.5-0.3-1-0.3-1.6
		c0-0.6,0.1-1.2,0.4-1.6c0.2-0.5,0.6-0.8,1.1-1.1c0.5-0.2,1-0.4,1.5-0.4c0.6,0,1.1,0.2,1.6,0.5c0.4,0.3,0.7,0.7,0.9,1.3l-0.8,0.2
		c-0.2-0.4-0.4-0.8-0.6-0.9c-0.3-0.2-0.6-0.3-1-0.3c-0.5,0-0.9,0.1-1.2,0.3c-0.3,0.2-0.5,0.5-0.7,0.9c-0.1,0.4-0.2,0.7-0.2,1.1
		c0,0.5,0.1,1,0.2,1.3c0.2,0.4,0.4,0.7,0.7,0.8c0.3,0.2,0.7,0.3,1,0.3c0.5,0,0.9-0.1,1.2-0.4C31,156.3,31.2,155.9,31.4,155.4z
		 M36,157c-0.3,0.2-0.6,0.4-0.8,0.5c-0.3,0.1-0.5,0.1-0.8,0.1c-0.5,0-0.9-0.1-1.1-0.3c-0.3-0.2-0.4-0.5-0.4-0.9
		c0-0.2,0.1-0.4,0.1-0.6c0.1-0.2,0.2-0.3,0.4-0.4c0.2-0.1,0.4-0.2,0.6-0.2c0.2,0,0.4-0.1,0.7-0.1c0.6-0.1,1.1-0.2,1.3-0.2
		c0-0.1,0-0.2,0-0.2c0-0.3-0.1-0.5-0.2-0.6c-0.2-0.2-0.5-0.2-0.9-0.2c-0.3,0-0.6,0.1-0.8,0.2c-0.2,0.1-0.3,0.3-0.4,0.7l-0.8-0.1
		c0.1-0.3,0.2-0.6,0.3-0.8c0.2-0.2,0.4-0.3,0.7-0.4c0.3-0.1,0.6-0.2,1-0.2c0.4,0,0.7,0,0.9,0.1c0.2,0.1,0.4,0.2,0.5,0.3
		c0.1,0.1,0.2,0.3,0.2,0.5c0,0.1,0,0.4,0,0.7v1c0,0.7,0,1.1,0.1,1.3c0,0.2,0.1,0.4,0.2,0.5h-0.8C36.1,157.4,36,157.2,36,157z
		 M35.9,155.3c-0.3,0.1-0.7,0.2-1.2,0.3c-0.3,0.1-0.5,0.1-0.7,0.2c-0.1,0.1-0.2,0.1-0.3,0.2c-0.1,0.1-0.1,0.2-0.1,0.4
		c0,0.2,0.1,0.4,0.2,0.5c0.2,0.1,0.4,0.2,0.7,0.2s0.6-0.1,0.8-0.2c0.2-0.1,0.4-0.3,0.5-0.5c0.1-0.2,0.1-0.4,0.1-0.7V155.3z
		 M37.9,159.2v-6h0.7v0.6c0.1-0.2,0.3-0.4,0.5-0.5c0.2-0.1,0.5-0.2,0.8-0.2c0.4,0,0.7,0.1,1,0.3c0.3,0.2,0.5,0.5,0.7,0.8
		c0.1,0.3,0.2,0.7,0.2,1.1c0,0.4-0.1,0.8-0.2,1.2c-0.2,0.4-0.4,0.6-0.7,0.8c-0.3,0.2-0.6,0.3-1,0.3c-0.2,0-0.5,0-0.7-0.1
		c-0.2-0.1-0.4-0.2-0.5-0.4v2.1H37.9z M38.6,155.4c0,0.6,0.1,1,0.4,1.2c0.2,0.3,0.5,0.4,0.8,0.4c0.3,0,0.6-0.1,0.9-0.4
		c0.2-0.3,0.4-0.7,0.4-1.3c0-0.6-0.1-1-0.3-1.2c-0.2-0.3-0.5-0.4-0.8-0.4c-0.3,0-0.6,0.1-0.9,0.4S38.6,154.8,38.6,155.4z M45.6,157
		c-0.3,0.2-0.6,0.4-0.8,0.5c-0.3,0.1-0.5,0.1-0.8,0.1c-0.5,0-0.9-0.1-1.1-0.3c-0.3-0.2-0.4-0.5-0.4-0.9c0-0.2,0.1-0.4,0.2-0.6
		c0.1-0.2,0.2-0.3,0.4-0.4c0.1-0.1,0.3-0.2,0.5-0.2c0.2,0,0.4-0.1,0.7-0.1c0.6-0.1,1.1-0.2,1.4-0.2c0-0.1,0-0.2,0-0.2
		c0-0.3-0.1-0.5-0.2-0.6c-0.2-0.2-0.5-0.2-0.9-0.2c-0.4,0-0.6,0.1-0.8,0.2c-0.2,0.1-0.3,0.3-0.4,0.7l-0.8-0.1
		c0.1-0.3,0.2-0.6,0.3-0.8c0.1-0.2,0.4-0.3,0.7-0.4s0.6-0.2,1-0.2c0.4,0,0.7,0,0.9,0.1c0.2,0.1,0.4,0.2,0.5,0.3
		c0.1,0.1,0.2,0.3,0.2,0.5c0,0.1,0,0.4,0,0.7v1c0,0.7,0,1.1,0.1,1.3c0,0.2,0.1,0.4,0.2,0.5h-0.8C45.7,157.4,45.6,157.2,45.6,157z
		 M45.6,155.3c-0.3,0.1-0.7,0.2-1.2,0.3c-0.3,0.1-0.5,0.1-0.7,0.2c-0.1,0.1-0.2,0.1-0.3,0.2c-0.1,0.1-0.1,0.2-0.1,0.4
		c0,0.2,0.1,0.4,0.2,0.5c0.2,0.1,0.4,0.2,0.7,0.2c0.3,0,0.5-0.1,0.8-0.2c0.2-0.1,0.4-0.3,0.5-0.5c0.1-0.2,0.1-0.4,0.1-0.7V155.3z
		 M50.4,155.9l0.8,0.1c-0.1,0.5-0.3,0.9-0.6,1.2c-0.3,0.3-0.7,0.4-1.2,0.4c-0.6,0-1.1-0.2-1.5-0.6c-0.4-0.4-0.6-0.9-0.6-1.7
		c0-0.5,0.1-0.9,0.2-1.2c0.2-0.3,0.4-0.6,0.7-0.8c0.3-0.2,0.7-0.3,1.1-0.3c0.5,0,0.9,0.1,1.2,0.4c0.3,0.2,0.5,0.6,0.6,1l-0.7,0.1
		c-0.1-0.3-0.2-0.5-0.4-0.7c-0.2-0.2-0.4-0.2-0.7-0.2c-0.4,0-0.7,0.1-0.9,0.4c-0.2,0.3-0.4,0.7-0.4,1.3c0,0.6,0.1,1,0.3,1.3
		c0.2,0.3,0.5,0.4,0.9,0.4c0.3,0,0.5-0.1,0.7-0.3S50.4,156.3,50.4,155.9z M52.6,152.3h-0.8v-0.8h0.8V152.3z M52.6,157.5h-0.8v-4.3
		h0.8V157.5z M55.4,156.8l0.1,0.7c-0.2,0.1-0.4,0.1-0.6,0.1c-0.3,0-0.5,0-0.6-0.1c-0.2-0.1-0.3-0.2-0.3-0.3
		c-0.1-0.1-0.1-0.4-0.1-0.9v-2.5h-0.6v-0.6h0.6v-1.1l0.8-0.4v1.5h0.8v0.6h-0.8v2.5c0,0.2,0,0.3,0.1,0.4c0,0.1,0.1,0.1,0.1,0.1
		c0.1,0,0.1,0.1,0.3,0.1C55.2,156.9,55.3,156.9,55.4,156.8z M55.9,155.3c0-0.8,0.2-1.4,0.7-1.8c0.4-0.3,0.9-0.5,1.4-0.5
		c0.6,0,1.1,0.2,1.5,0.6c0.4,0.4,0.6,0.9,0.6,1.6c0,0.6-0.1,1-0.3,1.3c-0.2,0.3-0.4,0.6-0.8,0.8c-0.3,0.2-0.7,0.3-1.1,0.3
		c-0.6,0-1.1-0.2-1.5-0.6C56.1,156.6,55.9,156.1,55.9,155.3z M56.6,155.3c0,0.6,0.1,1,0.4,1.2s0.6,0.4,0.9,0.4
		c0.4,0,0.7-0.1,0.9-0.4c0.2-0.3,0.4-0.7,0.4-1.3c0-0.6-0.1-1-0.4-1.2c-0.2-0.3-0.6-0.4-0.9-0.4c-0.4,0-0.7,0.2-0.9,0.4
		S56.6,154.8,56.6,155.3z M60.9,157.5v-4.3h0.7v0.7c0.2-0.3,0.3-0.5,0.5-0.6c0.1-0.1,0.3-0.2,0.5-0.2c0.3,0,0.5,0.1,0.8,0.2
		l-0.3,0.7c-0.2-0.1-0.4-0.2-0.5-0.2c-0.2,0-0.3,0-0.5,0.1c-0.1,0.1-0.2,0.2-0.3,0.4c-0.1,0.3-0.1,0.6-0.1,0.9v2.3H60.9z
		 M67.7,159.3c-0.4-0.5-0.8-1.1-1.1-1.8c-0.3-0.7-0.4-1.4-0.4-2.1c0-0.7,0.1-1.3,0.3-1.9c0.3-0.7,0.7-1.4,1.2-2.1h0.5
		c-0.3,0.6-0.6,1-0.7,1.2c-0.2,0.4-0.3,0.8-0.4,1.2c-0.1,0.5-0.2,1-0.2,1.5c0,1.3,0.4,2.6,1.3,3.9H67.7z M69.2,157.5v-6h4.2v0.7
		h-3.3v1.9H73v0.7h-2.9v2.7H69.2z M75.2,152.3h-0.8v-0.8h0.8V152.3z M75.2,157.5h-0.8v-4.3h0.8V157.5z M77.1,157.5h-0.8v-6h0.8
		V157.5z M79.9,156.8l0.1,0.7c-0.2,0.1-0.4,0.1-0.6,0.1c-0.3,0-0.5,0-0.6-0.1c-0.2-0.1-0.3-0.2-0.3-0.3c-0.1-0.1-0.1-0.4-0.1-0.9
		v-2.5h-0.5v-0.6h0.5v-1.1l0.8-0.4v1.5h0.8v0.6h-0.8v2.5c0,0.2,0,0.3,0,0.4c0,0.1,0.1,0.1,0.1,0.1c0.1,0,0.1,0.1,0.3,0.1
		C79.6,156.9,79.8,156.9,79.9,156.8z M83.7,156.1l0.8,0.1c-0.1,0.4-0.4,0.8-0.7,1c-0.3,0.2-0.8,0.4-1.3,0.4c-0.7,0-1.2-0.2-1.6-0.6
		c-0.4-0.4-0.6-0.9-0.6-1.7c0-0.7,0.2-1.3,0.6-1.7c0.4-0.4,0.9-0.6,1.5-0.6c0.6,0,1.1,0.2,1.5,0.6c0.4,0.4,0.6,1,0.6,1.7
		c0,0,0,0.1,0,0.2h-3.3c0,0.5,0.2,0.8,0.4,1.1s0.5,0.4,0.9,0.4c0.3,0,0.5-0.1,0.7-0.2C83.4,156.6,83.6,156.4,83.7,156.1z
		 M81.2,154.9h2.5c0-0.4-0.1-0.6-0.3-0.8c-0.2-0.3-0.6-0.4-0.9-0.4c-0.4,0-0.6,0.1-0.9,0.4C81.4,154.2,81.2,154.5,81.2,154.9z
		 M85.4,157.5v-4.3h0.7v0.7c0.2-0.3,0.3-0.5,0.5-0.6c0.1-0.1,0.3-0.2,0.5-0.2c0.2,0,0.5,0.1,0.8,0.2l-0.3,0.7
		c-0.2-0.1-0.4-0.2-0.6-0.2c-0.2,0-0.3,0-0.4,0.1s-0.2,0.2-0.3,0.4c-0.1,0.3-0.1,0.6-0.1,0.9v2.3H85.4z M88.8,159.3h-0.6
		c0.8-1.3,1.3-2.6,1.3-3.9c0-0.5-0.1-1-0.2-1.5c-0.1-0.4-0.2-0.8-0.4-1.2c-0.1-0.2-0.3-0.6-0.7-1.2h0.6c0.5,0.7,0.9,1.4,1.2,2.1
		c0.2,0.6,0.3,1.2,0.3,1.9c0,0.7-0.2,1.4-0.4,2.1S89.2,158.8,88.8,159.3"/>
	<path class="st6" d="M63.9,127.1l8.5-8.5"/>
	<path class="st1" d="M75.2,115.8l-4.9,2.9h2.1v2.1L75.2,115.8"/>
	<path class="st2" d="M75.3,115.9l-4.9,2.9l-0.1-0.4h2.1c0.1,0,0.2,0.1,0.2,0.2v2.1l-0.4-0.1l2.8-4.9c0.1-0.1,0.2-0.1,0.3-0.1
		C75.4,115.7,75.5,115.8,75.3,115.9l-2.7,4.9c0,0.1-0.1,0.1-0.2,0.1c-0.1,0-0.1-0.1-0.1-0.2v-2.1l0.2,0.2h-2.1
		c-0.1,0-0.2-0.1-0.2-0.1c0-0.1,0-0.2,0.1-0.2l4.9-2.9c0.1-0.1,0.2,0,0.3,0.1C75.5,115.8,75.4,115.9,75.3,115.9"/>
	<path class="st1" d="M45,86.5v-6h4.2v0.7h-3.3v1.9h2.9v0.7h-2.9v2.7H45z M50.9,81.4h-0.8v-0.8h0.8V81.4z M50.9,86.5h-0.8v-4.3h0.8
		V86.5z M51.6,86.5l1.6-2.3l-1.5-2.1h0.9l0.7,1c0.1,0.2,0.2,0.3,0.3,0.5c0.1-0.2,0.2-0.3,0.3-0.5l0.8-1h0.9l-1.6,2l1.7,2.3h-0.9
		l-0.9-1.4l-0.2-0.4l-1.2,1.7H51.6z M59.4,85.1l0.8,0.1c-0.1,0.4-0.3,0.8-0.7,1c-0.3,0.2-0.8,0.4-1.3,0.4c-0.7,0-1.2-0.2-1.6-0.6
		c-0.4-0.4-0.6-0.9-0.6-1.6c0-0.7,0.2-1.3,0.6-1.7c0.4-0.4,0.9-0.6,1.5-0.6c0.6,0,1.1,0.2,1.5,0.6c0.4,0.4,0.6,1,0.6,1.7
		c0,0,0,0.1,0,0.2h-3.3c0,0.5,0.2,0.8,0.4,1.1c0.2,0.3,0.6,0.4,0.9,0.4c0.3,0,0.5-0.1,0.7-0.2C59.2,85.7,59.3,85.4,59.4,85.1z
		 M57,83.9h2.5c0-0.4-0.1-0.6-0.3-0.8c-0.2-0.3-0.6-0.4-0.9-0.4c-0.3,0-0.6,0.1-0.9,0.3C57.1,83.3,57,83.5,57,83.9z M64.1,86.5V86
		c-0.3,0.4-0.7,0.6-1.2,0.6c-0.4,0-0.7-0.1-1-0.3c-0.3-0.2-0.5-0.5-0.7-0.8c-0.2-0.3-0.2-0.7-0.2-1.2c0-0.4,0.1-0.8,0.2-1.2
		c0.1-0.3,0.4-0.6,0.7-0.8c0.3-0.2,0.6-0.3,1-0.3c0.3,0,0.5,0.1,0.7,0.2c0.2,0.1,0.4,0.2,0.5,0.4v-2.1h0.7v6H64.1z M61.7,84.3
		c0,0.6,0.1,1,0.4,1.2c0.2,0.3,0.5,0.4,0.9,0.4c0.3,0,0.6-0.1,0.8-0.4c0.2-0.3,0.4-0.7,0.4-1.2c0-0.6-0.1-1-0.4-1.3
		c-0.2-0.3-0.5-0.4-0.9-0.4c-0.3,0-0.6,0.1-0.8,0.4C61.8,83.4,61.7,83.8,61.7,84.3z M72.9,84.4l0.8,0.2c-0.2,0.6-0.5,1.1-0.9,1.5
		c-0.4,0.3-1,0.5-1.6,0.5c-0.7,0-1.2-0.1-1.6-0.4c-0.4-0.3-0.8-0.6-0.9-1.1c-0.2-0.5-0.3-1-0.3-1.6c0-0.6,0.1-1.2,0.4-1.6
		c0.2-0.5,0.6-0.8,1.1-1.1c0.4-0.2,0.9-0.3,1.5-0.3c0.6,0,1.1,0.1,1.6,0.4c0.4,0.3,0.7,0.7,0.9,1.3l-0.8,0.2
		c-0.2-0.4-0.4-0.8-0.6-0.9c-0.3-0.2-0.6-0.3-1-0.3c-0.5,0-0.9,0.1-1.2,0.3c-0.3,0.2-0.5,0.5-0.7,0.9c-0.1,0.4-0.2,0.8-0.2,1.1
		c0,0.5,0.1,1,0.2,1.3c0.2,0.4,0.4,0.7,0.7,0.9c0.3,0.2,0.7,0.3,1,0.3c0.5,0,0.8-0.1,1.2-0.4C72.6,85.3,72.8,84.9,72.9,84.4z
		 M77.6,86c-0.3,0.2-0.6,0.4-0.8,0.5c-0.3,0.1-0.5,0.1-0.8,0.1c-0.5,0-0.9-0.1-1.1-0.3c-0.3-0.2-0.4-0.5-0.4-0.9
		c0-0.2,0.1-0.4,0.1-0.6c0.1-0.2,0.2-0.3,0.4-0.4s0.4-0.2,0.6-0.2c0.2,0,0.4-0.1,0.7-0.1c0.6-0.1,1.1-0.2,1.3-0.3c0-0.1,0-0.2,0-0.2
		c0-0.3-0.1-0.5-0.2-0.6c-0.2-0.2-0.5-0.2-0.9-0.2c-0.3,0-0.6,0.1-0.8,0.2c-0.2,0.1-0.3,0.3-0.4,0.6l-0.7-0.1
		c0.1-0.3,0.2-0.6,0.3-0.8c0.2-0.2,0.4-0.3,0.7-0.4c0.3-0.1,0.6-0.2,1-0.2c0.4,0,0.7,0.1,0.9,0.1c0.2,0.1,0.4,0.2,0.5,0.3
		c0.1,0.1,0.2,0.3,0.2,0.5c0,0.1,0,0.3,0,0.7v1c0,0.7,0,1.1,0.1,1.3c0,0.2,0.1,0.4,0.2,0.5h-0.8C77.6,86.4,77.6,86.2,77.6,86z
		 M77.5,84.3c-0.3,0.1-0.7,0.2-1.2,0.3c-0.3,0-0.5,0.1-0.7,0.1c-0.1,0.1-0.2,0.1-0.3,0.2c-0.1,0.1-0.1,0.2-0.1,0.4
		c0,0.2,0.1,0.4,0.2,0.5c0.2,0.1,0.4,0.2,0.7,0.2s0.6-0.1,0.8-0.2c0.2-0.1,0.4-0.3,0.5-0.5c0.1-0.2,0.1-0.4,0.1-0.7V84.3z
		 M79.4,88.2v-6h0.7v0.6c0.1-0.2,0.3-0.4,0.5-0.5c0.2-0.1,0.5-0.2,0.8-0.2c0.4,0,0.7,0.1,1,0.3c0.3,0.2,0.5,0.5,0.7,0.8
		s0.2,0.7,0.2,1.2s-0.1,0.8-0.2,1.2c-0.2,0.3-0.4,0.6-0.7,0.8c-0.3,0.2-0.6,0.3-1,0.3c-0.2,0-0.5,0-0.7-0.1
		c-0.2-0.1-0.4-0.2-0.5-0.4v2.1H79.4z M80.1,84.4c0,0.6,0.1,1,0.4,1.2c0.2,0.2,0.5,0.4,0.8,0.4s0.6-0.2,0.9-0.4
		c0.2-0.3,0.4-0.7,0.4-1.3c0-0.6-0.1-1-0.3-1.2c-0.2-0.3-0.5-0.4-0.8-0.4c-0.3,0-0.6,0.1-0.9,0.4C80.3,83.4,80.1,83.8,80.1,84.4z
		 M87.2,86c-0.3,0.2-0.6,0.4-0.8,0.5c-0.3,0.1-0.6,0.1-0.9,0.1c-0.5,0-0.9-0.1-1.1-0.3C84.1,86,84,85.7,84,85.4
		c0-0.2,0.1-0.4,0.2-0.6c0.1-0.2,0.2-0.3,0.4-0.4c0.2-0.1,0.4-0.2,0.6-0.2c0.1,0,0.4-0.1,0.7-0.1c0.6-0.1,1.1-0.2,1.4-0.3
		c0-0.1,0-0.2,0-0.2c0-0.3-0.1-0.5-0.2-0.6c-0.2-0.2-0.5-0.2-0.9-0.2c-0.3,0-0.6,0.1-0.8,0.2c-0.2,0.1-0.3,0.3-0.4,0.6l-0.8-0.1
		c0.1-0.3,0.2-0.6,0.3-0.8c0.1-0.2,0.4-0.3,0.7-0.4c0.3-0.1,0.6-0.2,1-0.2c0.4,0,0.7,0.1,0.9,0.1c0.2,0.1,0.4,0.2,0.5,0.3
		c0.1,0.1,0.2,0.3,0.2,0.5c0,0.1,0,0.3,0,0.7v1c0,0.7,0,1.1,0.1,1.3c0,0.2,0.1,0.4,0.2,0.5h-0.8C87.2,86.4,87.2,86.2,87.2,86z
		 M87.1,84.3c-0.3,0.1-0.7,0.2-1.2,0.3c-0.3,0-0.5,0.1-0.7,0.1c-0.1,0.1-0.2,0.1-0.3,0.2c-0.1,0.1-0.1,0.2-0.1,0.4
		c0,0.2,0.1,0.4,0.2,0.5c0.2,0.1,0.4,0.2,0.7,0.2c0.3,0,0.6-0.1,0.8-0.2c0.2-0.1,0.4-0.3,0.5-0.5c0.1-0.2,0.1-0.4,0.1-0.7V84.3z
		 M92,84.9l0.8,0.1c-0.1,0.5-0.3,0.9-0.6,1.2c-0.3,0.3-0.7,0.4-1.2,0.4c-0.6,0-1.1-0.2-1.5-0.6c-0.4-0.4-0.6-0.9-0.6-1.7
		c0-0.5,0.1-0.9,0.2-1.2c0.2-0.4,0.4-0.6,0.7-0.8c0.3-0.2,0.7-0.3,1.1-0.3c0.5,0,0.9,0.1,1.2,0.4c0.3,0.2,0.5,0.6,0.6,1l-0.7,0.1
		c-0.1-0.3-0.2-0.5-0.4-0.7c-0.2-0.1-0.4-0.2-0.7-0.2c-0.4,0-0.7,0.1-0.9,0.4c-0.2,0.3-0.4,0.7-0.4,1.3c0,0.6,0.1,1,0.4,1.3
		c0.2,0.2,0.5,0.4,0.9,0.4c0.3,0,0.6-0.1,0.7-0.3C91.8,85.6,91.9,85.3,92,84.9z M94.1,81.4h-0.8v-0.8h0.8V81.4z M94.1,86.5h-0.8
		v-4.3h0.8V86.5z M97,85.9l0.1,0.7c-0.2,0-0.4,0.1-0.6,0.1c-0.3,0-0.5,0-0.6-0.1c-0.2-0.1-0.3-0.2-0.3-0.3c-0.1-0.2-0.1-0.4-0.1-0.9
		v-2.5h-0.6v-0.6h0.6v-1.1l0.8-0.4v1.5H97v0.6h-0.8v2.6c0,0.2,0,0.3,0.1,0.4c0,0.1,0.1,0.1,0.1,0.1c0.1,0,0.1,0,0.3,0
		C96.7,85.9,96.8,85.9,97,85.9z M97.4,84.3c0-0.8,0.2-1.4,0.7-1.8c0.4-0.3,0.9-0.5,1.4-0.5c0.6,0,1.1,0.2,1.5,0.6
		c0.4,0.4,0.6,0.9,0.6,1.6c0,0.6-0.1,1-0.3,1.3c-0.2,0.3-0.4,0.6-0.8,0.7c-0.3,0.2-0.7,0.3-1.1,0.3c-0.6,0-1.1-0.2-1.5-0.6
		C97.6,85.6,97.4,85.1,97.4,84.3z M98.2,84.3c0,0.6,0.1,1,0.4,1.2s0.6,0.4,0.9,0.4c0.4,0,0.7-0.2,0.9-0.4s0.4-0.7,0.4-1.3
		c0-0.6-0.1-0.9-0.4-1.2c-0.2-0.3-0.6-0.4-0.9-0.4c-0.4,0-0.7,0.1-0.9,0.4S98.2,83.8,98.2,84.3z M102.5,86.5v-4.3h0.7v0.6
		c0.2-0.3,0.3-0.5,0.5-0.6c0.1-0.1,0.3-0.2,0.5-0.2c0.3,0,0.5,0.1,0.8,0.2l-0.3,0.7c-0.2-0.1-0.4-0.2-0.6-0.2c-0.2,0-0.3,0-0.4,0.1
		c-0.1,0.1-0.2,0.2-0.3,0.4c-0.1,0.3-0.1,0.5-0.1,0.9v2.3H102.5z M109.2,88.3c-0.4-0.5-0.8-1.1-1.1-1.8c-0.3-0.7-0.4-1.4-0.4-2.1
		c0-0.6,0.1-1.3,0.3-1.9c0.2-0.7,0.7-1.4,1.2-2h0.5c-0.3,0.6-0.6,1-0.7,1.2c-0.2,0.4-0.3,0.8-0.4,1.2c-0.1,0.5-0.2,1-0.2,1.5
		c0,1.3,0.4,2.6,1.3,3.9H109.2z M110.8,86.5v-6h4.2v0.7h-3.3v1.9h2.9v0.7h-2.9v2.7H110.8z M116.7,81.4h-0.8v-0.8h0.8V81.4z
		 M116.7,86.5h-0.8v-4.3h0.8V86.5z M118.6,86.5h-0.8v-6h0.8V86.5z M121.4,85.9l0.1,0.7c-0.2,0-0.4,0.1-0.6,0.1c-0.3,0-0.5,0-0.6-0.1
		c-0.2-0.1-0.3-0.2-0.3-0.3c0-0.2-0.1-0.4-0.1-0.9v-2.5h-0.5v-0.6h0.5v-1.1l0.8-0.4v1.5h0.8v0.6h-0.8v2.6c0,0.2,0,0.3,0,0.4
		c0,0.1,0.1,0.1,0.1,0.1c0.1,0,0.1,0,0.3,0C121.2,85.9,121.3,85.9,121.4,85.9z M125.3,85.1l0.8,0.1c-0.1,0.4-0.4,0.8-0.7,1
		c-0.3,0.2-0.8,0.4-1.3,0.4c-0.7,0-1.2-0.2-1.6-0.6c-0.4-0.4-0.6-0.9-0.6-1.6c0-0.7,0.2-1.3,0.6-1.7c0.4-0.4,0.9-0.6,1.5-0.6
		c0.6,0,1.1,0.2,1.5,0.6c0.4,0.4,0.6,1,0.6,1.7c0,0,0,0.1,0,0.2h-3.3c0,0.5,0.2,0.8,0.4,1.1c0.2,0.3,0.5,0.4,0.9,0.4
		c0.3,0,0.5-0.1,0.7-0.2C125,85.7,125.1,85.4,125.3,85.1z M122.8,83.9h2.5c0-0.4-0.1-0.6-0.3-0.8c-0.2-0.3-0.6-0.4-1-0.4
		c-0.3,0-0.6,0.1-0.9,0.3C122.9,83.3,122.8,83.5,122.8,83.9z M127,86.5v-4.3h0.7v0.6c0.2-0.3,0.3-0.5,0.5-0.6
		c0.1-0.1,0.3-0.2,0.5-0.2c0.2,0,0.5,0.1,0.8,0.2l-0.3,0.7c-0.2-0.1-0.4-0.2-0.6-0.2c-0.2,0-0.3,0-0.4,0.1c-0.1,0.1-0.2,0.2-0.3,0.4
		c-0.1,0.3-0.1,0.5-0.1,0.9v2.3H127z M130.4,88.3h-0.6c0.8-1.3,1.3-2.6,1.3-3.9c0-0.5-0.1-1-0.2-1.5c-0.1-0.4-0.2-0.8-0.4-1.2
		c-0.1-0.2-0.3-0.7-0.7-1.2h0.6c0.5,0.7,0.9,1.4,1.2,2c0.2,0.6,0.3,1.2,0.3,1.9c0,0.7-0.2,1.4-0.4,2.1
		C131.1,87.2,130.8,87.8,130.4,88.3"/>
	<path class="st6" d="M97.9,78.1L113,72"/>
	<path class="st1" d="M116.8,70.5l-5.7,0.8L113,72l-0.9,1.9L116.8,70.5"/>
	<path class="st2" d="M116.8,70.7l-5.7,0.8l0.1-0.4l1.9,0.7c0,0,0.1,0.1,0.1,0.1c0,0.1,0,0.1,0,0.2l-1,1.9l-0.3-0.2l4.7-3.4
		c0.1-0.1,0.2-0.1,0.3,0.1C117,70.5,117,70.6,116.8,70.7l-4.6,3.4c-0.1,0.1-0.2,0.1-0.2,0c-0.1-0.1-0.1-0.2-0.1-0.2l1-1.9l0.1,0.3
		l-1.9-0.7c-0.1,0-0.1-0.1-0.1-0.2c0-0.1,0.1-0.2,0.2-0.2l5.7-0.8c0.1,0,0.2,0.1,0.2,0.2C117,70.6,116.9,70.7,116.8,70.7"/>
	<path class="st6" d="M256.5,36.6l11.1,2.8"/>
	<path class="st1" d="M271.6,40.4l-5.1-2.6l1.1,1.7l-1.7,1H271.6"/>
	<path class="st2" d="M271.5,40.6l-5.1-2.6l0.2-0.3l1.1,1.7c0,0.1,0,0.1,0,0.2c0,0-0.1,0.1-0.1,0.1l-1.7,0.9l-0.1-0.4h5.7
		c0.1,0,0.2,0.1,0.2,0.2C271.8,40.5,271.7,40.6,271.5,40.6l-5.6,0c-0.1,0-0.2-0.1-0.2-0.2c0-0.1,0-0.2,0.1-0.2l1.7-1l-0.1,0.3
		l-1.1-1.7c-0.1-0.1,0-0.2,0-0.2c0.1-0.1,0.2-0.1,0.2,0l5.1,2.6c0.1,0,0.1,0.2,0.1,0.3C271.7,40.6,271.6,40.6,271.5,40.6"/>
	<path class="st1" d="M135.6,71l-2.4-6h0.9l1.6,4.4c0.1,0.3,0.2,0.7,0.3,1c0.1-0.3,0.2-0.7,0.3-1l1.7-4.4h0.8l-2.4,6H135.6z
		 M139.5,71v-4.3h0.7v0.7c0.2-0.3,0.3-0.5,0.5-0.6c0.1-0.1,0.3-0.1,0.5-0.1c0.2,0,0.5,0.1,0.8,0.2l-0.3,0.7
		c-0.2-0.1-0.4-0.2-0.6-0.2c-0.2,0-0.3,0.1-0.4,0.1c-0.1,0.1-0.2,0.2-0.3,0.4c-0.1,0.3-0.1,0.5-0.1,0.9V71H139.5z M145.5,69.6
		l0.8,0.1c-0.1,0.4-0.3,0.8-0.7,1c-0.3,0.2-0.8,0.4-1.3,0.4c-0.7,0-1.2-0.2-1.6-0.6c-0.4-0.4-0.6-0.9-0.6-1.6c0-0.7,0.2-1.3,0.6-1.7
		c0.4-0.4,0.9-0.6,1.5-0.6c0.6,0,1.1,0.2,1.5,0.6c0.4,0.4,0.6,1,0.6,1.7c0,0,0,0.1,0,0.2H143c0,0.5,0.2,0.8,0.4,1.1
		c0.2,0.3,0.6,0.4,0.9,0.4c0.3,0,0.5-0.1,0.7-0.2C145.2,70.1,145.4,69.9,145.5,69.6z M143,68.4h2.5c0-0.4-0.1-0.6-0.3-0.8
		c-0.2-0.3-0.6-0.4-0.9-0.4c-0.3,0-0.6,0.1-0.9,0.4C143.2,67.7,143,68,143,68.4z M147.4,71v-3.8h-0.7v-0.6h0.7v-0.5
		c0-0.3,0-0.5,0.1-0.6c0.1-0.2,0.2-0.4,0.4-0.5c0.2-0.1,0.4-0.2,0.8-0.2c0.2,0,0.4,0,0.7,0.1l-0.1,0.6c-0.1,0-0.3,0-0.4,0
		c-0.2,0-0.4,0.1-0.5,0.2c-0.1,0.1-0.1,0.3-0.1,0.5v0.4h0.9v0.6h-0.9V71H147.4"/>
	<path class="st7" d="M22.4,70.5l135.9-15.1"/>
	<path class="st6" d="M147,63l3.8-1.9"/>
	<path class="st1" d="M154.6,59.2l-5.7,1.2l1.8,0.7l-0.6,1.9L154.6,59.2"/>
	<path class="st2" d="M154.6,59.4l-5.7,1.2l0-0.4l1.8,0.7c0.1,0,0.1,0.1,0.1,0.2l-0.6,1.9l-0.3-0.2l4.4-3.8c0.1-0.1,0.2-0.1,0.3,0
		C154.8,59.1,154.8,59.3,154.6,59.4l-4.3,3.8c-0.1,0.1-0.2,0.1-0.2,0c-0.1,0-0.1-0.1-0.1-0.2l0.6-1.9l0.1,0.2l-1.8-0.7
		c-0.1,0-0.1-0.1-0.1-0.2c0-0.1,0.1-0.2,0.1-0.2l5.7-1.2c0.1,0,0.2,0,0.2,0.1C154.8,59.3,154.7,59.4,154.6,59.4"/>
	<path class="st1" d="M127.8,55.7l-2.4-6h0.9l1.6,4.4c0.1,0.3,0.2,0.7,0.3,1c0.1-0.3,0.2-0.7,0.3-1l1.7-4.4h0.8l-2.4,6H127.8z
		 M131.4,53.5c0-0.8,0.2-1.4,0.7-1.8c0.4-0.3,0.9-0.5,1.4-0.5c0.6,0,1.1,0.2,1.5,0.6c0.4,0.4,0.6,0.9,0.6,1.6c0,0.6-0.1,1-0.3,1.3
		c-0.2,0.3-0.4,0.6-0.8,0.7c-0.3,0.2-0.7,0.3-1.1,0.3c-0.6,0-1.1-0.2-1.5-0.6C131.6,54.8,131.4,54.3,131.4,53.5z M132.1,53.5
		c0,0.6,0.1,1,0.4,1.2s0.6,0.4,0.9,0.4c0.4,0,0.7-0.2,0.9-0.4s0.4-0.7,0.4-1.3c0-0.6-0.1-0.9-0.4-1.2c-0.2-0.3-0.6-0.4-0.9-0.4
		c-0.4,0-0.7,0.1-0.9,0.4S132.1,53,132.1,53.5"/>
	<path class="st6" d="M139.4,51.7h11"/>
	<path class="st1" d="M154.6,51.7l-5.5-1.3l1.4,1.3l-1.4,1.3L154.6,51.7"/>
	<path class="st2" d="M154.5,51.9l-5.5-1.4l0.2-0.3l1.4,1.4c0,0,0.1,0.1,0.1,0.1c0,0.1,0,0.1-0.1,0.1l-1.4,1.3l-0.2-0.3l5.5-1.3
		c0.1,0,0.2,0,0.2,0.2C154.8,51.8,154.7,51.9,154.5,51.9l-5.4,1.3c-0.1,0-0.2,0-0.2-0.1c0-0.1,0-0.2,0-0.2l1.3-1.3v0.3l-1.3-1.3
		c-0.1-0.1-0.1-0.2,0-0.2c0-0.1,0.1-0.1,0.2-0.1l5.5,1.4c0.1,0,0.2,0.1,0.1,0.2S154.6,51.9,154.5,51.9"/>
	<path class="st0" d="M158.3,10.2v166"/>
	<path class="st0" d="M158.3,10.2V6.8"/>
	<path class="st1" d="M158.3,2.7L157,8.1l1.3-1.3l1.3,1.3L158.3,2.7"/>
	<g>
		<defs>
			<rect id="SVGID_1_" x="155.6" y="2.1" width="5" height="7.4"/>
		</defs>
		<clipPath id="SVGID_00000045577539517204917750000006935915655583549861_">
			<use xlink:href="#SVGID_1_"  style="overflow:visible;"/>
		</clipPath>
		<g style="clip-path:url(#SVGID_00000045577539517204917750000006935915655583549861_);">
			<path class="st2" d="M158.8,2.8l-1.3,5.4l-0.9-0.5l1.3-1.3c0.2-0.2,0.6-0.2,0.8,0l1.4,1.3l-0.9,0.6l-1.3-5.4
				c-0.1-0.3,0.1-0.6,0.4-0.7c0.3-0.1,0.6,0.1,0.7,0.4l1.4,5.4c0.1,0.2,0,0.5-0.3,0.6c-0.2,0.1-0.5,0.1-0.7-0.1l-1.4-1.3l0.8,0
				l-1.3,1.3c-0.2,0.2-0.4,0.2-0.7,0.1c-0.2-0.1-0.3-0.4-0.3-0.6l1.3-5.4c0.1-0.3,0.4-0.5,0.7-0.4C158.7,2.2,158.9,2.5,158.8,2.8"/>
		</g>
	</g>
	<path class="st6" d="M256.5,123.3l-16.3-19.4"/>
	<path class="st1" d="M237.6,100.7l2.5,5.1l0.2-1.9l1.9,0.2L237.6,100.7"/>
	<path class="st2" d="M237.8,100.6l2.5,5.1l-0.4,0.1l0.2-1.9c0,0,0-0.1,0.1-0.1c0,0,0.1,0,0.2,0l1.9,0.2l-0.1,0.3l-4.5-3.4
		c-0.1-0.1-0.1-0.2-0.1-0.3S237.6,100.5,237.8,100.6l4.5,3.3c0.1,0.1,0.1,0.2,0.1,0.2c0,0.1-0.1,0.1-0.2,0.1l-1.9-0.2l0.2-0.2
		l-0.2,1.9c0,0.1-0.1,0.2-0.2,0.2c-0.1,0-0.2,0-0.2-0.1l-2.5-5.1c-0.1-0.1,0-0.2,0.1-0.3C237.6,100.5,237.8,100.5,237.8,100.6"/>
	<path class="st1" d="M246.8,133.1v-6h2.8c0.5,0,1,0.1,1.2,0.2c0.3,0.1,0.5,0.3,0.7,0.6c0.2,0.3,0.3,0.6,0.3,0.9
		c0,0.4-0.2,0.8-0.4,1.1c-0.3,0.3-0.7,0.5-1.3,0.6c0.2,0.1,0.4,0.2,0.5,0.3c0.2,0.2,0.5,0.5,0.7,0.8l1.1,1.6h-1l-0.8-1.3
		c-0.2-0.4-0.4-0.6-0.6-0.8c-0.2-0.2-0.3-0.3-0.4-0.4c-0.1-0.1-0.2-0.1-0.4-0.2c-0.1,0-0.2,0-0.5,0h-0.9v2.7H246.8z M247.6,129.7
		h1.8c0.4,0,0.7,0,0.9-0.1c0.2-0.1,0.4-0.2,0.5-0.4c0.1-0.2,0.2-0.4,0.2-0.5c0-0.3-0.1-0.5-0.3-0.7c-0.2-0.2-0.5-0.3-1-0.3h-2V129.7
		z M256,131.7l0.8,0.1c-0.1,0.4-0.4,0.8-0.7,1c-0.3,0.2-0.8,0.4-1.3,0.4c-0.7,0-1.2-0.2-1.6-0.6c-0.4-0.4-0.6-0.9-0.6-1.6
		c0-0.7,0.2-1.3,0.6-1.7c0.4-0.4,0.9-0.6,1.5-0.6c0.6,0,1.1,0.2,1.5,0.6c0.4,0.4,0.6,1,0.6,1.7c0,0,0,0.1,0,0.2h-3.3
		c0,0.5,0.2,0.8,0.4,1.1c0.2,0.2,0.6,0.4,0.9,0.4c0.3,0,0.5-0.1,0.7-0.2C255.7,132.2,255.9,132,256,131.7z M253.5,130.5h2.5
		c0-0.4-0.1-0.7-0.3-0.8c-0.2-0.3-0.6-0.4-0.9-0.4c-0.4,0-0.6,0.1-0.9,0.3C253.7,129.8,253.5,130.1,253.5,130.5z M260.7,132.5
		c-0.3,0.2-0.5,0.4-0.8,0.5c-0.3,0.1-0.5,0.1-0.8,0.1c-0.5,0-0.9-0.1-1.1-0.3c-0.3-0.2-0.4-0.5-0.4-0.9c0-0.2,0.1-0.4,0.2-0.6
		c0.1-0.2,0.2-0.3,0.4-0.4c0.2-0.1,0.4-0.2,0.6-0.2c0.2,0,0.4-0.1,0.7-0.1c0.6-0.1,1.1-0.1,1.3-0.2c0-0.1,0-0.2,0-0.2
		c0-0.3-0.1-0.5-0.2-0.6c-0.2-0.2-0.5-0.2-0.9-0.2c-0.4,0-0.6,0.1-0.8,0.2c-0.2,0.1-0.3,0.3-0.4,0.6l-0.7-0.1
		c0.1-0.3,0.2-0.6,0.3-0.8c0.1-0.2,0.4-0.3,0.7-0.4c0.3-0.1,0.6-0.2,1-0.2c0.4,0,0.7,0,0.9,0.1c0.2,0.1,0.4,0.2,0.5,0.3
		c0.1,0.1,0.2,0.3,0.2,0.5c0,0.1,0,0.4,0,0.7v1c0,0.7,0,1.1,0,1.3c0,0.2,0.1,0.4,0.2,0.5h-0.8C260.7,132.9,260.7,132.7,260.7,132.5z
		 M260.6,130.9c-0.3,0.1-0.7,0.2-1.2,0.3c-0.3,0-0.5,0.1-0.7,0.1c-0.1,0.1-0.2,0.1-0.3,0.2c-0.1,0.1-0.1,0.2-0.1,0.4
		c0,0.2,0.1,0.4,0.2,0.5c0.2,0.1,0.4,0.2,0.7,0.2c0.3,0,0.6-0.1,0.8-0.2c0.2-0.1,0.4-0.3,0.5-0.5c0.1-0.2,0.1-0.4,0.1-0.7V130.9z
		 M265.5,131.5l0.8,0.1c-0.1,0.5-0.3,0.9-0.6,1.2c-0.3,0.3-0.7,0.4-1.2,0.4c-0.6,0-1.1-0.2-1.5-0.6c-0.4-0.4-0.6-0.9-0.6-1.7
		c0-0.5,0.1-0.9,0.2-1.2c0.2-0.4,0.4-0.6,0.7-0.8c0.3-0.2,0.7-0.3,1.1-0.3c0.5,0,0.9,0.1,1.2,0.4c0.3,0.2,0.5,0.6,0.6,1l-0.7,0.1
		c-0.1-0.3-0.2-0.5-0.4-0.7c-0.2-0.2-0.4-0.2-0.6-0.2c-0.4,0-0.7,0.1-0.9,0.4c-0.2,0.3-0.4,0.7-0.4,1.3c0,0.6,0.1,1,0.4,1.3
		c0.2,0.3,0.5,0.4,0.9,0.4c0.3,0,0.6-0.1,0.8-0.3C265.3,132.1,265.4,131.9,265.5,131.5z M268.5,132.4l0.1,0.6
		c-0.2,0-0.4,0.1-0.6,0.1c-0.3,0-0.5,0-0.6-0.1c-0.2-0.1-0.3-0.2-0.3-0.3c-0.1-0.2-0.1-0.4-0.1-0.9v-2.5h-0.6v-0.6h0.6v-1.1l0.8-0.4
		v1.5h0.8v0.6h-0.8v2.5c0,0.2,0,0.4,0,0.4s0.1,0.1,0.1,0.1c0.1,0,0.2,0.1,0.2,0.1C268.3,132.4,268.4,132.4,268.5,132.4z M269,130.9
		c0-0.8,0.2-1.4,0.7-1.8c0.4-0.3,0.9-0.5,1.4-0.5c0.6,0,1.1,0.2,1.5,0.6c0.4,0.4,0.6,0.9,0.6,1.6c0,0.6-0.1,1-0.3,1.3
		c-0.2,0.3-0.4,0.6-0.8,0.8c-0.3,0.2-0.7,0.3-1.1,0.3c-0.6,0-1.1-0.2-1.5-0.6C269.2,132.2,269,131.6,269,130.9z M269.8,130.9
		c0,0.6,0.1,1,0.4,1.2c0.3,0.3,0.6,0.4,0.9,0.4c0.4,0,0.7-0.1,0.9-0.4c0.2-0.3,0.4-0.7,0.4-1.3c0-0.6-0.1-1-0.4-1.2
		c-0.2-0.3-0.6-0.4-0.9-0.4c-0.4,0-0.7,0.1-0.9,0.4C269.9,129.9,269.8,130.3,269.8,130.9z M274.1,133.1v-4.4h0.7v0.7
		c0.2-0.3,0.3-0.5,0.5-0.6c0.2-0.1,0.3-0.2,0.5-0.2c0.2,0,0.5,0.1,0.8,0.2l-0.2,0.7c-0.2-0.1-0.4-0.2-0.6-0.2
		c-0.2,0-0.3,0.1-0.4,0.1c-0.1,0.1-0.2,0.2-0.3,0.4c-0.1,0.3-0.1,0.6-0.1,0.9v2.3H274.1"/>
	<path class="st1" d="M260.9,141.6V140h-1.7v-0.7h1.7v-1.6h0.7v1.6h1.7v0.7h-1.7v1.6H260.9"/>
	<g>
		<defs>
			<rect id="SVGID_00000086672676410882111690000009243896102973261706_" x="218.6" y="145.5" width="85.3" height="9"/>
		</defs>
		<clipPath id="SVGID_00000147178582193489398940000018281720451957133698_">
			<use xlink:href="#SVGID_00000086672676410882111690000009243896102973261706_"  style="overflow:visible;"/>
		</clipPath>
		<g style="clip-path:url(#SVGID_00000147178582193489398940000018281720451957133698_);">
			<path class="st1" d="M219,152.1v-6h4.2v0.7h-3.4v1.9h2.9v0.7h-2.9v2.7H219z M224.9,146.9h-0.8v-0.8h0.8V146.9z M224.9,152.1h-0.8
				v-4.4h0.8V152.1z M225.5,152.1l1.6-2.3l-1.5-2.1h1l0.7,1c0.1,0.2,0.2,0.4,0.3,0.5c0.1-0.2,0.2-0.3,0.3-0.5l0.8-1h0.9l-1.6,2.1
				l1.7,2.3h-0.9l-0.9-1.4l-0.2-0.4l-1.2,1.7H225.5z M233.4,150.7l0.8,0.1c-0.1,0.4-0.3,0.8-0.7,1c-0.3,0.2-0.8,0.4-1.3,0.4
				c-0.7,0-1.2-0.2-1.6-0.6c-0.4-0.4-0.6-0.9-0.6-1.7c0-0.7,0.2-1.3,0.6-1.7c0.4-0.4,0.9-0.6,1.5-0.6c0.6,0,1.1,0.2,1.5,0.6
				c0.4,0.4,0.6,1,0.6,1.7c0,0.1,0,0.1,0,0.2h-3.4c0,0.5,0.2,0.8,0.4,1.1s0.6,0.4,0.9,0.4c0.3,0,0.5-0.1,0.7-0.2
				C233.2,151.3,233.3,151,233.4,150.7z M230.9,149.5h2.5c0-0.4-0.1-0.6-0.3-0.8c-0.2-0.3-0.6-0.4-0.9-0.4c-0.3,0-0.6,0.1-0.9,0.4
				C231.1,148.8,231,149.1,230.9,149.5z M238.1,152.1v-0.6c-0.3,0.4-0.7,0.6-1.2,0.6c-0.4,0-0.7-0.1-1-0.3c-0.3-0.2-0.5-0.5-0.7-0.8
				c-0.2-0.3-0.2-0.7-0.2-1.2c0-0.4,0.1-0.8,0.2-1.2c0.1-0.4,0.4-0.6,0.7-0.8c0.3-0.2,0.6-0.3,1-0.3c0.3,0,0.5,0.1,0.7,0.2
				c0.2,0.1,0.4,0.3,0.5,0.4v-2.1h0.8v6H238.1z M235.7,149.9c0,0.6,0.1,1,0.4,1.2c0.2,0.3,0.5,0.4,0.8,0.4c0.3,0,0.6-0.1,0.9-0.4
				c0.2-0.3,0.4-0.7,0.4-1.2c0-0.6-0.1-1-0.4-1.3c-0.2-0.3-0.5-0.4-0.9-0.4s-0.6,0.1-0.9,0.4C235.8,148.9,235.7,149.4,235.7,149.9z
				 M245.3,150.5l0.8,0.1c-0.1,0.5-0.3,0.9-0.6,1.2c-0.3,0.3-0.8,0.4-1.2,0.4c-0.6,0-1.1-0.2-1.5-0.6c-0.4-0.4-0.6-0.9-0.6-1.7
				c0-0.5,0.1-0.9,0.2-1.2c0.2-0.3,0.4-0.6,0.7-0.8c0.3-0.2,0.7-0.3,1.1-0.3c0.5,0,0.9,0.1,1.2,0.4c0.3,0.2,0.5,0.6,0.6,1l-0.7,0.1
				c-0.1-0.3-0.2-0.5-0.4-0.7c-0.2-0.1-0.4-0.2-0.6-0.2c-0.4,0-0.7,0.1-0.9,0.4c-0.2,0.3-0.4,0.7-0.4,1.3c0,0.6,0.1,1,0.3,1.3
				c0.2,0.3,0.5,0.4,0.9,0.4c0.3,0,0.5-0.1,0.7-0.3S245.3,150.9,245.3,150.5z M249.6,151.6c-0.3,0.2-0.6,0.4-0.8,0.5
				c-0.3,0.1-0.6,0.1-0.8,0.1c-0.5,0-0.9-0.1-1.1-0.3c-0.3-0.2-0.4-0.5-0.4-0.9c0-0.2,0.1-0.4,0.1-0.6c0.1-0.2,0.2-0.3,0.4-0.4
				c0.2-0.1,0.3-0.2,0.6-0.2c0.1-0.1,0.4-0.1,0.7-0.1c0.6-0.1,1.1-0.2,1.4-0.3c0-0.1,0-0.2,0-0.2c0-0.3-0.1-0.5-0.2-0.6
				c-0.2-0.2-0.5-0.2-0.9-0.2c-0.4,0-0.6,0.1-0.8,0.2c-0.2,0.1-0.3,0.3-0.4,0.6l-0.8-0.1c0.1-0.3,0.2-0.6,0.3-0.8
				c0.2-0.2,0.4-0.3,0.7-0.4c0.3-0.1,0.6-0.2,1-0.2c0.4,0,0.7,0.1,0.9,0.1c0.2,0.1,0.4,0.2,0.5,0.3c0.1,0.1,0.2,0.3,0.2,0.5
				c0,0.1,0.1,0.4,0.1,0.7v1c0,0.7,0,1.1,0.1,1.3c0,0.2,0.1,0.3,0.2,0.5h-0.8C249.7,152,249.6,151.8,249.6,151.6z M249.6,149.9
				c-0.3,0.1-0.7,0.2-1.2,0.3c-0.3,0-0.5,0.1-0.7,0.1c-0.1,0.1-0.2,0.1-0.3,0.2c-0.1,0.1-0.1,0.2-0.1,0.3c0,0.2,0.1,0.4,0.2,0.5
				c0.2,0.1,0.4,0.2,0.7,0.2s0.6-0.1,0.8-0.2c0.2-0.1,0.4-0.3,0.5-0.5c0.1-0.2,0.1-0.4,0.1-0.7V149.9z M251.5,153.8v-6h0.7v0.6
				c0.2-0.2,0.4-0.4,0.6-0.5c0.2-0.1,0.5-0.2,0.7-0.2c0.4,0,0.7,0.1,1,0.3c0.3,0.2,0.5,0.5,0.7,0.8c0.1,0.3,0.2,0.7,0.2,1.1
				c0,0.4-0.1,0.9-0.2,1.2c-0.2,0.4-0.4,0.6-0.7,0.8c-0.3,0.2-0.7,0.3-1,0.3c-0.2,0-0.5,0-0.7-0.1c-0.2-0.1-0.4-0.2-0.5-0.4v2.1
				H251.5z M252.2,150c0,0.6,0.1,1,0.4,1.2c0.2,0.3,0.5,0.4,0.8,0.4s0.6-0.1,0.9-0.4c0.2-0.3,0.4-0.7,0.4-1.3c0-0.6-0.1-1-0.4-1.2
				c-0.2-0.3-0.5-0.4-0.8-0.4c-0.3,0-0.6,0.1-0.9,0.4C252.3,149,252.2,149.4,252.2,150z M259.2,151.6c-0.3,0.2-0.5,0.4-0.8,0.5
				c-0.3,0.1-0.5,0.1-0.8,0.1c-0.5,0-0.9-0.1-1.1-0.3c-0.3-0.2-0.4-0.5-0.4-0.9c0-0.2,0.1-0.4,0.2-0.6c0.1-0.2,0.2-0.3,0.4-0.4
				c0.2-0.1,0.3-0.2,0.5-0.2c0.2-0.1,0.4-0.1,0.7-0.1c0.6-0.1,1.1-0.2,1.3-0.3c0-0.1,0-0.2,0-0.2c0-0.3-0.1-0.5-0.2-0.6
				c-0.2-0.2-0.5-0.2-0.9-0.2c-0.4,0-0.6,0.1-0.8,0.2c-0.2,0.1-0.3,0.3-0.4,0.6l-0.7-0.1c0.1-0.3,0.2-0.6,0.3-0.8
				c0.2-0.2,0.4-0.3,0.7-0.4c0.3-0.1,0.6-0.2,1-0.2c0.4,0,0.7,0.1,0.9,0.1c0.2,0.1,0.4,0.2,0.5,0.3c0.1,0.1,0.2,0.3,0.2,0.5
				c0,0.1,0,0.4,0,0.7v1c0,0.7,0,1.1,0,1.3c0,0.2,0.1,0.3,0.2,0.5h-0.8C259.3,152,259.3,151.8,259.2,151.6z M259.2,149.9
				c-0.3,0.1-0.7,0.2-1.2,0.3c-0.3,0-0.5,0.1-0.7,0.1c-0.1,0.1-0.2,0.1-0.3,0.2c-0.1,0.1-0.1,0.2-0.1,0.3c0,0.2,0.1,0.4,0.2,0.5
				c0.2,0.1,0.4,0.2,0.7,0.2s0.6-0.1,0.8-0.2c0.2-0.1,0.4-0.3,0.5-0.5c0.1-0.2,0.1-0.4,0.1-0.7V149.9z M264,150.5l0.7,0.1
				c-0.1,0.5-0.3,0.9-0.6,1.2c-0.3,0.3-0.8,0.4-1.2,0.4c-0.6,0-1.1-0.2-1.5-0.6c-0.4-0.4-0.6-0.9-0.6-1.7c0-0.5,0.1-0.9,0.2-1.2
				c0.2-0.3,0.4-0.6,0.7-0.8c0.3-0.2,0.7-0.3,1.1-0.3c0.5,0,0.9,0.1,1.2,0.4c0.3,0.2,0.5,0.6,0.6,1l-0.7,0.1
				c-0.1-0.3-0.2-0.5-0.4-0.7c-0.2-0.1-0.4-0.2-0.6-0.2c-0.4,0-0.7,0.1-0.9,0.4c-0.2,0.3-0.4,0.7-0.4,1.3c0,0.6,0.1,1,0.3,1.3
				c0.2,0.3,0.5,0.4,0.9,0.4c0.3,0,0.5-0.1,0.7-0.3C263.9,151.2,264,150.9,264,150.5z M266.2,146.9h-0.8v-0.8h0.8V146.9z
				 M266.2,152.1h-0.8v-4.4h0.8V152.1z M269,151.4l0.1,0.6c-0.2,0.1-0.4,0.1-0.6,0.1c-0.3,0-0.5,0-0.6-0.1c-0.2-0.1-0.3-0.2-0.3-0.3
				c-0.1-0.1-0.1-0.4-0.1-0.9v-2.5h-0.6v-0.6h0.6v-1.1l0.8-0.4v1.5h0.8v0.6h-0.8v2.6c0,0.2,0,0.3,0,0.4c0,0.1,0.1,0.1,0.1,0.2
				c0.1,0,0.1,0.1,0.3,0.1C268.8,151.5,268.9,151.5,269,151.4z M269.5,149.9c0-0.8,0.2-1.4,0.7-1.8c0.4-0.3,0.9-0.5,1.4-0.5
				c0.6,0,1.1,0.2,1.5,0.6c0.4,0.4,0.6,0.9,0.6,1.6c0,0.6-0.1,1-0.3,1.3c-0.2,0.3-0.4,0.6-0.8,0.8c-0.3,0.2-0.7,0.3-1.1,0.3
				c-0.6,0-1.1-0.2-1.5-0.6C269.7,151.2,269.5,150.7,269.5,149.9z M270.3,149.9c0,0.6,0.1,1,0.4,1.3c0.2,0.3,0.6,0.4,0.9,0.4
				s0.7-0.1,0.9-0.4c0.2-0.3,0.4-0.7,0.4-1.3c0-0.5-0.1-1-0.4-1.2c-0.3-0.3-0.6-0.4-0.9-0.4s-0.7,0.1-0.9,0.4
				C270.4,149,270.3,149.4,270.3,149.9z M274.6,152.1v-4.4h0.7v0.7c0.2-0.3,0.3-0.5,0.5-0.6c0.1-0.1,0.3-0.2,0.5-0.2
				c0.2,0,0.5,0.1,0.8,0.2l-0.2,0.7c-0.2-0.1-0.4-0.1-0.6-0.1c-0.2,0-0.3,0.1-0.5,0.1c-0.1,0.1-0.2,0.2-0.3,0.4
				c-0.1,0.3-0.1,0.6-0.1,0.9v2.3H274.6z M281.3,153.9c-0.4-0.5-0.8-1.1-1.1-1.8c-0.3-0.7-0.4-1.4-0.4-2.1c0-0.6,0.1-1.3,0.3-1.9
				c0.2-0.7,0.6-1.4,1.2-2.1h0.5c-0.3,0.6-0.6,1-0.7,1.2c-0.2,0.4-0.3,0.8-0.4,1.2c-0.1,0.5-0.2,1-0.2,1.5c0,1.3,0.4,2.6,1.3,3.9
				H281.3z M282.9,152.1v-6h4.2v0.7h-3.4v1.9h2.9v0.7h-2.9v2.7H282.9z M288.8,146.9H288v-0.8h0.8V146.9z M288.8,152.1H288v-4.4h0.8
				V152.1z M290.7,152.1h-0.8v-6h0.8V152.1z M293.5,151.4l0.1,0.6c-0.2,0.1-0.4,0.1-0.6,0.1c-0.3,0-0.5,0-0.6-0.1
				c-0.2-0.1-0.3-0.2-0.3-0.3c-0.1-0.1-0.1-0.4-0.1-0.9v-2.5h-0.5v-0.6h0.5v-1.1l0.8-0.4v1.5h0.8v0.6h-0.8v2.6c0,0.2,0,0.3,0,0.4
				c0,0.1,0.1,0.1,0.1,0.2c0.1,0,0.1,0.1,0.2,0.1C293.3,151.5,293.4,151.5,293.5,151.4z M297.3,150.7l0.8,0.1
				c-0.1,0.4-0.4,0.8-0.7,1c-0.4,0.2-0.8,0.4-1.3,0.4c-0.7,0-1.2-0.2-1.6-0.6c-0.4-0.4-0.6-0.9-0.6-1.7c0-0.7,0.2-1.3,0.6-1.7
				c0.4-0.4,0.9-0.6,1.5-0.6c0.6,0,1.1,0.2,1.5,0.6c0.4,0.4,0.6,1,0.6,1.7c0,0.1,0,0.1,0,0.2h-3.4c0,0.5,0.2,0.8,0.4,1.1
				s0.6,0.4,0.9,0.4c0.3,0,0.5-0.1,0.7-0.2C297,151.3,297.2,151,297.3,150.7z M294.8,149.5h2.5c0-0.4-0.1-0.6-0.3-0.8
				c-0.2-0.3-0.6-0.4-0.9-0.4c-0.4,0-0.6,0.1-0.9,0.4C295,148.8,294.8,149.1,294.8,149.5z M299,152.1v-4.4h0.7v0.7
				c0.2-0.3,0.3-0.5,0.5-0.6c0.1-0.1,0.3-0.2,0.5-0.2c0.2,0,0.5,0.1,0.8,0.2l-0.3,0.7c-0.2-0.1-0.4-0.1-0.6-0.1
				c-0.2,0-0.3,0.1-0.5,0.1c-0.1,0.1-0.2,0.2-0.3,0.4c-0.1,0.3-0.1,0.6-0.1,0.9v2.3H299z M302.4,153.9h-0.5c0.8-1.3,1.3-2.6,1.3-3.9
				c0-0.5-0.1-1-0.2-1.5c-0.1-0.4-0.2-0.8-0.4-1.2c-0.1-0.2-0.3-0.7-0.7-1.2h0.5c0.5,0.7,0.9,1.4,1.2,2.1c0.2,0.6,0.3,1.2,0.3,1.9
				c0,0.7-0.1,1.4-0.4,2.1C303.2,152.8,302.8,153.4,302.4,153.9"/>
		</g>
	</g>
	<path class="st1" d="M165,17.7l-2.8-7.6h1.7l2,5.7l1.9-5.7h1.7l-2.8,7.6H165"/>
	<path class="st10" d="M207.4,191.3h3v-3c0-4.5,6-4.5,6,0c0-4.5,6.1-4.5,6.1,0c0-4.5,6.1-4.5,6.1,0c0-4.5,6.1-4.5,6.1,0v3h2.9"/>
	<path class="st10" d="M216.4,188.2v3"/>
	<path class="st10" d="M222.5,188.2v3"/>
	<path class="st10" d="M228.5,188.2v3"/>
	<path class="st7" d="M93.6,184.5c-2.5,1.1-3.3,2.6-3.3,3.8c0,1.1,0.8,2.6,3.3,3.7"/>
	<path class="st7" d="M90.3,188.3h7.6"/>
	<path class="st7" d="M86.6,184.5v7.5"/>
	<path class="st7" d="M75.2,188.3h11.3"/>
	<path class="st1" d="M24.9,30.6l0.8-0.1c0,0.3,0.1,0.6,0.3,0.7c0.1,0.2,0.3,0.3,0.6,0.5c0.3,0.1,0.6,0.2,0.9,0.2
		c0.3,0,0.6,0,0.8-0.1c0.2-0.1,0.4-0.2,0.5-0.4s0.2-0.3,0.2-0.5c0-0.2-0.1-0.3-0.2-0.5c-0.1-0.1-0.3-0.3-0.6-0.4
		c-0.2-0.1-0.5-0.2-1.1-0.3c-0.6-0.1-1-0.2-1.2-0.4c-0.3-0.2-0.5-0.3-0.7-0.6c-0.1-0.2-0.2-0.5-0.2-0.8c0-0.3,0.1-0.6,0.2-0.8
		c0.2-0.3,0.4-0.5,0.8-0.6c0.3-0.2,0.7-0.2,1.1-0.2c0.5,0,0.9,0.1,1.2,0.2c0.4,0.1,0.6,0.3,0.8,0.6c0.2,0.3,0.3,0.6,0.3,0.9
		l-0.8,0.1c0-0.4-0.2-0.7-0.4-0.9c-0.2-0.2-0.6-0.3-1.1-0.3c-0.5,0-0.9,0.1-1.1,0.3c-0.2,0.2-0.3,0.4-0.3,0.6c0,0.2,0.1,0.4,0.2,0.5
		c0.2,0.1,0.6,0.3,1.2,0.4c0.7,0.2,1.1,0.3,1.4,0.4c0.4,0.2,0.6,0.4,0.8,0.6c0.2,0.2,0.2,0.5,0.2,0.9s-0.1,0.6-0.3,0.9
		c-0.2,0.3-0.5,0.5-0.8,0.7c-0.4,0.2-0.8,0.2-1.2,0.2c-0.6,0-1-0.1-1.4-0.2s-0.7-0.4-0.9-0.7C25.1,31.4,24.9,31,24.9,30.6z
		 M30.8,34.2l-0.1-0.7c0.2,0,0.3,0.1,0.4,0.1c0.2,0,0.3,0,0.4-0.1c0.1-0.1,0.2-0.1,0.2-0.2c0-0.1,0.1-0.2,0.2-0.5c0,0,0-0.1,0.1-0.2
		l-1.7-4.4h0.8l0.9,2.5c0.1,0.3,0.2,0.7,0.3,1c0.1-0.3,0.2-0.7,0.3-1l1-2.5h0.8l-1.7,4.4c-0.2,0.5-0.3,0.8-0.4,1
		c-0.1,0.2-0.3,0.4-0.5,0.5c-0.2,0.1-0.4,0.2-0.6,0.2C31.2,34.3,31,34.3,30.8,34.2z M34.9,31.3l0.8-0.1c0,0.3,0.2,0.5,0.4,0.7
		c0.2,0.1,0.5,0.2,0.8,0.2c0.4,0,0.6-0.1,0.8-0.2c0.2-0.1,0.3-0.3,0.3-0.5c0-0.2-0.1-0.3-0.2-0.4c-0.1-0.1-0.4-0.1-0.8-0.3
		c-0.6-0.1-0.9-0.3-1.2-0.4c-0.2-0.1-0.4-0.2-0.5-0.4c-0.1-0.2-0.2-0.4-0.2-0.6c0-0.2,0.1-0.4,0.1-0.5c0.1-0.2,0.2-0.3,0.4-0.4
		c0.1-0.1,0.3-0.2,0.5-0.2c0.2-0.1,0.4-0.1,0.7-0.1c0.3,0,0.6,0,0.9,0.1c0.3,0.1,0.5,0.2,0.6,0.4c0.1,0.2,0.2,0.4,0.3,0.7l-0.7,0.1
		c0-0.2-0.1-0.4-0.3-0.5c-0.2-0.1-0.4-0.2-0.7-0.2c-0.3,0-0.6,0.1-0.7,0.2c-0.2,0.1-0.2,0.2-0.2,0.4c0,0.1,0,0.2,0.1,0.3
		c0.1,0.1,0.2,0.1,0.3,0.2c0.1,0,0.3,0.1,0.7,0.2c0.5,0.1,0.9,0.2,1.1,0.3c0.2,0.1,0.4,0.2,0.5,0.4c0.1,0.2,0.2,0.4,0.2,0.6
		c0,0.2-0.1,0.5-0.2,0.7c-0.1,0.2-0.4,0.4-0.6,0.5c-0.3,0.1-0.6,0.2-1,0.2c-0.6,0-1-0.1-1.3-0.4C35.2,32.1,35,31.7,34.9,31.3z
		 M41.2,31.9l0.1,0.7c-0.2,0-0.4,0.1-0.6,0.1c-0.3,0-0.5,0-0.6-0.1c-0.1-0.1-0.3-0.2-0.3-0.3s-0.1-0.4-0.1-0.9v-2.5h-0.6v-0.6h0.6
		v-1.1l0.8-0.5v1.5h0.8v0.6h-0.8v2.5c0,0.2,0,0.3,0,0.4c0,0.1,0.1,0.1,0.1,0.2c0.1,0,0.1,0,0.3,0C40.9,31.9,41,31.9,41.2,31.9z
		 M45,31.2l0.8,0.1c-0.1,0.4-0.3,0.8-0.7,1c-0.3,0.2-0.8,0.4-1.3,0.4c-0.7,0-1.2-0.2-1.6-0.6c-0.4-0.4-0.6-0.9-0.6-1.7
		c0-0.7,0.2-1.3,0.6-1.7c0.4-0.4,0.9-0.6,1.5-0.6c0.6,0,1.1,0.2,1.5,0.6c0.4,0.4,0.6,0.9,0.6,1.7c0,0,0,0.1,0,0.2h-3.4
		c0,0.5,0.2,0.8,0.4,1.1s0.6,0.4,0.9,0.4c0.3,0,0.5-0.1,0.7-0.2C44.7,31.7,44.9,31.5,45,31.2z M42.5,30H45c0-0.4-0.1-0.6-0.3-0.8
		c-0.2-0.3-0.6-0.4-0.9-0.4c-0.3,0-0.6,0.1-0.9,0.3C42.6,29.3,42.5,29.6,42.5,30z M46.7,32.6v-4.4h0.7v0.6c0.1-0.2,0.3-0.4,0.6-0.5
		c0.2-0.1,0.5-0.2,0.8-0.2c0.3,0,0.6,0.1,0.8,0.2c0.2,0.1,0.4,0.3,0.4,0.6c0.4-0.5,0.8-0.8,1.4-0.8c0.4,0,0.8,0.1,1,0.4
		c0.2,0.2,0.4,0.6,0.4,1.1v3H52v-2.7c0-0.3,0-0.5-0.1-0.6c0-0.1-0.1-0.2-0.3-0.3c-0.1-0.1-0.3-0.1-0.4-0.1c-0.3,0-0.6,0.1-0.8,0.3
		c-0.2,0.2-0.3,0.5-0.3,1v2.5h-0.8v-2.8c0-0.3-0.1-0.6-0.2-0.8c-0.1-0.1-0.3-0.2-0.6-0.2c-0.2,0-0.4,0.1-0.6,0.2
		c-0.2,0.1-0.3,0.3-0.4,0.5c-0.1,0.2-0.1,0.5-0.1,0.9v2.3H46.7z M56.4,32.6v-6h0.8v5.3h3.1v0.7H56.4z M60.8,30.4
		c0-0.8,0.2-1.4,0.7-1.8c0.4-0.3,0.9-0.5,1.4-0.5c0.6,0,1.1,0.2,1.5,0.6c0.4,0.4,0.6,0.9,0.6,1.6c0,0.6-0.1,1-0.3,1.3
		c-0.2,0.3-0.4,0.6-0.8,0.8c-0.3,0.2-0.7,0.3-1.1,0.3c-0.6,0-1.1-0.2-1.5-0.6C61,31.7,60.8,31.1,60.8,30.4z M61.6,30.4
		c0,0.6,0.1,1,0.4,1.2c0.2,0.3,0.6,0.4,0.9,0.4c0.4,0,0.7-0.1,0.9-0.4c0.3-0.3,0.4-0.7,0.4-1.3c0-0.5-0.1-0.9-0.4-1.2
		c-0.2-0.3-0.6-0.4-0.9-0.4c-0.4,0-0.7,0.1-0.9,0.4C61.8,29.4,61.6,29.8,61.6,30.4z M68.9,32c-0.3,0.2-0.6,0.4-0.8,0.5
		c-0.3,0.1-0.5,0.2-0.8,0.2c-0.5,0-0.9-0.1-1.1-0.4c-0.3-0.2-0.4-0.5-0.4-0.9c0-0.2,0-0.4,0.1-0.6c0.1-0.2,0.2-0.3,0.4-0.4
		c0.2-0.1,0.4-0.2,0.6-0.2c0.2,0,0.4-0.1,0.7-0.1c0.6-0.1,1.1-0.2,1.4-0.3c0-0.1,0-0.1,0-0.2c0-0.3-0.1-0.5-0.2-0.6
		c-0.2-0.2-0.5-0.2-0.9-0.2c-0.3,0-0.6,0.1-0.8,0.2c-0.2,0.1-0.3,0.3-0.4,0.6l-0.8-0.1c0.1-0.3,0.2-0.6,0.3-0.8
		c0.2-0.2,0.4-0.3,0.7-0.4c0.3-0.1,0.6-0.1,1-0.1c0.4,0,0.7,0,0.9,0.1c0.2,0.1,0.4,0.2,0.5,0.3c0.1,0.1,0.2,0.3,0.2,0.5
		c0,0.1,0.1,0.3,0.1,0.7v1c0,0.7,0,1.1,0.1,1.3c0,0.2,0.1,0.4,0.2,0.5H69C68.9,32.4,68.9,32.2,68.9,32z M68.8,30.4
		c-0.3,0.1-0.7,0.2-1.2,0.3c-0.3,0-0.5,0.1-0.7,0.1c-0.1,0.1-0.2,0.1-0.3,0.2c-0.1,0.1-0.1,0.2-0.1,0.4c0,0.2,0.1,0.4,0.2,0.5
		c0.2,0.1,0.4,0.2,0.7,0.2c0.3,0,0.6-0.1,0.8-0.2c0.2-0.1,0.4-0.3,0.5-0.5c0.1-0.2,0.1-0.4,0.1-0.7V30.4z M73.6,32.6V32
		c-0.3,0.4-0.7,0.7-1.2,0.7c-0.4,0-0.7-0.1-1-0.3c-0.3-0.2-0.5-0.5-0.7-0.8c-0.2-0.4-0.2-0.8-0.2-1.2c0-0.4,0.1-0.8,0.2-1.2
		c0.1-0.4,0.4-0.6,0.7-0.8c0.3-0.2,0.6-0.3,1-0.3c0.3,0,0.5,0.1,0.7,0.2c0.2,0.1,0.4,0.3,0.5,0.4v-2.2h0.8v6H73.6z M71.2,30.4
		c0,0.5,0.1,1,0.4,1.2c0.2,0.3,0.5,0.4,0.8,0.4c0.3,0,0.6-0.1,0.9-0.4c0.2-0.3,0.4-0.7,0.4-1.2c0-0.6-0.1-1-0.4-1.3
		c-0.2-0.3-0.5-0.4-0.9-0.4c-0.3,0-0.6,0.1-0.9,0.4C71.4,29.4,71.2,29.8,71.2,30.4z M82.5,30.5l0.8,0.2c-0.2,0.6-0.5,1.1-0.9,1.5
		c-0.4,0.3-1,0.5-1.6,0.5c-0.7,0-1.2-0.1-1.6-0.4c-0.4-0.3-0.7-0.6-1-1.1s-0.3-1-0.3-1.6c0-0.6,0.1-1.2,0.4-1.6
		c0.2-0.5,0.6-0.8,1-1.1c0.5-0.2,1-0.4,1.5-0.4c0.6,0,1.1,0.1,1.6,0.5c0.4,0.3,0.7,0.7,0.9,1.3l-0.8,0.2c-0.2-0.4-0.4-0.8-0.6-1
		c-0.3-0.2-0.6-0.3-1-0.3c-0.5,0-0.9,0.1-1.2,0.3c-0.3,0.2-0.5,0.5-0.7,0.9c-0.1,0.4-0.2,0.8-0.2,1.2c0,0.5,0.1,1,0.2,1.3
		c0.1,0.4,0.4,0.7,0.7,0.8c0.3,0.2,0.7,0.3,1,0.3c0.5,0,0.9-0.1,1.2-0.4C82.1,31.3,82.3,31,82.5,30.5z M84.2,32.6v-6H85v2.2
		c0.3-0.4,0.8-0.6,1.3-0.6c0.3,0,0.6,0.1,0.9,0.2c0.2,0.1,0.4,0.3,0.5,0.5c0.1,0.2,0.2,0.6,0.2,1v2.8h-0.8v-2.8
		c0-0.4-0.1-0.6-0.2-0.8c-0.2-0.2-0.4-0.3-0.7-0.3c-0.2,0-0.4,0.1-0.6,0.2c-0.2,0.1-0.3,0.3-0.4,0.5C85,29.6,85,29.8,85,30.2v2.4
		H84.2z M91.9,32c-0.3,0.2-0.6,0.4-0.8,0.5c-0.3,0.1-0.5,0.2-0.8,0.2c-0.5,0-0.9-0.1-1.1-0.4c-0.3-0.2-0.4-0.5-0.4-0.9
		c0-0.2,0.1-0.4,0.2-0.6c0.1-0.2,0.2-0.3,0.4-0.4c0.2-0.1,0.3-0.2,0.5-0.2c0.2,0,0.4-0.1,0.7-0.1c0.6-0.1,1.1-0.2,1.4-0.3
		c0-0.1,0-0.1,0-0.2c0-0.3-0.1-0.5-0.2-0.6c-0.2-0.2-0.5-0.2-0.9-0.2c-0.4,0-0.6,0.1-0.8,0.2c-0.2,0.1-0.3,0.3-0.4,0.6l-0.8-0.1
		c0.1-0.3,0.2-0.6,0.3-0.8c0.1-0.2,0.4-0.3,0.7-0.4c0.3-0.1,0.6-0.1,1-0.1c0.4,0,0.7,0,0.9,0.1c0.2,0.1,0.4,0.2,0.5,0.3
		c0.1,0.1,0.2,0.3,0.2,0.5c0,0.1,0,0.3,0,0.7v1c0,0.7,0,1.1,0.1,1.3c0,0.2,0.1,0.4,0.2,0.5h-0.8C92,32.4,91.9,32.2,91.9,32z
		 M91.9,30.4c-0.3,0.1-0.7,0.2-1.2,0.3c-0.3,0-0.5,0.1-0.7,0.1c-0.1,0.1-0.2,0.1-0.3,0.2c-0.1,0.1-0.1,0.2-0.1,0.4
		c0,0.2,0.1,0.4,0.2,0.5c0.1,0.1,0.4,0.2,0.7,0.2c0.3,0,0.6-0.1,0.8-0.2c0.2-0.1,0.4-0.3,0.5-0.5c0.1-0.2,0.1-0.4,0.1-0.7V30.4z
		 M93.8,32.6v-4.4h0.7v0.7c0.2-0.3,0.3-0.5,0.5-0.6c0.1-0.1,0.3-0.1,0.5-0.1c0.2,0,0.5,0.1,0.8,0.2L96,29c-0.2-0.1-0.4-0.2-0.6-0.2
		c-0.2,0-0.3,0-0.4,0.1c-0.1,0.1-0.2,0.2-0.3,0.4c-0.1,0.3-0.1,0.6-0.1,0.9v2.3H93.8z M99.6,32c-0.3,0.2-0.6,0.4-0.8,0.5
		c-0.3,0.1-0.5,0.2-0.8,0.2c-0.5,0-0.9-0.1-1.1-0.4c-0.3-0.2-0.4-0.5-0.4-0.9c0-0.2,0-0.4,0.1-0.6c0.1-0.2,0.2-0.3,0.4-0.4
		c0.2-0.1,0.3-0.2,0.5-0.2c0.1,0,0.4-0.1,0.7-0.1c0.6-0.1,1.1-0.2,1.3-0.3c0-0.1,0-0.1,0-0.2c0-0.3-0.1-0.5-0.2-0.6
		c-0.2-0.2-0.5-0.2-0.9-0.2c-0.4,0-0.6,0.1-0.8,0.2c-0.2,0.1-0.3,0.3-0.4,0.6l-0.7-0.1c0.1-0.3,0.2-0.6,0.3-0.8
		c0.1-0.2,0.4-0.3,0.7-0.4c0.3-0.1,0.6-0.1,1-0.1c0.4,0,0.7,0,0.9,0.1c0.2,0.1,0.4,0.2,0.5,0.3c0.1,0.1,0.2,0.3,0.2,0.5
		c0,0.1,0,0.3,0,0.7v1c0,0.7,0,1.1,0.1,1.3c0,0.2,0.1,0.4,0.2,0.5h-0.8C99.7,32.4,99.6,32.2,99.6,32z M99.5,30.4
		c-0.3,0.1-0.7,0.2-1.2,0.3c-0.3,0-0.5,0.1-0.7,0.1c-0.1,0.1-0.2,0.1-0.3,0.2c-0.1,0.1-0.1,0.2-0.1,0.4c0,0.2,0.1,0.4,0.2,0.5
		c0.2,0.1,0.4,0.2,0.7,0.2c0.3,0,0.6-0.1,0.8-0.2c0.2-0.1,0.4-0.3,0.5-0.5c0.1-0.2,0.1-0.4,0.1-0.7V30.4z M104.4,31l0.8,0.1
		c-0.1,0.5-0.3,0.9-0.6,1.2c-0.3,0.3-0.7,0.4-1.2,0.4c-0.6,0-1.1-0.2-1.5-0.6c-0.4-0.4-0.6-0.9-0.6-1.7c0-0.5,0.1-0.9,0.2-1.2
		c0.2-0.4,0.4-0.6,0.7-0.8c0.3-0.2,0.7-0.3,1.1-0.3c0.5,0,0.9,0.1,1.2,0.4c0.3,0.2,0.5,0.6,0.6,1l-0.7,0.1c-0.1-0.3-0.2-0.5-0.4-0.7
		c-0.2-0.1-0.4-0.2-0.6-0.2c-0.4,0-0.7,0.1-0.9,0.4c-0.2,0.3-0.4,0.7-0.4,1.3c0,0.6,0.1,1,0.3,1.3c0.2,0.3,0.5,0.4,0.9,0.4
		c0.3,0,0.5-0.1,0.7-0.3C104.2,31.6,104.4,31.3,104.4,31z M107.5,31.9l0.1,0.7c-0.2,0-0.4,0.1-0.6,0.1c-0.3,0-0.5,0-0.6-0.1
		c-0.1-0.1-0.2-0.2-0.3-0.3c-0.1-0.1-0.1-0.4-0.1-0.9v-2.5h-0.6v-0.6h0.6v-1.1l0.8-0.5v1.5h0.8v0.6h-0.8v2.5c0,0.2,0,0.3,0,0.4
		c0,0.1,0.1,0.1,0.1,0.2c0.1,0,0.1,0,0.2,0C107.2,31.9,107.3,31.9,107.5,31.9z M111.3,31.2l0.8,0.1c-0.1,0.4-0.4,0.8-0.7,1
		c-0.3,0.2-0.8,0.4-1.3,0.4c-0.6,0-1.2-0.2-1.6-0.6c-0.4-0.4-0.6-0.9-0.6-1.7c0-0.7,0.2-1.3,0.6-1.7c0.4-0.4,0.9-0.6,1.5-0.6
		c0.6,0,1.1,0.2,1.5,0.6c0.4,0.4,0.6,0.9,0.6,1.7c0,0,0,0.1,0,0.2h-3.3c0,0.5,0.2,0.8,0.4,1.1s0.6,0.4,0.9,0.4
		c0.3,0,0.5-0.1,0.7-0.2C111,31.7,111.2,31.5,111.3,31.2z M108.8,30h2.5c0-0.4-0.1-0.6-0.3-0.8c-0.2-0.3-0.6-0.4-0.9-0.4
		c-0.4,0-0.6,0.1-0.9,0.3C108.9,29.3,108.8,29.6,108.8,30z M113,32.6v-4.4h0.7v0.7c0.2-0.3,0.3-0.5,0.5-0.6c0.1-0.1,0.3-0.1,0.5-0.1
		c0.3,0,0.5,0.1,0.8,0.2l-0.3,0.7c-0.2-0.1-0.4-0.2-0.6-0.2c-0.2,0-0.3,0-0.4,0.1c-0.1,0.1-0.2,0.2-0.3,0.4
		c-0.1,0.3-0.1,0.6-0.1,0.9v2.3H113z M116.6,27.4h-0.8v-0.8h0.8V27.4z M116.6,32.6h-0.8v-4.4h0.8V32.6z M117.5,31.3l0.8-0.1
		c0,0.3,0.2,0.5,0.3,0.7c0.2,0.1,0.5,0.2,0.8,0.2c0.3,0,0.6-0.1,0.8-0.2c0.2-0.1,0.2-0.3,0.2-0.5c0-0.2-0.1-0.3-0.2-0.4
		c-0.1-0.1-0.3-0.1-0.8-0.3c-0.6-0.1-0.9-0.3-1.2-0.4c-0.2-0.1-0.4-0.2-0.5-0.4c-0.1-0.2-0.2-0.4-0.2-0.6c0-0.2,0-0.4,0.1-0.5
		c0.1-0.2,0.2-0.3,0.4-0.4c0.1-0.1,0.3-0.2,0.5-0.2c0.2-0.1,0.4-0.1,0.7-0.1c0.4,0,0.7,0,0.9,0.1c0.3,0.1,0.5,0.2,0.6,0.4
		c0.1,0.2,0.2,0.4,0.3,0.7l-0.7,0.1c0-0.2-0.1-0.4-0.3-0.5c-0.1-0.1-0.4-0.2-0.7-0.2c-0.3,0-0.6,0.1-0.8,0.2
		c-0.1,0.1-0.2,0.2-0.2,0.4c0,0.1,0,0.2,0.1,0.3c0.1,0.1,0.2,0.1,0.3,0.2c0.1,0,0.3,0.1,0.7,0.2c0.5,0.1,0.9,0.2,1.1,0.3
		c0.2,0.1,0.4,0.2,0.5,0.4c0.1,0.2,0.2,0.4,0.2,0.6c0,0.2-0.1,0.5-0.2,0.7c-0.2,0.2-0.4,0.4-0.6,0.5c-0.3,0.1-0.6,0.2-0.9,0.2
		c-0.6,0-1-0.1-1.3-0.4C117.8,32.1,117.6,31.7,117.5,31.3z M123.8,31.9l0.1,0.7c-0.2,0-0.4,0.1-0.6,0.1c-0.3,0-0.5,0-0.6-0.1
		c-0.2-0.1-0.3-0.2-0.3-0.3c-0.1-0.1-0.1-0.4-0.1-0.9v-2.5h-0.6v-0.6h0.6v-1.1l0.7-0.5v1.5h0.8v0.6H123v2.5c0,0.2,0,0.3,0.1,0.4
		c0,0.1,0.1,0.1,0.1,0.2c0.1,0,0.2,0,0.3,0C123.5,31.9,123.7,31.9,123.8,31.9z M125.3,27.4h-0.8v-0.8h0.8V27.4z M125.3,32.6h-0.8
		v-4.4h0.8V32.6z M129.4,31l0.7,0.1c-0.1,0.5-0.3,0.9-0.6,1.2c-0.3,0.3-0.8,0.4-1.2,0.4c-0.6,0-1.1-0.2-1.5-0.6
		c-0.4-0.4-0.6-0.9-0.6-1.7c0-0.5,0.1-0.9,0.2-1.2c0.2-0.4,0.4-0.6,0.7-0.8c0.3-0.2,0.7-0.3,1.1-0.3c0.5,0,0.9,0.1,1.2,0.4
		c0.3,0.2,0.5,0.6,0.6,1l-0.7,0.1c-0.1-0.3-0.2-0.5-0.4-0.7c-0.2-0.1-0.4-0.2-0.6-0.2c-0.4,0-0.7,0.1-0.9,0.4
		c-0.2,0.3-0.4,0.7-0.4,1.3c0,0.6,0.1,1,0.3,1.3c0.2,0.3,0.5,0.4,0.9,0.4c0.3,0,0.6-0.1,0.8-0.3C129.2,31.6,129.3,31.3,129.4,31z
		 M134.6,34.3c-0.4-0.5-0.8-1.1-1.1-1.8c-0.3-0.7-0.4-1.4-0.4-2.1c0-0.6,0.1-1.3,0.3-1.9c0.2-0.7,0.6-1.4,1.2-2.1h0.6
		c-0.3,0.6-0.6,1-0.7,1.2c-0.2,0.4-0.3,0.8-0.4,1.2c-0.1,0.5-0.2,1-0.2,1.5c0,1.3,0.4,2.6,1.2,3.9H134.6z M137.9,32.6l-2.4-6h0.9
		l1.6,4.4c0.1,0.4,0.2,0.7,0.3,1c0.1-0.3,0.2-0.7,0.3-1l1.7-4.4h0.8l-2.4,6H137.9z M141.5,31.3l0.8-0.1c0.1,0.3,0.2,0.5,0.4,0.7
		c0.2,0.1,0.5,0.2,0.8,0.2c0.4,0,0.6-0.1,0.8-0.2c0.2-0.1,0.2-0.3,0.2-0.5c0-0.2-0.1-0.3-0.2-0.4c-0.1-0.1-0.4-0.1-0.8-0.3
		c-0.6-0.1-0.9-0.3-1.2-0.4c-0.2-0.1-0.4-0.2-0.5-0.4c-0.1-0.2-0.2-0.4-0.2-0.6c0-0.2,0-0.4,0.1-0.5c0.1-0.2,0.2-0.3,0.4-0.4
		c0.1-0.1,0.3-0.2,0.5-0.2c0.2-0.1,0.4-0.1,0.6-0.1c0.4,0,0.7,0,0.9,0.1c0.3,0.1,0.5,0.2,0.6,0.4c0.1,0.2,0.2,0.4,0.3,0.7l-0.8,0.1
		c0-0.2-0.1-0.4-0.3-0.5c-0.2-0.1-0.4-0.2-0.7-0.2c-0.4,0-0.6,0.1-0.8,0.2c-0.1,0.1-0.2,0.2-0.2,0.4c0,0.1,0,0.2,0.1,0.3
		c0.1,0.1,0.2,0.1,0.3,0.2c0.1,0,0.3,0.1,0.7,0.2c0.5,0.1,0.9,0.2,1.1,0.3c0.2,0.1,0.4,0.2,0.5,0.4c0.1,0.2,0.2,0.4,0.2,0.6
		c0,0.2-0.1,0.5-0.2,0.7c-0.1,0.2-0.4,0.4-0.6,0.5c-0.3,0.1-0.6,0.2-0.9,0.2c-0.6,0-1-0.1-1.3-0.4C141.8,32.1,141.6,31.7,141.5,31.3
		z M146.6,34.3h-0.5c0.8-1.3,1.3-2.6,1.3-3.9c0-0.5-0.1-1-0.2-1.5c-0.1-0.4-0.2-0.8-0.4-1.2c-0.1-0.2-0.3-0.7-0.7-1.2h0.5
		c0.5,0.7,0.9,1.4,1.2,2.1c0.2,0.6,0.3,1.2,0.3,1.9c0,0.7-0.1,1.5-0.4,2.1C147.4,33.2,147.1,33.8,146.6,34.3"/>
	<path class="st10" d="M37.5,44.1l256.7,11.3"/>
	<path class="st6" d="M94.1,36.6l7.9,5.3"/>
	<path class="st1" d="M105.4,44.1l-3.8-4.1l0.3,1.9l-2.1,0.3L105.4,44.1"/>
	<path class="st2" d="M105.3,44.3l-3.8-4.1l0.4-0.2l0.3,1.9c0,0,0,0.1,0,0.1c0,0-0.1,0.1-0.1,0.1l-2.1,0.3l0-0.4l5.5,1.9
		c0.1,0,0.2,0.1,0.1,0.2C105.6,44.3,105.5,44.3,105.3,44.3l-5.4-1.9c-0.1,0-0.1-0.1-0.1-0.2c0-0.1,0.1-0.2,0.2-0.2l2.1-0.3l-0.2,0.2
		l-0.3-1.9c0-0.1,0-0.2,0.1-0.2c0.1,0,0.2,0,0.2,0.1l3.7,4.1c0.1,0.1,0.1,0.2,0,0.3C105.5,44.3,105.4,44.3,105.3,44.3"/>
	<path class="st1" d="M216,27l0.8-0.1c0,0.3,0.1,0.5,0.3,0.7c0.1,0.2,0.3,0.4,0.6,0.5c0.3,0.1,0.6,0.2,0.9,0.2c0.3,0,0.6,0,0.8-0.1
		c0.2-0.1,0.4-0.2,0.5-0.4s0.2-0.3,0.2-0.5c0-0.2-0.1-0.3-0.2-0.5c-0.1-0.2-0.3-0.3-0.6-0.4c-0.2-0.1-0.5-0.2-1.1-0.3
		c-0.6-0.1-1-0.2-1.2-0.4c-0.3-0.1-0.5-0.3-0.7-0.6c-0.1-0.2-0.2-0.5-0.2-0.8c0-0.3,0.1-0.6,0.2-0.8c0.2-0.3,0.5-0.5,0.8-0.6
		c0.3-0.1,0.7-0.2,1.1-0.2c0.5,0,0.9,0.1,1.2,0.2c0.4,0.2,0.6,0.4,0.8,0.6c0.2,0.3,0.3,0.6,0.3,0.9l-0.8,0.1c0-0.4-0.2-0.7-0.4-0.9
		c-0.2-0.2-0.6-0.3-1.1-0.3c-0.5,0-0.9,0.1-1.1,0.3c-0.2,0.2-0.3,0.4-0.3,0.6c0,0.2,0.1,0.4,0.2,0.5c0.2,0.1,0.6,0.3,1.2,0.4
		c0.7,0.1,1.1,0.3,1.4,0.4c0.4,0.2,0.6,0.4,0.8,0.6c0.2,0.2,0.2,0.5,0.2,0.8s-0.1,0.6-0.3,0.9c-0.2,0.3-0.5,0.5-0.8,0.7
		c-0.4,0.2-0.8,0.2-1.2,0.2c-0.6,0-1-0.1-1.4-0.2c-0.4-0.2-0.7-0.4-0.9-0.7C216.1,27.8,216,27.4,216,27z M223.8,28.9l-2.4-6h0.9
		l1.6,4.4c0.1,0.4,0.2,0.7,0.3,1c0.1-0.3,0.2-0.7,0.3-1l1.7-4.4h0.8l-2.4,6H223.8z M232.2,26.8L233,27c-0.2,0.7-0.5,1.1-0.9,1.5
		c-0.4,0.4-1,0.5-1.6,0.5c-0.7,0-1.2-0.1-1.6-0.4c-0.4-0.3-0.7-0.6-1-1.1c-0.2-0.5-0.3-1-0.3-1.6c0-0.6,0.1-1.2,0.4-1.6
		c0.2-0.5,0.6-0.8,1-1.1c0.5-0.2,1-0.4,1.5-0.4c0.6,0,1.1,0.2,1.6,0.5c0.4,0.3,0.7,0.7,0.9,1.3l-0.8,0.2c-0.1-0.4-0.3-0.8-0.6-0.9
		c-0.3-0.2-0.6-0.3-1-0.3c-0.5,0-0.9,0.1-1.2,0.3c-0.3,0.2-0.5,0.5-0.7,0.9c-0.1,0.4-0.2,0.8-0.2,1.2c0,0.5,0.1,0.9,0.2,1.3
		c0.1,0.4,0.4,0.7,0.7,0.8c0.3,0.2,0.7,0.3,1.1,0.3c0.5,0,0.9-0.1,1.2-0.4C231.9,27.7,232.1,27.3,232.2,26.8z M240.9,26.8l0.8,0.2
		c-0.2,0.7-0.5,1.1-0.9,1.5c-0.5,0.4-1,0.5-1.6,0.5c-0.7,0-1.2-0.1-1.6-0.4c-0.4-0.3-0.7-0.6-0.9-1.1c-0.2-0.5-0.3-1-0.3-1.6
		c0-0.6,0.1-1.2,0.4-1.6c0.2-0.5,0.6-0.8,1-1.1c0.5-0.2,1-0.4,1.5-0.4c0.6,0,1.1,0.2,1.6,0.5c0.4,0.3,0.7,0.7,0.9,1.3l-0.8,0.2
		c-0.1-0.4-0.3-0.8-0.6-0.9c-0.3-0.2-0.6-0.3-1-0.3c-0.5,0-0.9,0.1-1.2,0.3c-0.3,0.2-0.5,0.5-0.7,0.9c-0.1,0.4-0.2,0.8-0.2,1.2
		c0,0.5,0.1,0.9,0.2,1.3c0.2,0.4,0.4,0.7,0.7,0.8c0.3,0.2,0.7,0.3,1.1,0.3c0.5,0,0.8-0.1,1.2-0.4C240.5,27.7,240.8,27.3,240.9,26.8z
		 M242.6,28.9v-6h0.8v2.1c0.4-0.4,0.8-0.6,1.3-0.6c0.3,0,0.6,0.1,0.9,0.2c0.2,0.1,0.4,0.3,0.5,0.5c0.1,0.2,0.2,0.5,0.2,1v2.8h-0.8
		v-2.8c0-0.4-0.1-0.6-0.2-0.8c-0.2-0.2-0.4-0.2-0.7-0.2c-0.2,0-0.4,0.1-0.6,0.2c-0.2,0.1-0.3,0.3-0.4,0.5c-0.1,0.2-0.1,0.5-0.1,0.8
		v2.4H242.6z M250.3,28.4c-0.3,0.2-0.5,0.4-0.8,0.5c-0.3,0.1-0.5,0.1-0.8,0.1c-0.5,0-0.9-0.1-1.1-0.4c-0.3-0.2-0.4-0.5-0.4-0.9
		c0-0.2,0.1-0.4,0.1-0.6c0.1-0.2,0.2-0.3,0.4-0.4c0.2-0.1,0.4-0.2,0.6-0.2c0.1,0,0.4-0.1,0.7-0.1c0.6-0.1,1.1-0.2,1.4-0.2
		c0-0.1,0-0.2,0-0.2c0-0.3-0.1-0.5-0.2-0.6c-0.2-0.2-0.5-0.2-0.9-0.2c-0.3,0-0.6,0.1-0.8,0.2c-0.2,0.1-0.3,0.3-0.4,0.6l-0.8-0.1
		c0.1-0.3,0.2-0.6,0.3-0.8c0.2-0.2,0.4-0.3,0.7-0.4c0.3-0.1,0.6-0.2,1-0.2c0.4,0,0.7,0,0.9,0.1c0.2,0.1,0.4,0.2,0.5,0.3
		s0.2,0.3,0.2,0.5c0,0.1,0,0.4,0,0.7v1c0,0.7,0,1.1,0,1.3c0,0.2,0.1,0.4,0.2,0.5h-0.8C250.4,28.8,250.3,28.6,250.3,28.4z
		 M250.3,26.7c-0.3,0.1-0.7,0.2-1.2,0.3c-0.3,0-0.5,0.1-0.7,0.2c-0.1,0-0.2,0.1-0.3,0.2c-0.1,0.1-0.1,0.2-0.1,0.4
		c0,0.2,0.1,0.4,0.2,0.5c0.2,0.1,0.4,0.2,0.7,0.2c0.3,0,0.6-0.1,0.8-0.2c0.2-0.1,0.4-0.3,0.5-0.5c0.1-0.2,0.1-0.4,0.1-0.7V26.7z
		 M252.2,28.9v-4.3h0.7v0.6c0.2-0.3,0.3-0.5,0.5-0.6c0.1-0.1,0.3-0.2,0.5-0.2c0.3,0,0.5,0.1,0.8,0.2l-0.3,0.7
		c-0.2-0.1-0.4-0.2-0.6-0.2c-0.2,0-0.3,0.1-0.4,0.1c-0.1,0.1-0.2,0.2-0.3,0.4c-0.1,0.3-0.1,0.6-0.1,0.9v2.3H252.2z M258,28.4
		c-0.3,0.2-0.6,0.4-0.8,0.5c-0.3,0.1-0.5,0.1-0.8,0.1c-0.5,0-0.9-0.1-1.1-0.4c-0.3-0.2-0.4-0.5-0.4-0.9c0-0.2,0.1-0.4,0.1-0.6
		c0.1-0.2,0.2-0.3,0.4-0.4c0.2-0.1,0.3-0.2,0.5-0.2c0.1,0,0.4-0.1,0.7-0.1c0.6-0.1,1.1-0.2,1.4-0.2c0-0.1,0-0.2,0-0.2
		c0-0.3-0.1-0.5-0.2-0.6c-0.2-0.2-0.5-0.2-0.9-0.2c-0.4,0-0.6,0.1-0.8,0.2c-0.2,0.1-0.3,0.3-0.4,0.6l-0.7-0.1
		c0.1-0.3,0.2-0.6,0.3-0.8c0.2-0.2,0.4-0.3,0.7-0.4c0.3-0.1,0.6-0.2,1-0.2c0.4,0,0.7,0,0.9,0.1c0.2,0.1,0.4,0.2,0.5,0.3
		c0.1,0.1,0.2,0.3,0.2,0.5c0,0.1,0,0.4,0,0.7v1c0,0.7,0,1.1,0.1,1.3c0,0.2,0.1,0.4,0.2,0.5h-0.8C258.1,28.8,258,28.6,258,28.4z
		 M257.9,26.7c-0.3,0.1-0.7,0.2-1.2,0.3c-0.3,0-0.5,0.1-0.7,0.2c-0.1,0-0.2,0.1-0.3,0.2c-0.1,0.1-0.1,0.2-0.1,0.4
		c0,0.2,0.1,0.4,0.2,0.5c0.2,0.1,0.4,0.2,0.7,0.2c0.3,0,0.6-0.1,0.8-0.2c0.2-0.1,0.4-0.3,0.5-0.5c0.1-0.2,0.1-0.4,0.1-0.7V26.7z
		 M262.8,27.3l0.8,0.1c-0.1,0.5-0.3,0.9-0.6,1.2c-0.3,0.3-0.8,0.4-1.2,0.4c-0.6,0-1.1-0.2-1.5-0.6c-0.4-0.4-0.6-1-0.6-1.7
		c0-0.5,0.1-0.9,0.2-1.2c0.2-0.4,0.4-0.6,0.7-0.8c0.3-0.2,0.7-0.3,1.1-0.3c0.5,0,0.9,0.1,1.2,0.4c0.3,0.2,0.5,0.6,0.6,1l-0.7,0.1
		c-0.1-0.3-0.2-0.5-0.4-0.7c-0.2-0.2-0.4-0.2-0.6-0.2c-0.4,0-0.7,0.1-0.9,0.4c-0.2,0.3-0.3,0.7-0.3,1.3c0,0.6,0.1,1,0.3,1.3
		c0.2,0.3,0.5,0.4,0.9,0.4c0.3,0,0.6-0.1,0.8-0.3C262.6,28,262.8,27.7,262.8,27.3z M265.9,28.3l0.1,0.6c-0.2,0.1-0.4,0.1-0.6,0.1
		c-0.3,0-0.5,0-0.6-0.1c-0.2-0.1-0.3-0.2-0.3-0.3c-0.1-0.1-0.1-0.4-0.1-0.9v-2.5h-0.6v-0.6h0.6v-1.1l0.7-0.4v1.5h0.8v0.6h-0.8v2.5
		c0,0.2,0,0.4,0.1,0.4c0,0.1,0.1,0.1,0.1,0.2c0.1,0,0.1,0,0.2,0C265.6,28.3,265.7,28.3,265.9,28.3z M269.7,27.5l0.8,0.1
		c-0.1,0.4-0.4,0.8-0.7,1c-0.3,0.2-0.8,0.4-1.3,0.4c-0.6,0-1.2-0.2-1.6-0.6c-0.4-0.4-0.6-0.9-0.6-1.6c0-0.7,0.2-1.3,0.6-1.7
		c0.4-0.4,0.9-0.6,1.5-0.6c0.6,0,1.1,0.2,1.5,0.6c0.4,0.4,0.6,1,0.6,1.7c0,0,0,0.1,0,0.2h-3.3c0,0.5,0.2,0.9,0.4,1.1
		s0.6,0.4,0.9,0.4c0.3,0,0.5-0.1,0.7-0.2C269.4,28.1,269.6,27.8,269.7,27.5z M267.2,26.3h2.5c0-0.4-0.1-0.7-0.3-0.8
		c-0.2-0.3-0.6-0.4-0.9-0.4c-0.4,0-0.7,0.1-0.9,0.4C267.3,25.6,267.2,25.9,267.2,26.3z M271.4,28.9v-4.3h0.7v0.6
		c0.2-0.3,0.3-0.5,0.5-0.6c0.2-0.1,0.3-0.2,0.5-0.2c0.3,0,0.5,0.1,0.8,0.2l-0.3,0.7c-0.2-0.1-0.4-0.2-0.6-0.2
		c-0.2,0-0.3,0.1-0.5,0.1c-0.1,0.1-0.2,0.2-0.3,0.4c-0.1,0.3-0.1,0.6-0.1,0.9v2.3H271.4z M275.1,23.8h-0.8v-0.9h0.8V23.8z
		 M275.1,28.9h-0.8v-4.3h0.8V28.9z M275.9,27.6l0.8-0.1c0,0.3,0.2,0.5,0.4,0.7c0.2,0.2,0.5,0.2,0.8,0.2s0.6-0.1,0.8-0.2
		c0.2-0.1,0.3-0.3,0.3-0.5c0-0.2-0.1-0.3-0.2-0.4c-0.1-0.1-0.4-0.1-0.8-0.2c-0.6-0.1-0.9-0.2-1.2-0.4c-0.2-0.1-0.4-0.2-0.5-0.4
		c-0.1-0.2-0.2-0.4-0.2-0.6c0-0.2,0-0.4,0.1-0.6c0.1-0.2,0.2-0.3,0.4-0.4c0.1-0.1,0.3-0.2,0.5-0.2c0.2-0.1,0.4-0.1,0.7-0.1
		c0.3,0,0.7,0.1,0.9,0.2c0.3,0.1,0.5,0.2,0.6,0.4c0.1,0.2,0.2,0.4,0.3,0.7l-0.8,0.1c0-0.2-0.1-0.4-0.3-0.5c-0.2-0.1-0.4-0.2-0.7-0.2
		c-0.3,0-0.6,0.1-0.8,0.2c-0.1,0.1-0.2,0.2-0.2,0.4c0,0.1,0,0.2,0.1,0.3c0.1,0.1,0.2,0.1,0.3,0.2c0.1,0,0.3,0.1,0.7,0.2
		c0.5,0.1,0.9,0.3,1.1,0.3c0.2,0.1,0.4,0.2,0.5,0.4c0.1,0.2,0.2,0.4,0.2,0.6c0,0.2-0.1,0.5-0.2,0.7c-0.1,0.2-0.4,0.4-0.6,0.5
		s-0.6,0.2-0.9,0.2c-0.6,0-1-0.1-1.3-0.4C276.2,28.4,276,28.1,275.9,27.6z M282.2,28.3l0.1,0.6c-0.2,0.1-0.4,0.1-0.6,0.1
		c-0.3,0-0.5,0-0.6-0.1c-0.1-0.1-0.3-0.2-0.3-0.3c-0.1-0.1-0.1-0.4-0.1-0.9v-2.5h-0.6v-0.6h0.6v-1.1l0.8-0.4v1.5h0.8v0.6h-0.8v2.5
		c0,0.2,0,0.4,0,0.4c0,0.1,0.1,0.1,0.1,0.2c0.1,0,0.2,0,0.3,0C281.9,28.3,282.1,28.3,282.2,28.3z M283.7,23.8h-0.8v-0.9h0.8V23.8z
		 M283.7,28.9h-0.8v-4.3h0.8V28.9z M287.8,27.3l0.8,0.1c-0.1,0.5-0.3,0.9-0.6,1.2c-0.3,0.3-0.7,0.4-1.2,0.4c-0.6,0-1.1-0.2-1.5-0.6
		c-0.4-0.4-0.6-1-0.6-1.7c0-0.5,0.1-0.9,0.2-1.2c0.2-0.4,0.4-0.6,0.7-0.8c0.3-0.2,0.7-0.3,1.1-0.3c0.5,0,0.9,0.1,1.2,0.4
		c0.3,0.2,0.5,0.6,0.6,1l-0.7,0.1c-0.1-0.3-0.2-0.5-0.4-0.7c-0.2-0.2-0.4-0.2-0.7-0.2c-0.4,0-0.7,0.1-0.9,0.4
		c-0.2,0.3-0.4,0.7-0.4,1.3c0,0.6,0.1,1,0.3,1.3c0.2,0.3,0.5,0.4,0.9,0.4c0.3,0,0.6-0.1,0.8-0.3C287.6,28,287.7,27.7,287.8,27.3"/>
	<path class="st1" d="M194.5,185.9h-0.7v-4.8h0.7V185.9z M195.4,184.2c0-0.6,0.2-1.1,0.6-1.4c0.3-0.3,0.7-0.4,1.1-0.4
		c0.5,0,0.9,0.2,1.2,0.5c0.3,0.3,0.5,0.7,0.5,1.3c0,0.4-0.1,0.8-0.2,1s-0.3,0.5-0.6,0.6c-0.3,0.1-0.5,0.2-0.9,0.2
		c-0.5,0-0.9-0.2-1.2-0.5C195.5,185.3,195.4,184.8,195.4,184.2z M196,184.2c0,0.4,0.1,0.8,0.3,1c0.2,0.2,0.5,0.3,0.8,0.3
		c0.3,0,0.5-0.1,0.7-0.3s0.3-0.6,0.3-1c0-0.4-0.1-0.8-0.3-1s-0.4-0.3-0.7-0.3c-0.3,0-0.6,0.1-0.8,0.3S196,183.8,196,184.2"/>
	<path class="st2" d="M297.3,191.1h1.6v-7.6h-1.6V191.1z"/>
</g>
</svg>
