<?xml version="1.0" encoding="utf-8"?>
<!-- Generator: Adobe Illustrator 27.9.0, SVG Export Plug-In . SVG Version: 6.00 Build 0)  -->
<svg version="1.1" id="Layer_1" xmlns="http://www.w3.org/2000/svg" xmlns:xlink="http://www.w3.org/1999/xlink" x="0px" y="0px"
	 viewBox="0 0 307.4 198.6" style="enable-background:new 0 0 307.4 198.6;" xml:space="preserve">
<style type="text/css">
	.st0{fill:none;stroke:#131413;stroke-width:1.913;stroke-linecap:round;stroke-linejoin:round;stroke-miterlimit:10;}
	.st1{fill-rule:evenodd;clip-rule:evenodd;fill:#131413;}
	.st2{fill:#131413;}
	.st3{clip-path:url(#SVGID_00000049932173612990001500000013257071234551971734_);}
	.st4{fill:none;stroke:#4373B6;stroke-width:1.913;stroke-linecap:round;stroke-linejoin:round;stroke-miterlimit:10;}
	.st5{fill:none;stroke:#DF3224;stroke-width:1.913;stroke-linecap:round;stroke-linejoin:round;stroke-miterlimit:10;}
	.st6{fill:none;stroke:#131413;stroke-width:0.399;stroke-linecap:round;stroke-linejoin:round;stroke-miterlimit:10;}
</style>
<path class="st0" d="M22.4,176.1h271.5"/>
<path class="st1" d="M298,176.1l-5.5-1.3l1.4,1.3l-1.4,1.3L298,176.1"/>
<path class="st2" d="M297.9,176.7l-5.5-1.3l0.5-0.9l1.4,1.3c0.1,0.1,0.2,0.3,0.2,0.4c0,0.2-0.1,0.3-0.2,0.4l-1.4,1.4l-0.5-0.9
	l5.5-1.4c0.3-0.1,0.6,0.1,0.7,0.4c0.1,0.3-0.1,0.6-0.4,0.7l-5.5,1.4c-0.2,0.1-0.5-0.1-0.6-0.3c-0.1-0.2-0.1-0.5,0.1-0.7l1.3-1.4
	l0,0.8l-1.4-1.3c-0.2-0.2-0.2-0.4-0.1-0.7c0.1-0.2,0.4-0.3,0.6-0.3l5.5,1.3c0.3,0.1,0.5,0.4,0.4,0.7
	C298.5,176.5,298.2,176.7,297.9,176.7"/>
<path class="st0" d="M158.3,10.2v166"/>
<path class="st0" d="M158.3,10.2V6.8"/>
<path class="st1" d="M158.3,2.7L157,8.1l1.3-1.3l1.3,1.3L158.3,2.7"/>
<g>
	<defs>
		<rect id="SVGID_1_" x="155.6" y="2.1" width="5" height="7.4"/>
	</defs>
	<clipPath id="SVGID_00000016049564725838540500000018158645362112023957_">
		<use xlink:href="#SVGID_1_"  style="overflow:visible;"/>
	</clipPath>
	<g style="clip-path:url(#SVGID_00000016049564725838540500000018158645362112023957_);">
		<path class="st2" d="M158.8,2.8l-1.3,5.4l-0.9-0.5l1.3-1.3c0.2-0.2,0.6-0.2,0.8,0l1.4,1.3l-0.9,0.6l-1.3-5.4
			c-0.1-0.3,0.1-0.6,0.4-0.7c0.3-0.1,0.6,0.1,0.7,0.4l1.4,5.4c0.1,0.2,0,0.5-0.3,0.6c-0.2,0.1-0.5,0.1-0.7-0.1l-1.4-1.3l0.8,0
			l-1.3,1.3c-0.2,0.2-0.4,0.2-0.7,0.1c-0.2-0.1-0.3-0.4-0.3-0.6l1.3-5.4c0.1-0.3,0.4-0.5,0.7-0.4C158.7,2.2,158.9,2.5,158.8,2.8"/>
	</g>
</g>
<path class="st1" d="M165,17.7l-2.8-7.6h1.7l2,5.7l1.9-5.7h1.7l-2.8,7.6H165"/>
<path class="st4" d="M207.4,191.3h3v-3c0-4.5,6-4.5,6,0c0-4.5,6.1-4.5,6.1,0c0-4.5,6.1-4.5,6.1,0c0-4.5,6.1-4.5,6.1,0v3h2.9"/>
<path class="st4" d="M216.4,188.2v3"/>
<path class="st4" d="M222.5,188.2v3"/>
<path class="st4" d="M228.5,188.2v3"/>
<path class="st5" d="M93.6,184.5c-2.5,1.1-3.3,2.6-3.3,3.8c0,1.1,0.8,2.6,3.3,3.7"/>
<path class="st5" d="M90.3,188.3h7.6"/>
<path class="st5" d="M86.6,184.5v7.5"/>
<path class="st5" d="M75.2,188.3h11.3"/>
<path class="st1" d="M24.9,30.6l0.8-0.1c0,0.3,0.1,0.6,0.3,0.7c0.1,0.2,0.3,0.3,0.6,0.5c0.3,0.1,0.6,0.2,0.9,0.2
	c0.3,0,0.6,0,0.8-0.1c0.2-0.1,0.4-0.2,0.5-0.4s0.2-0.3,0.2-0.5c0-0.2-0.1-0.3-0.2-0.5c-0.1-0.1-0.3-0.3-0.6-0.4
	c-0.2-0.1-0.5-0.2-1.1-0.3c-0.6-0.1-1-0.2-1.2-0.4c-0.3-0.2-0.5-0.3-0.7-0.6c-0.1-0.2-0.2-0.5-0.2-0.8c0-0.3,0.1-0.6,0.2-0.8
	c0.2-0.3,0.4-0.5,0.8-0.6c0.3-0.2,0.7-0.2,1.1-0.2c0.5,0,0.9,0.1,1.2,0.2c0.4,0.1,0.6,0.3,0.8,0.6c0.2,0.3,0.3,0.6,0.3,0.9l-0.8,0.1
	c0-0.4-0.2-0.7-0.4-0.9c-0.2-0.2-0.6-0.3-1.1-0.3c-0.5,0-0.9,0.1-1.1,0.3c-0.2,0.2-0.3,0.4-0.3,0.6c0,0.2,0.1,0.4,0.2,0.5
	c0.2,0.1,0.6,0.3,1.2,0.4c0.7,0.2,1.1,0.3,1.4,0.4c0.4,0.2,0.6,0.4,0.8,0.6c0.2,0.2,0.2,0.5,0.2,0.9s-0.1,0.6-0.3,0.9
	c-0.2,0.3-0.5,0.5-0.8,0.7c-0.4,0.2-0.8,0.2-1.2,0.2c-0.6,0-1-0.1-1.4-0.2s-0.7-0.4-0.9-0.7C25.1,31.4,24.9,31,24.9,30.6z
	 M30.8,34.2l-0.1-0.7c0.2,0,0.3,0.1,0.4,0.1c0.2,0,0.3,0,0.4-0.1c0.1-0.1,0.2-0.1,0.2-0.2c0-0.1,0.1-0.2,0.2-0.5c0,0,0-0.1,0.1-0.2
	l-1.7-4.4h0.8l0.9,2.5c0.1,0.3,0.2,0.7,0.3,1c0.1-0.3,0.2-0.7,0.3-1l1-2.5h0.8l-1.7,4.4c-0.2,0.5-0.3,0.8-0.4,1
	c-0.1,0.2-0.3,0.4-0.5,0.5c-0.2,0.1-0.4,0.2-0.6,0.2C31.2,34.3,31,34.3,30.8,34.2z M34.9,31.3l0.8-0.1c0,0.3,0.2,0.5,0.4,0.7
	c0.2,0.1,0.5,0.2,0.8,0.2c0.4,0,0.6-0.1,0.8-0.2c0.2-0.1,0.3-0.3,0.3-0.5c0-0.2-0.1-0.3-0.2-0.4c-0.1-0.1-0.4-0.1-0.8-0.3
	c-0.6-0.1-0.9-0.3-1.2-0.4c-0.2-0.1-0.4-0.2-0.5-0.4c-0.1-0.2-0.2-0.4-0.2-0.6c0-0.2,0.1-0.4,0.1-0.5c0.1-0.2,0.2-0.3,0.4-0.4
	c0.1-0.1,0.3-0.2,0.5-0.2c0.2-0.1,0.4-0.1,0.7-0.1c0.3,0,0.6,0,0.9,0.1c0.3,0.1,0.5,0.2,0.6,0.4c0.1,0.2,0.2,0.4,0.3,0.7l-0.7,0.1
	c0-0.2-0.1-0.4-0.3-0.5c-0.2-0.1-0.4-0.2-0.7-0.2c-0.3,0-0.6,0.1-0.7,0.2c-0.2,0.1-0.2,0.2-0.2,0.4c0,0.1,0,0.2,0.1,0.3
	c0.1,0.1,0.2,0.1,0.3,0.2c0.1,0,0.3,0.1,0.7,0.2c0.5,0.1,0.9,0.2,1.1,0.3c0.2,0.1,0.4,0.2,0.5,0.4c0.1,0.2,0.2,0.4,0.2,0.6
	c0,0.2-0.1,0.5-0.2,0.7c-0.1,0.2-0.4,0.4-0.6,0.5c-0.3,0.1-0.6,0.2-1,0.2c-0.6,0-1-0.1-1.3-0.4C35.2,32.1,35,31.7,34.9,31.3z
	 M41.2,31.9l0.1,0.7c-0.2,0-0.4,0.1-0.6,0.1c-0.3,0-0.5,0-0.6-0.1c-0.1-0.1-0.3-0.2-0.3-0.3s-0.1-0.4-0.1-0.9v-2.5h-0.6v-0.6h0.6
	v-1.1l0.8-0.5v1.5h0.8v0.6h-0.8v2.5c0,0.2,0,0.3,0,0.4c0,0.1,0.1,0.1,0.1,0.2c0.1,0,0.1,0,0.3,0C40.9,31.9,41,31.9,41.2,31.9z
	 M45,31.2l0.8,0.1c-0.1,0.4-0.3,0.8-0.7,1c-0.3,0.2-0.8,0.4-1.3,0.4c-0.7,0-1.2-0.2-1.6-0.6c-0.4-0.4-0.6-0.9-0.6-1.7
	c0-0.7,0.2-1.3,0.6-1.7c0.4-0.4,0.9-0.6,1.5-0.6c0.6,0,1.1,0.2,1.5,0.6c0.4,0.4,0.6,0.9,0.6,1.7c0,0,0,0.1,0,0.2h-3.4
	c0,0.5,0.2,0.8,0.4,1.1s0.6,0.4,0.9,0.4c0.3,0,0.5-0.1,0.7-0.2C44.7,31.7,44.9,31.5,45,31.2z M42.5,30H45c0-0.4-0.1-0.6-0.3-0.8
	c-0.2-0.3-0.6-0.4-0.9-0.4c-0.3,0-0.6,0.1-0.9,0.3C42.6,29.3,42.5,29.6,42.5,30z M46.7,32.6v-4.4h0.7v0.6c0.1-0.2,0.3-0.4,0.6-0.5
	c0.2-0.1,0.5-0.2,0.8-0.2c0.3,0,0.6,0.1,0.8,0.2c0.2,0.1,0.4,0.3,0.4,0.6c0.4-0.5,0.8-0.8,1.4-0.8c0.4,0,0.8,0.1,1,0.4
	c0.2,0.2,0.4,0.6,0.4,1.1v3H52v-2.7c0-0.3,0-0.5-0.1-0.6c0-0.1-0.1-0.2-0.3-0.3c-0.1-0.1-0.3-0.1-0.4-0.1c-0.3,0-0.6,0.1-0.8,0.3
	c-0.2,0.2-0.3,0.5-0.3,1v2.5h-0.8v-2.8c0-0.3-0.1-0.6-0.2-0.8c-0.1-0.1-0.3-0.2-0.6-0.2c-0.2,0-0.4,0.1-0.6,0.2
	c-0.2,0.1-0.3,0.3-0.4,0.5c-0.1,0.2-0.1,0.5-0.1,0.9v2.3H46.7z M56.4,32.6v-6h0.8v5.3h3.1v0.7H56.4z M60.8,30.4
	c0-0.8,0.2-1.4,0.7-1.8c0.4-0.3,0.9-0.5,1.4-0.5c0.6,0,1.1,0.2,1.5,0.6c0.4,0.4,0.6,0.9,0.6,1.6c0,0.6-0.1,1-0.3,1.3
	c-0.2,0.3-0.4,0.6-0.8,0.8c-0.3,0.2-0.7,0.3-1.1,0.3c-0.6,0-1.1-0.2-1.5-0.6C61,31.7,60.8,31.1,60.8,30.4z M61.6,30.4
	c0,0.6,0.1,1,0.4,1.2c0.2,0.3,0.6,0.4,0.9,0.4c0.4,0,0.7-0.1,0.9-0.4c0.3-0.3,0.4-0.7,0.4-1.3c0-0.5-0.1-0.9-0.4-1.2
	c-0.2-0.3-0.6-0.4-0.9-0.4c-0.4,0-0.7,0.1-0.9,0.4C61.8,29.4,61.6,29.8,61.6,30.4z M68.9,32c-0.3,0.2-0.6,0.4-0.8,0.5
	c-0.3,0.1-0.5,0.2-0.8,0.2c-0.5,0-0.9-0.1-1.1-0.4c-0.3-0.2-0.4-0.5-0.4-0.9c0-0.2,0-0.4,0.1-0.6c0.1-0.2,0.2-0.3,0.4-0.4
	c0.2-0.1,0.4-0.2,0.6-0.2c0.2,0,0.4-0.1,0.7-0.1c0.6-0.1,1.1-0.2,1.4-0.3c0-0.1,0-0.1,0-0.2c0-0.3-0.1-0.5-0.2-0.6
	c-0.2-0.2-0.5-0.2-0.9-0.2c-0.3,0-0.6,0.1-0.8,0.2c-0.2,0.1-0.3,0.3-0.4,0.6l-0.8-0.1c0.1-0.3,0.2-0.6,0.3-0.8
	c0.2-0.2,0.4-0.3,0.7-0.4c0.3-0.1,0.6-0.1,1-0.1c0.4,0,0.7,0,0.9,0.1c0.2,0.1,0.4,0.2,0.5,0.3c0.1,0.1,0.2,0.3,0.2,0.5
	c0,0.1,0.1,0.3,0.1,0.7v1c0,0.7,0,1.1,0.1,1.3c0,0.2,0.1,0.4,0.2,0.5H69C68.9,32.4,68.9,32.2,68.9,32z M68.8,30.4
	c-0.3,0.1-0.7,0.2-1.2,0.3c-0.3,0-0.5,0.1-0.7,0.1c-0.1,0.1-0.2,0.1-0.3,0.2c-0.1,0.1-0.1,0.2-0.1,0.4c0,0.2,0.1,0.4,0.2,0.5
	c0.2,0.1,0.4,0.2,0.7,0.2c0.3,0,0.6-0.1,0.8-0.2c0.2-0.1,0.4-0.3,0.5-0.5c0.1-0.2,0.1-0.4,0.1-0.7V30.4z M73.6,32.6V32
	c-0.3,0.4-0.7,0.7-1.2,0.7c-0.4,0-0.7-0.1-1-0.3c-0.3-0.2-0.5-0.5-0.7-0.8c-0.2-0.4-0.2-0.8-0.2-1.2c0-0.4,0.1-0.8,0.2-1.2
	c0.1-0.4,0.4-0.6,0.7-0.8c0.3-0.2,0.6-0.3,1-0.3c0.3,0,0.5,0.1,0.7,0.2c0.2,0.1,0.4,0.3,0.5,0.4v-2.2h0.8v6H73.6z M71.2,30.4
	c0,0.5,0.1,1,0.4,1.2c0.2,0.3,0.5,0.4,0.8,0.4c0.3,0,0.6-0.1,0.9-0.4c0.2-0.3,0.4-0.7,0.4-1.2c0-0.6-0.1-1-0.4-1.3
	c-0.2-0.3-0.5-0.4-0.9-0.4c-0.3,0-0.6,0.1-0.9,0.4C71.4,29.4,71.2,29.8,71.2,30.4z M82.5,30.5l0.8,0.2c-0.2,0.6-0.5,1.1-0.9,1.5
	c-0.4,0.3-1,0.5-1.6,0.5c-0.7,0-1.2-0.1-1.6-0.4c-0.4-0.3-0.7-0.6-1-1.1s-0.3-1-0.3-1.6c0-0.6,0.1-1.2,0.4-1.6
	c0.2-0.5,0.6-0.8,1-1.1c0.5-0.2,1-0.4,1.5-0.4c0.6,0,1.1,0.1,1.6,0.5c0.4,0.3,0.7,0.7,0.9,1.3l-0.8,0.2c-0.2-0.4-0.4-0.8-0.6-1
	c-0.3-0.2-0.6-0.3-1-0.3c-0.5,0-0.9,0.1-1.2,0.3c-0.3,0.2-0.5,0.5-0.7,0.9c-0.1,0.4-0.2,0.8-0.2,1.2c0,0.5,0.1,1,0.2,1.3
	c0.1,0.4,0.4,0.7,0.7,0.8c0.3,0.2,0.7,0.3,1,0.3c0.5,0,0.9-0.1,1.2-0.4C82.1,31.3,82.3,31,82.5,30.5z M84.2,32.6v-6H85v2.2
	c0.3-0.4,0.8-0.6,1.3-0.6c0.3,0,0.6,0.1,0.9,0.2c0.2,0.1,0.4,0.3,0.5,0.5c0.1,0.2,0.2,0.6,0.2,1v2.8h-0.8v-2.8
	c0-0.4-0.1-0.6-0.2-0.8c-0.2-0.2-0.4-0.3-0.7-0.3c-0.2,0-0.4,0.1-0.6,0.2c-0.2,0.1-0.3,0.3-0.4,0.5C85,29.6,85,29.8,85,30.2v2.4
	H84.2z M91.9,32c-0.3,0.2-0.6,0.4-0.8,0.5c-0.3,0.1-0.5,0.2-0.8,0.2c-0.5,0-0.9-0.1-1.1-0.4c-0.3-0.2-0.4-0.5-0.4-0.9
	c0-0.2,0.1-0.4,0.2-0.6c0.1-0.2,0.2-0.3,0.4-0.4c0.2-0.1,0.3-0.2,0.5-0.2c0.2,0,0.4-0.1,0.7-0.1c0.6-0.1,1.1-0.2,1.4-0.3
	c0-0.1,0-0.1,0-0.2c0-0.3-0.1-0.5-0.2-0.6c-0.2-0.2-0.5-0.2-0.9-0.2c-0.4,0-0.6,0.1-0.8,0.2c-0.2,0.1-0.3,0.3-0.4,0.6l-0.8-0.1
	c0.1-0.3,0.2-0.6,0.3-0.8c0.1-0.2,0.4-0.3,0.7-0.4c0.3-0.1,0.6-0.1,1-0.1c0.4,0,0.7,0,0.9,0.1c0.2,0.1,0.4,0.2,0.5,0.3
	c0.1,0.1,0.2,0.3,0.2,0.5c0,0.1,0,0.3,0,0.7v1c0,0.7,0,1.1,0.1,1.3c0,0.2,0.1,0.4,0.2,0.5h-0.8C92,32.4,91.9,32.2,91.9,32z
	 M91.9,30.4c-0.3,0.1-0.7,0.2-1.2,0.3c-0.3,0-0.5,0.1-0.7,0.1c-0.1,0.1-0.2,0.1-0.3,0.2c-0.1,0.1-0.1,0.2-0.1,0.4
	c0,0.2,0.1,0.4,0.2,0.5c0.1,0.1,0.4,0.2,0.7,0.2c0.3,0,0.6-0.1,0.8-0.2c0.2-0.1,0.4-0.3,0.5-0.5c0.1-0.2,0.1-0.4,0.1-0.7V30.4z
	 M93.8,32.6v-4.4h0.7v0.7c0.2-0.3,0.3-0.5,0.5-0.6c0.1-0.1,0.3-0.1,0.5-0.1c0.2,0,0.5,0.1,0.8,0.2L96,29c-0.2-0.1-0.4-0.2-0.6-0.2
	c-0.2,0-0.3,0-0.4,0.1c-0.1,0.1-0.2,0.2-0.3,0.4c-0.1,0.3-0.1,0.6-0.1,0.9v2.3H93.8z M99.6,32c-0.3,0.2-0.6,0.4-0.8,0.5
	c-0.3,0.1-0.5,0.2-0.8,0.2c-0.5,0-0.9-0.1-1.1-0.4c-0.3-0.2-0.4-0.5-0.4-0.9c0-0.2,0-0.4,0.1-0.6c0.1-0.2,0.2-0.3,0.4-0.4
	c0.2-0.1,0.3-0.2,0.5-0.2c0.1,0,0.4-0.1,0.7-0.1c0.6-0.1,1.1-0.2,1.3-0.3c0-0.1,0-0.1,0-0.2c0-0.3-0.1-0.5-0.2-0.6
	c-0.2-0.2-0.5-0.2-0.9-0.2c-0.4,0-0.6,0.1-0.8,0.2c-0.2,0.1-0.3,0.3-0.4,0.6l-0.7-0.1c0.1-0.3,0.2-0.6,0.3-0.8
	c0.1-0.2,0.4-0.3,0.7-0.4c0.3-0.1,0.6-0.1,1-0.1c0.4,0,0.7,0,0.9,0.1c0.2,0.1,0.4,0.2,0.5,0.3c0.1,0.1,0.2,0.3,0.2,0.5
	c0,0.1,0,0.3,0,0.7v1c0,0.7,0,1.1,0.1,1.3c0,0.2,0.1,0.4,0.2,0.5h-0.8C99.7,32.4,99.6,32.2,99.6,32z M99.5,30.4
	c-0.3,0.1-0.7,0.2-1.2,0.3c-0.3,0-0.5,0.1-0.7,0.1c-0.1,0.1-0.2,0.1-0.3,0.2c-0.1,0.1-0.1,0.2-0.1,0.4c0,0.2,0.1,0.4,0.2,0.5
	c0.2,0.1,0.4,0.2,0.7,0.2c0.3,0,0.6-0.1,0.8-0.2c0.2-0.1,0.4-0.3,0.5-0.5c0.1-0.2,0.1-0.4,0.1-0.7V30.4z M104.4,31l0.8,0.1
	c-0.1,0.5-0.3,0.9-0.6,1.2c-0.3,0.3-0.7,0.4-1.2,0.4c-0.6,0-1.1-0.2-1.5-0.6c-0.4-0.4-0.6-0.9-0.6-1.7c0-0.5,0.1-0.9,0.2-1.2
	c0.2-0.4,0.4-0.6,0.7-0.8c0.3-0.2,0.7-0.3,1.1-0.3c0.5,0,0.9,0.1,1.2,0.4c0.3,0.2,0.5,0.6,0.6,1l-0.7,0.1c-0.1-0.3-0.2-0.5-0.4-0.7
	c-0.2-0.1-0.4-0.2-0.6-0.2c-0.4,0-0.7,0.1-0.9,0.4c-0.2,0.3-0.4,0.7-0.4,1.3c0,0.6,0.1,1,0.3,1.3c0.2,0.3,0.5,0.4,0.9,0.4
	c0.3,0,0.5-0.1,0.7-0.3C104.2,31.6,104.4,31.3,104.4,31z M107.5,31.9l0.1,0.7c-0.2,0-0.4,0.1-0.6,0.1c-0.3,0-0.5,0-0.6-0.1
	c-0.1-0.1-0.2-0.2-0.3-0.3c-0.1-0.1-0.1-0.4-0.1-0.9v-2.5h-0.6v-0.6h0.6v-1.1l0.8-0.5v1.5h0.8v0.6h-0.8v2.5c0,0.2,0,0.3,0,0.4
	c0,0.1,0.1,0.1,0.1,0.2c0.1,0,0.1,0,0.2,0C107.2,31.9,107.3,31.9,107.5,31.9z M111.3,31.2l0.8,0.1c-0.1,0.4-0.4,0.8-0.7,1
	c-0.3,0.2-0.8,0.4-1.3,0.4c-0.6,0-1.2-0.2-1.6-0.6c-0.4-0.4-0.6-0.9-0.6-1.7c0-0.7,0.2-1.3,0.6-1.7c0.4-0.4,0.9-0.6,1.5-0.6
	c0.6,0,1.1,0.2,1.5,0.6c0.4,0.4,0.6,0.9,0.6,1.7c0,0,0,0.1,0,0.2h-3.3c0,0.5,0.2,0.8,0.4,1.1s0.6,0.4,0.9,0.4c0.3,0,0.5-0.1,0.7-0.2
	C111,31.7,111.2,31.5,111.3,31.2z M108.8,30h2.5c0-0.4-0.1-0.6-0.3-0.8c-0.2-0.3-0.6-0.4-0.9-0.4c-0.4,0-0.6,0.1-0.9,0.3
	C108.9,29.3,108.8,29.6,108.8,30z M113,32.6v-4.4h0.7v0.7c0.2-0.3,0.3-0.5,0.5-0.6c0.1-0.1,0.3-0.1,0.5-0.1c0.3,0,0.5,0.1,0.8,0.2
	l-0.3,0.7c-0.2-0.1-0.4-0.2-0.6-0.2c-0.2,0-0.3,0-0.4,0.1c-0.1,0.1-0.2,0.2-0.3,0.4c-0.1,0.3-0.1,0.6-0.1,0.9v2.3H113z M116.6,27.4
	h-0.8v-0.8h0.8V27.4z M116.6,32.6h-0.8v-4.4h0.8V32.6z M117.5,31.3l0.8-0.1c0,0.3,0.2,0.5,0.3,0.7c0.2,0.1,0.5,0.2,0.8,0.2
	c0.3,0,0.6-0.1,0.8-0.2c0.2-0.1,0.2-0.3,0.2-0.5c0-0.2-0.1-0.3-0.2-0.4c-0.1-0.1-0.3-0.1-0.8-0.3c-0.6-0.1-0.9-0.3-1.2-0.4
	c-0.2-0.1-0.4-0.2-0.5-0.4c-0.1-0.2-0.2-0.4-0.2-0.6c0-0.2,0-0.4,0.1-0.5c0.1-0.2,0.2-0.3,0.4-0.4c0.1-0.1,0.3-0.2,0.5-0.2
	c0.2-0.1,0.4-0.1,0.7-0.1c0.4,0,0.7,0,0.9,0.1c0.3,0.1,0.5,0.2,0.6,0.4c0.1,0.2,0.2,0.4,0.3,0.7l-0.7,0.1c0-0.2-0.1-0.4-0.3-0.5
	c-0.1-0.1-0.4-0.2-0.7-0.2c-0.3,0-0.6,0.1-0.8,0.2c-0.1,0.1-0.2,0.2-0.2,0.4c0,0.1,0,0.2,0.1,0.3c0.1,0.1,0.2,0.1,0.3,0.2
	c0.1,0,0.3,0.1,0.7,0.2c0.5,0.1,0.9,0.2,1.1,0.3c0.2,0.1,0.4,0.2,0.5,0.4c0.1,0.2,0.2,0.4,0.2,0.6c0,0.2-0.1,0.5-0.2,0.7
	c-0.2,0.2-0.4,0.4-0.6,0.5c-0.3,0.1-0.6,0.2-0.9,0.2c-0.6,0-1-0.1-1.3-0.4C117.8,32.1,117.6,31.7,117.5,31.3z M123.8,31.9l0.1,0.7
	c-0.2,0-0.4,0.1-0.6,0.1c-0.3,0-0.5,0-0.6-0.1c-0.2-0.1-0.3-0.2-0.3-0.3c-0.1-0.1-0.1-0.4-0.1-0.9v-2.5h-0.6v-0.6h0.6v-1.1l0.7-0.5
	v1.5h0.8v0.6H123v2.5c0,0.2,0,0.3,0.1,0.4c0,0.1,0.1,0.1,0.1,0.2c0.1,0,0.2,0,0.3,0C123.5,31.9,123.7,31.9,123.8,31.9z M125.3,27.4
	h-0.8v-0.8h0.8V27.4z M125.3,32.6h-0.8v-4.4h0.8V32.6z M129.4,31l0.7,0.1c-0.1,0.5-0.3,0.9-0.6,1.2c-0.3,0.3-0.8,0.4-1.2,0.4
	c-0.6,0-1.1-0.2-1.5-0.6c-0.4-0.4-0.6-0.9-0.6-1.7c0-0.5,0.1-0.9,0.2-1.2c0.2-0.4,0.4-0.6,0.7-0.8c0.3-0.2,0.7-0.3,1.1-0.3
	c0.5,0,0.9,0.1,1.2,0.4c0.3,0.2,0.5,0.6,0.6,1l-0.7,0.1c-0.1-0.3-0.2-0.5-0.4-0.7c-0.2-0.1-0.4-0.2-0.6-0.2c-0.4,0-0.7,0.1-0.9,0.4
	c-0.2,0.3-0.4,0.7-0.4,1.3c0,0.6,0.1,1,0.3,1.3c0.2,0.3,0.5,0.4,0.9,0.4c0.3,0,0.6-0.1,0.8-0.3C129.2,31.6,129.3,31.3,129.4,31z
	 M134.6,34.3c-0.4-0.5-0.8-1.1-1.1-1.8c-0.3-0.7-0.4-1.4-0.4-2.1c0-0.6,0.1-1.3,0.3-1.9c0.2-0.7,0.6-1.4,1.2-2.1h0.6
	c-0.3,0.6-0.6,1-0.7,1.2c-0.2,0.4-0.3,0.8-0.4,1.2c-0.1,0.5-0.2,1-0.2,1.5c0,1.3,0.4,2.6,1.2,3.9H134.6z M137.9,32.6l-2.4-6h0.9
	l1.6,4.4c0.1,0.4,0.2,0.7,0.3,1c0.1-0.3,0.2-0.7,0.3-1l1.7-4.4h0.8l-2.4,6H137.9z M141.5,31.3l0.8-0.1c0.1,0.3,0.2,0.5,0.4,0.7
	c0.2,0.1,0.5,0.2,0.8,0.2c0.4,0,0.6-0.1,0.8-0.2c0.2-0.1,0.2-0.3,0.2-0.5c0-0.2-0.1-0.3-0.2-0.4c-0.1-0.1-0.4-0.1-0.8-0.3
	c-0.6-0.1-0.9-0.3-1.2-0.4c-0.2-0.1-0.4-0.2-0.5-0.4c-0.1-0.2-0.2-0.4-0.2-0.6c0-0.2,0-0.4,0.1-0.5c0.1-0.2,0.2-0.3,0.4-0.4
	c0.1-0.1,0.3-0.2,0.5-0.2c0.2-0.1,0.4-0.1,0.6-0.1c0.4,0,0.7,0,0.9,0.1c0.3,0.1,0.5,0.2,0.6,0.4c0.1,0.2,0.2,0.4,0.3,0.7l-0.8,0.1
	c0-0.2-0.1-0.4-0.3-0.5c-0.2-0.1-0.4-0.2-0.7-0.2c-0.4,0-0.6,0.1-0.8,0.2c-0.1,0.1-0.2,0.2-0.2,0.4c0,0.1,0,0.2,0.1,0.3
	c0.1,0.1,0.2,0.1,0.3,0.2c0.1,0,0.3,0.1,0.7,0.2c0.5,0.1,0.9,0.2,1.1,0.3c0.2,0.1,0.4,0.2,0.5,0.4c0.1,0.2,0.2,0.4,0.2,0.6
	c0,0.2-0.1,0.5-0.2,0.7c-0.1,0.2-0.4,0.4-0.6,0.5c-0.3,0.1-0.6,0.2-0.9,0.2c-0.6,0-1-0.1-1.3-0.4C141.8,32.1,141.6,31.7,141.5,31.3z
	 M146.6,34.3h-0.5c0.8-1.3,1.3-2.6,1.3-3.9c0-0.5-0.1-1-0.2-1.5c-0.1-0.4-0.2-0.8-0.4-1.2c-0.1-0.2-0.3-0.7-0.7-1.2h0.5
	c0.5,0.7,0.9,1.4,1.2,2.1c0.2,0.6,0.3,1.2,0.3,1.9c0,0.7-0.1,1.5-0.4,2.1C147.4,33.2,147.1,33.8,146.6,34.3"/>
<path class="st4" d="M37.5,44.1l256.7,11.3"/>
<path class="st6" d="M94.1,36.6l7.9,5.3"/>
<path class="st1" d="M105.4,44.1l-3.8-4.1l0.3,1.9l-2.1,0.3L105.4,44.1"/>
<path class="st2" d="M105.3,44.3l-3.8-4.1l0.4-0.2l0.3,1.9c0,0,0,0.1,0,0.1c0,0-0.1,0.1-0.1,0.1l-2.1,0.3l0-0.4l5.5,1.9
	c0.1,0,0.2,0.1,0.1,0.2C105.6,44.3,105.5,44.3,105.3,44.3l-5.4-1.9c-0.1,0-0.1-0.1-0.1-0.2c0-0.1,0.1-0.2,0.2-0.2l2.1-0.3l-0.2,0.2
	l-0.3-1.9c0-0.1,0-0.2,0.1-0.2c0.1,0,0.2,0,0.2,0.1l3.7,4.1c0.1,0.1,0.1,0.2,0,0.3C105.5,44.3,105.4,44.3,105.3,44.3"/>
<path class="st1" d="M194.5,185.9h-0.7v-4.8h0.7V185.9z M195.4,184.2c0-0.6,0.2-1.1,0.6-1.4c0.3-0.3,0.7-0.4,1.1-0.4
	c0.5,0,0.9,0.2,1.2,0.5c0.3,0.3,0.5,0.7,0.5,1.3c0,0.4-0.1,0.8-0.2,1s-0.3,0.5-0.6,0.6c-0.3,0.1-0.5,0.2-0.9,0.2
	c-0.5,0-0.9-0.2-1.2-0.5C195.5,185.3,195.4,184.8,195.4,184.2z M196,184.2c0,0.4,0.1,0.8,0.3,1c0.2,0.2,0.5,0.3,0.8,0.3
	c0.3,0,0.5-0.1,0.7-0.3s0.3-0.6,0.3-1c0-0.4-0.1-0.8-0.3-1s-0.4-0.3-0.7-0.3c-0.3,0-0.6,0.1-0.8,0.3S196,183.8,196,184.2"/>
<path class="st2" d="M297.3,191.1h1.6v-7.6h-1.6V191.1z"/>
</svg>
