<?xml version="1.0" encoding="utf-8"?>
<!-- Generator: Adobe Illustrator 27.9.0, SVG Export Plug-In . SVG Version: 6.00 Build 0)  -->
<svg version="1.1" id="Layer_1" xmlns="http://www.w3.org/2000/svg" xmlns:xlink="http://www.w3.org/1999/xlink" x="0px" y="0px"
	 viewBox="0 0 320.2 204.8" style="enable-background:new 0 0 320.2 204.8;" xml:space="preserve">
<style type="text/css">
	.st0{fill:none;stroke:#131413;stroke-width:1.241;stroke-linecap:round;stroke-linejoin:round;stroke-miterlimit:10;}
	.st1{fill:none;stroke:#131413;stroke-width:0.69;stroke-linecap:round;stroke-linejoin:round;stroke-miterlimit:10;}
	
		.st2{fill:none;stroke:#131413;stroke-width:0.4;stroke-linecap:round;stroke-linejoin:round;stroke-miterlimit:10;stroke-dasharray:1,1.5;}
	.st3{fill-rule:evenodd;clip-rule:evenodd;fill:#131413;}
	.st4{clip-path:url(#SVGID_00000042012621651279356160000011566381073980908975_);}
	.st5{clip-path:url(#SVGID_00000114064686347797719390000010656650866102553217_);}
	.st6{clip-path:url(#SVGID_00000116956660479599756250000004087672082880995503_);}
	.st7{fill:#131413;}
	.st8{fill-rule:evenodd;clip-rule:evenodd;fill:#FFFFFF;}
	.st9{fill:none;stroke:#131413;stroke-width:1.626;stroke-linecap:round;stroke-linejoin:round;stroke-miterlimit:10;}
	.st10{clip-path:url(#SVGID_00000095307260456063185550000017189713584819027338_);}
	.st11{clip-path:url(#SVGID_00000097479611106082748420000017332034485534621571_);}
	.st12{clip-path:url(#SVGID_00000040575916235348606000000005977647846762470321_);}
	.st13{fill:#FFFFFF;}
</style>
<path class="st9" d="M36.7,74.5v32.4"/>
<path class="st9" d="M25.2,142.1l3.4-5.7l3.4,5.7H25.2"/>
<path class="st9" d="M28.6,135.2v1.2"/>
<path class="st9" d="M28.6,143.3v-1.2"/>
<path class="st9" d="M25.2,136.4H32"/>
<path class="st9" d="M41.4,136.4h6.8l-3.4,5.7L41.4,136.4"/>
<path class="st9" d="M44.8,135.2v1.2"/>
<path class="st9" d="M44.8,143.3v-1.2"/>
<path class="st9" d="M41.4,142.1h6.8"/>
<path class="st9" d="M28.6,135.2v-4"/>
<path class="st9" d="M44.8,135.2v-4"/>
<path class="st9" d="M28.6,131.2h16.2"/>
<path class="st9" d="M36.7,123.1v8.1"/>
<path class="st9" d="M28.6,143.4v4h16.2"/>
<path class="st9" d="M36.7,147.4v8.1"/>
<path class="st9" d="M34.3,108.5c-3.7,0-3.7,3.3,0,3.3c-3.7,0-3.7,3.2,0,3.2c-3.7,0-3.7,3.3,0,3.3c-3.7,0-3.7,3.3,0,3.3h2.4v1.6"/>
<path class="st9" d="M34.3,118.3h2.4"/>
<path class="st9" d="M34.3,115h2.4"/>
<path class="st9" d="M34.3,111.8h2.4"/>
<path class="st9" d="M34.3,108.5h2.4V107"/>
<path class="st9" d="M34.3,157.1c-3.7,0-3.7,3.3,0,3.3c-3.7,0-3.7,3.2,0,3.2c-3.7,0-3.7,3.3,0,3.3c-3.7,0-3.7,3.3,0,3.3h2.4v1.6"/>
<path class="st9" d="M34.3,166.9h2.4"/>
<path class="st9" d="M34.3,163.6h2.4"/>
<path class="st9" d="M34.3,160.4h2.4"/>
<path class="st9" d="M34.3,157.1h2.4v-1.5"/>
<path class="st9" d="M36.7,171.7v16.2h16.2"/>
<path class="st9" d="M36.7,90.7H20.6V95"/>
<path class="st3" d="M20.6,98.8l1.8-3.9h-3.7L20.6,98.8"/>
<path class="st7" d="M20,98.6l1.8-3.9l0.6,0.9h-3.7l0.6-0.9l1.9,3.9c0.1,0.3,0,0.7-0.3,0.8c-0.3,0.2-0.7,0-0.8-0.3l-1.9-3.9
	c-0.1-0.2-0.1-0.4,0-0.6c0.1-0.2,0.3-0.3,0.5-0.3h3.7c0.2,0,0.4,0.1,0.5,0.3c0.1,0.2,0.1,0.4,0,0.6l-1.8,3.9
	c-0.1,0.3-0.5,0.4-0.8,0.3C20,99.2,19.9,98.8,20,98.6"/>
<path class="st3" d="M35.7,198.9v-5.4h-2.1v-0.7h5v0.7h-2.1v5.4H35.7z M43.9,196.8l0.8,0.2c-0.2,0.7-0.5,1.2-0.9,1.5
	c-0.5,0.3-1,0.5-1.7,0.5c-0.7,0-1.2-0.1-1.6-0.4c-0.4-0.3-0.8-0.7-1-1.2c-0.2-0.5-0.3-1.1-0.3-1.6c0-0.6,0.1-1.2,0.4-1.7
	c0.2-0.5,0.6-0.8,1.1-1.1c0.5-0.2,1-0.4,1.5-0.4c0.6,0,1.2,0.2,1.6,0.5c0.4,0.3,0.7,0.8,0.9,1.3l-0.8,0.2c-0.1-0.4-0.4-0.8-0.6-1
	c-0.3-0.2-0.6-0.3-1.1-0.3c-0.5,0-0.9,0.1-1.2,0.3c-0.3,0.2-0.6,0.5-0.7,0.9c-0.1,0.4-0.2,0.8-0.2,1.2c0,0.5,0.1,1,0.2,1.4
	c0.2,0.4,0.4,0.7,0.7,0.9c0.3,0.2,0.7,0.3,1.1,0.3c0.5,0,0.9-0.1,1.2-0.4C43.6,197.7,43.8,197.3,43.9,196.8z M45.8,198.9v-6.1h2.8
	c0.6,0,1,0.1,1.3,0.2c0.3,0.1,0.5,0.3,0.7,0.6c0.2,0.3,0.3,0.6,0.3,0.9c0,0.4-0.1,0.8-0.4,1.1c-0.3,0.3-0.7,0.5-1.3,0.6
	c0.2,0.1,0.4,0.2,0.5,0.3c0.3,0.2,0.5,0.5,0.7,0.8l1.1,1.7h-1.1l-0.8-1.3c-0.2-0.4-0.4-0.6-0.6-0.8c-0.2-0.2-0.3-0.3-0.4-0.4
	c-0.1-0.1-0.3-0.1-0.4-0.2c-0.1,0-0.2,0-0.4,0h-1v2.7H45.8z M46.6,195.5h1.8c0.4,0,0.7,0,0.9-0.1c0.2-0.1,0.4-0.2,0.5-0.4
	c0.1-0.2,0.2-0.3,0.2-0.5c0-0.3-0.1-0.5-0.3-0.7c-0.2-0.2-0.5-0.3-1-0.3h-2V195.5z M54.8,198.9H54v-4.8c-0.2,0.2-0.4,0.3-0.7,0.5
	c-0.3,0.2-0.6,0.3-0.8,0.4v-0.7c0.4-0.2,0.8-0.4,1.1-0.7c0.3-0.3,0.6-0.6,0.7-0.8h0.5V198.9"/>
<path class="st9" d="M52.8,187.9v-3.6"/>
<path class="st3" d="M52.8,179.8l-1.4,5.8l1.4-1.4l1.4,1.4L52.8,179.8"/>
<path class="st7" d="M53.4,179.9l-1.4,5.8l-1-0.6l1.4-1.4c0.2-0.2,0.6-0.2,0.8,0l1.5,1.4l-1,0.6l-1.4-5.8c-0.1-0.3,0.1-0.6,0.4-0.7
	c0.3-0.1,0.7,0.1,0.7,0.4l1.4,5.8c0.1,0.2-0.1,0.5-0.3,0.7c-0.2,0.1-0.5,0.1-0.7-0.1l-1.4-1.4l0.8,0l-1.4,1.4
	c-0.2,0.2-0.5,0.2-0.7,0.1c-0.2-0.1-0.4-0.4-0.3-0.7l1.4-5.8c0.1-0.3,0.4-0.5,0.7-0.4C53.3,179.3,53.5,179.6,53.4,179.9"/>
<path class="st9" d="M230.4,187.9h8.1"/>
<path class="st9" d="M222.4,187.9h8"/>
<path class="st9" d="M238.6,187.9v-4"/>
<path class="st9" d="M222.4,187.9v-4"/>
<path class="st9" d="M228,140.9c-3.7,0-3.7,3.3,0,3.3c-3.7,0-3.7,3.2,0,3.2c-3.7,0-3.7,3.3,0,3.3c-3.7,0-3.7,3.3,0,3.3h2.4v1.6"/>
<path class="st9" d="M228,150.7h2.4"/>
<path class="st9" d="M228,147.4h2.4"/>
<path class="st9" d="M228,144.2h2.4"/>
<path class="st9" d="M228,140.9h2.4v-1.5"/>
<path class="st9" d="M230.4,139.3V74.5"/>
<path class="st9" d="M242.6,139.3v-8.1h-12.1"/>
<path class="st9" d="M242.6,155.5v4.1h-12.1v6"/>
<path class="st9" d="M236.5,165.6h-12.1"/>
<path class="st9" d="M230.4,169.7v6.1"/>
<path class="st9" d="M236.5,169.7h-12.1"/>
<path class="st9" d="M230.4,155.5v4.1"/>
<path class="st9" d="M230.4,175.8v12.1"/>
<path class="st9" d="M278.9,187.9h8.1"/>
<path class="st9" d="M270.8,187.9h8"/>
<path class="st9" d="M287,187.9v-4"/>
<path class="st9" d="M270.8,187.9v-4"/>
<path class="st9" d="M276.5,140.9c-3.7,0-3.7,3.3,0,3.3c-3.7,0-3.7,3.2,0,3.2c-3.7,0-3.7,3.3,0,3.3c-3.7,0-3.7,3.3,0,3.3h2.4v1.6"/>
<path class="st9" d="M276.5,150.7h2.4"/>
<path class="st9" d="M276.5,147.4h2.4"/>
<path class="st9" d="M276.5,144.2h2.4"/>
<path class="st9" d="M276.5,140.9h2.4v-1.5"/>
<path class="st9" d="M278.9,139.3V74.5"/>
<path class="st9" d="M291,139.3v-8.1h-12.1"/>
<path class="st9" d="M291,155.5v4.1h-12.1v6"/>
<path class="st9" d="M284.9,165.6h-12.1"/>
<path class="st9" d="M278.9,169.7v6.1"/>
<path class="st9" d="M284.9,169.7h-12.1"/>
<path class="st9" d="M278.9,155.5v4.1"/>
<path class="st9" d="M278.9,175.8v12.1"/>
<g>
	<defs>
		<rect id="SVGID_00000139289908105063284280000016099973093735747485_" x="3.6" y="73.2" width="292.3" height="3"/>
	</defs>
	<clipPath id="SVGID_00000131327704180499287220000008562913169319593365_">
		<use xlink:href="#SVGID_00000139289908105063284280000016099973093735747485_"  style="overflow:visible;"/>
	</clipPath>
	<g style="clip-path:url(#SVGID_00000131327704180499287220000008562913169319593365_);">
		<path class="st9" d="M4.4,74.5H295"/>
	</g>
</g>
<path class="st9" d="M165.9,54.3c0,4.5-3.6,8.1-8.1,8.1c-4.5,0-8.1-3.6-8.1-8.1s3.6-8.1,8.1-8.1C162.3,46.2,165.9,49.8,165.9,54.3z"
	/>
<path class="st9" d="M157.8,62.4v12.1"/>
<path class="st9" d="M157.8,38.1V25.9"/>
<path class="st9" d="M97.2,25.9h113"/>
<path class="st9" d="M69.6,142.1l3.4-5.7l3.4,5.7H69.6"/>
<path class="st9" d="M73.1,135.2v1.2"/>
<path class="st9" d="M73.1,143.3v-1.2"/>
<path class="st9" d="M69.6,136.4h6.8"/>
<path class="st9" d="M85.8,136.4h6.8l-3.4,5.7L85.8,136.4"/>
<path class="st9" d="M89.2,135.2v1.2"/>
<path class="st9" d="M89.2,143.3v-1.2"/>
<path class="st9" d="M85.8,142.1h6.8"/>
<path class="st9" d="M73.1,135.2v-4"/>
<path class="st9" d="M89.2,135.2v-4"/>
<path class="st9" d="M73.1,131.2h16.1"/>
<path class="st9" d="M81.1,123.1v8.1"/>
<path class="st9" d="M73.1,143.4v4h16.1v-8.1"/>
<path class="st9" d="M81.1,147.4v8.1"/>
<path class="st9" d="M78.7,108.5c-3.7,0-3.7,3.3,0,3.3c-3.7,0-3.7,3.2,0,3.2c-3.7,0-3.7,3.3,0,3.3c-3.7,0-3.7,3.3,0,3.3h2.4v1.6"/>
<path class="st9" d="M78.7,118.3h2.4"/>
<path class="st9" d="M78.7,115h2.4"/>
<path class="st9" d="M78.7,111.8h2.4"/>
<path class="st9" d="M78.7,108.5h2.4V107"/>
<path class="st9" d="M81.1,171.7v16.2"/>
<path class="st3" d="M81,198.9v-5.4h-2.1v-0.7h5v0.7h-2.1v5.4H81z M84.5,197l0.8-0.1c0.1,0.3,0.1,0.6,0.3,0.8
	c0.1,0.2,0.3,0.3,0.6,0.5c0.3,0.1,0.6,0.2,1,0.2c0.3,0,0.6-0.1,0.8-0.1c0.2-0.1,0.4-0.2,0.5-0.4c0.1-0.1,0.2-0.3,0.2-0.5
	c0-0.2,0-0.4-0.2-0.5c-0.1-0.1-0.3-0.3-0.6-0.4c-0.2-0.1-0.5-0.2-1.1-0.3c-0.6-0.1-1-0.3-1.2-0.4c-0.3-0.2-0.5-0.4-0.7-0.6
	c-0.2-0.2-0.2-0.5-0.2-0.8c0-0.3,0.1-0.6,0.3-0.9c0.2-0.3,0.4-0.5,0.8-0.6c0.4-0.1,0.7-0.2,1.2-0.2c0.5,0,0.9,0.1,1.2,0.2
	c0.4,0.2,0.6,0.4,0.8,0.7c0.2,0.3,0.3,0.6,0.3,1l-0.8,0.1c-0.1-0.4-0.2-0.7-0.4-0.9c-0.2-0.2-0.6-0.3-1.1-0.3
	c-0.5,0-0.9,0.1-1.1,0.3s-0.4,0.4-0.4,0.7c0,0.2,0.1,0.4,0.2,0.5c0.2,0.1,0.6,0.3,1.2,0.4c0.7,0.1,1.2,0.3,1.4,0.4
	c0.4,0.2,0.6,0.4,0.8,0.6c0.2,0.2,0.2,0.5,0.2,0.9c0,0.3-0.1,0.6-0.3,0.9c-0.2,0.3-0.5,0.5-0.8,0.7c-0.4,0.2-0.8,0.2-1.2,0.2
	c-0.6,0-1.1-0.1-1.4-0.2c-0.4-0.1-0.7-0.4-0.9-0.7C84.6,197.7,84.5,197.4,84.5,197z M95.1,196.8l0.8,0.2c-0.2,0.7-0.5,1.2-0.9,1.5
	c-0.4,0.3-1,0.5-1.7,0.5c-0.7,0-1.2-0.1-1.6-0.4c-0.4-0.3-0.8-0.7-1-1.2c-0.2-0.5-0.3-1.1-0.3-1.6c0-0.6,0.1-1.2,0.4-1.7
	c0.3-0.5,0.6-0.8,1.1-1.1c0.5-0.2,1-0.4,1.5-0.4c0.6,0,1.2,0.2,1.6,0.5c0.4,0.3,0.7,0.8,0.9,1.3l-0.8,0.2c-0.1-0.4-0.4-0.8-0.6-1
	c-0.3-0.2-0.6-0.3-1.1-0.3c-0.5,0-0.9,0.1-1.2,0.3c-0.3,0.2-0.6,0.5-0.7,0.9c-0.1,0.4-0.2,0.8-0.2,1.2c0,0.5,0.1,1,0.2,1.4
	c0.2,0.4,0.4,0.7,0.7,0.9c0.3,0.2,0.7,0.3,1.1,0.3c0.5,0,0.9-0.1,1.2-0.4C94.8,197.7,95,197.3,95.1,196.8z M99.6,198.9h-0.8v-4.8
	c-0.2,0.2-0.4,0.3-0.7,0.5c-0.3,0.2-0.6,0.3-0.8,0.4v-0.7c0.4-0.2,0.8-0.4,1.1-0.7c0.3-0.3,0.6-0.6,0.7-0.8h0.5V198.9"/>
<path class="st9" d="M129.5,74.5v32.4"/>
<path class="st9" d="M118.1,142.1l3.4-5.7l3.4,5.7H118.1"/>
<path class="st9" d="M121.5,135.2v1.2"/>
<path class="st9" d="M121.5,143.3v-1.2"/>
<path class="st9" d="M118.1,136.4h6.8"/>
<path class="st9" d="M134.2,136.4h6.8l-3.4,5.7L134.2,136.4"/>
<path class="st9" d="M137.6,135.2v1.2"/>
<path class="st9" d="M137.6,143.3v-1.2"/>
<path class="st9" d="M134.2,142.1h6.8"/>
<path class="st9" d="M121.5,135.2v-4"/>
<path class="st9" d="M137.6,135.2v-4"/>
<path class="st9" d="M121.5,131.2h16.2"/>
<path class="st9" d="M129.5,123.1v8.1"/>
<path class="st9" d="M121.5,143.4v4h16.2v-8.1"/>
<path class="st9" d="M129.5,147.4v8.1"/>
<path class="st9" d="M127.1,108.5c-3.7,0-3.7,3.3,0,3.3c-3.7,0-3.7,3.2,0,3.2c-3.7,0-3.7,3.3,0,3.3c-3.7,0-3.7,3.3,0,3.3h2.4v1.6"/>
<path class="st9" d="M127.1,118.3h2.4"/>
<path class="st9" d="M127.1,115h2.4"/>
<path class="st9" d="M127.1,111.8h2.4"/>
<path class="st9" d="M127.1,108.5h2.4V107"/>
<path class="st9" d="M127.1,157.1c-3.7,0-3.7,3.3,0,3.3c-3.7,0-3.7,3.2,0,3.2c-3.7,0-3.7,3.3,0,3.3c-3.7,0-3.7,3.3,0,3.3h2.4v1.6"/>
<path class="st9" d="M127.1,166.9h2.4"/>
<path class="st9" d="M127.1,163.6h2.4"/>
<path class="st9" d="M127.1,160.4h2.4"/>
<path class="st9" d="M127.1,157.1h2.4v-1.5"/>
<path class="st9" d="M129.5,171.7v16.2h16.2v-3.6"/>
<path class="st3" d="M145.7,179.8l-1.4,5.8l1.4-1.4l1.4,1.4L145.7,179.8"/>
<path class="st7" d="M146.3,179.9l-1.4,5.8l-1-0.6l1.4-1.4c0.2-0.2,0.6-0.2,0.8,0l1.4,1.4l-1,0.6l-1.4-5.8c-0.1-0.3,0.1-0.6,0.4-0.7
	c0.3-0.1,0.6,0.1,0.7,0.4l1.4,5.8c0.1,0.2,0,0.5-0.3,0.7c-0.2,0.1-0.5,0.1-0.7-0.1l-1.5-1.4l0.8,0l-1.4,1.4
	c-0.2,0.2-0.5,0.2-0.7,0.1c-0.2-0.1-0.3-0.4-0.3-0.7l1.4-5.8c0.1-0.3,0.4-0.5,0.7-0.4C146.1,179.3,146.3,179.6,146.3,179.9"/>
<path class="st9" d="M129.5,90.7h-16.1V95"/>
<path class="st3" d="M113.4,98.8l1.8-3.9h-3.6L113.4,98.8"/>
<path class="st7" d="M112.8,98.6l1.8-3.9l0.6,0.9h-3.6l0.5-0.9l1.8,3.9c0.1,0.3,0,0.7-0.3,0.8c-0.3,0.2-0.7,0-0.8-0.3l-1.8-3.9
	c-0.1-0.2-0.1-0.4,0-0.6c0.1-0.2,0.3-0.3,0.5-0.3h3.6c0.2,0,0.4,0.1,0.5,0.3c0.1,0.2,0.1,0.4,0,0.6l-1.8,3.9
	c-0.1,0.3-0.5,0.4-0.8,0.3C112.8,99.2,112.7,98.8,112.8,98.6"/>
<path class="st3" d="M130.1,198.9v-5.4h-2.1v-0.7h5v0.7H131v5.4H130.1z M138.4,196.8l0.8,0.2c-0.2,0.7-0.5,1.2-1,1.5
	c-0.4,0.3-1,0.5-1.7,0.5c-0.7,0-1.2-0.1-1.6-0.4c-0.4-0.3-0.8-0.7-1-1.2s-0.3-1.1-0.3-1.6c0-0.6,0.1-1.2,0.4-1.7
	c0.2-0.5,0.6-0.8,1.1-1.1c0.5-0.2,1-0.4,1.5-0.4c0.6,0,1.2,0.2,1.6,0.5c0.4,0.3,0.7,0.8,0.9,1.3l-0.8,0.2c-0.1-0.4-0.4-0.8-0.6-1
	c-0.3-0.2-0.6-0.3-1.1-0.3c-0.5,0-0.9,0.1-1.2,0.3c-0.3,0.2-0.6,0.5-0.7,0.9c-0.1,0.4-0.2,0.8-0.2,1.2c0,0.5,0.1,1,0.2,1.4
	c0.2,0.4,0.4,0.7,0.7,0.9c0.3,0.2,0.7,0.3,1.1,0.3c0.5,0,0.9-0.1,1.2-0.4C138.1,197.7,138.3,197.3,138.4,196.8z M140.3,198.9v-6.1
	h2.8c0.6,0,1,0.1,1.3,0.2c0.3,0.1,0.5,0.3,0.7,0.6c0.2,0.3,0.3,0.6,0.3,0.9c0,0.4-0.1,0.8-0.4,1.1c-0.3,0.3-0.7,0.5-1.3,0.6
	c0.2,0.1,0.4,0.2,0.5,0.3c0.2,0.2,0.5,0.5,0.7,0.8l1.1,1.7h-1l-0.8-1.3c-0.2-0.4-0.4-0.6-0.6-0.8c-0.1-0.2-0.3-0.3-0.4-0.4
	c-0.1-0.1-0.3-0.1-0.4-0.2c-0.1,0-0.2,0-0.5,0h-1v2.7H140.3z M141.1,195.5h1.8c0.4,0,0.7,0,0.9-0.1c0.2-0.1,0.4-0.2,0.5-0.4
	c0.1-0.2,0.2-0.3,0.2-0.5c0-0.3-0.1-0.5-0.3-0.7c-0.2-0.2-0.6-0.3-1-0.3h-2V195.5z M150.4,198.2v0.7h-4.2c0-0.2,0-0.4,0.1-0.5
	c0.1-0.3,0.3-0.6,0.5-0.8c0.2-0.3,0.6-0.6,1-0.9c0.7-0.5,1.1-1,1.4-1.3c0.2-0.3,0.4-0.6,0.4-0.9c0-0.3-0.1-0.6-0.3-0.8
	c-0.2-0.2-0.5-0.3-0.8-0.3c-0.4,0-0.7,0.1-0.9,0.3c-0.2,0.2-0.3,0.5-0.3,0.9l-0.8-0.1c0.1-0.6,0.3-1,0.6-1.3
	c0.4-0.3,0.8-0.5,1.4-0.5c0.6,0,1.1,0.2,1.4,0.5c0.4,0.3,0.5,0.7,0.5,1.2c0,0.2-0.1,0.5-0.2,0.7c-0.1,0.2-0.3,0.5-0.5,0.8
	c-0.2,0.3-0.6,0.6-1.2,1.1c-0.5,0.4-0.8,0.6-0.9,0.8c-0.1,0.1-0.2,0.3-0.3,0.4H150.4"/>
<path class="st9" d="M166.5,142.1l3.4-5.7l3.4,5.7H166.5"/>
<path class="st9" d="M169.9,135.2v1.2"/>
<path class="st9" d="M169.9,143.3v-1.2"/>
<path class="st9" d="M166.5,136.4h6.8"/>
<path class="st9" d="M182.7,136.4h6.8l-3.4,5.7L182.7,136.4"/>
<path class="st9" d="M186.1,135.2v1.2"/>
<path class="st9" d="M186.1,143.3v-1.2"/>
<path class="st9" d="M182.7,142.1h6.8"/>
<path class="st9" d="M169.9,135.2v-4"/>
<path class="st9" d="M186.1,135.2v-4"/>
<path class="st9" d="M169.9,131.2h16.1"/>
<path class="st9" d="M178,123.1v8.1"/>
<path class="st9" d="M169.9,143.4v4h16.1v-8.1"/>
<path class="st9" d="M178,147.4v8.1"/>
<path class="st9" d="M175.6,108.5c-3.7,0-3.7,3.3,0,3.3c-3.7,0-3.7,3.2,0,3.2c-3.7,0-3.7,3.3,0,3.3c-3.7,0-3.7,3.3,0,3.3h2.4v1.6"/>
<path class="st9" d="M175.6,118.3h2.4"/>
<path class="st9" d="M175.6,115h2.4"/>
<path class="st9" d="M175.6,111.8h2.4"/>
<path class="st9" d="M175.6,108.5h2.4V107"/>
<path class="st9" d="M178,171.7v16.2"/>
<path class="st3" d="M178.5,198.9v-5.4h-2.1v-0.7h5v0.7h-2.1v5.4H178.5z M182,197l0.8-0.1c0,0.3,0.1,0.6,0.3,0.8
	c0.1,0.2,0.3,0.3,0.6,0.5c0.3,0.1,0.6,0.2,1,0.2c0.3,0,0.6-0.1,0.8-0.1c0.2-0.1,0.4-0.2,0.5-0.4c0.1-0.1,0.2-0.3,0.2-0.5
	c0-0.2-0.1-0.4-0.2-0.5s-0.3-0.3-0.6-0.4c-0.2-0.1-0.5-0.2-1.1-0.3c-0.6-0.1-1-0.3-1.2-0.4c-0.3-0.2-0.5-0.4-0.7-0.6
	c-0.2-0.2-0.2-0.5-0.2-0.8c0-0.3,0.1-0.6,0.3-0.9c0.2-0.3,0.4-0.5,0.8-0.6c0.3-0.1,0.7-0.2,1.2-0.2c0.5,0,0.9,0.1,1.2,0.2
	c0.4,0.2,0.6,0.4,0.8,0.7c0.2,0.3,0.3,0.6,0.3,1l-0.8,0.1c-0.1-0.4-0.2-0.7-0.4-0.9c-0.2-0.2-0.6-0.3-1.1-0.3
	c-0.5,0-0.9,0.1-1.1,0.3s-0.4,0.4-0.4,0.7c0,0.2,0.1,0.4,0.2,0.5c0.2,0.1,0.6,0.3,1.2,0.4c0.7,0.1,1.2,0.3,1.4,0.4
	c0.4,0.2,0.6,0.4,0.8,0.6c0.2,0.2,0.2,0.5,0.2,0.9c0,0.3-0.1,0.6-0.3,0.9c-0.2,0.3-0.5,0.5-0.8,0.7s-0.8,0.2-1.2,0.2
	c-0.6,0-1.1-0.1-1.4-0.2c-0.4-0.1-0.7-0.4-0.9-0.7C182.1,197.7,182,197.4,182,197z M192.6,196.8l0.8,0.2c-0.2,0.7-0.5,1.2-0.9,1.5
	c-0.4,0.3-1,0.5-1.7,0.5c-0.7,0-1.2-0.1-1.7-0.4c-0.4-0.3-0.8-0.7-1-1.2c-0.2-0.5-0.3-1.1-0.3-1.6c0-0.6,0.1-1.2,0.4-1.7
	c0.3-0.5,0.6-0.8,1.1-1.1c0.5-0.2,1-0.4,1.5-0.4c0.6,0,1.2,0.2,1.6,0.5c0.4,0.3,0.7,0.8,0.9,1.3l-0.8,0.2c-0.2-0.4-0.4-0.8-0.6-1
	c-0.3-0.2-0.6-0.3-1.1-0.3c-0.5,0-0.9,0.1-1.2,0.3c-0.3,0.2-0.5,0.5-0.7,0.9c-0.1,0.4-0.2,0.8-0.2,1.2c0,0.5,0.1,1,0.2,1.4
	c0.2,0.4,0.4,0.7,0.7,0.9c0.3,0.2,0.7,0.3,1.1,0.3c0.5,0,0.9-0.1,1.2-0.4C192.3,197.7,192.5,197.3,192.6,196.8z M198.2,198.2v0.7
	h-4.2c0-0.2,0-0.4,0.1-0.5c0.1-0.3,0.3-0.6,0.5-0.8c0.2-0.3,0.6-0.6,1-0.9c0.7-0.5,1.2-1,1.4-1.3s0.4-0.6,0.4-0.9
	c0-0.3-0.1-0.6-0.3-0.8c-0.2-0.2-0.5-0.3-0.9-0.3c-0.4,0-0.7,0.1-0.9,0.3c-0.2,0.2-0.3,0.5-0.3,0.9l-0.8-0.1c0.1-0.6,0.3-1,0.6-1.3
	c0.3-0.3,0.8-0.5,1.4-0.5c0.6,0,1.1,0.2,1.4,0.5c0.4,0.3,0.5,0.7,0.5,1.2c0,0.2-0.1,0.5-0.2,0.7c-0.1,0.2-0.3,0.5-0.5,0.8
	c-0.2,0.3-0.6,0.6-1.2,1.1c-0.5,0.4-0.8,0.6-0.9,0.8c-0.1,0.1-0.2,0.3-0.3,0.4H198.2"/>
<path class="st3" d="M264,68.6v0.7h-4.2c0-0.2,0-0.4,0.1-0.5c0.1-0.3,0.3-0.5,0.5-0.8c0.2-0.3,0.6-0.6,1-0.9c0.7-0.6,1.1-1,1.4-1.3
	c0.2-0.3,0.4-0.6,0.4-0.9c0-0.3-0.1-0.5-0.3-0.8c-0.2-0.2-0.5-0.3-0.9-0.3c-0.4,0-0.7,0.1-0.9,0.3c-0.2,0.2-0.3,0.5-0.3,0.9L260,65
	c0.1-0.6,0.3-1,0.6-1.3c0.4-0.3,0.8-0.4,1.4-0.4c0.6,0,1.1,0.2,1.4,0.5c0.4,0.3,0.5,0.7,0.5,1.2c0,0.2-0.1,0.5-0.1,0.7
	c-0.1,0.2-0.3,0.5-0.5,0.8c-0.2,0.3-0.6,0.6-1.2,1.1c-0.5,0.4-0.8,0.6-0.9,0.8c-0.1,0.1-0.2,0.3-0.3,0.4H264z M264.8,66.3
	c0-0.7,0.1-1.3,0.2-1.8c0.1-0.4,0.4-0.8,0.7-1c0.3-0.2,0.7-0.4,1.1-0.4c0.3,0,0.6,0.1,0.9,0.2c0.2,0.1,0.5,0.3,0.6,0.6
	c0.2,0.2,0.3,0.6,0.4,0.9c0.1,0.4,0.1,0.8,0.1,1.4c0,0.7-0.1,1.3-0.2,1.8c-0.2,0.4-0.4,0.8-0.7,1c-0.3,0.2-0.7,0.4-1.1,0.4
	c-0.6,0-1.1-0.2-1.4-0.6C265,68.3,264.8,67.5,264.8,66.3z M265.6,66.3c0,1,0.1,1.7,0.4,2c0.2,0.3,0.5,0.5,0.9,0.5s0.7-0.2,0.9-0.5
	c0.2-0.3,0.4-1,0.4-2c0-1-0.1-1.7-0.4-2c-0.2-0.3-0.6-0.5-0.9-0.5s-0.6,0.1-0.9,0.4C265.8,64.6,265.6,65.3,265.6,66.3z M272.4,69.3
	v-6.1h0.8v3.5l1.8-1.8h1l-1.8,1.7l1.9,2.8h-1l-1.5-2.3l-0.6,0.5v1.8H272.4z M278.7,69.3l-2.5-6.1h0.9l1.6,4.5c0.1,0.4,0.2,0.7,0.3,1
	c0.1-0.3,0.2-0.7,0.3-1l1.7-4.5h0.9l-2.5,6.1H278.7"/>
<path class="st9" d="M165.9,46.2c0,4.5-3.6,8.1-8.1,8.1c-4.5,0-8.1-3.6-8.1-8.1c0-4.5,3.6-8.1,8.1-8.1
	C162.3,38.1,165.9,41.8,165.9,46.2z"/>
<path class="st9" d="M81.1,155.6v6"/>
<path class="st9" d="M87.1,161.6H75"/>
<path class="st9" d="M81.1,165.7v6.1"/>
<path class="st9" d="M87.1,165.7H75"/>
<path class="st9" d="M178,155.6v6"/>
<path class="st9" d="M184,161.6h-12.1"/>
<path class="st9" d="M178,165.7v6.1"/>
<path class="st9" d="M184,165.7h-12.1"/>
<path class="st9" d="M81.1,106.9V74.5"/>
<path class="st9" d="M178,106.9V74.5"/>
<path class="st9" d="M81.1,187.9h16.1v-3.6"/>
<path class="st3" d="M97.2,179.8l-1.4,5.8l1.4-1.4l1.4,1.4L97.2,179.8"/>
<path class="st7" d="M97.8,179.9l-1.4,5.8l-1-0.6l1.4-1.4c0.2-0.2,0.6-0.2,0.8,0l1.4,1.4l-1,0.6l-1.5-5.8c-0.1-0.3,0.1-0.6,0.4-0.7
	c0.3-0.1,0.6,0.1,0.7,0.4l1.5,5.8c0.1,0.2-0.1,0.5-0.3,0.7c-0.2,0.1-0.5,0.1-0.7-0.1l-1.4-1.4l0.8,0l-1.4,1.4
	c-0.2,0.2-0.5,0.2-0.7,0.1c-0.2-0.1-0.4-0.4-0.3-0.7l1.4-5.8c0.1-0.3,0.4-0.5,0.7-0.4S97.9,179.6,97.8,179.9"/>
<path class="st9" d="M81.1,90.7H64.9V95"/>
<path class="st3" d="M64.9,98.8l1.8-3.9h-3.6L64.9,98.8"/>
<path class="st7" d="M64.4,98.6l1.8-3.9l0.6,0.9h-3.6l0.5-0.9l1.8,3.9c0.1,0.3,0,0.7-0.3,0.8c-0.3,0.2-0.7,0-0.8-0.3l-1.8-3.9
	c-0.1-0.2-0.1-0.4,0-0.6c0.1-0.2,0.3-0.3,0.5-0.3h3.6c0.2,0,0.4,0.1,0.5,0.3c0.1,0.2,0.1,0.4,0,0.6l-1.8,3.9
	c-0.1,0.3-0.5,0.4-0.8,0.3C64.4,99.2,64.3,98.8,64.4,98.6"/>
<path class="st9" d="M178,90.7h-16.2V95"/>
<path class="st3" d="M161.8,98.8l1.8-3.9H160L161.8,98.8"/>
<path class="st7" d="M161.3,98.6l1.8-3.9l0.6,0.9H160l0.5-0.9l1.8,3.9c0.1,0.3,0,0.7-0.3,0.8c-0.3,0.2-0.7,0-0.8-0.3l-1.8-3.9
	c-0.1-0.2-0.1-0.4,0-0.6c0.1-0.2,0.3-0.3,0.5-0.3h3.6c0.2,0,0.4,0.1,0.5,0.3c0.1,0.2,0.1,0.4,0,0.6l-1.8,3.9
	c-0.1,0.3-0.5,0.4-0.8,0.3C161.3,99.2,161.1,98.8,161.3,98.6"/>
<path class="st9" d="M178,187.9h16.1v-3.6"/>
<path class="st3" d="M194.1,179.8l-1.4,5.8l1.4-1.4l1.4,1.4L194.1,179.8"/>
<path class="st7" d="M194.7,179.9l-1.4,5.8l-1-0.6l1.4-1.4c0.2-0.2,0.6-0.2,0.8,0l1.4,1.4l-1,0.6l-1.5-5.8c-0.1-0.3,0.1-0.6,0.4-0.7
	c0.3-0.1,0.6,0.1,0.7,0.4l1.4,5.8c0.1,0.2-0.1,0.5-0.3,0.7c-0.2,0.1-0.5,0.1-0.7-0.1l-1.4-1.4l0.8,0l-1.4,1.4
	c-0.2,0.2-0.5,0.2-0.7,0.1c-0.2-0.1-0.4-0.4-0.3-0.7l1.4-5.8c0.1-0.3,0.4-0.5,0.7-0.4S194.8,179.6,194.7,179.9"/>
<path class="st3" d="M114.5,7.6l0.8-0.1c0.1,0.4,0.2,0.7,0.4,0.9c0.2,0.2,0.5,0.3,0.8,0.3c0.4,0,0.7-0.1,0.9-0.4
	c0.3-0.3,0.4-0.6,0.4-1.1c0-0.4-0.1-0.8-0.4-1s-0.6-0.4-1-0.4c-0.2,0-0.5,0.1-0.7,0.2s-0.4,0.2-0.5,0.4l-0.7-0.1l0.6-3.2h3.1v0.7
	h-2.5l-0.4,1.7c0.4-0.3,0.8-0.4,1.2-0.4c0.5,0,1,0.2,1.4,0.6c0.4,0.4,0.6,0.8,0.6,1.4c0,0.6-0.2,1-0.5,1.4c-0.4,0.5-0.9,0.7-1.6,0.7
	c-0.6,0-1.1-0.2-1.4-0.5S114.6,8.1,114.5,7.6z M119.4,6.2c0-0.7,0.1-1.3,0.2-1.8c0.2-0.4,0.4-0.8,0.7-1c0.3-0.2,0.7-0.4,1.1-0.4
	c0.3,0,0.6,0.1,0.9,0.2c0.2,0.1,0.5,0.3,0.6,0.6c0.2,0.2,0.3,0.6,0.4,0.9s0.2,0.8,0.2,1.4c0,0.7-0.1,1.3-0.2,1.8
	c-0.1,0.4-0.4,0.8-0.7,1c-0.3,0.2-0.7,0.4-1.1,0.4c-0.6,0-1.1-0.2-1.4-0.6C119.6,8.2,119.4,7.3,119.4,6.2z M120.2,6.2
	c0,1,0.1,1.7,0.4,2c0.2,0.3,0.5,0.5,0.9,0.5c0.4,0,0.7-0.2,0.9-0.5c0.2-0.3,0.4-1,0.4-2c0-1-0.1-1.7-0.4-2c-0.2-0.3-0.6-0.5-0.9-0.5
	c-0.4,0-0.7,0.1-0.9,0.4C120.4,4.5,120.2,5.2,120.2,6.2z M124.3,6.2c0-0.7,0.1-1.3,0.2-1.8c0.2-0.4,0.4-0.8,0.7-1
	c0.3-0.2,0.7-0.4,1.1-0.4c0.4,0,0.6,0.1,0.9,0.2c0.3,0.1,0.5,0.3,0.6,0.6c0.2,0.2,0.3,0.6,0.4,0.9c0.1,0.4,0.1,0.8,0.1,1.4
	c0,0.7-0.1,1.3-0.2,1.8c-0.2,0.4-0.4,0.8-0.7,1c-0.3,0.2-0.7,0.4-1.2,0.4c-0.6,0-1.1-0.2-1.4-0.6C124.5,8.2,124.3,7.3,124.3,6.2z
	 M125.1,6.2c0,1,0.1,1.7,0.4,2c0.2,0.3,0.5,0.5,0.9,0.5c0.4,0,0.7-0.2,0.9-0.5c0.2-0.3,0.3-1,0.3-2c0-1-0.1-1.7-0.3-2
	c-0.2-0.3-0.6-0.5-0.9-0.5s-0.6,0.1-0.9,0.4C125.2,4.5,125.1,5.2,125.1,6.2z M131.9,9.2V3.1h0.8v3.5l1.8-1.8h1l-1.7,1.7l1.9,2.8h-1
	l-1.5-2.3l-0.5,0.5v1.7H131.9z M138.2,9.2l-2.4-6.1h0.9l1.7,4.4c0.1,0.4,0.2,0.7,0.3,1c0.1-0.3,0.2-0.7,0.3-1l1.7-4.4h0.9L139,9.2
	H138.2z M146.7,7.3h-2.4V6.6h2.4V7.3z M149.8,7.2l0.8-0.1c0,0.3,0.1,0.6,0.3,0.8c0.1,0.2,0.4,0.4,0.6,0.5c0.3,0.1,0.6,0.2,1,0.2
	c0.3,0,0.6-0.1,0.9-0.1c0.2-0.1,0.4-0.2,0.5-0.4c0.1-0.1,0.2-0.3,0.2-0.5s-0.1-0.4-0.2-0.5c-0.1-0.1-0.3-0.3-0.6-0.4
	c-0.2-0.1-0.5-0.2-1.1-0.3c-0.6-0.1-1-0.3-1.2-0.4c-0.3-0.2-0.5-0.3-0.7-0.6c-0.1-0.2-0.2-0.5-0.2-0.8c0-0.3,0.1-0.6,0.3-0.9
	s0.4-0.5,0.8-0.6c0.3-0.1,0.7-0.2,1.2-0.2c0.5,0,0.9,0.1,1.2,0.2c0.3,0.1,0.6,0.4,0.8,0.6c0.2,0.3,0.3,0.6,0.3,1l-0.8,0.1
	c0-0.4-0.2-0.7-0.4-0.9c-0.2-0.2-0.6-0.3-1.1-0.3c-0.5,0-0.9,0.1-1.1,0.3s-0.4,0.4-0.4,0.7c0,0.2,0.1,0.4,0.2,0.5
	c0.2,0.1,0.6,0.3,1.2,0.4c0.7,0.1,1.2,0.3,1.4,0.4c0.4,0.2,0.6,0.4,0.8,0.6c0.2,0.2,0.3,0.6,0.3,0.9s-0.1,0.6-0.3,0.9
	c-0.2,0.3-0.5,0.5-0.8,0.7c-0.4,0.2-0.8,0.2-1.2,0.2c-0.6,0-1-0.1-1.4-0.2c-0.4-0.2-0.7-0.4-0.9-0.7C149.9,8,149.8,7.6,149.8,7.2z
	 M156.6,3.9h-0.8V3.1h0.8V3.9z M156.6,9.2h-0.8V4.7h0.8V9.2z M158.6,9.2h-0.8V3.1h0.8V9.2z M161,9.2l-1.7-4.4h0.8l1,2.7
	c0.1,0.3,0.2,0.6,0.3,0.9c0.1-0.2,0.2-0.5,0.3-0.9l1-2.7h0.8l-1.7,4.4H161z M167.3,7.8l0.8,0.1c-0.1,0.4-0.4,0.8-0.7,1.1
	c-0.3,0.2-0.8,0.4-1.3,0.4c-0.7,0-1.2-0.2-1.6-0.6c-0.4-0.4-0.6-1-0.6-1.7c0-0.8,0.2-1.3,0.6-1.7c0.4-0.4,0.9-0.6,1.5-0.6
	c0.6,0,1.1,0.2,1.5,0.6s0.6,1,0.6,1.7c0,0.1,0,0.1,0,0.2h-3.4c0,0.5,0.2,0.9,0.4,1.1c0.3,0.3,0.6,0.4,1,0.4c0.3,0,0.5-0.1,0.7-0.2
	C167,8.3,167.2,8.1,167.3,7.8z M164.7,6.5h2.6c0-0.4-0.1-0.6-0.3-0.8c-0.2-0.3-0.6-0.4-1-0.4c-0.3,0-0.6,0.1-0.9,0.3
	C164.9,5.8,164.8,6.2,164.7,6.5z M168.7,7.9l0.8-0.1c0,0.3,0.2,0.5,0.3,0.7c0.2,0.1,0.5,0.2,0.8,0.2c0.4,0,0.6-0.1,0.8-0.2
	c0.2-0.1,0.2-0.3,0.2-0.5c0-0.2-0.1-0.3-0.2-0.4c-0.1-0.1-0.4-0.1-0.8-0.2c-0.6-0.1-1-0.3-1.2-0.4c-0.2-0.1-0.4-0.2-0.5-0.4
	c-0.1-0.2-0.2-0.4-0.2-0.6c0-0.2,0-0.4,0.1-0.6c0.1-0.2,0.2-0.3,0.4-0.4c0.1-0.1,0.3-0.2,0.5-0.2c0.2-0.1,0.4-0.1,0.7-0.1
	c0.4,0,0.7,0.1,0.9,0.1c0.3,0.1,0.5,0.2,0.6,0.4c0.1,0.2,0.2,0.4,0.3,0.7L171.6,6c0-0.2-0.1-0.4-0.3-0.5c-0.2-0.1-0.4-0.2-0.7-0.2
	c-0.4,0-0.6,0.1-0.8,0.2c-0.2,0.1-0.2,0.3-0.2,0.4c0,0.1,0,0.2,0.1,0.3c0.1,0.1,0.2,0.1,0.3,0.2c0.1,0,0.3,0.1,0.7,0.2
	c0.5,0.1,0.9,0.3,1.1,0.4c0.2,0.1,0.4,0.2,0.5,0.4c0.1,0.2,0.2,0.4,0.2,0.6c0,0.3-0.1,0.5-0.2,0.7c-0.2,0.2-0.4,0.4-0.7,0.5
	c-0.3,0.1-0.6,0.2-1,0.2c-0.6,0-1.1-0.1-1.4-0.4C169,8.7,168.8,8.3,168.7,7.9z M175.7,7.2l0.8-0.1c0,0.3,0.1,0.6,0.3,0.8
	c0.1,0.2,0.3,0.4,0.6,0.5c0.3,0.1,0.6,0.2,1,0.2c0.3,0,0.6-0.1,0.8-0.1c0.2-0.1,0.4-0.2,0.5-0.4c0.1-0.1,0.2-0.3,0.2-0.5
	s-0.1-0.4-0.2-0.5c-0.1-0.1-0.3-0.3-0.6-0.4c-0.2-0.1-0.6-0.2-1.1-0.3c-0.6-0.1-1-0.3-1.2-0.4c-0.3-0.2-0.5-0.3-0.7-0.6
	c-0.1-0.2-0.2-0.5-0.2-0.8c0-0.3,0.1-0.6,0.3-0.9c0.2-0.3,0.4-0.5,0.8-0.6c0.3-0.1,0.7-0.2,1.1-0.2c0.5,0,0.9,0.1,1.2,0.2
	c0.4,0.1,0.6,0.4,0.8,0.6c0.2,0.3,0.3,0.6,0.3,1l-0.8,0.1c0-0.4-0.2-0.7-0.4-0.9c-0.2-0.2-0.6-0.3-1.1-0.3c-0.5,0-0.9,0.1-1.1,0.3
	c-0.2,0.2-0.4,0.4-0.4,0.7c0,0.2,0.1,0.4,0.2,0.5c0.2,0.1,0.6,0.3,1.2,0.4c0.7,0.1,1.1,0.3,1.4,0.4c0.4,0.2,0.6,0.4,0.8,0.6
	c0.2,0.2,0.2,0.6,0.2,0.9s-0.1,0.6-0.3,0.9c-0.2,0.3-0.5,0.5-0.8,0.7s-0.8,0.2-1.2,0.2c-0.6,0-1-0.1-1.4-0.2
	c-0.4-0.2-0.7-0.4-0.9-0.7C175.8,8,175.7,7.6,175.7,7.2z M183.7,9.2l-2.4-6.1h0.9l1.6,4.4c0.1,0.4,0.2,0.7,0.3,1
	c0.1-0.3,0.2-0.7,0.3-1l1.7-4.4h0.9l-2.5,6.1H183.7z M192.2,7l0.8,0.2c-0.2,0.7-0.5,1.2-0.9,1.5c-0.5,0.3-1,0.5-1.7,0.5
	c-0.7,0-1.2-0.1-1.6-0.4c-0.4-0.2-0.8-0.7-1-1.2c-0.2-0.5-0.3-1.1-0.3-1.6c0-0.6,0.1-1.2,0.4-1.7c0.2-0.5,0.6-0.8,1.1-1.1
	c0.5-0.2,1-0.4,1.5-0.4c0.6,0,1.2,0.2,1.6,0.5c0.4,0.3,0.7,0.8,0.9,1.3l-0.8,0.2c-0.1-0.4-0.3-0.8-0.6-1c-0.3-0.2-0.6-0.3-1.1-0.3
	c-0.5,0-0.9,0.1-1.2,0.3c-0.3,0.2-0.6,0.5-0.7,0.9c-0.1,0.4-0.2,0.8-0.2,1.2c0,0.5,0.1,1,0.2,1.4c0.2,0.4,0.4,0.7,0.7,0.9
	c0.3,0.2,0.7,0.3,1.1,0.3c0.5,0,0.9-0.1,1.2-0.4C191.9,7.9,192.1,7.6,192.2,7"/>
<path class="st3" d="M117.1,20.7c-0.4-0.5-0.8-1.1-1.1-1.8c-0.3-0.7-0.4-1.4-0.4-2.2c0-0.7,0.1-1.3,0.3-1.9c0.2-0.7,0.6-1.4,1.2-2.1
	h0.6c-0.4,0.6-0.6,1-0.7,1.3c-0.2,0.4-0.3,0.8-0.4,1.2c-0.1,0.5-0.2,1-0.2,1.6c0,1.4,0.4,2.7,1.3,4H117.1z M120.6,17.1h-2.4v-0.7
	h2.4V17.1z M125.3,18.2v0.7h-4.2c0-0.2,0-0.4,0.1-0.5c0.1-0.3,0.3-0.6,0.5-0.8c0.2-0.3,0.6-0.6,1-0.9c0.7-0.5,1.2-1,1.4-1.3
	c0.2-0.3,0.4-0.6,0.4-0.9c0-0.3-0.1-0.5-0.3-0.8c-0.2-0.2-0.5-0.3-0.8-0.3c-0.4,0-0.7,0.1-0.9,0.3c-0.2,0.2-0.3,0.5-0.3,0.9
	l-0.8-0.1c0.1-0.6,0.3-1,0.6-1.3c0.3-0.3,0.8-0.4,1.4-0.4c0.6,0,1.1,0.2,1.4,0.5c0.4,0.3,0.5,0.7,0.5,1.2c0,0.2-0.1,0.5-0.2,0.7
	c-0.1,0.2-0.3,0.5-0.5,0.8c-0.2,0.3-0.6,0.6-1.2,1.1c-0.5,0.4-0.8,0.6-0.9,0.8c-0.1,0.2-0.2,0.3-0.3,0.4H125.3z M126.2,15.9
	c0-0.7,0.1-1.3,0.2-1.8c0.1-0.5,0.4-0.8,0.7-1c0.3-0.2,0.7-0.4,1.1-0.4c0.3,0,0.6,0.1,0.9,0.2c0.3,0.1,0.5,0.3,0.6,0.6
	c0.2,0.2,0.3,0.6,0.4,0.9s0.2,0.8,0.2,1.5c0,0.7-0.1,1.3-0.2,1.7c-0.1,0.4-0.4,0.8-0.7,1c-0.3,0.2-0.7,0.4-1.1,0.4
	c-0.6,0-1.1-0.2-1.4-0.6C126.4,17.9,126.2,17,126.2,15.9z M126.9,15.9c0,1,0.1,1.7,0.4,2c0.2,0.3,0.6,0.5,0.9,0.5
	c0.4,0,0.7-0.2,0.9-0.5c0.2-0.3,0.4-1,0.4-2c0-1-0.1-1.7-0.4-2c-0.2-0.3-0.5-0.5-0.9-0.5c-0.3,0-0.6,0.2-0.8,0.4
	C127.1,14.2,126.9,14.9,126.9,15.9z M131,15.9c0-0.7,0.1-1.3,0.2-1.8c0.2-0.5,0.4-0.8,0.7-1c0.3-0.2,0.7-0.4,1.1-0.4
	c0.3,0,0.6,0.1,0.9,0.2c0.3,0.1,0.5,0.3,0.6,0.6c0.2,0.2,0.3,0.6,0.4,0.9c0.1,0.4,0.1,0.8,0.1,1.5c0,0.7-0.1,1.3-0.2,1.7
	c-0.2,0.4-0.4,0.8-0.7,1c-0.3,0.2-0.7,0.4-1.2,0.4c-0.6,0-1.1-0.2-1.4-0.6C131.3,17.9,131,17,131,15.9z M131.8,15.9
	c0,1,0.1,1.7,0.4,2c0.2,0.3,0.5,0.5,0.9,0.5c0.4,0,0.7-0.2,0.9-0.5c0.2-0.3,0.4-1,0.4-2c0-1-0.1-1.7-0.4-2c-0.2-0.3-0.5-0.5-0.9-0.5
	c-0.4,0-0.6,0.2-0.8,0.4C132,14.2,131.8,14.9,131.8,15.9z M140.3,18.2l0.1,0.7c-0.2,0.1-0.4,0.1-0.6,0.1c-0.3,0-0.5,0-0.7-0.1
	c-0.2-0.1-0.3-0.2-0.3-0.3c-0.1-0.1-0.1-0.4-0.1-0.9v-2.6h-0.6v-0.6h0.6v-1.1l0.8-0.5v1.6h0.8v0.6h-0.8v2.6c0,0.2,0,0.4,0,0.4
	c0,0.1,0.1,0.1,0.1,0.2c0.1,0,0.2,0,0.3,0C140,18.3,140.1,18.3,140.3,18.2z M140.8,16.7c0-0.8,0.2-1.4,0.7-1.8
	c0.4-0.3,0.9-0.5,1.4-0.5c0.6,0,1.1,0.2,1.5,0.6c0.4,0.4,0.6,1,0.6,1.7c0,0.6-0.1,1-0.3,1.4c-0.2,0.3-0.4,0.6-0.8,0.8
	c-0.3,0.2-0.7,0.3-1.1,0.3c-0.6,0-1.2-0.2-1.5-0.6C141,18,140.8,17.4,140.8,16.7z M141.5,16.7c0,0.6,0.1,1,0.4,1.3
	c0.2,0.3,0.6,0.4,1,0.4c0.4,0,0.7-0.1,1-0.4c0.3-0.3,0.4-0.7,0.4-1.3c0-0.5-0.1-1-0.4-1.3c-0.3-0.3-0.6-0.4-1-0.4
	c-0.4,0-0.7,0.1-1,0.4C141.7,15.7,141.5,16.1,141.5,16.7z M150,17.9v-1.7h-1.7v-0.7h1.7v-1.7h0.7v1.7h1.7v0.7h-1.7v1.7H150z
	 M153.3,17.3l0.8-0.1c0.1,0.4,0.2,0.7,0.4,0.9c0.2,0.2,0.5,0.3,0.8,0.3c0.4,0,0.7-0.1,0.9-0.4c0.2-0.2,0.4-0.5,0.4-0.9
	c0-0.4-0.1-0.6-0.3-0.9c-0.2-0.2-0.5-0.3-0.9-0.3c-0.2,0-0.3,0-0.6,0.1l0.1-0.7c0.1,0,0.1,0,0.1,0c0.3,0,0.6-0.1,0.9-0.2
	c0.3-0.2,0.4-0.4,0.4-0.8c0-0.3-0.1-0.5-0.3-0.7c-0.2-0.2-0.4-0.3-0.8-0.3c-0.3,0-0.5,0.1-0.7,0.3c-0.2,0.2-0.3,0.5-0.4,0.8
	l-0.8-0.1c0.1-0.5,0.3-0.9,0.6-1.2c0.3-0.3,0.8-0.4,1.2-0.4c0.4,0,0.7,0.1,1,0.2s0.5,0.3,0.7,0.6c0.2,0.2,0.2,0.5,0.2,0.8
	s-0.1,0.5-0.2,0.7c-0.2,0.2-0.4,0.4-0.6,0.5c0.4,0.1,0.7,0.3,0.9,0.5c0.2,0.3,0.3,0.6,0.3,1c0,0.5-0.2,1-0.6,1.4
	c-0.4,0.4-0.9,0.6-1.5,0.6c-0.6,0-1-0.2-1.4-0.5C153.6,18.2,153.4,17.8,153.3,17.3z M158.2,15.9c0-0.7,0.1-1.3,0.2-1.8
	c0.2-0.5,0.4-0.8,0.7-1c0.3-0.2,0.7-0.4,1.1-0.4c0.3,0,0.6,0.1,0.9,0.2c0.2,0.1,0.5,0.3,0.6,0.6c0.2,0.2,0.3,0.6,0.4,0.9
	s0.2,0.8,0.2,1.5c0,0.7-0.1,1.3-0.2,1.7c-0.2,0.4-0.4,0.8-0.7,1c-0.3,0.2-0.7,0.4-1.1,0.4c-0.6,0-1.1-0.2-1.4-0.6
	C158.4,17.9,158.2,17,158.2,15.9z M159,15.9c0,1,0.1,1.7,0.4,2c0.2,0.3,0.6,0.5,0.9,0.5c0.4,0,0.7-0.2,0.9-0.5c0.2-0.3,0.4-1,0.4-2
	c0-1-0.1-1.7-0.4-2c-0.2-0.3-0.5-0.5-0.9-0.5s-0.6,0.2-0.9,0.4C159.1,14.2,159,14.9,159,15.9z M163.1,15.9c0-0.7,0.1-1.3,0.2-1.8
	c0.2-0.5,0.4-0.8,0.7-1c0.3-0.2,0.7-0.4,1.1-0.4c0.3,0,0.6,0.1,0.9,0.2c0.2,0.1,0.5,0.3,0.6,0.6c0.2,0.2,0.3,0.6,0.4,0.9
	c0.1,0.4,0.1,0.8,0.1,1.5c0,0.7-0.1,1.3-0.2,1.7c-0.2,0.4-0.4,0.8-0.7,1c-0.3,0.2-0.7,0.4-1.1,0.4c-0.6,0-1.1-0.2-1.4-0.6
	C163.3,17.9,163.1,17,163.1,15.9z M163.9,15.9c0,1,0.1,1.7,0.4,2c0.2,0.3,0.5,0.5,0.9,0.5s0.7-0.2,0.9-0.5c0.2-0.3,0.4-1,0.4-2
	c0-1-0.1-1.7-0.4-2c-0.2-0.3-0.6-0.5-0.9-0.5c-0.4,0-0.7,0.2-0.9,0.4C164,14.2,163.9,14.9,163.9,15.9z M170.7,18.9v-6.1h1.3l1.5,4.4
	c0.1,0.4,0.2,0.7,0.3,0.9c0.1-0.2,0.2-0.5,0.3-1l1.5-4.3h1.1v6.1h-0.8v-5.1l-1.8,5.1h-0.7l-1.8-5.2v5.2H170.7z M179.2,18.9l-1.7-4.4
	h0.8l1,2.7c0.1,0.3,0.2,0.6,0.3,0.9c0.1-0.2,0.2-0.5,0.3-0.8l1-2.7h0.8l-1.7,4.4H179.2z M185.4,18.4c-0.3,0.2-0.6,0.4-0.8,0.5
	c-0.3,0.1-0.5,0.1-0.8,0.1c-0.5,0-0.9-0.1-1.2-0.4c-0.3-0.2-0.4-0.5-0.4-0.9c0-0.2,0.1-0.4,0.2-0.6c0.1-0.2,0.2-0.3,0.4-0.4
	c0.2-0.1,0.3-0.2,0.6-0.2c0.1,0,0.4-0.1,0.7-0.1c0.6-0.1,1.1-0.2,1.4-0.3c0-0.1,0-0.2,0-0.2c0-0.3-0.1-0.5-0.2-0.7
	c-0.2-0.2-0.5-0.2-0.9-0.2c-0.3,0-0.6,0.1-0.8,0.2c-0.2,0.1-0.3,0.4-0.4,0.7l-0.8-0.1c0.1-0.3,0.2-0.6,0.3-0.8
	c0.2-0.2,0.4-0.3,0.7-0.4c0.3-0.1,0.6-0.2,1-0.2c0.4,0,0.7,0,1,0.1c0.2,0.1,0.4,0.2,0.5,0.3c0.1,0.1,0.2,0.3,0.2,0.5
	c0,0.1,0,0.3,0,0.7v1c0,0.7,0,1.1,0.1,1.3c0,0.2,0.1,0.4,0.2,0.5h-0.8C185.4,18.8,185.4,18.6,185.4,18.4z M185.3,16.7
	c-0.3,0.1-0.7,0.2-1.3,0.3c-0.3,0-0.5,0.1-0.7,0.2c-0.1,0-0.2,0.1-0.3,0.2c-0.1,0.1-0.1,0.2-0.1,0.4c0,0.2,0.1,0.4,0.2,0.5
	c0.1,0.1,0.4,0.2,0.7,0.2c0.3,0,0.6-0.1,0.8-0.2c0.2-0.1,0.4-0.3,0.5-0.5c0.1-0.2,0.1-0.4,0.1-0.8V16.7z M187.3,18.9v-4.4h0.7v0.7
	c0.2-0.3,0.3-0.5,0.5-0.6c0.2-0.1,0.3-0.2,0.5-0.2c0.2,0,0.5,0.1,0.8,0.2l-0.3,0.7c-0.2-0.1-0.4-0.2-0.6-0.2s-0.3,0.1-0.5,0.1
	c-0.1,0.1-0.2,0.2-0.3,0.4c-0.1,0.3-0.1,0.6-0.1,0.9v2.3H187.3z M190.7,20.7h-0.6c0.9-1.4,1.3-2.7,1.3-4c0-0.5-0.1-1-0.2-1.6
	c-0.1-0.4-0.2-0.8-0.4-1.2c-0.1-0.3-0.3-0.7-0.7-1.3h0.6c0.5,0.7,0.9,1.4,1.2,2.1c0.2,0.6,0.3,1.2,0.3,1.9c0,0.8-0.1,1.5-0.4,2.2
	C191.5,19.6,191.1,20.2,190.7,20.7"/>
<g>
	<defs>
		<rect id="SVGID_00000069374181252517520700000016644905222092143001_" x="205.9" y="196.2" width="52" height="6.8"/>
	</defs>
	<clipPath id="SVGID_00000110462673625150262810000002070058081228096405_">
		<use xlink:href="#SVGID_00000069374181252517520700000016644905222092143001_"  style="overflow:visible;"/>
	</clipPath>
	<g style="clip-path:url(#SVGID_00000110462673625150262810000002070058081228096405_);">
		<path class="st3" d="M206.6,201.3l0.8-0.1c0.1,0.4,0.2,0.7,0.4,0.9c0.2,0.2,0.5,0.3,0.8,0.3c0.4,0,0.7-0.1,0.9-0.4
			c0.3-0.3,0.4-0.6,0.4-1.1c0-0.4-0.1-0.8-0.4-1c-0.2-0.2-0.6-0.4-1-0.4c-0.3,0-0.5,0.1-0.7,0.2c-0.2,0.1-0.4,0.2-0.5,0.4l-0.7-0.1
			l0.6-3.2h3.1v0.7H208l-0.3,1.6c0.4-0.2,0.8-0.4,1.2-0.4c0.6,0,1,0.2,1.4,0.6c0.4,0.4,0.6,0.8,0.6,1.4c0,0.6-0.2,1-0.5,1.4
			c-0.4,0.5-0.9,0.7-1.7,0.7c-0.6,0-1-0.2-1.4-0.5C206.9,202.3,206.6,201.9,206.6,201.3z M213.4,202.3l0.1,0.7
			c-0.2,0.1-0.4,0.1-0.6,0.1c-0.3,0-0.5,0-0.7-0.1c-0.1-0.1-0.3-0.2-0.3-0.3c-0.1-0.1-0.1-0.4-0.1-0.9v-2.6h-0.6v-0.6h0.6v-1.1
			l0.8-0.4v1.6h0.8v0.6h-0.8v2.6c0,0.2,0,0.3,0.1,0.4c0,0.1,0.1,0.1,0.1,0.1c0.1,0,0.2,0.1,0.3,0.1
			C213.1,202.3,213.2,202.3,213.4,202.3z M214.1,203v-6.1h0.8v2.2c0.4-0.4,0.8-0.6,1.4-0.6c0.3,0,0.6,0.1,0.9,0.2
			c0.2,0.1,0.4,0.3,0.5,0.5c0.1,0.2,0.2,0.6,0.2,1v2.8h-0.8v-2.8c0-0.4-0.1-0.6-0.2-0.8c-0.2-0.2-0.4-0.3-0.7-0.3
			c-0.2,0-0.4,0.1-0.6,0.2c-0.2,0.1-0.4,0.3-0.4,0.5c-0.1,0.2-0.1,0.5-0.1,0.8v2.4H214.1z M221.5,203v-6.1h0.8v2.2
			c0.4-0.4,0.8-0.6,1.4-0.6c0.3,0,0.6,0.1,0.9,0.2c0.2,0.1,0.4,0.3,0.5,0.5c0.1,0.2,0.2,0.6,0.2,1v2.8h-0.8v-2.8
			c0-0.4-0.1-0.6-0.3-0.8c-0.2-0.2-0.4-0.3-0.7-0.3c-0.2,0-0.4,0.1-0.6,0.2c-0.2,0.1-0.3,0.3-0.4,0.5c-0.1,0.2-0.1,0.5-0.1,0.8v2.4
			H221.5z M229.4,202.4c-0.3,0.2-0.6,0.4-0.8,0.5c-0.3,0.1-0.6,0.2-0.8,0.2c-0.5,0-0.9-0.1-1.2-0.4c-0.3-0.2-0.4-0.5-0.4-0.9
			c0-0.2,0.1-0.4,0.2-0.6c0.1-0.2,0.2-0.3,0.4-0.4s0.4-0.2,0.6-0.2c0.2,0,0.4-0.1,0.7-0.1c0.6-0.1,1.1-0.2,1.4-0.3
			c0-0.1,0-0.2,0-0.2c0-0.3-0.1-0.5-0.2-0.6c-0.2-0.2-0.5-0.2-0.9-0.2c-0.4,0-0.6,0.1-0.8,0.2c-0.2,0.1-0.3,0.3-0.4,0.7l-0.8-0.1
			c0.1-0.3,0.2-0.6,0.3-0.8c0.1-0.2,0.4-0.4,0.7-0.5c0.3-0.1,0.7-0.2,1.1-0.2c0.4,0,0.7,0.1,0.9,0.2c0.2,0.1,0.4,0.2,0.5,0.3
			c0.1,0.1,0.2,0.3,0.2,0.5c0,0.1,0,0.4,0,0.7v1c0,0.7,0,1.2,0,1.3c0,0.2,0.1,0.4,0.2,0.5h-0.8C229.4,202.8,229.4,202.6,229.4,202.4
			z M229.3,200.7c-0.3,0.1-0.7,0.2-1.2,0.3c-0.3,0.1-0.5,0.1-0.7,0.1c-0.1,0.1-0.2,0.1-0.3,0.2c-0.1,0.1-0.1,0.2-0.1,0.4
			c0,0.2,0.1,0.4,0.2,0.5c0.2,0.1,0.4,0.2,0.7,0.2c0.3,0,0.6-0.1,0.8-0.2c0.2-0.1,0.4-0.3,0.5-0.5c0.1-0.2,0.1-0.4,0.1-0.8V200.7z
			 M231.3,203v-4.4h0.7v0.7c0.2-0.3,0.3-0.5,0.5-0.6c0.1-0.1,0.3-0.2,0.5-0.2c0.2,0,0.5,0.1,0.8,0.2l-0.3,0.7
			c-0.2-0.1-0.4-0.2-0.6-0.2c-0.2,0-0.3,0.1-0.5,0.1c-0.1,0.1-0.2,0.2-0.3,0.4c-0.1,0.3-0.1,0.6-0.1,0.9v2.3H231.3z M234.2,203v-4.4
			h0.7v0.6c0.1-0.2,0.3-0.4,0.6-0.5c0.2-0.1,0.5-0.2,0.8-0.2c0.3,0,0.6,0.1,0.8,0.2c0.2,0.1,0.4,0.3,0.4,0.6
			c0.4-0.5,0.8-0.8,1.4-0.8c0.4,0,0.8,0.1,1,0.4c0.2,0.2,0.4,0.6,0.4,1.1v3.1h-0.8v-2.8c0-0.3,0-0.5-0.1-0.6
			c-0.1-0.1-0.1-0.2-0.3-0.3c-0.1-0.1-0.3-0.1-0.5-0.1c-0.3,0-0.6,0.1-0.8,0.3c-0.2,0.2-0.3,0.5-0.3,1v2.6h-0.8v-2.9
			c0-0.3-0.1-0.6-0.2-0.8c-0.1-0.2-0.4-0.3-0.6-0.3c-0.2,0-0.4,0.1-0.6,0.2s-0.3,0.3-0.4,0.5c-0.1,0.2-0.1,0.5-0.1,0.9v2.3H234.2z
			 M241.2,200.7c0-0.8,0.2-1.4,0.7-1.8c0.4-0.3,0.9-0.5,1.4-0.5c0.6,0,1.1,0.2,1.5,0.6c0.4,0.4,0.6,1,0.6,1.7c0,0.6-0.1,1-0.3,1.4
			c-0.2,0.3-0.4,0.6-0.8,0.8c-0.3,0.2-0.7,0.3-1.1,0.3c-0.6,0-1.1-0.2-1.6-0.6C241.4,202.1,241.2,201.5,241.2,200.7z M242,200.7
			c0,0.6,0.1,1,0.4,1.3c0.2,0.3,0.6,0.4,1,0.4s0.7-0.1,1-0.4c0.2-0.3,0.4-0.7,0.4-1.3c0-0.6-0.1-1-0.4-1.2c-0.3-0.3-0.6-0.4-1-0.4
			s-0.7,0.1-1,0.4C242.2,199.7,242,200.2,242,200.7z M246.4,203v-4.4h0.7v0.6c0.3-0.5,0.8-0.8,1.5-0.8c0.3,0,0.5,0.1,0.8,0.2
			c0.2,0.1,0.4,0.2,0.5,0.4c0.1,0.1,0.2,0.3,0.2,0.6c0,0.1,0.1,0.4,0.1,0.7v2.7h-0.8v-2.7c0-0.3,0-0.5-0.1-0.7
			c-0.1-0.2-0.2-0.3-0.3-0.4c-0.1-0.1-0.3-0.1-0.5-0.1c-0.3,0-0.6,0.1-0.8,0.3c-0.2,0.2-0.4,0.6-0.4,1.2v2.4H246.4z M252.1,197.7
			h-0.8v-0.9h0.8V197.7z M252.1,203h-0.8v-4.4h0.8V203z M256.3,201.3l0.8,0.1c-0.1,0.5-0.3,0.9-0.6,1.2c-0.4,0.3-0.8,0.4-1.3,0.4
			c-0.6,0-1.1-0.2-1.5-0.6c-0.4-0.4-0.6-1-0.6-1.7c0-0.5,0.1-0.9,0.2-1.3c0.2-0.4,0.4-0.6,0.8-0.8c0.3-0.2,0.7-0.3,1.1-0.3
			c0.5,0,0.9,0.1,1.2,0.4c0.3,0.2,0.5,0.6,0.6,1l-0.8,0.1c-0.1-0.3-0.2-0.5-0.4-0.7c-0.2-0.1-0.4-0.2-0.7-0.2
			c-0.4,0-0.7,0.1-0.9,0.4c-0.2,0.3-0.4,0.7-0.4,1.3c0,0.6,0.1,1,0.4,1.3c0.2,0.3,0.6,0.4,0.9,0.4c0.3,0,0.6-0.1,0.8-0.3
			C256.1,202,256.2,201.7,256.3,201.3"/>
	</g>
</g>
<g>
	<defs>
		<rect id="SVGID_00000010288263175210411000000007628647343235101323_" x="266.9" y="196.2" width="50.6" height="6.8"/>
	</defs>
	<clipPath id="SVGID_00000140722067250730491190000008604720802704518054_">
		<use xlink:href="#SVGID_00000010288263175210411000000007628647343235101323_"  style="overflow:visible;"/>
	</clipPath>
	<g style="clip-path:url(#SVGID_00000140722067250730491190000008604720802704518054_);">
		<path class="st3" d="M267.2,201.3l0.8-0.1c0.1,0.4,0.2,0.7,0.4,0.9c0.2,0.2,0.5,0.3,0.8,0.3c0.4,0,0.7-0.1,0.9-0.4
			c0.3-0.3,0.4-0.6,0.4-1.1c0-0.4-0.1-0.8-0.4-1c-0.2-0.2-0.6-0.4-1-0.4c-0.3,0-0.5,0.1-0.7,0.2c-0.2,0.1-0.4,0.2-0.5,0.4l-0.7-0.1
			l0.6-3.2h3.1v0.7h-2.5l-0.3,1.6c0.4-0.2,0.8-0.4,1.2-0.4c0.6,0,1,0.2,1.4,0.6c0.4,0.4,0.6,0.8,0.6,1.4c0,0.6-0.2,1-0.5,1.4
			c-0.4,0.5-0.9,0.7-1.7,0.7c-0.6,0-1-0.2-1.4-0.5C267.4,202.3,267.2,201.9,267.2,201.3z M274,202.3l0.1,0.7
			c-0.2,0.1-0.4,0.1-0.6,0.1c-0.3,0-0.5,0-0.7-0.1c-0.1-0.1-0.3-0.2-0.3-0.3c-0.1-0.1-0.1-0.4-0.1-0.9v-2.6h-0.6v-0.6h0.6v-1.1
			l0.8-0.4v1.6h0.8v0.6h-0.8v2.6c0,0.2,0,0.3,0.1,0.4c0,0.1,0.1,0.1,0.1,0.1c0.1,0,0.2,0.1,0.3,0.1
			C273.7,202.3,273.8,202.3,274,202.3z M274.7,203v-6.1h0.8v2.2c0.4-0.4,0.8-0.6,1.4-0.6c0.3,0,0.6,0.1,0.9,0.2
			c0.2,0.1,0.4,0.3,0.5,0.5c0.1,0.2,0.2,0.6,0.2,1v2.8h-0.8v-2.8c0-0.4-0.1-0.6-0.2-0.8c-0.2-0.2-0.4-0.3-0.7-0.3
			c-0.2,0-0.4,0.1-0.6,0.2c-0.2,0.1-0.4,0.3-0.4,0.5c-0.1,0.2-0.1,0.5-0.1,0.8v2.4H274.7z M282.1,203v-6.1h0.8v2.2
			c0.4-0.4,0.8-0.6,1.4-0.6c0.3,0,0.6,0.1,0.9,0.2c0.2,0.1,0.4,0.3,0.5,0.5c0.1,0.2,0.2,0.6,0.2,1v2.8H285v-2.8
			c0-0.4-0.1-0.6-0.3-0.8c-0.2-0.2-0.4-0.3-0.7-0.3c-0.2,0-0.4,0.1-0.6,0.2c-0.2,0.1-0.4,0.3-0.4,0.5c-0.1,0.2-0.1,0.5-0.1,0.8v2.4
			H282.1z M289.9,202.4c-0.3,0.2-0.6,0.4-0.8,0.5c-0.3,0.1-0.6,0.2-0.8,0.2c-0.5,0-0.9-0.1-1.2-0.4c-0.3-0.2-0.4-0.5-0.4-0.9
			c0-0.2,0.1-0.4,0.2-0.6c0.1-0.2,0.2-0.3,0.4-0.4s0.4-0.2,0.6-0.2c0.2,0,0.4-0.1,0.7-0.1c0.6-0.1,1.1-0.2,1.4-0.3
			c0-0.1,0-0.2,0-0.2c0-0.3-0.1-0.5-0.2-0.6c-0.2-0.2-0.5-0.2-0.9-0.2c-0.4,0-0.6,0.1-0.8,0.2c-0.2,0.1-0.3,0.3-0.4,0.7l-0.8-0.1
			c0.1-0.3,0.2-0.6,0.3-0.8c0.1-0.2,0.4-0.4,0.7-0.5c0.3-0.1,0.6-0.2,1-0.2c0.4,0,0.7,0.1,0.9,0.2c0.2,0.1,0.4,0.2,0.5,0.3
			c0.1,0.1,0.2,0.3,0.2,0.5c0,0.1,0,0.4,0,0.7v1c0,0.7,0,1.2,0,1.3c0,0.2,0.1,0.4,0.2,0.5h-0.8C290,202.8,290,202.6,289.9,202.4z
			 M289.9,200.7c-0.3,0.1-0.7,0.2-1.2,0.3c-0.3,0.1-0.5,0.1-0.7,0.1c-0.1,0.1-0.2,0.1-0.3,0.2c-0.1,0.1-0.1,0.2-0.1,0.4
			c0,0.2,0.1,0.4,0.2,0.5c0.2,0.1,0.4,0.2,0.7,0.2c0.3,0,0.6-0.1,0.8-0.2c0.2-0.1,0.4-0.3,0.5-0.5c0.1-0.2,0.1-0.4,0.1-0.8V200.7z
			 M291.8,203v-4.4h0.7v0.7c0.2-0.3,0.3-0.5,0.5-0.6c0.1-0.1,0.3-0.2,0.5-0.2c0.2,0,0.5,0.1,0.8,0.2l-0.3,0.7
			c-0.2-0.1-0.4-0.2-0.6-0.2c-0.2,0-0.3,0.1-0.5,0.1c-0.1,0.1-0.2,0.2-0.3,0.4c-0.1,0.3-0.1,0.6-0.1,0.9v2.3H291.8z M294.8,203v-4.4
			h0.7v0.6c0.1-0.2,0.3-0.4,0.6-0.5c0.2-0.1,0.5-0.2,0.8-0.2c0.3,0,0.6,0.1,0.8,0.2c0.2,0.1,0.4,0.3,0.4,0.6
			c0.4-0.5,0.8-0.8,1.4-0.8c0.4,0,0.8,0.1,1.1,0.4c0.2,0.2,0.4,0.6,0.4,1.1v3.1h-0.8v-2.8c0-0.3,0-0.5-0.1-0.6
			c-0.1-0.1-0.1-0.2-0.3-0.3c-0.1-0.1-0.3-0.1-0.5-0.1c-0.3,0-0.6,0.1-0.8,0.3c-0.2,0.2-0.3,0.5-0.3,1v2.6h-0.8v-2.9
			c0-0.3-0.1-0.6-0.2-0.8c-0.1-0.2-0.4-0.3-0.6-0.3c-0.2,0-0.4,0.1-0.6,0.2s-0.3,0.3-0.4,0.5c-0.1,0.2-0.1,0.5-0.1,0.9v2.3H294.8z
			 M301.8,200.7c0-0.8,0.2-1.4,0.7-1.8c0.4-0.3,0.9-0.5,1.4-0.5c0.6,0,1.1,0.2,1.5,0.6c0.4,0.4,0.6,1,0.6,1.7c0,0.6-0.1,1-0.3,1.4
			c-0.2,0.3-0.4,0.6-0.8,0.8c-0.3,0.2-0.7,0.3-1.1,0.3c-0.6,0-1.1-0.2-1.6-0.6C302,202.1,301.8,201.5,301.8,200.7z M302.6,200.7
			c0,0.6,0.1,1,0.4,1.3c0.2,0.3,0.6,0.4,1,0.4s0.7-0.1,1-0.4c0.2-0.3,0.4-0.7,0.4-1.3c0-0.6-0.1-1-0.4-1.2c-0.3-0.3-0.6-0.4-1-0.4
			s-0.7,0.1-1,0.4C302.8,199.7,302.6,200.2,302.6,200.7z M307,203v-4.4h0.7v0.6c0.3-0.5,0.8-0.8,1.5-0.8c0.3,0,0.5,0.1,0.8,0.2
			c0.2,0.1,0.4,0.2,0.5,0.4c0.1,0.1,0.2,0.3,0.2,0.6c0,0.1,0.1,0.4,0.1,0.7v2.7h-0.8v-2.7c0-0.3,0-0.5-0.1-0.7
			c-0.1-0.2-0.2-0.3-0.3-0.4c-0.1-0.1-0.3-0.1-0.5-0.1c-0.3,0-0.6,0.1-0.8,0.3c-0.2,0.2-0.4,0.6-0.4,1.2v2.4H307z M312.7,197.7h-0.8
			v-0.9h0.8V197.7z M312.7,203h-0.8v-4.4h0.8V203z M316.8,201.3l0.8,0.1c-0.1,0.5-0.3,0.9-0.6,1.2c-0.4,0.3-0.8,0.4-1.3,0.4
			c-0.6,0-1.1-0.2-1.5-0.6c-0.4-0.4-0.6-1-0.6-1.7c0-0.5,0.1-0.9,0.2-1.3c0.2-0.4,0.4-0.6,0.8-0.8c0.3-0.2,0.7-0.3,1.1-0.3
			c0.5,0,0.9,0.1,1.2,0.4c0.3,0.2,0.5,0.6,0.6,1l-0.8,0.1c-0.1-0.3-0.2-0.5-0.4-0.7c-0.2-0.1-0.4-0.2-0.7-0.2
			c-0.4,0-0.7,0.1-0.9,0.4c-0.2,0.3-0.4,0.7-0.4,1.3c0,0.6,0.1,1,0.4,1.3c0.2,0.3,0.6,0.4,0.9,0.4c0.3,0,0.6-0.1,0.8-0.3
			C316.7,202,316.8,201.7,316.8,201.3"/>
	</g>
</g>
<path class="st9" d="M26,139.9h-4"/>
<path class="st9" d="M44.8,147.4v-8.1"/>
<path class="st9" d="M51,139.9h-4"/>
<path class="st9" d="M70,139.3h-4"/>
<path class="st9" d="M117.7,140.3h-4"/>
<path class="st9" d="M167.7,139.9h-4.1"/>
<path class="st9" d="M192.9,139.5h-4"/>
<path class="st13" d="M238.6,155.6h8v-16.2h-8V155.6z"/>
<path class="st7" d="M238.6,138.3h9.1v18.2h-10.1v-17.2C237.5,138.8,238,138.3,238.6,138.3s1,0.5,1,1v16.2l-1-1h8l-1,1v-16.2l1,1h-8
	c-0.6,0-1-0.5-1-1C237.5,138.8,238,138.3,238.6,138.3"/>
<path class="st13" d="M287,155.6h8v-16.2h-8V155.6z"/>
<path class="st7" d="M287,138.3h9.1v18.2H286v-17.2C286,138.8,286.4,138.3,287,138.3s1,0.5,1,1v16.2l-1-1h8l-1,1v-16.2l1,1h-8
	c-0.6,0-1-0.5-1-1C286,138.8,286.4,138.3,287,138.3"/>
<path class="st9" d="M145.7,139.3h-4"/>
</svg>
