<?xml version="1.0" encoding="utf-8"?>
<!-- Generator: Adobe Illustrator 27.9.0, SVG Export Plug-In . SVG Version: 6.00 Build 0)  -->
<svg version="1.1" id="Layer_1" xmlns="http://www.w3.org/2000/svg" xmlns:xlink="http://www.w3.org/1999/xlink" x="0px" y="0px"
	 viewBox="0 0 329.9 185.4" style="enable-background:new 0 0 329.9 185.4;" xml:space="preserve">
<style type="text/css">
	.st0{fill:none;stroke:#131413;stroke-width:1.241;stroke-linecap:round;stroke-linejoin:round;stroke-miterlimit:10;}
	.st1{fill:none;stroke:#131413;stroke-width:0.69;stroke-linecap:round;stroke-linejoin:round;stroke-miterlimit:10;}
	
		.st2{fill:none;stroke:#131413;stroke-width:0.4;stroke-linecap:round;stroke-linejoin:round;stroke-miterlimit:10;stroke-dasharray:1,1.5;}
	.st3{fill-rule:evenodd;clip-rule:evenodd;fill:#131413;}
	.st4{clip-path:url(#SVGID_00000015336802681203842530000011636935361205518748_);}
	.st5{clip-path:url(#SVGID_00000024708945182553475050000011271093140524597131_);}
	.st6{clip-path:url(#SVGID_00000176751855661691114080000006767337051663657108_);}
	.st7{fill:#131413;}
	.st8{fill-rule:evenodd;clip-rule:evenodd;fill:#FFFFFF;}
	.st9{fill:none;stroke:#131413;stroke-width:1.626;stroke-linecap:round;stroke-linejoin:round;stroke-miterlimit:10;}
	.st10{clip-path:url(#SVGID_00000125588556850951020870000007678228095186513035_);}
	.st11{clip-path:url(#SVGID_00000048477532265388321890000011985859800804178053_);}
	.st12{clip-path:url(#SVGID_00000089542525153453481630000010015651555209967236_);}
	.st13{fill:#FFFFFF;}
</style>
<path class="st0" d="M128.4,2.1V28"/>
<path class="st1" d="M121.8,21.5h6.6"/>
<path class="st1" d="M121.8,60.5v12.9"/>
<path class="st1" d="M56.5,73.5h150.4"/>
<path class="st1" d="M56.5,73.5v13.1"/>
<path class="st1" d="M43.3,86.5h26.2"/>
<path class="st1" d="M43.3,86.5v12.9"/>
<path class="st1" d="M69.5,86.5v12.9"/>
<path class="st1" d="M36.8,99.4l6.5,6.5l6.7-6.5"/>
<path class="st1" d="M36.8,99.4H50"/>
<path class="st1" d="M36.8,105.9H50"/>
<path class="st1" d="M63,105.9h13.1"/>
<path class="st1" d="M69.5,99.4l-6.5,6.5"/>
<path class="st1" d="M69.5,99.4l6.6,6.5"/>
<path class="st1" d="M63,99.4h13.1l6.5-6.5"/>
<path class="st1" d="M43.3,105.9V119h26.2v-13.1"/>
<path class="st1" d="M56.5,119v12.9"/>
<path class="st1" d="M56.5,157.9v13.1"/>
<path class="st1" d="M95.6,86.5h26.1"/>
<path class="st1" d="M95.6,86.5v12.9"/>
<path class="st1" d="M121.8,86.5v12.9"/>
<path class="st1" d="M89.1,99.4l6.5,6.5l6.7-6.5"/>
<path class="st1" d="M89.1,99.4h13.1"/>
<path class="st1" d="M89.1,105.9h13.1"/>
<path class="st1" d="M89.1,105.9l-6.5,6.6"/>
<path class="st1" d="M115.3,105.9h13.1"/>
<path class="st1" d="M121.8,99.4l-6.5,6.5"/>
<path class="st1" d="M121.8,99.4l6.6,6.5"/>
<path class="st1" d="M115.3,99.4h13.1l6.5-6.5"/>
<path class="st1" d="M95.6,105.9V119h26.1v-13.1"/>
<path class="st1" d="M108.8,119v12.9"/>
<path class="st1" d="M108.8,157.9v13.1"/>
<path class="st1" d="M128.4,99.4l6.5-6.5"/>
<path class="st1" d="M147.9,86.5h26.1"/>
<path class="st1" d="M147.9,86.5v12.9"/>
<path class="st1" d="M174.1,86.5v12.9"/>
<path class="st1" d="M141.4,99.4l6.5,6.5l6.7-6.5"/>
<path class="st1" d="M141.4,99.4h13.1"/>
<path class="st1" d="M141.4,105.9h13.1"/>
<path class="st1" d="M141.4,105.9l-6.5,6.6"/>
<path class="st1" d="M167.6,105.9h13.2"/>
<path class="st1" d="M174.1,99.4l-6.5,6.5"/>
<path class="st1" d="M174.1,99.4l6.6,6.5"/>
<path class="st1" d="M167.6,99.4h13.2l6.5-6.5"/>
<path class="st1" d="M147.9,105.9V119h26.1v-13.1"/>
<path class="st1" d="M161.1,119v12.9"/>
<path class="st1" d="M161.1,157.9v13.1"/>
<path class="st1" d="M180.7,99.4l6.5-6.5"/>
<path class="st1" d="M180.7,99.4l6.5-6.5"/>
<path class="st1" d="M200.2,86.5h26.2"/>
<path class="st1" d="M200.2,86.5v12.9"/>
<path class="st1" d="M226.4,86.5v12.9"/>
<path class="st1" d="M193.7,99.4l6.5,6.5l6.7-6.5"/>
<path class="st1" d="M193.7,99.4h13.1"/>
<path class="st1" d="M193.7,105.9h13.1"/>
<path class="st1" d="M193.7,105.9l-6.5,6.6"/>
<path class="st1" d="M219.9,105.9H233"/>
<path class="st1" d="M226.4,99.4l-6.5,6.5"/>
<path class="st1" d="M226.4,99.4l6.6,6.5"/>
<path class="st1" d="M219.9,99.4H233l6.5-6.5"/>
<path class="st1" d="M200.2,105.9V119h26.2v-13.1"/>
<path class="st1" d="M213.4,119v12.9"/>
<path class="st1" d="M213.4,157.9v13.1"/>
<path class="st1" d="M108.8,73.5v13.1"/>
<path class="st1" d="M161.1,73.5v13.1"/>
<path class="st1" d="M213.4,73.5v13.1"/>
<path class="st1" d="M206.9,73.5h6.5"/>
<path class="st1" d="M213.4,157.9c4.6,0,4.6-6.7,0-6.7c-2.9,0-2.9,2.2,0,2.2c4.6,0,4.6-6.7,0-6.7c-2.9,0-2.9,2.2,0,2.2
	c4.6,0,4.6-6.7,0-6.7c-2.9,0-2.9,2.2,0,2.2c4.6,0,4.6-6.7,0-6.7c-2.9,0-2.9,2.2,0,2.2c4.6,0,4.6-7.8,0-7.8"/>
<path class="st1" d="M121.8,21.5v26"/>
<path class="st1" d="M121.8,21.5v26"/>
<path class="st1" d="M121.8,60.5v12.9"/>
<path class="st1" d="M121.8,34.6h143.9"/>
<path class="st2" d="M82.6,93H246 M30.3,112.5H246"/>
<path class="st3" d="M158.9,46.8v1.8h-0.1c0-0.3-0.1-0.6-0.2-0.8c-0.1-0.2-0.3-0.4-0.6-0.5c-0.2-0.1-0.5-0.2-0.7-0.2
	c-0.3,0-0.5,0.1-0.7,0.2c-0.2,0.2-0.3,0.4-0.3,0.6c0,0.2,0.1,0.3,0.2,0.4c0.2,0.2,0.6,0.5,1.2,0.8c0.5,0.3,0.9,0.5,1.1,0.6
	c0.2,0.1,0.3,0.3,0.4,0.5c0.1,0.2,0.2,0.4,0.2,0.6c0,0.4-0.2,0.7-0.5,1c-0.3,0.3-0.7,0.4-1.2,0.4c-0.2,0-0.3,0-0.4,0
	c-0.1,0-0.3-0.1-0.5-0.2c-0.3-0.1-0.4-0.1-0.5-0.1s-0.1,0-0.2,0.1c0,0-0.1,0.1-0.1,0.2h-0.2v-1.8h0.2c0.1,0.4,0.2,0.7,0.3,0.9
	c0.1,0.2,0.3,0.3,0.5,0.5c0.2,0.1,0.5,0.2,0.8,0.2c0.3,0,0.6-0.1,0.8-0.3c0.2-0.2,0.3-0.4,0.3-0.6c0-0.1,0-0.3-0.1-0.4
	c-0.1-0.1-0.2-0.3-0.3-0.4c-0.1-0.1-0.4-0.2-0.9-0.5c-0.5-0.3-0.8-0.5-1-0.6c-0.2-0.2-0.3-0.3-0.4-0.5c-0.1-0.2-0.2-0.4-0.2-0.6
	c0-0.4,0.2-0.7,0.4-1c0.3-0.3,0.7-0.4,1.2-0.4c0.3,0,0.6,0.1,0.9,0.2c0.2,0.1,0.3,0.1,0.3,0.1c0.1,0,0.1,0,0.2-0.1
	c0,0,0.1-0.1,0.1-0.2H158.9z M161.1,47.4v1.2h0.9v0.3h-0.9v2.3c0,0.2,0,0.4,0.1,0.5c0.1,0.1,0.2,0.1,0.3,0.1c0.1,0,0.2,0,0.3-0.1
	c0.1-0.1,0.1-0.1,0.2-0.2h0.2c-0.1,0.2-0.2,0.4-0.4,0.6c-0.2,0.1-0.3,0.2-0.5,0.2c-0.1,0-0.2,0-0.4-0.1c-0.1-0.1-0.2-0.1-0.3-0.3
	c-0.1-0.1-0.1-0.3-0.1-0.6v-2.4h-0.6v-0.1c0.2-0.1,0.3-0.2,0.5-0.3c0.2-0.1,0.3-0.3,0.4-0.5c0.1-0.1,0.1-0.3,0.3-0.6H161.1z M163,50
	c0,0.5,0.1,1,0.4,1.2c0.3,0.3,0.6,0.4,0.9,0.4c0.3,0,0.5,0,0.6-0.2c0.2-0.1,0.3-0.3,0.5-0.7l0.1,0.1c-0.1,0.4-0.2,0.7-0.5,1
	c-0.3,0.3-0.6,0.5-1,0.5c-0.4,0-0.8-0.2-1.1-0.5c-0.3-0.3-0.5-0.8-0.5-1.4c0-0.6,0.1-1.1,0.5-1.4c0.3-0.3,0.7-0.5,1.2-0.5
	c0.4,0,0.8,0.1,1,0.4c0.3,0.3,0.4,0.6,0.4,1.1H163z M163,49.7h1.7c0-0.2,0-0.4-0.1-0.5c-0.1-0.1-0.2-0.3-0.3-0.3
	c-0.1-0.1-0.3-0.1-0.4-0.1c-0.2,0-0.4,0.1-0.6,0.2C163.1,49.2,163,49.4,163,49.7z M165.8,49l1.2-0.4h0.1v0.8
	c0.2-0.3,0.4-0.5,0.6-0.7c0.2-0.1,0.4-0.2,0.6-0.2c0.4,0,0.7,0.1,0.9,0.4c0.3,0.3,0.5,0.8,0.5,1.3c0,0.6-0.2,1.1-0.6,1.5
	c-0.3,0.3-0.7,0.5-1.2,0.5c-0.2,0-0.4,0-0.5-0.1c-0.1-0.1-0.2-0.1-0.4-0.2v1.1c0,0.2,0,0.4,0,0.5c0,0.1,0.1,0.1,0.2,0.2
	c0.1,0.1,0.2,0.1,0.4,0.1v0.1h-1.9v-0.1h0.1c0.1,0,0.3,0,0.4-0.1c0.1,0,0.1-0.1,0.1-0.1c0-0.1,0.1-0.2,0.1-0.5v-3.4
	c0-0.2,0-0.4-0.1-0.4c0-0.1,0-0.1-0.1-0.1c0,0-0.1,0-0.2,0c-0.1,0-0.1,0-0.2,0.1L165.8,49z M167.1,49.6v1.3c0,0.3,0,0.5,0,0.6
	c0,0.2,0.1,0.3,0.3,0.4c0.2,0.1,0.3,0.2,0.6,0.2c0.3,0,0.5-0.1,0.7-0.3c0.2-0.3,0.3-0.6,0.3-1.1c0-0.6-0.1-1-0.4-1.3
	c-0.2-0.2-0.4-0.3-0.6-0.3c-0.1,0-0.2,0.1-0.4,0.1C167.4,49.2,167.3,49.4,167.1,49.6z M170.3,50.1h2.1v0.6h-2.1V50.1z M172.8,52.2
	v-0.1h0.2c0.2,0,0.4-0.1,0.5-0.2c0.1-0.1,0.1-0.3,0.1-0.6v-3.4c0-0.3-0.1-0.5-0.1-0.6c-0.1-0.1-0.3-0.2-0.5-0.2h-0.2v-0.1h2.2
	c0.8,0,1.4,0.1,1.9,0.3c0.4,0.2,0.8,0.5,1,0.9c0.2,0.4,0.4,0.9,0.4,1.5c0,0.7-0.2,1.3-0.7,1.9c-0.5,0.6-1.3,0.8-2.4,0.8H172.8z
	 M174.4,51.8c0.3,0.1,0.6,0.1,0.9,0.1c0.6,0,1.1-0.2,1.6-0.6c0.4-0.4,0.6-1,0.6-1.8c0-0.7-0.2-1.3-0.6-1.7c-0.4-0.4-0.9-0.6-1.6-0.6
	c-0.2,0-0.5,0-0.8,0.1V51.8z M180.8,48.5c0.6,0,1,0.2,1.4,0.6c0.3,0.3,0.4,0.8,0.4,1.2c0,0.3-0.1,0.7-0.2,1
	c-0.2,0.3-0.4,0.6-0.7,0.7c-0.3,0.2-0.6,0.3-0.9,0.3c-0.6,0-1-0.2-1.3-0.7c-0.3-0.3-0.4-0.8-0.4-1.2c0-0.3,0.1-0.7,0.2-1
	c0.2-0.3,0.4-0.6,0.7-0.7C180.2,48.6,180.5,48.5,180.8,48.5z M180.6,48.8c-0.1,0-0.3,0.1-0.4,0.1c-0.1,0.1-0.3,0.2-0.3,0.4
	c-0.1,0.2-0.1,0.5-0.1,0.8c0,0.5,0.1,1,0.3,1.3c0.2,0.4,0.5,0.6,0.9,0.6c0.3,0,0.5-0.1,0.6-0.3c0.2-0.2,0.3-0.6,0.3-1.1
	c0-0.6-0.1-1.1-0.4-1.5C181.2,48.9,180.9,48.8,180.6,48.8z M182.9,48.6h1.6v0.1c-0.1,0-0.2,0-0.3,0.1c-0.1,0.1-0.1,0.1-0.1,0.2
	c0,0.1,0,0.2,0.1,0.3l0.8,2.1l0.8-1.7l-0.2-0.5c-0.1-0.2-0.2-0.3-0.3-0.3c-0.1,0-0.2-0.1-0.3-0.1v-0.1h1.8v0.1c-0.2,0-0.3,0-0.4,0.1
	c-0.1,0-0.1,0.1-0.1,0.2c0,0.1,0,0.1,0,0.2l0.8,2.1l0.8-2C188,49.1,188,49,188,49c0-0.1,0-0.1-0.1-0.1c-0.1,0-0.1-0.1-0.3-0.1v-0.1
	h1.2v0.1c-0.2,0-0.4,0.2-0.5,0.5l-1.2,3.1h-0.2l-0.9-2.3l-1.1,2.3h-0.2l-1.2-3c-0.1-0.2-0.2-0.3-0.2-0.4c-0.1-0.1-0.2-0.1-0.4-0.1
	V48.6z M190.2,49.3c0.4-0.5,0.8-0.8,1.2-0.8c0.2,0,0.4,0.1,0.5,0.1c0.1,0.1,0.2,0.2,0.3,0.5c0.1,0.2,0.1,0.4,0.1,0.7v1.5
	c0,0.2,0,0.4,0.1,0.5c0,0.1,0.1,0.1,0.1,0.1c0.1,0,0.2,0.1,0.4,0.1v0.1h-1.8v-0.1h0.1c0.2,0,0.3,0,0.4-0.1c0.1,0,0.1-0.1,0.1-0.2
	c0,0,0-0.2,0-0.4v-1.5c0-0.3,0-0.6-0.1-0.7c-0.1-0.1-0.2-0.2-0.4-0.2c-0.3,0-0.6,0.2-1,0.5v1.9c0,0.2,0,0.4,0,0.4
	c0,0.1,0.1,0.1,0.2,0.2c0.1,0,0.2,0.1,0.4,0.1v0.1H189v-0.1h0.1c0.2,0,0.3,0,0.4-0.1c0.1-0.1,0.1-0.3,0.1-0.5v-1.3
	c0-0.4,0-0.7,0-0.8c0-0.1-0.1-0.2-0.1-0.2c0,0-0.1-0.1-0.2-0.1c-0.1,0-0.2,0-0.3,0.1l-0.1-0.1l1.1-0.4h0.2V49.3"/>
<path class="st3" d="M158.1,55.8l0.1,1.2H158c0-0.2-0.1-0.4-0.1-0.5c-0.1-0.2-0.2-0.3-0.3-0.3c-0.1-0.1-0.3-0.1-0.5-0.1h-0.8v4.1
	c0,0.3,0,0.5,0.1,0.6c0.1,0.1,0.2,0.2,0.5,0.2h0.2v0.2h-2.3v-0.2h0.2c0.2,0,0.4-0.1,0.5-0.2c0.1-0.1,0.1-0.3,0.1-0.6v-4.1h-0.7
	c-0.3,0-0.4,0-0.6,0.1c-0.1,0-0.2,0.2-0.3,0.3c-0.1,0.1-0.2,0.3-0.2,0.6h-0.2l0.1-1.2H158.1z M159.7,57.4v0.8c0.3-0.5,0.6-0.8,1-0.8
	c0.1,0,0.3,0,0.4,0.1c0.1,0.1,0.2,0.2,0.2,0.3c0,0.1,0,0.2-0.1,0.3s-0.2,0.1-0.3,0.1s-0.2-0.1-0.3-0.1c-0.1-0.1-0.2-0.1-0.3-0.1
	c-0.1,0-0.1,0-0.2,0.1c-0.1,0.1-0.2,0.3-0.4,0.5v1.7c0,0.2,0,0.4,0.1,0.5c0,0.1,0.1,0.1,0.2,0.2c0.1,0,0.2,0.1,0.4,0.1v0.2h-1.9
	v-0.2c0.2,0,0.3,0,0.4-0.1c0.1-0.1,0.1-0.1,0.1-0.2c0-0.1,0-0.2,0-0.4v-1.4c0-0.4,0-0.7,0-0.8c0-0.1-0.1-0.1-0.1-0.2
	c-0.1,0-0.1-0.1-0.2-0.1c-0.1,0-0.2,0-0.3,0.1l0-0.1l1.1-0.4H159.7z M163.5,60.6c-0.4,0.3-0.6,0.5-0.7,0.5c-0.2,0.1-0.3,0.1-0.5,0.1
	c-0.3,0-0.5-0.1-0.6-0.2c-0.2-0.2-0.2-0.4-0.2-0.7c0-0.2,0-0.3,0.1-0.4c0.1-0.2,0.3-0.3,0.6-0.5c0.2-0.2,0.7-0.3,1.4-0.6v-0.1
	c0-0.4-0.1-0.6-0.2-0.7c-0.1-0.1-0.3-0.2-0.5-0.2c-0.1,0-0.3,0-0.4,0.1c-0.1,0.1-0.1,0.2-0.1,0.3l0,0.2c0,0.1,0,0.2-0.1,0.3
	c-0.1,0.1-0.1,0.1-0.2,0.1c-0.1,0-0.2,0-0.3-0.1c-0.1-0.1-0.1-0.2-0.1-0.3c0-0.2,0.1-0.4,0.4-0.6c0.2-0.2,0.6-0.3,1-0.3
	c0.3,0,0.6,0.1,0.8,0.2c0.1,0.1,0.3,0.2,0.3,0.4c0.1,0.1,0.1,0.3,0.1,0.7v1.2c0,0.3,0,0.5,0,0.6c0,0.1,0,0.1,0.1,0.2
	c0,0,0.1,0,0.1,0c0.1,0,0.1,0,0.1,0c0.1,0,0.2-0.1,0.3-0.3v0.2c-0.3,0.4-0.6,0.6-0.9,0.6c-0.1,0-0.2,0-0.3-0.1
	C163.6,60.9,163.5,60.8,163.5,60.6z M163.5,60.3v-1.4c-0.4,0.2-0.7,0.3-0.8,0.3c-0.2,0.1-0.4,0.2-0.5,0.4c-0.1,0.1-0.1,0.3-0.1,0.4
	c0,0.2,0.1,0.3,0.2,0.5c0.1,0.1,0.3,0.2,0.4,0.2C162.9,60.7,163.2,60.6,163.5,60.3z M166.2,58.2c0.4-0.5,0.8-0.8,1.2-0.8
	c0.2,0,0.4,0,0.5,0.2c0.1,0.1,0.2,0.3,0.3,0.5c0.1,0.1,0.1,0.4,0.1,0.7v1.5c0,0.2,0,0.4,0.1,0.5c0,0.1,0.1,0.1,0.2,0.2
	c0.1,0,0.2,0.1,0.4,0.1v0.2h-1.8v-0.2h0.1c0.2,0,0.3,0,0.3-0.1c0.1-0.1,0.1-0.1,0.2-0.2c0,0,0-0.2,0-0.4v-1.4c0-0.4-0.1-0.6-0.1-0.7
	c-0.1-0.1-0.2-0.2-0.5-0.2c-0.3,0-0.6,0.2-1,0.5v1.9c0,0.2,0,0.4,0,0.5c0,0.1,0.1,0.1,0.2,0.2c0.1,0,0.2,0.1,0.4,0.1v0.2H165v-0.2
	h0.1c0.2,0,0.3-0.1,0.4-0.1c0.1-0.1,0.1-0.3,0.1-0.5v-1.3c0-0.4,0-0.7,0-0.8c0-0.1-0.1-0.2-0.1-0.2c0,0-0.1-0.1-0.2-0.1
	c-0.1,0-0.2,0-0.2,0.1l-0.1-0.1l1.1-0.4h0.2V58.2z M171.7,57.4v1.2h-0.1c-0.1-0.4-0.2-0.7-0.4-0.8c-0.2-0.1-0.4-0.2-0.6-0.2
	c-0.2,0-0.3,0-0.5,0.1c-0.1,0.1-0.2,0.2-0.2,0.3c0,0.1,0.1,0.3,0.1,0.4c0.1,0.1,0.3,0.2,0.5,0.4l0.6,0.3c0.6,0.2,0.8,0.6,0.8,1
	c0,0.3-0.1,0.6-0.4,0.8c-0.2,0.2-0.5,0.3-0.9,0.3c-0.2,0-0.5,0-0.8-0.1c-0.1,0-0.2,0-0.2,0c-0.1,0-0.1,0-0.2,0.1h-0.1v-1.3h0.1
	c0.1,0.3,0.2,0.6,0.4,0.8c0.2,0.2,0.4,0.3,0.7,0.3c0.2,0,0.3-0.1,0.5-0.2c0.1-0.1,0.2-0.2,0.2-0.4c0-0.2-0.1-0.3-0.2-0.5
	c-0.1-0.1-0.4-0.3-0.8-0.5c-0.4-0.2-0.6-0.4-0.8-0.5s-0.2-0.3-0.2-0.6c0-0.3,0.1-0.5,0.3-0.8c0.2-0.2,0.5-0.3,0.8-0.3
	c0.1,0,0.3,0,0.5,0.1c0.1,0,0.2,0.1,0.3,0.1c0,0,0.1,0,0.1,0c0,0,0.1-0.1,0.1-0.1H171.7z M173.9,57.8v2.4c0,0.3,0,0.5,0.1,0.6
	c0.1,0.1,0.2,0.2,0.4,0.2h0.3v0.2h-2.2v-0.2h0.2c0.1,0,0.2,0,0.3-0.1c0.1-0.1,0.2-0.1,0.2-0.2s0.1-0.3,0.1-0.5v-2.4h-0.7v-0.3h0.7
	v-0.2c0-0.4,0.1-0.7,0.2-0.9c0.1-0.2,0.3-0.4,0.6-0.6c0.2-0.1,0.5-0.2,0.8-0.2c0.3,0,0.6,0.1,0.8,0.3c0.2,0.1,0.2,0.2,0.2,0.4
	c0,0.1-0.1,0.1-0.1,0.2c-0.1,0.1-0.1,0.1-0.2,0.1c-0.1,0-0.1,0-0.2,0c0-0.1-0.1-0.1-0.2-0.3c-0.1-0.1-0.2-0.2-0.3-0.3
	c-0.1,0-0.2-0.1-0.3-0.1c-0.1,0-0.2,0-0.3,0.1c-0.1,0.1-0.1,0.2-0.2,0.3c0,0.1-0.1,0.5-0.1,1.1v0.2h1v0.3H173.9z M177.1,57.4
	c0.6,0,1,0.2,1.4,0.6c0.3,0.4,0.4,0.8,0.4,1.2c0,0.3-0.1,0.6-0.2,1c-0.2,0.3-0.4,0.6-0.6,0.8c-0.3,0.2-0.6,0.2-0.9,0.2
	c-0.6,0-1-0.2-1.3-0.6c-0.3-0.4-0.4-0.8-0.4-1.2c0-0.3,0.1-0.7,0.2-1c0.2-0.3,0.4-0.6,0.7-0.7C176.5,57.5,176.8,57.4,177.1,57.4z
	 M177,57.6c-0.2,0-0.3,0-0.4,0.1c-0.1,0.1-0.2,0.2-0.3,0.4c-0.1,0.2-0.1,0.5-0.1,0.8c0,0.5,0.1,1,0.3,1.4c0.2,0.4,0.5,0.6,0.9,0.6
	c0.3,0,0.5-0.1,0.6-0.3c0.2-0.2,0.2-0.6,0.2-1.1c0-0.6-0.1-1.1-0.4-1.5C177.5,57.8,177.3,57.6,177,57.6z M180.5,57.4v0.8
	c0.3-0.5,0.6-0.8,1-0.8c0.1,0,0.3,0,0.4,0.1c0.1,0.1,0.1,0.2,0.1,0.3c0,0.1,0,0.2-0.1,0.3c-0.1,0.1-0.2,0.1-0.3,0.1
	c-0.1,0-0.2-0.1-0.3-0.1c-0.1-0.1-0.2-0.1-0.3-0.1c0,0-0.1,0-0.1,0.1c-0.1,0.1-0.2,0.3-0.4,0.5v1.7c0,0.2,0,0.4,0.1,0.5
	c0,0.1,0.1,0.1,0.2,0.2c0.1,0,0.2,0.1,0.4,0.1v0.2h-1.9v-0.2c0.2,0,0.3,0,0.4-0.1c0.1-0.1,0.1-0.1,0.1-0.2c0-0.1,0-0.2,0-0.4v-1.4
	c0-0.4,0-0.7,0-0.8c0-0.1,0-0.1-0.1-0.2c0,0-0.1-0.1-0.2-0.1c-0.1,0-0.2,0-0.3,0.1l-0.1-0.1l1.1-0.4H180.5z M183.3,58.2
	c0.3-0.3,0.4-0.4,0.5-0.4c0.1-0.1,0.2-0.2,0.4-0.2c0.1,0,0.3-0.1,0.4-0.1c0.2,0,0.4,0.1,0.6,0.2c0.2,0.1,0.3,0.3,0.4,0.6
	c0.3-0.3,0.5-0.5,0.7-0.6c0.2-0.1,0.4-0.2,0.6-0.2c0.2,0,0.4,0,0.5,0.2c0.1,0.1,0.3,0.3,0.4,0.5c0.1,0.1,0.1,0.4,0.1,0.7v1.5
	c0,0.2,0,0.4,0.1,0.5c0,0.1,0.1,0.1,0.2,0.2c0.1,0,0.2,0.1,0.4,0.1v0.2h-1.8v-0.2h0.1c0.2,0,0.3,0,0.4-0.1c0.1,0,0.1-0.1,0.1-0.2
	c0-0.1,0-0.2,0-0.4v-1.5c0-0.3,0-0.5-0.1-0.6c-0.1-0.2-0.3-0.2-0.5-0.2c-0.1,0-0.3,0-0.4,0.1c-0.1,0.1-0.3,0.2-0.5,0.4l0,0l0,0.2
	v1.7c0,0.2,0,0.4,0.1,0.5c0,0.1,0.1,0.1,0.2,0.2c0.1,0,0.2,0.1,0.4,0.1v0.2h-1.9v-0.2c0.2,0,0.4,0,0.4-0.1c0.1,0,0.1-0.1,0.2-0.2
	c0,0,0-0.2,0-0.4v-1.5c0-0.3,0-0.5-0.1-0.6c-0.1-0.2-0.3-0.3-0.5-0.3c-0.1,0-0.3,0-0.4,0.1c-0.2,0.1-0.4,0.2-0.5,0.4v1.9
	c0,0.2,0,0.4,0.1,0.5c0,0.1,0.1,0.1,0.1,0.2c0.1,0,0.2,0.1,0.4,0.1v0.2h-1.8v-0.2c0.2,0,0.3,0,0.4-0.1c0.1,0,0.1-0.1,0.2-0.2
	c0-0.1,0-0.2,0-0.5v-1.4c0-0.4,0-0.6,0-0.8c0-0.1-0.1-0.1-0.1-0.2c0,0-0.1-0.1-0.2-0.1c-0.1,0-0.2,0-0.3,0.1l-0.1-0.1l1.1-0.4h0.2
	V58.2z M189.3,58.8c0,0.5,0.1,0.9,0.4,1.3c0.3,0.3,0.6,0.4,0.9,0.4c0.2,0,0.5-0.1,0.6-0.2c0.2-0.1,0.3-0.4,0.5-0.7l0.1,0.1
	c-0.1,0.4-0.2,0.7-0.5,1c-0.3,0.3-0.6,0.4-1,0.4c-0.4,0-0.8-0.2-1.2-0.5c-0.3-0.3-0.5-0.8-0.5-1.4c0-0.6,0.2-1.1,0.5-1.4
	c0.3-0.3,0.7-0.5,1.2-0.5c0.4,0,0.8,0.1,1,0.4c0.2,0.3,0.4,0.6,0.4,1.1H189.3z M189.3,58.6h1.7c0-0.2-0.1-0.4-0.1-0.5
	c-0.1-0.2-0.2-0.3-0.3-0.3c-0.1-0.1-0.3-0.1-0.4-0.1c-0.2,0-0.4,0.1-0.6,0.2C189.4,58.1,189.3,58.3,189.3,58.6z M193.4,57.4v0.8
	c0.3-0.5,0.6-0.8,1-0.8c0.2,0,0.3,0,0.4,0.1c0.1,0.1,0.1,0.2,0.1,0.3c0,0.1,0,0.2-0.1,0.3c-0.1,0.1-0.2,0.1-0.2,0.1
	c-0.1,0-0.2-0.1-0.3-0.1c-0.1-0.1-0.2-0.1-0.3-0.1c0,0-0.1,0-0.2,0.1c-0.1,0.1-0.2,0.3-0.4,0.5v1.7c0,0.2,0,0.4,0.1,0.5
	c0,0.1,0.1,0.1,0.2,0.2c0.1,0,0.2,0.1,0.4,0.1v0.2h-1.9v-0.2c0.2,0,0.3,0,0.4-0.1c0.1-0.1,0.1-0.1,0.1-0.2c0-0.1,0-0.2,0-0.4v-1.4
	c0-0.4,0-0.7,0-0.8c0-0.1,0-0.1-0.1-0.2c0,0-0.1-0.1-0.2-0.1c-0.1,0-0.2,0-0.3,0.1l0-0.1l1.1-0.4H193.4"/>
<path class="st3" d="M315.6,83.9v0.2c-0.2,0-0.3,0.1-0.4,0.2c-0.1,0.1-0.3,0.3-0.4,0.6l-1.9,4.5h-0.1l-2.1-4.6
	c-0.1-0.2-0.2-0.4-0.2-0.4c-0.1-0.1-0.2-0.1-0.2-0.2c-0.1,0-0.2-0.1-0.4-0.1v-0.2h2.2v0.2c-0.2,0-0.4,0.1-0.5,0.1
	c-0.1,0.1-0.1,0.1-0.1,0.2c0,0.1,0.1,0.3,0.2,0.6l1.4,3.1l1.3-3.1c0.1-0.3,0.2-0.5,0.2-0.6c0-0.1,0-0.2-0.1-0.2
	c-0.1-0.1-0.2-0.1-0.4-0.1c0,0,0,0-0.1,0v-0.2H315.6z M317,85.5v0.8c0.3-0.5,0.6-0.8,1-0.8c0.1,0,0.3,0,0.4,0.1
	c0.1,0.1,0.1,0.2,0.1,0.3c0,0.1,0,0.2-0.1,0.3c-0.1,0.1-0.2,0.1-0.3,0.1c-0.1,0-0.2-0.1-0.3-0.1c-0.1-0.1-0.2-0.1-0.3-0.1
	c0,0-0.1,0-0.2,0.1c-0.1,0.1-0.2,0.3-0.4,0.5v1.7c0,0.2,0,0.3,0.1,0.4c0,0.1,0.1,0.1,0.2,0.2c0.1,0.1,0.2,0.1,0.4,0.1v0.1h-1.9v-0.1
	c0.2,0,0.3,0,0.4-0.1c0.1,0,0.1-0.1,0.1-0.2c0,0,0-0.2,0-0.4V87c0-0.4,0-0.7,0-0.7c0-0.1-0.1-0.1-0.1-0.2c-0.1,0-0.1-0.1-0.2-0.1
	c-0.1,0-0.2,0-0.3,0.1l0-0.1l1.1-0.4H317z M319.3,87c0,0.5,0.1,1,0.4,1.3c0.3,0.3,0.6,0.4,1,0.4c0.2,0,0.4-0.1,0.6-0.2
	c0.2-0.1,0.3-0.3,0.5-0.7l0.1,0.1c-0.1,0.4-0.2,0.7-0.5,1c-0.3,0.3-0.6,0.4-1,0.4c-0.4,0-0.8-0.2-1.1-0.5c-0.3-0.3-0.5-0.8-0.5-1.4
	c0-0.6,0.2-1.1,0.5-1.4c0.3-0.3,0.7-0.5,1.2-0.5c0.4,0,0.8,0.1,1,0.4c0.3,0.3,0.4,0.6,0.4,1.1H319.3z M319.3,86.8h1.7
	c0-0.2-0.1-0.4-0.1-0.5c-0.1-0.2-0.2-0.3-0.3-0.3c-0.1-0.1-0.3-0.1-0.4-0.1c-0.2,0-0.4,0.1-0.6,0.2
	C319.5,86.2,319.3,86.5,319.3,86.8z M323.8,85.9v2.4c0,0.3,0,0.5,0.1,0.6c0.1,0.1,0.2,0.2,0.4,0.2h0.3v0.1h-2.2v-0.1h0.2
	c0.1,0,0.2,0,0.3-0.1c0.1,0,0.1-0.1,0.2-0.2c0-0.1,0-0.3,0-0.5v-2.4h-0.7v-0.3h0.7v-0.2c0-0.4,0.1-0.7,0.2-0.9
	c0.1-0.2,0.3-0.4,0.6-0.6c0.2-0.1,0.5-0.2,0.8-0.2c0.3,0,0.5,0.1,0.8,0.3c0.2,0.1,0.2,0.2,0.2,0.4c0,0.1,0,0.2-0.1,0.2
	c-0.1,0.1-0.2,0.1-0.2,0.1c-0.1,0-0.1,0-0.2-0.1s-0.2-0.1-0.2-0.3c-0.1-0.1-0.2-0.2-0.3-0.3c-0.1-0.1-0.2-0.1-0.3-0.1
	c-0.1,0-0.2,0-0.3,0.1c-0.1,0.1-0.1,0.2-0.2,0.3c0,0.1-0.1,0.5-0.1,1v0.3h1v0.3H323.8"/>
<path class="st3" d="M313.5,102.4h-2.1l-0.4,0.8c-0.1,0.2-0.2,0.3-0.2,0.4c0,0.1,0,0.2,0.1,0.2c0.1,0.1,0.3,0.1,0.5,0.1v0.1h-1.7
	V104c0.2,0,0.4-0.1,0.4-0.1c0.1-0.1,0.3-0.4,0.4-0.8l1.9-4.4h0.1l1.9,4.4c0.1,0.4,0.3,0.6,0.4,0.7c0.1,0.1,0.3,0.2,0.5,0.2v0.1h-2.2
	V104c0.2,0,0.4,0,0.4-0.1c0.1-0.1,0.1-0.1,0.1-0.2c0-0.1-0.1-0.3-0.2-0.6L313.5,102.4z M313.3,102.1l-0.9-2.2l-1,2.2H313.3z
	 M319.2,100.6v2.2c0,0.4,0,0.7,0,0.8c0,0.1,0,0.1,0.1,0.2c0,0,0.1,0,0.1,0c0.1,0,0.2,0,0.3-0.1l0.1,0.1l-1.1,0.5h-0.2v-0.8
	c-0.3,0.3-0.6,0.5-0.7,0.6c-0.2,0.1-0.3,0.1-0.5,0.1c-0.2,0-0.4-0.1-0.5-0.2c-0.2-0.1-0.2-0.3-0.3-0.5c-0.1-0.2-0.1-0.4-0.1-0.8
	v-1.6c0-0.2,0-0.3-0.1-0.4c0-0.1-0.1-0.1-0.2-0.2c-0.1,0-0.2-0.1-0.4,0v-0.2h1.3v2.4c0,0.3,0.1,0.6,0.2,0.7c0.1,0.1,0.3,0.2,0.4,0.1
	c0.1,0,0.2,0,0.4-0.1c0.2-0.1,0.3-0.2,0.5-0.4v-2c0-0.2,0-0.3-0.1-0.4c-0.1-0.1-0.2-0.1-0.5-0.1v-0.2H319.2z M319.9,100.6h1.7v0.2
	c-0.1,0-0.2,0-0.2,0.1c-0.1,0-0.1,0.1-0.1,0.1c0,0.1,0.1,0.1,0.1,0.3c0,0,0.1,0.1,0.1,0.2l0.3,0.4l0.3-0.4c0.2-0.3,0.3-0.4,0.3-0.5
	c0,0,0-0.1-0.1-0.1c0,0-0.1-0.1-0.2-0.1v-0.2h1.3v0.2c-0.1,0-0.2,0-0.3,0.1c-0.1,0.1-0.3,0.3-0.5,0.6l-0.5,0.6l0.9,1.3
	c0.2,0.3,0.4,0.5,0.5,0.6c0.1,0.1,0.2,0.1,0.4,0.1v0.1h-1.8V104c0.1,0,0.2,0,0.3-0.1c0,0,0.1-0.1,0.1-0.1c0-0.1-0.1-0.2-0.3-0.4
	l-0.6-0.8l-0.6,0.8c-0.2,0.2-0.3,0.4-0.3,0.4c0,0.1,0,0.1,0.1,0.2c0.1,0,0.1,0.1,0.2,0.1v0.1H320V104c0.1,0,0.2-0.1,0.3-0.1
	c0.1-0.1,0.3-0.3,0.5-0.6l0.8-1l-0.7-1c-0.2-0.3-0.4-0.5-0.5-0.5c-0.1-0.1-0.2-0.1-0.4-0.1V100.6z M325,103.4c0.1,0,0.2,0,0.3,0.1
	c0.1,0.1,0.1,0.2,0.1,0.3s0,0.2-0.1,0.3c-0.1,0.1-0.2,0.1-0.3,0.1c-0.1,0-0.2-0.1-0.3-0.1c-0.1-0.1-0.1-0.2-0.1-0.3s0.1-0.2,0.1-0.3
	C324.8,103.4,324.9,103.4,325,103.4"/>
<g>
	<defs>
		<rect id="SVGID_1_" x="308.8" y="107.1" width="18.2" height="8"/>
	</defs>
	<clipPath id="SVGID_00000121959297943888096630000016992762519437914499_">
		<use xlink:href="#SVGID_1_"  style="overflow:visible;"/>
	</clipPath>
	<g style="clip-path:url(#SVGID_00000121959297943888096630000016992762519437914499_);">
		<path class="st3" d="M312.1,112.9v0.1h-2.4v-0.1h0.2c0.2,0,0.4-0.1,0.5-0.2c0.1-0.1,0.1-0.3,0.1-0.6v-3.4c0-0.3,0-0.4,0-0.5
			c0-0.1-0.1-0.1-0.2-0.2c-0.1-0.1-0.2-0.1-0.4-0.1h-0.2v-0.1h2.4v0.1h-0.2c-0.2,0-0.4,0.1-0.5,0.2c-0.1,0.1-0.1,0.3-0.1,0.6v3.4
			c0,0.3,0,0.4,0,0.5c0,0.1,0.1,0.1,0.2,0.2c0.1,0.1,0.2,0.1,0.4,0.1H312.1z M313.6,110.1c0.4-0.5,0.9-0.8,1.2-0.8
			c0.2,0,0.4,0.1,0.5,0.2c0.2,0.1,0.3,0.2,0.3,0.5c0.1,0.2,0.1,0.4,0.1,0.7v1.5c0,0.2,0,0.4,0.1,0.5c0,0.1,0.1,0.1,0.2,0.1
			c0,0,0.2,0.1,0.3,0.1v0.1h-1.8v-0.1h0.1c0.2,0,0.3,0,0.4-0.1s0.1-0.1,0.2-0.2c0-0.1,0-0.2,0-0.4v-1.5c0-0.3,0-0.6-0.1-0.7
			c-0.1-0.1-0.2-0.2-0.5-0.2c-0.3,0-0.6,0.2-0.9,0.5v1.9c0,0.2,0,0.4,0,0.5c0.1,0.1,0.1,0.1,0.2,0.2c0.1,0,0.2,0.1,0.4,0.1v0.1h-1.8
			v-0.1h0.1c0.2,0,0.3,0,0.4-0.1c0.1-0.1,0.1-0.3,0.1-0.5v-1.3c0-0.4,0-0.7,0-0.8c0-0.1-0.1-0.2-0.1-0.2c-0.1,0-0.1-0.1-0.2-0.1
			s-0.2,0-0.3,0.1l-0.1-0.1l1.1-0.4h0.2V110.1z M316.4,109.8l1.1-0.4h0.2v0.8c0.2-0.3,0.4-0.5,0.6-0.7c0.2-0.1,0.4-0.2,0.6-0.2
			c0.4,0,0.7,0.1,0.9,0.4c0.3,0.3,0.5,0.8,0.5,1.3c0,0.6-0.2,1.1-0.6,1.5c-0.3,0.3-0.7,0.5-1.1,0.5c-0.2,0-0.4,0-0.5-0.1
			c-0.1,0-0.2-0.1-0.4-0.2v1.1c0,0.2,0,0.4,0,0.5c0,0.1,0.1,0.1,0.2,0.2c0.1,0,0.2,0.1,0.4,0.1v0.1h-1.9v-0.1h0.1
			c0.1,0,0.3,0,0.4-0.1c0.1,0,0.1-0.1,0.1-0.1c0-0.1,0.1-0.2,0.1-0.5v-3.4c0-0.2,0-0.4,0-0.4c0-0.1-0.1-0.1-0.1-0.1c0,0-0.1,0-0.2,0
			c-0.1,0-0.2,0-0.3,0L316.4,109.8z M317.7,110.4v1.3c0,0.3,0,0.5,0,0.6c0,0.2,0.1,0.3,0.3,0.4c0.1,0.1,0.3,0.2,0.6,0.2
			c0.3,0,0.5-0.1,0.6-0.3c0.2-0.3,0.3-0.6,0.3-1.1c0-0.6-0.1-1-0.4-1.3c-0.2-0.2-0.4-0.3-0.6-0.3c-0.1,0-0.3,0-0.4,0.1
			C318.1,110.1,318,110.2,317.7,110.4z M324.1,109.5v2.2c0,0.4,0,0.7,0,0.8c0,0.1,0.1,0.2,0.1,0.2c0,0,0.1,0.1,0.2,0.1
			c0.1,0,0.2,0,0.3-0.1l0.1,0.1l-1.1,0.5h-0.2v-0.8c-0.3,0.3-0.6,0.5-0.7,0.6c-0.2,0.1-0.3,0.1-0.5,0.1s-0.4-0.1-0.5-0.2
			c-0.1-0.1-0.2-0.3-0.3-0.5c-0.1-0.2-0.1-0.4-0.1-0.8v-1.6c0-0.2,0-0.3-0.1-0.4c0-0.1-0.1-0.1-0.2-0.2c-0.1,0-0.2,0-0.4,0v-0.2h1.3
			v2.4c0,0.3,0.1,0.6,0.2,0.7c0.1,0.1,0.3,0.1,0.4,0.1c0.1,0,0.2,0,0.4-0.1c0.1-0.1,0.3-0.2,0.5-0.4v-2c0-0.2-0.1-0.3-0.1-0.4
			c-0.1-0.1-0.2-0.1-0.5-0.1v-0.2H324.1z M326.1,108.3v1.2h0.9v0.3h-0.9v2.3c0,0.2,0,0.4,0.1,0.5c0.1,0.1,0.2,0.1,0.3,0.1
			c0.1,0,0.2,0,0.3-0.1c0.1-0.1,0.1-0.1,0.2-0.2h0.1c-0.1,0.3-0.2,0.4-0.4,0.6c-0.2,0.1-0.4,0.2-0.5,0.2c-0.1,0-0.2,0-0.4-0.1
			c-0.1-0.1-0.2-0.2-0.3-0.3c0-0.1-0.1-0.3-0.1-0.6v-2.4h-0.6v-0.1c0.1-0.1,0.3-0.2,0.5-0.3c0.1-0.1,0.3-0.3,0.4-0.5
			c0.1-0.1,0.2-0.3,0.2-0.5H326.1"/>
	</g>
</g>
<path class="st3" d="M250.4,144.6v1.6c0,0.3,0,0.5,0.1,0.6c0.1,0.1,0.2,0.2,0.5,0.2h0.2v0.1h-2.4V147h0.2c0.2,0,0.4-0.1,0.5-0.2
	c0.1-0.1,0.1-0.3,0.1-0.6v-3.4c0-0.3,0-0.5-0.1-0.6c-0.1-0.1-0.3-0.2-0.5-0.2h-0.2v-0.1h2c0.5,0,0.9,0,1.2,0.1
	c0.3,0.1,0.5,0.3,0.7,0.5c0.2,0.2,0.3,0.5,0.3,0.8c0,0.4-0.2,0.8-0.5,1.1c-0.3,0.3-0.7,0.4-1.3,0.4c-0.1,0-0.3,0-0.4,0
	C250.8,144.7,250.6,144.7,250.4,144.6z M250.4,144.4c0.1,0,0.3,0,0.4,0.1c0.1,0,0.2,0,0.3,0c0.3,0,0.5-0.1,0.7-0.3
	c0.2-0.2,0.3-0.5,0.3-0.8c0-0.2,0-0.4-0.1-0.6c-0.1-0.2-0.2-0.3-0.4-0.4c-0.2-0.1-0.4-0.1-0.6-0.1c-0.1,0-0.3,0-0.5,0.1V144.4z
	 M255.7,146.6c-0.4,0.3-0.6,0.4-0.7,0.5c-0.1,0.1-0.3,0.1-0.5,0.1c-0.2,0-0.5-0.1-0.6-0.2c-0.2-0.2-0.2-0.4-0.2-0.7
	c0-0.2,0-0.3,0.1-0.5c0.1-0.2,0.3-0.3,0.6-0.5c0.3-0.2,0.7-0.3,1.4-0.6v-0.1c0-0.4-0.1-0.6-0.2-0.7c-0.1-0.1-0.3-0.2-0.5-0.2
	c-0.2,0-0.3,0.1-0.4,0.1c-0.1,0.1-0.1,0.2-0.1,0.3v0.2c0,0.1,0,0.2-0.1,0.3c-0.1,0.1-0.2,0.1-0.3,0.1s-0.2,0-0.2-0.1
	c-0.1-0.1-0.1-0.2-0.1-0.3c0-0.2,0.1-0.4,0.3-0.6c0.2-0.2,0.6-0.3,1-0.3c0.3,0,0.6,0,0.8,0.1c0.2,0.1,0.3,0.2,0.4,0.4
	c0,0.1,0.1,0.3,0.1,0.7v1.2c0,0.4,0,0.6,0,0.6c0,0.1,0,0.1,0.1,0.2c0,0,0.1,0,0.1,0s0.1,0,0.1,0c0.1,0,0.2-0.1,0.3-0.3v0.2
	c-0.3,0.4-0.6,0.6-0.9,0.6c-0.1,0-0.2-0.1-0.3-0.1C255.8,147,255.7,146.8,255.7,146.6z M255.7,146.4V145c-0.4,0.2-0.7,0.3-0.8,0.3
	c-0.2,0.1-0.4,0.2-0.4,0.4c-0.1,0.1-0.2,0.2-0.2,0.4c0,0.2,0.1,0.3,0.2,0.5c0.1,0.1,0.3,0.2,0.4,0.2
	C255.1,146.7,255.4,146.6,255.7,146.4z M258.4,143.4v0.8c0.3-0.6,0.6-0.8,0.9-0.8c0.2,0,0.3,0,0.4,0.1c0.1,0.1,0.1,0.2,0.1,0.3
	c0,0.1,0,0.2-0.1,0.3s-0.1,0.1-0.2,0.1c-0.1,0-0.2,0-0.3-0.1c-0.1-0.1-0.2-0.1-0.3-0.1c-0.1,0-0.1,0-0.2,0.1
	c-0.1,0.1-0.3,0.3-0.4,0.5v1.7c0,0.2,0,0.3,0.1,0.4c0,0.1,0.1,0.1,0.2,0.2c0.1,0,0.2,0.1,0.4,0.1v0.1h-1.9V147c0.2,0,0.4,0,0.4-0.1
	c0,0,0.1-0.1,0.1-0.2c0,0,0-0.2,0-0.4v-1.4c0-0.4,0-0.7,0-0.8c0-0.1,0-0.1-0.1-0.2c0,0-0.1-0.1-0.2-0.1c-0.1,0-0.2,0-0.3,0.1l0-0.1
	l1.1-0.4H258.4z M262.2,146.6c-0.4,0.3-0.6,0.4-0.7,0.5c-0.1,0.1-0.3,0.1-0.5,0.1c-0.3,0-0.5-0.1-0.6-0.2c-0.2-0.2-0.2-0.4-0.2-0.7
	c0-0.2,0-0.3,0.1-0.5c0.1-0.2,0.3-0.3,0.6-0.5c0.3-0.2,0.7-0.3,1.4-0.6v-0.1c0-0.4-0.1-0.6-0.2-0.7c-0.1-0.1-0.3-0.2-0.5-0.2
	c-0.2,0-0.3,0.1-0.4,0.1c-0.1,0.1-0.2,0.2-0.2,0.3v0.2c0,0.1,0,0.2-0.1,0.3c-0.1,0.1-0.1,0.1-0.2,0.1c-0.1,0-0.2,0-0.2-0.1
	c-0.1-0.1-0.1-0.2-0.1-0.3c0-0.2,0.1-0.4,0.4-0.6c0.2-0.2,0.6-0.3,1-0.3c0.3,0,0.6,0,0.8,0.1c0.2,0.1,0.3,0.2,0.4,0.4
	c0.1,0.1,0.1,0.3,0.1,0.7v1.2c0,0.4,0,0.6,0,0.6c0,0.1,0,0.1,0.1,0.2c0,0,0.1,0,0.1,0c0.1,0,0.1,0,0.1,0c0.1,0,0.2-0.1,0.3-0.3v0.2
	c-0.3,0.4-0.6,0.6-0.9,0.6c-0.1,0-0.2-0.1-0.3-0.1C262.2,147,262.2,146.8,262.2,146.6z M262.2,146.4V145c-0.4,0.2-0.7,0.3-0.8,0.3
	c-0.2,0.1-0.4,0.2-0.4,0.4c-0.1,0.1-0.1,0.2-0.1,0.4c0,0.2,0,0.3,0.2,0.5s0.2,0.2,0.4,0.2C261.6,146.7,261.8,146.6,262.2,146.4z
	 M264.9,144.2c0.3-0.2,0.4-0.4,0.5-0.4c0.1-0.1,0.2-0.2,0.4-0.2c0.1-0.1,0.3-0.1,0.4-0.1c0.2,0,0.4,0.1,0.6,0.2
	c0.2,0.1,0.3,0.3,0.3,0.6c0.3-0.3,0.5-0.5,0.7-0.6c0.2-0.1,0.4-0.1,0.6-0.1c0.2,0,0.4,0,0.5,0.1c0.1,0.1,0.3,0.3,0.3,0.5
	c0.1,0.1,0.1,0.4,0.1,0.7v1.6c0,0.2,0,0.4,0.1,0.5c0,0.1,0.1,0.1,0.1,0.2c0.1,0,0.2,0.1,0.4,0.1v0.1h-1.8V147h0.1
	c0.1,0,0.3,0,0.3-0.1c0.1-0.1,0.1-0.1,0.2-0.2c0-0.1,0-0.2,0-0.4v-1.6c0-0.3-0.1-0.5-0.1-0.6c-0.1-0.2-0.3-0.2-0.5-0.2
	c-0.1,0-0.3,0.1-0.4,0.1c-0.2,0.1-0.3,0.2-0.5,0.4l0,0.1l0,0.2v1.7c0,0.2,0,0.4,0,0.4c0,0.1,0.1,0.1,0.2,0.2c0.1,0,0.2,0.1,0.4,0.1
	v0.1h-1.9V147c0.2,0,0.3,0,0.4-0.1c0.1-0.1,0.1-0.1,0.2-0.2c0,0,0-0.2,0-0.4v-1.6c0-0.3-0.1-0.5-0.1-0.6c-0.1-0.2-0.3-0.3-0.5-0.3
	c-0.2,0-0.3,0-0.4,0.1c-0.2,0.1-0.4,0.2-0.5,0.4v1.9c0,0.2,0,0.4,0.1,0.4c0,0.1,0.1,0.1,0.2,0.2c0.1,0,0.2,0.1,0.4,0.1v0.1h-1.9V147
	c0.2,0,0.3,0,0.4-0.1c0.1,0,0.1-0.1,0.1-0.2c0.1-0.1,0.1-0.2,0.1-0.4v-1.4c0-0.4,0-0.7,0-0.8c0-0.1,0-0.1-0.1-0.2
	c0,0-0.1-0.1-0.2-0.1c-0.1,0-0.2,0-0.3,0.1l-0.1-0.1l1.1-0.4h0.2V144.2z M270.9,144.9c0,0.5,0.1,0.9,0.4,1.3c0.3,0.3,0.6,0.4,1,0.4
	c0.2,0,0.5-0.1,0.6-0.2c0.2-0.1,0.3-0.4,0.5-0.7l0.1,0.1c0,0.4-0.2,0.7-0.5,1c-0.3,0.3-0.6,0.4-1,0.4c-0.4,0-0.8-0.2-1.1-0.5
	c-0.3-0.3-0.5-0.8-0.5-1.4c0-0.6,0.2-1.1,0.5-1.4c0.3-0.4,0.7-0.5,1.2-0.5c0.4,0,0.8,0.1,1,0.4c0.3,0.3,0.4,0.6,0.4,1.1H270.9z
	 M270.9,144.7h1.7c0-0.2-0.1-0.4-0.1-0.5c-0.1-0.2-0.2-0.3-0.3-0.4c-0.1-0.1-0.3-0.1-0.4-0.1c-0.2,0-0.4,0.1-0.6,0.2
	C271,144.1,270.9,144.4,270.9,144.7z M275,142.4v1.2h0.9v0.3H275v2.3c0,0.2,0,0.4,0.1,0.5c0.1,0.1,0.2,0.1,0.3,0.1
	c0.1,0,0.2,0,0.3-0.1c0.1-0.1,0.1-0.1,0.2-0.2h0.2c-0.1,0.3-0.2,0.4-0.4,0.6c-0.2,0.1-0.3,0.2-0.5,0.2c-0.1,0-0.2,0-0.4-0.1
	c-0.1-0.1-0.2-0.2-0.3-0.3c-0.1-0.1-0.1-0.3-0.1-0.6v-2.4h-0.6v-0.1c0.2-0.1,0.3-0.2,0.5-0.3c0.2-0.1,0.3-0.3,0.4-0.5
	c0.1-0.1,0.1-0.3,0.3-0.6H275z M276.9,144.9c0,0.5,0.1,0.9,0.4,1.3c0.3,0.3,0.6,0.4,1,0.4c0.2,0,0.5-0.1,0.6-0.2
	c0.2-0.1,0.3-0.4,0.5-0.7l0.1,0.1c-0.1,0.4-0.2,0.7-0.5,1c-0.3,0.3-0.6,0.4-1,0.4c-0.4,0-0.8-0.2-1.2-0.5c-0.3-0.3-0.5-0.8-0.5-1.4
	c0-0.6,0.2-1.1,0.5-1.4c0.3-0.4,0.7-0.5,1.2-0.5c0.4,0,0.8,0.1,1,0.4c0.3,0.3,0.4,0.6,0.4,1.1H276.9z M276.9,144.7h1.7
	c0-0.2-0.1-0.4-0.1-0.5c-0.1-0.2-0.2-0.3-0.3-0.4c-0.1-0.1-0.3-0.1-0.4-0.1c-0.2,0-0.4,0.1-0.6,0.2
	C277,144.1,276.9,144.4,276.9,144.7z M281,143.4v0.8c0.3-0.6,0.6-0.8,1-0.8c0.1,0,0.3,0,0.4,0.1c0.1,0.1,0.2,0.2,0.2,0.3
	c0,0.1,0,0.2-0.1,0.3s-0.2,0.1-0.2,0.1c-0.1,0-0.2,0-0.3-0.1c-0.1-0.1-0.2-0.1-0.3-0.1c0,0-0.1,0-0.1,0.1c-0.1,0.1-0.3,0.3-0.4,0.5
	v1.7c0,0.2,0,0.3,0.1,0.4c0,0.1,0.1,0.1,0.2,0.2c0.1,0,0.2,0.1,0.4,0.1v0.1h-1.9V147c0.2,0,0.3,0,0.4-0.1c0.1,0,0.1-0.1,0.1-0.2
	c0,0,0-0.2,0-0.4v-1.4c0-0.4,0-0.7,0-0.8c0-0.1-0.1-0.1-0.1-0.2c-0.1,0-0.1-0.1-0.2-0.1c-0.1,0-0.2,0-0.3,0.1l0-0.1l1.1-0.4H281"/>
<path class="st3" d="M257.5,150.6v1.8h-0.1c0-0.3-0.1-0.6-0.3-0.8c-0.1-0.2-0.3-0.4-0.5-0.5c-0.2-0.1-0.5-0.2-0.7-0.2
	c-0.3,0-0.5,0.1-0.7,0.2c-0.2,0.2-0.3,0.4-0.3,0.6c0,0.2,0.1,0.3,0.2,0.4c0.2,0.2,0.6,0.5,1.2,0.8c0.5,0.3,0.9,0.5,1.1,0.6
	c0.2,0.1,0.3,0.3,0.4,0.5c0.1,0.2,0.2,0.4,0.2,0.6c0,0.4-0.2,0.8-0.5,1c-0.3,0.3-0.7,0.4-1.2,0.4c-0.2,0-0.3,0-0.5,0
	c-0.1,0-0.3-0.1-0.5-0.1c-0.3-0.1-0.4-0.1-0.5-0.1s-0.1,0-0.1,0.1c-0.1,0-0.1,0.1-0.1,0.2h-0.1v-1.8h0.1c0.1,0.4,0.2,0.7,0.3,0.9
	c0.1,0.2,0.3,0.4,0.5,0.5c0.2,0.1,0.5,0.2,0.8,0.2c0.3,0,0.6-0.1,0.8-0.3c0.2-0.2,0.3-0.4,0.3-0.6c0-0.1,0-0.3-0.1-0.4
	c-0.1-0.1-0.2-0.3-0.4-0.4c-0.1-0.1-0.4-0.2-0.9-0.5c-0.5-0.2-0.8-0.5-1-0.6c-0.2-0.1-0.3-0.3-0.4-0.5c-0.1-0.2-0.1-0.4-0.1-0.6
	c0-0.4,0.1-0.7,0.4-1c0.3-0.3,0.7-0.4,1.2-0.4c0.3,0,0.6,0.1,0.9,0.2c0.2,0.1,0.3,0.1,0.3,0.1c0.1,0,0.1,0,0.2-0.1
	c0,0,0.1-0.1,0.1-0.2H257.5z M259.2,153.8c0,0.5,0.1,1,0.4,1.3c0.3,0.3,0.6,0.4,1,0.4c0.2,0,0.5-0.1,0.6-0.2s0.3-0.3,0.4-0.7
	l0.1,0.1c-0.1,0.4-0.2,0.7-0.5,1c-0.3,0.3-0.6,0.5-1,0.5c-0.5,0-0.8-0.2-1.2-0.5c-0.3-0.4-0.5-0.8-0.5-1.4c0-0.6,0.2-1.1,0.5-1.4
	c0.3-0.3,0.7-0.5,1.2-0.5c0.4,0,0.8,0.1,1,0.4c0.3,0.3,0.4,0.6,0.4,1.1H259.2z M259.2,153.5h1.7c0-0.2,0-0.4-0.1-0.5
	c-0.1-0.1-0.2-0.3-0.3-0.3c-0.1-0.1-0.3-0.1-0.4-0.1c-0.2,0-0.4,0.1-0.6,0.3C259.3,153,259.2,153.2,259.2,153.5z M263.4,151.2v1.2
	h0.9v0.3h-0.9v2.3c0,0.2,0,0.4,0.1,0.5c0.1,0.1,0.1,0.1,0.3,0.1c0.1,0,0.2,0,0.2-0.1c0.1-0.1,0.2-0.1,0.2-0.2h0.2
	c-0.1,0.3-0.2,0.4-0.4,0.6c-0.2,0.1-0.3,0.2-0.5,0.2c-0.1,0-0.2,0-0.4-0.1c-0.1-0.1-0.2-0.2-0.3-0.3c-0.1-0.1-0.1-0.3-0.1-0.6v-2.4
	h-0.6v-0.1c0.1-0.1,0.3-0.2,0.4-0.3c0.2-0.1,0.3-0.3,0.4-0.5c0.1-0.1,0.2-0.3,0.3-0.5H263.4z M265.7,151.2v1.2h0.9v0.3h-0.9v2.3
	c0,0.2,0,0.4,0.1,0.5c0.1,0.1,0.2,0.1,0.3,0.1c0.1,0,0.2,0,0.3-0.1c0.1-0.1,0.2-0.1,0.2-0.2h0.2c-0.1,0.3-0.2,0.4-0.4,0.6
	c-0.2,0.1-0.4,0.2-0.5,0.2c-0.1,0-0.2,0-0.4-0.1c-0.1-0.1-0.2-0.2-0.3-0.3c-0.1-0.1-0.1-0.3-0.1-0.6v-2.4h-0.6v-0.1
	c0.2-0.1,0.3-0.2,0.5-0.3c0.2-0.1,0.3-0.3,0.4-0.5c0.1-0.1,0.1-0.3,0.3-0.5H265.7z M267.8,150.4c0.1,0,0.2,0,0.3,0.1
	c0.1,0.1,0.1,0.2,0.1,0.3s-0.1,0.2-0.1,0.3c-0.1,0.1-0.2,0.1-0.3,0.1c-0.1,0-0.2,0-0.3-0.1c-0.1-0.1-0.1-0.2-0.1-0.3s0-0.2,0.1-0.3
	C267.6,150.5,267.7,150.4,267.8,150.4z M268.2,152.3v2.9c0,0.2,0,0.4,0,0.4c0,0.1,0.1,0.1,0.1,0.2c0.1,0,0.2,0.1,0.4,0.1v0.1h-1.8
	v-0.1c0.2,0,0.3,0,0.4-0.1c0.1,0,0.1-0.1,0.2-0.2c0-0.1,0.1-0.2,0.1-0.4v-1.4c0-0.4,0-0.7,0-0.8c0-0.1,0-0.1-0.1-0.2
	c-0.1,0-0.1-0.1-0.2-0.1c-0.1,0-0.2,0-0.3,0.1l-0.1-0.1l1.1-0.4H268.2z M270.3,153.1c0.4-0.5,0.8-0.8,1.2-0.8c0.2,0,0.4,0.1,0.5,0.1
	c0.1,0.1,0.3,0.2,0.3,0.5c0.1,0.2,0.1,0.4,0.1,0.7v1.5c0,0.2,0,0.4,0,0.5c0,0.1,0.1,0.1,0.2,0.2c0.1,0,0.2,0.1,0.4,0.1v0.1h-1.8
	v-0.1h0.1c0.2,0,0.3,0,0.4-0.1c0.1-0.1,0.1-0.1,0.1-0.2c0,0,0-0.2,0-0.4v-1.5c0-0.3,0-0.6-0.1-0.7c-0.1-0.1-0.2-0.2-0.4-0.2
	c-0.3,0-0.6,0.2-0.9,0.5v1.9c0,0.2,0,0.4,0,0.4c0,0.1,0.1,0.1,0.1,0.2c0.1,0,0.2,0.1,0.4,0.1v0.1h-1.8v-0.1h0.1
	c0.2,0,0.3-0.1,0.4-0.1c0.1-0.1,0.1-0.3,0.1-0.5v-1.3c0-0.4,0-0.7,0-0.8c0-0.1,0-0.1-0.1-0.2c0,0-0.1-0.1-0.2-0.1
	c-0.1,0-0.2,0-0.3,0.1l-0.1-0.1l1.1-0.4h0.2V153.1z M274.4,154.7c-0.2-0.1-0.4-0.2-0.5-0.4c-0.1-0.2-0.2-0.4-0.2-0.6
	c0-0.4,0.1-0.7,0.4-0.9c0.3-0.2,0.6-0.4,1.1-0.4c0.4,0,0.7,0.1,0.9,0.2h0.8c0.1,0,0.2,0,0.2,0c0,0,0,0,0.1,0c0,0,0,0.1,0,0.1
	s0,0.1,0,0.1c0,0,0,0-0.1,0c0,0-0.1,0-0.2,0h-0.5c0.1,0.2,0.2,0.4,0.2,0.7c0,0.3-0.1,0.6-0.4,0.9c-0.3,0.2-0.6,0.4-1.1,0.4
	c-0.2,0-0.4,0-0.6-0.1c-0.1,0.1-0.2,0.2-0.2,0.3c0,0.1,0,0.1,0,0.2c0,0,0,0.1,0.1,0.1c0,0,0.1,0.1,0.3,0.1c0.1,0,0.3,0,0.6,0
	c0.6,0,0.9,0,1.1,0.1c0.2,0,0.4,0.1,0.6,0.3c0.1,0.1,0.2,0.3,0.2,0.5c0,0.3-0.1,0.6-0.4,0.8c-0.4,0.4-1,0.6-1.7,0.6
	c-0.5,0-1-0.1-1.3-0.3c-0.2-0.1-0.3-0.3-0.3-0.4c0-0.1,0-0.1,0-0.2c0-0.1,0.2-0.2,0.3-0.4c0,0,0.2-0.2,0.4-0.4
	c-0.1-0.1-0.2-0.1-0.3-0.2c-0.1-0.1-0.1-0.1-0.1-0.2c0-0.1,0.1-0.2,0.1-0.3C273.9,155.1,274.1,154.9,274.4,154.7z M275.1,152.5
	c-0.2,0-0.4,0.1-0.5,0.2c-0.1,0.2-0.2,0.4-0.2,0.7c0,0.4,0.1,0.7,0.3,1c0.1,0.2,0.3,0.3,0.5,0.3c0.2,0,0.4-0.1,0.5-0.2
	c0.1-0.2,0.2-0.4,0.2-0.7c0-0.4-0.1-0.7-0.3-1C275.5,152.6,275.3,152.5,275.1,152.5z M274.3,156c-0.1,0.1-0.2,0.3-0.3,0.4
	c-0.1,0.1-0.1,0.2-0.1,0.3c0,0.1,0.1,0.2,0.2,0.3c0.3,0.2,0.7,0.2,1.2,0.2c0.5,0,0.8-0.1,1.1-0.2c0.2-0.2,0.4-0.4,0.4-0.5
	c0-0.1-0.1-0.2-0.2-0.3c-0.1-0.1-0.4-0.1-0.8-0.1C275.1,156.1,274.7,156,274.3,156"/>
<g>
	<defs>
		<rect id="SVGID_00000076580302471792815060000012621818321572627595_" x="74.8" y="179.1" width="16" height="5.7"/>
	</defs>
	<clipPath id="SVGID_00000169544582445846402380000010221546517899984809_">
		<use xlink:href="#SVGID_00000076580302471792815060000012621818321572627595_"  style="overflow:visible;"/>
	</clipPath>
	<g style="clip-path:url(#SVGID_00000169544582445846402380000010221546517899984809_);">
		<path class="st3" d="M79.8,179.4l0.1,1.2h-0.1c0-0.2-0.1-0.4-0.1-0.5c-0.1-0.1-0.2-0.3-0.3-0.3s-0.3-0.1-0.5-0.1h-0.8v4.1
			c0,0.3,0,0.5,0.1,0.6c0.1,0.1,0.3,0.2,0.5,0.2h0.2v0.2h-2.3v-0.2h0.2c0.2,0,0.4-0.1,0.5-0.2c0.1-0.1,0.1-0.3,0.1-0.6v-4.1h-0.7
			c-0.3,0-0.4,0-0.6,0.1c-0.1,0.1-0.3,0.1-0.4,0.3c-0.1,0.1-0.2,0.3-0.2,0.6h-0.2l0.1-1.2H79.8z M83.9,179.3v1.8h-0.1
			c-0.1-0.4-0.1-0.6-0.3-0.9c-0.1-0.2-0.3-0.4-0.5-0.5c-0.2-0.1-0.5-0.2-0.7-0.2c-0.3,0-0.5,0.1-0.7,0.2c-0.2,0.2-0.3,0.4-0.3,0.6
			c0,0.2,0.1,0.3,0.2,0.4c0.2,0.2,0.6,0.5,1.2,0.8c0.5,0.3,0.9,0.5,1.1,0.6c0.2,0.1,0.3,0.3,0.4,0.5s0.2,0.4,0.2,0.6
			c0,0.4-0.2,0.7-0.5,1c-0.3,0.3-0.7,0.4-1.2,0.4c-0.2,0-0.3,0-0.5,0c-0.1,0-0.2-0.1-0.5-0.1c-0.3-0.1-0.4-0.1-0.5-0.1
			s-0.1,0-0.2,0.1c0,0-0.1,0.1-0.1,0.2h-0.1V183h0.1c0.1,0.4,0.2,0.7,0.3,0.9c0.1,0.2,0.3,0.3,0.5,0.5c0.2,0.1,0.5,0.2,0.8,0.2
			c0.3,0,0.6-0.1,0.8-0.3c0.2-0.2,0.3-0.4,0.3-0.6c0-0.1,0-0.3-0.1-0.4c-0.1-0.1-0.2-0.2-0.3-0.4c-0.1-0.1-0.4-0.2-0.9-0.5
			c-0.5-0.2-0.8-0.5-1-0.6c-0.2-0.2-0.3-0.3-0.5-0.5c-0.1-0.2-0.1-0.4-0.1-0.6c0-0.4,0.1-0.7,0.4-1c0.3-0.3,0.7-0.4,1.2-0.4
			c0.3,0,0.6,0.1,0.9,0.2c0.2,0.1,0.3,0.1,0.3,0.1c0.1,0,0.1,0,0.2-0.1c0,0,0.1-0.1,0.1-0.2H83.9z M89.7,179.3l0.1,1.8h-0.1
			c-0.2-0.5-0.4-0.9-0.7-1.2c-0.3-0.2-0.7-0.4-1.1-0.4c-0.4,0-0.7,0.1-1,0.3c-0.3,0.2-0.5,0.5-0.7,0.9c-0.2,0.4-0.2,0.9-0.2,1.5
			c0,0.5,0.1,0.9,0.2,1.2c0.2,0.4,0.4,0.6,0.7,0.8c0.3,0.2,0.7,0.3,1.1,0.3c0.3,0,0.7-0.1,0.9-0.2c0.3-0.1,0.6-0.4,0.9-0.9l0.1,0.1
			c-0.3,0.5-0.6,0.8-1,1c-0.4,0.2-0.8,0.3-1.3,0.3c-0.9,0-1.6-0.3-2.1-1c-0.4-0.5-0.6-1.1-0.6-1.7c0-0.5,0.1-1,0.4-1.5
			c0.2-0.4,0.6-0.8,1-1c0.4-0.2,0.9-0.4,1.4-0.4c0.4,0,0.8,0.1,1.2,0.3c0.1,0.1,0.2,0.1,0.2,0.1c0.1,0,0.1,0,0.2-0.1
			c0.1-0.1,0.1-0.2,0.1-0.3H89.7"/>
	</g>
</g>
<g>
	<defs>
		<rect id="SVGID_00000149365603917422872810000000564652154396687540_" x="178.8" y="179.1" width="17" height="5.7"/>
	</defs>
	<clipPath id="SVGID_00000174594474463341522070000005206825213402860216_">
		<use xlink:href="#SVGID_00000149365603917422872810000000564652154396687540_"  style="overflow:visible;"/>
	</clipPath>
	<g style="clip-path:url(#SVGID_00000174594474463341522070000005206825213402860216_);">
		<path class="st3" d="M183.9,179.4l0.1,1.2h-0.1c0-0.2-0.1-0.4-0.1-0.5c-0.1-0.1-0.2-0.3-0.3-0.3c-0.1-0.1-0.3-0.1-0.5-0.1h-0.8
			v4.1c0,0.3,0,0.5,0.1,0.6c0.1,0.1,0.3,0.2,0.5,0.2h0.2v0.2h-2.4v-0.2h0.2c0.2,0,0.4-0.1,0.5-0.2c0.1-0.1,0.1-0.3,0.1-0.6v-4.1
			h-0.7c-0.3,0-0.4,0-0.5,0.1c-0.1,0.1-0.3,0.1-0.4,0.3c-0.1,0.1-0.2,0.3-0.2,0.6h-0.1l0.1-1.2H183.9z M189.2,179.3l0.1,1.8h-0.1
			c-0.2-0.5-0.4-0.9-0.7-1.2c-0.3-0.2-0.7-0.4-1.1-0.4c-0.4,0-0.7,0.1-1,0.3c-0.3,0.2-0.5,0.5-0.7,0.9c-0.2,0.4-0.3,0.9-0.3,1.5
			c0,0.5,0.1,0.9,0.2,1.2c0.2,0.4,0.4,0.6,0.7,0.8c0.3,0.2,0.7,0.3,1.1,0.3c0.4,0,0.7-0.1,0.9-0.2c0.3-0.1,0.6-0.4,0.9-0.9l0.1,0.1
			c-0.3,0.5-0.6,0.8-0.9,1c-0.4,0.2-0.8,0.3-1.3,0.3c-0.9,0-1.6-0.3-2.1-1c-0.4-0.5-0.6-1.1-0.6-1.7c0-0.5,0.1-1,0.4-1.5
			c0.2-0.4,0.6-0.8,1-1c0.4-0.2,0.9-0.4,1.4-0.4c0.4,0,0.8,0.1,1.2,0.3c0.1,0.1,0.2,0.1,0.2,0.1c0.1,0,0.2,0,0.2-0.1
			c0.1-0.1,0.1-0.2,0.1-0.3H189.2z M195.4,184.7h-1.5l-1.9-2.5c-0.1,0-0.3,0-0.4,0c0,0-0.1,0-0.1,0c-0.1,0-0.1,0-0.1,0v1.5
			c0,0.3,0,0.5,0.1,0.6c0.1,0.1,0.2,0.2,0.5,0.2h0.2v0.2h-2.3v-0.2h0.2c0.2,0,0.4-0.1,0.5-0.2c0.1-0.1,0.1-0.3,0.1-0.6v-3.4
			c0-0.3,0-0.6-0.1-0.6c-0.1-0.1-0.3-0.2-0.5-0.2h-0.2v-0.2h2c0.6,0,1,0,1.3,0.1c0.3,0.1,0.5,0.2,0.7,0.5c0.2,0.2,0.3,0.5,0.3,0.8
			c0,0.3-0.1,0.6-0.3,0.9c-0.2,0.2-0.6,0.4-1,0.5l1.1,1.5c0.3,0.3,0.5,0.6,0.7,0.7c0.2,0.1,0.4,0.2,0.8,0.2V184.7z M191.5,182
			c0,0,0.1,0,0.1,0c0,0,0.1,0,0.1,0c0.5,0,0.9-0.1,1.2-0.3c0.3-0.2,0.4-0.5,0.4-0.8c0-0.3-0.1-0.6-0.3-0.8c-0.2-0.2-0.5-0.3-0.9-0.3
			c-0.2,0-0.4,0-0.6,0.1V182"/>
	</g>
</g>
<path class="st3" d="M6.5,79.5l0.1,1.2H6.4c0-0.2-0.1-0.4-0.1-0.5c-0.1-0.1-0.2-0.3-0.3-0.3c-0.1-0.1-0.3-0.1-0.5-0.1H4.6v4.1
	c0,0.3,0,0.5,0.1,0.6c0.1,0.1,0.3,0.2,0.5,0.2h0.2v0.1H3.1v-0.1h0.2c0.2,0,0.4-0.1,0.5-0.2c0.1-0.1,0.1-0.3,0.1-0.6v-4.1H3.2
	c-0.3,0-0.4,0-0.6,0.1c-0.1,0-0.3,0.1-0.4,0.3c-0.1,0.1-0.2,0.3-0.2,0.6H1.9L2,79.5H6.5z M8.1,79.2v2.6c0.3-0.3,0.5-0.5,0.7-0.6
	c0.2-0.1,0.4-0.1,0.5-0.1c0.2,0,0.4,0,0.6,0.2c0.1,0.1,0.3,0.3,0.3,0.5c0.1,0.2,0.1,0.5,0.1,0.9V84c0,0.2,0,0.4,0.1,0.5
	c0,0.1,0.1,0.1,0.1,0.1c0.1,0,0.2,0.1,0.4,0.1v0.1H9v-0.1h0.1c0.2,0,0.3,0,0.4-0.1c0.1-0.1,0.1-0.1,0.1-0.2c0,0,0-0.2,0-0.4v-1.3
	c0-0.4,0-0.7-0.1-0.8c-0.1-0.1-0.1-0.2-0.2-0.3c-0.1-0.1-0.2-0.1-0.3-0.1s-0.3,0-0.4,0.1c-0.2,0.1-0.3,0.2-0.5,0.4V84
	c0,0.2,0,0.4,0,0.5c0,0.1,0.1,0.1,0.2,0.1c0.1,0.1,0.2,0.1,0.4,0.1v0.1H6.9v-0.1c0.2,0,0.3,0,0.4-0.1c0.1,0,0.1-0.1,0.1-0.2
	c0-0.1,0.1-0.2,0.1-0.4v-3.2c0-0.4,0-0.7,0-0.8c0-0.1-0.1-0.2-0.1-0.2c0,0-0.1,0-0.2,0s-0.1,0-0.3,0.1l-0.1-0.1l1.1-0.4H8.1z
	 M11,81.2h1.7v0.2h-0.1c-0.1,0-0.2,0-0.3,0.1c-0.1,0.1-0.1,0.1-0.1,0.2c0,0.1,0,0.2,0.1,0.4l0.9,1.8l0.8-2c0.1-0.1,0.1-0.2,0.1-0.3
	c0,0,0-0.1,0-0.1c0,0-0.1-0.1-0.1-0.1c0,0-0.1,0-0.2,0v-0.2H15v0.2c-0.1,0-0.2,0-0.2,0c-0.1,0-0.1,0.1-0.2,0.2c0,0-0.1,0.1-0.1,0.3
	L13,85.5c-0.2,0.3-0.3,0.6-0.6,0.8c-0.2,0.2-0.4,0.3-0.7,0.3c-0.2,0-0.3-0.1-0.4-0.1c-0.1-0.1-0.1-0.2-0.1-0.3c0-0.1,0-0.2,0.1-0.3
	c0.1-0.1,0.2-0.1,0.3-0.1c0.1,0,0.2,0,0.4,0.1c0.1,0,0.2,0.1,0.2,0.1c0.1,0,0.2,0,0.3-0.1c0.1-0.1,0.2-0.2,0.3-0.5l0.3-0.6l-1.3-2.7
	c-0.1-0.1-0.1-0.2-0.2-0.3c-0.1-0.1-0.1-0.1-0.2-0.2c-0.1,0-0.2-0.1-0.3-0.1V81.2z M16.4,81.1v0.8c0.3-0.5,0.6-0.8,1-0.8
	c0.1,0,0.3,0,0.4,0.1c0.1,0.1,0.1,0.2,0.1,0.3c0,0.1,0,0.2-0.1,0.2c-0.1,0.1-0.1,0.1-0.2,0.1c-0.1,0-0.2,0-0.3-0.1
	c-0.1-0.1-0.2-0.1-0.3-0.1c0,0-0.1,0-0.2,0.1c-0.1,0.1-0.2,0.3-0.4,0.5v1.7c0,0.2,0,0.4,0.1,0.4c0,0.1,0.1,0.1,0.2,0.2
	c0.1,0.1,0.2,0.1,0.4,0.1v0.1h-1.9v-0.1c0.2,0,0.3,0,0.4-0.1c0.1,0,0.1-0.1,0.1-0.2c0,0,0-0.2,0-0.4v-1.4c0-0.4,0-0.7,0-0.8
	c0-0.1,0-0.1-0.1-0.2c-0.1,0-0.1-0.1-0.2-0.1c-0.1,0-0.2,0-0.3,0.1l0-0.1l1.1-0.4H16.4z M19.1,79.2c0.1,0,0.2,0,0.3,0.1
	c0.1,0.1,0.1,0.2,0.1,0.3c0,0.1,0,0.2-0.1,0.3C19.3,80,19.2,80,19.1,80c-0.1,0-0.2-0.1-0.3-0.1c-0.1-0.1-0.1-0.2-0.1-0.3
	c0-0.1,0-0.2,0.1-0.3C18.8,79.2,18.9,79.2,19.1,79.2z M19.4,81.1V84c0,0.2,0,0.4,0.1,0.4c0,0.1,0.1,0.1,0.1,0.2
	c0.1,0,0.2,0.1,0.4,0.1v0.1h-1.8v-0.1c0.2,0,0.3,0,0.4-0.1c0.1,0,0.1-0.1,0.2-0.2c0-0.1,0-0.2,0-0.5v-1.4c0-0.4,0-0.6,0-0.8
	c0-0.1-0.1-0.1-0.1-0.2c0,0-0.1-0.1-0.2-0.1c-0.1,0-0.2,0-0.3,0.1l-0.1-0.1l1.1-0.4H19.4z M22.8,81.1v1.2h-0.1
	c-0.1-0.4-0.2-0.7-0.4-0.8c-0.1-0.1-0.4-0.2-0.6-0.2c-0.2,0-0.3,0.1-0.5,0.1c-0.1,0.1-0.2,0.2-0.2,0.3c0,0.1,0,0.3,0.1,0.4
	c0.1,0.1,0.2,0.2,0.5,0.3l0.6,0.3c0.5,0.2,0.8,0.6,0.8,1c0,0.3-0.1,0.6-0.4,0.8c-0.2,0.2-0.5,0.3-0.9,0.3c-0.2,0-0.5,0-0.8-0.1
	c-0.1,0-0.2,0-0.2,0c-0.1,0-0.1,0-0.2,0.1h-0.1v-1.3h0.1c0.1,0.4,0.2,0.6,0.4,0.8c0.2,0.2,0.5,0.3,0.7,0.3c0.2,0,0.3-0.1,0.5-0.2
	c0.1-0.1,0.2-0.2,0.2-0.4c0-0.2-0.1-0.3-0.2-0.5c-0.1-0.1-0.4-0.3-0.8-0.5c-0.4-0.2-0.6-0.3-0.8-0.5c-0.1-0.1-0.2-0.3-0.2-0.6
	c0-0.3,0.1-0.5,0.3-0.7c0.2-0.2,0.5-0.3,0.8-0.3c0.2,0,0.3,0,0.5,0.1c0.1,0,0.2,0.1,0.3,0.1c0,0,0.1,0,0.1,0c0,0,0.1-0.1,0.1-0.1
	H22.8z M24.7,80v1.2h0.9v0.3h-0.9v2.3c0,0.2,0,0.4,0.1,0.5c0.1,0.1,0.1,0.1,0.3,0.1c0.1,0,0.2,0,0.3-0.1c0.1-0.1,0.1-0.1,0.2-0.2
	h0.2c-0.1,0.3-0.2,0.4-0.4,0.6c-0.2,0.1-0.4,0.2-0.5,0.2c-0.1,0-0.2,0-0.4-0.1c-0.1-0.1-0.2-0.2-0.3-0.3c-0.1-0.1-0.1-0.3-0.1-0.6
	v-2.4h-0.6v-0.1c0.1-0.1,0.3-0.2,0.5-0.3c0.1-0.1,0.3-0.3,0.4-0.5c0.1-0.1,0.1-0.3,0.3-0.6H24.7z M27.8,81.1c0.6,0,1,0.2,1.4,0.6
	c0.3,0.4,0.4,0.8,0.4,1.2c0,0.3-0.1,0.7-0.2,1c-0.2,0.3-0.4,0.6-0.7,0.7c-0.3,0.2-0.6,0.3-0.9,0.3c-0.6,0-1-0.2-1.3-0.6
	C26.1,83.9,26,83.5,26,83c0-0.3,0.1-0.7,0.3-1c0.2-0.3,0.4-0.6,0.7-0.7C27.2,81.2,27.5,81.1,27.8,81.1z M27.7,81.3
	c-0.1,0-0.3,0-0.4,0.1c-0.1,0.1-0.3,0.2-0.4,0.4s-0.1,0.5-0.1,0.8c0,0.5,0.1,1,0.3,1.4c0.2,0.4,0.5,0.6,0.9,0.6
	c0.3,0,0.5-0.1,0.6-0.3c0.2-0.2,0.2-0.6,0.2-1.1c0-0.6-0.1-1.1-0.4-1.5C28.2,81.5,28,81.3,27.7,81.3z M31.2,81.1v0.8
	c0.3-0.5,0.6-0.8,1-0.8c0.1,0,0.3,0,0.4,0.1c0.1,0.1,0.1,0.2,0.1,0.3c0,0.1,0,0.2-0.1,0.2c-0.1,0.1-0.2,0.1-0.3,0.1
	c-0.1,0-0.2,0-0.3-0.1c-0.1-0.1-0.2-0.1-0.3-0.1s-0.1,0-0.2,0.1c-0.1,0.1-0.2,0.3-0.4,0.5v1.7c0,0.2,0,0.4,0.1,0.4
	c0,0.1,0.1,0.1,0.2,0.2c0.1,0.1,0.2,0.1,0.4,0.1v0.1H30v-0.1c0.2,0,0.3,0,0.4-0.1c0.1,0,0.1-0.1,0.1-0.2c0,0,0-0.2,0-0.4v-1.4
	c0-0.4,0-0.7,0-0.8c0-0.1-0.1-0.1-0.1-0.2c0,0-0.1-0.1-0.2-0.1c-0.1,0-0.2,0-0.3,0.1l0-0.1l1.1-0.4H31.2"/>
<path class="st3" d="M11.5,88.4v0.1c-0.2,0-0.3,0.1-0.4,0.2c-0.1,0.1-0.3,0.3-0.4,0.6l-1.9,4.5H8.6l-2.1-4.6
	c-0.1-0.2-0.2-0.4-0.2-0.4c-0.1-0.1-0.2-0.1-0.2-0.2c-0.1,0-0.2-0.1-0.4-0.1v-0.1h2.2v0.1c-0.3,0-0.4,0.1-0.5,0.1
	c-0.1,0.1-0.1,0.1-0.1,0.2c0,0.1,0.1,0.3,0.2,0.6l1.4,3.1l1.3-3.1c0.1-0.3,0.2-0.5,0.2-0.6c0-0.1,0-0.2-0.1-0.2
	c-0.1-0.1-0.2-0.1-0.4-0.1c0,0,0,0-0.1,0v-0.1H11.5z M14,93.1c-0.4,0.3-0.6,0.4-0.7,0.5c-0.2,0.1-0.3,0.1-0.5,0.1
	c-0.3,0-0.5-0.1-0.6-0.2c-0.2-0.2-0.3-0.4-0.3-0.7c0-0.2,0.1-0.3,0.1-0.4c0.1-0.2,0.3-0.3,0.6-0.5c0.3-0.2,0.7-0.3,1.4-0.6v-0.1
	c0-0.4-0.1-0.6-0.2-0.7c-0.1-0.1-0.3-0.2-0.5-0.2c-0.2,0-0.3,0-0.4,0.1c-0.1,0.1-0.1,0.2-0.1,0.3l0,0.2c0,0.1,0,0.2-0.1,0.3
	c-0.1,0.1-0.1,0.1-0.2,0.1s-0.2,0-0.2-0.1c-0.1-0.1-0.1-0.2-0.1-0.3c0-0.2,0.1-0.4,0.3-0.6c0.2-0.2,0.6-0.3,1-0.3
	c0.3,0,0.6,0.1,0.8,0.2c0.2,0.1,0.3,0.2,0.4,0.4c0.1,0.1,0.1,0.3,0.1,0.7v1.2c0,0.4,0,0.6,0,0.6c0,0.1,0,0.1,0.1,0.2
	c0,0,0.1,0,0.1,0c0.1,0,0.1,0,0.1,0c0,0,0.2-0.1,0.3-0.3v0.2c-0.3,0.4-0.6,0.6-0.9,0.6c-0.1,0-0.2,0-0.3-0.1
	C14,93.5,14,93.4,14,93.1z M14,92.9v-1.4c-0.4,0.2-0.7,0.3-0.8,0.3c-0.2,0.1-0.4,0.2-0.5,0.4c-0.1,0.1-0.1,0.3-0.1,0.4
	c0,0.2,0.1,0.3,0.2,0.5c0.1,0.1,0.2,0.2,0.4,0.2C13.4,93.3,13.6,93.1,14,92.9z M16.8,88.1v4.8c0,0.2,0,0.4,0.1,0.5
	c0,0.1,0.1,0.1,0.2,0.2c0.1,0,0.2,0.1,0.4,0.1v0.1h-1.8v-0.1c0.2,0,0.3,0,0.3-0.1c0.1,0,0.1-0.1,0.1-0.2c0-0.1,0.1-0.2,0.1-0.5v-3.2
	c0-0.4,0-0.6,0-0.8s-0.1-0.1-0.1-0.2c-0.1,0-0.1-0.1-0.2-0.1c-0.1,0-0.2,0-0.3,0.1l-0.1-0.1l1.1-0.4H16.8z M17.7,90.1h1.8v0.1h-0.1
	c-0.1,0-0.2,0-0.2,0.1C19,90.3,19,90.4,19,90.5c0,0.1,0,0.2,0.1,0.3l0.9,2l0.9-2.1c0.1-0.1,0.1-0.3,0.1-0.3c0,0,0-0.1,0-0.1
	c0,0-0.1-0.1-0.1-0.1c-0.1,0-0.1,0-0.3,0v-0.1h1.2v0.1c-0.1,0-0.2,0-0.3,0.1c-0.1,0.1-0.2,0.2-0.3,0.4l-1.3,3.1h-0.2l-1.3-3
	c-0.1-0.1-0.1-0.2-0.2-0.3c-0.1-0.1-0.1-0.1-0.2-0.2c-0.1,0-0.1,0-0.3-0.1V90.1z M22.7,91.4c0,0.5,0.1,0.9,0.4,1.2
	c0.3,0.3,0.6,0.4,0.9,0.4c0.2,0,0.5-0.1,0.6-0.2c0.2-0.1,0.3-0.4,0.5-0.7l0.1,0.1c0,0.4-0.2,0.7-0.5,1c-0.3,0.3-0.6,0.4-1,0.4
	c-0.4,0-0.8-0.2-1.1-0.5c-0.3-0.3-0.5-0.8-0.5-1.4c0-0.6,0.2-1.1,0.5-1.4c0.3-0.3,0.7-0.5,1.2-0.5c0.4,0,0.8,0.1,1,0.4
	c0.3,0.3,0.4,0.6,0.4,1.1H22.7z M22.7,91.2h1.7c0-0.2,0-0.4-0.1-0.5c-0.1-0.1-0.2-0.3-0.3-0.3c-0.1-0.1-0.3-0.1-0.4-0.1
	c-0.2,0-0.4,0.1-0.6,0.2C22.8,90.7,22.7,90.9,22.7,91.2z M28.1,90v1.2H28c-0.1-0.4-0.2-0.7-0.4-0.8c-0.2-0.1-0.4-0.2-0.6-0.2
	c-0.2,0-0.4,0-0.5,0.1c-0.1,0.1-0.2,0.2-0.2,0.3c0,0.1,0.1,0.3,0.1,0.4c0.1,0.1,0.3,0.2,0.5,0.3l0.6,0.3c0.5,0.3,0.8,0.6,0.8,1
	c0,0.3-0.1,0.6-0.4,0.8c-0.3,0.2-0.5,0.3-0.9,0.3c-0.2,0-0.5,0-0.8-0.1c-0.1,0-0.2,0-0.2,0s-0.1,0-0.1,0.1h-0.1v-1.3H26
	c0.1,0.4,0.2,0.6,0.4,0.8c0.2,0.2,0.4,0.3,0.7,0.3c0.2,0,0.3-0.1,0.4-0.2c0.1-0.1,0.2-0.2,0.2-0.4c0-0.2-0.1-0.3-0.2-0.5
	c-0.1-0.1-0.4-0.3-0.8-0.5c-0.4-0.2-0.6-0.4-0.8-0.5c-0.1-0.2-0.2-0.3-0.2-0.6c0-0.3,0.1-0.5,0.3-0.7c0.2-0.2,0.5-0.3,0.8-0.3
	c0.1,0,0.3,0,0.5,0.1c0.1,0,0.2,0.1,0.3,0.1s0.1,0,0.1,0c0,0,0.1-0.1,0.1-0.1H28.1"/>
<path class="st1" d="M265.7,34.6V41"/>
<path class="st1" d="M265.7,34.6V41"/>
<path class="st7" d="M246,79.6h39.7v39.7h-40V79.9C245.7,79.7,245.8,79.6,246,79.6c0.2,0,0.4,0.2,0.4,0.3v39l-0.4-0.3h39.3L285,119
	v-39l0.3,0.4H246c-0.2,0-0.3-0.2-0.3-0.4C245.7,79.7,245.8,79.6,246,79.6"/>
<path class="st3" d="M260.2,97.5l0.1,1.3h-0.1c-0.1-0.4-0.3-0.7-0.5-0.8c-0.2-0.2-0.5-0.3-0.8-0.3c-0.3,0-0.5,0.1-0.7,0.2
	c-0.2,0.1-0.4,0.3-0.5,0.6c-0.1,0.3-0.2,0.6-0.2,1c0,0.3,0.1,0.6,0.2,0.9c0.1,0.2,0.3,0.4,0.5,0.6c0.2,0.1,0.5,0.2,0.8,0.2
	c0.3,0,0.5-0.1,0.7-0.2c0.2-0.1,0.4-0.3,0.6-0.6l0.1,0.1c-0.2,0.3-0.4,0.6-0.7,0.7c-0.3,0.2-0.6,0.2-0.9,0.2c-0.6,0-1.2-0.2-1.5-0.7
	c-0.3-0.4-0.4-0.8-0.4-1.2c0-0.4,0.1-0.7,0.3-1.1c0.2-0.3,0.4-0.6,0.7-0.7c0.3-0.2,0.6-0.3,1-0.3c0.3,0,0.6,0.1,0.8,0.2
	c0.1,0.1,0.1,0.1,0.2,0.1c0.1,0,0.1,0,0.1-0.1C260,97.6,260,97.6,260.2,97.5L260.2,97.5z M262,98.7c0.4,0,0.7,0.1,1,0.4
	c0.2,0.3,0.3,0.5,0.3,0.9c0,0.2-0.1,0.5-0.2,0.7c-0.1,0.2-0.3,0.4-0.5,0.5c-0.2,0.1-0.4,0.2-0.7,0.2c-0.4,0-0.7-0.2-1-0.5
	c-0.2-0.2-0.3-0.5-0.3-0.9c0-0.2,0.1-0.5,0.2-0.7c0.1-0.2,0.3-0.4,0.5-0.5C261.6,98.8,261.8,98.7,262,98.7z M262,98.9
	c-0.1,0-0.2,0-0.3,0.1c-0.1,0.1-0.2,0.2-0.3,0.3c-0.1,0.1-0.1,0.3-0.1,0.6c0,0.4,0.1,0.7,0.2,1c0.1,0.3,0.4,0.4,0.6,0.4
	c0.2,0,0.4-0.1,0.5-0.2c0.1-0.2,0.2-0.4,0.2-0.8c0-0.5-0.1-0.8-0.3-1.1C262.3,99,262.2,98.9,262,98.9z M264.5,99.3
	c0.3-0.4,0.6-0.5,0.9-0.5c0.1,0,0.3,0,0.4,0.1s0.2,0.2,0.3,0.3c0,0.1,0,0.3,0,0.5v1.1c0,0.2,0,0.3,0.1,0.3c0,0.1,0.1,0.1,0.1,0.1
	s0.1,0,0.2,0v0.1h-1.3v-0.1h0.1c0.1,0,0.2,0,0.2,0c0.1,0,0.1-0.1,0.1-0.2c0,0,0-0.1,0-0.3v-1c0-0.2,0-0.4-0.1-0.5
	c-0.1-0.1-0.2-0.1-0.3-0.1c-0.2,0-0.5,0.1-0.7,0.4v1.3c0,0.2,0,0.3,0,0.3c0,0.1,0.1,0.1,0.1,0.1c0.1,0,0.1,0,0.3,0v0.1h-1.3v-0.1
	h0.1c0.1,0,0.2,0,0.3-0.1c0.1-0.1,0.1-0.2,0.1-0.4v-0.9c0-0.3,0-0.5,0-0.6c0-0.1,0-0.1-0.1-0.1c0,0-0.1,0-0.1,0s-0.1,0-0.2,0.1
	l-0.1-0.1l0.8-0.3h0.1V99.3z M267.5,98v0.8h0.6V99h-0.6v1.7c0,0.2,0,0.3,0.1,0.3c0,0.1,0.1,0.1,0.2,0.1c0.1,0,0.1,0,0.2-0.1
	c0.1-0.1,0.1-0.1,0.1-0.2h0.1c-0.1,0.2-0.2,0.3-0.3,0.4c-0.1,0.1-0.2,0.1-0.4,0.1c-0.1,0-0.2,0-0.3-0.1c-0.1-0.1-0.1-0.1-0.2-0.2
	c0-0.1-0.1-0.2-0.1-0.4V99h-0.4v-0.1c0.1,0,0.2-0.1,0.3-0.2c0.1-0.1,0.2-0.2,0.3-0.3c0.1-0.1,0.1-0.2,0.2-0.4H267.5z M269.1,98.7
	v0.6c0.2-0.4,0.4-0.6,0.7-0.6c0.1,0,0.2,0,0.3,0.1c0.1,0,0.1,0.1,0.1,0.2c0,0.1,0,0.1-0.1,0.2s-0.1,0.1-0.2,0.1s-0.1,0-0.2-0.1
	c-0.1-0.1-0.1-0.1-0.2-0.1c0,0-0.1,0-0.1,0.1c-0.1,0.1-0.2,0.2-0.3,0.4v1.2c0,0.1,0,0.2,0.1,0.3c0,0.1,0.1,0.1,0.1,0.1
	c0.1,0,0.1,0,0.3,0v0.1h-1.4v-0.1c0.1,0,0.2,0,0.3-0.1c0,0,0.1-0.1,0.1-0.1c0,0,0-0.1,0-0.3v-1c0-0.3,0-0.5,0-0.5
	c0-0.1,0-0.1-0.1-0.1c0,0-0.1,0-0.1,0s-0.1,0-0.2,0.1l0-0.1l0.8-0.3H269.1z M271.6,98.7c0.4,0,0.7,0.1,1,0.4
	c0.2,0.3,0.3,0.5,0.3,0.9c0,0.2-0.1,0.5-0.2,0.7c-0.1,0.2-0.3,0.4-0.5,0.5c-0.2,0.1-0.4,0.2-0.7,0.2c-0.4,0-0.7-0.2-0.9-0.5
	c-0.2-0.2-0.3-0.5-0.3-0.9c0-0.2,0.1-0.5,0.2-0.7c0.1-0.2,0.3-0.4,0.5-0.5C271.2,98.8,271.4,98.7,271.6,98.7z M271.5,98.9
	c-0.1,0-0.2,0-0.3,0.1c-0.1,0.1-0.2,0.2-0.2,0.3c-0.1,0.1-0.1,0.3-0.1,0.6c0,0.4,0.1,0.7,0.2,1c0.2,0.3,0.4,0.4,0.6,0.4
	c0.2,0,0.4-0.1,0.5-0.2c0.1-0.2,0.2-0.4,0.2-0.8c0-0.5-0.1-0.8-0.3-1.1C271.9,99,271.7,98.9,271.5,98.9z M274.2,97.4v3.4
	c0,0.2,0,0.3,0,0.3c0,0.1,0.1,0.1,0.1,0.1c0.1,0,0.2,0,0.3,0v0.1h-1.3v-0.1c0.1,0,0.2,0,0.2,0c0.1,0,0.1-0.1,0.1-0.1
	c0,0,0.1-0.2,0.1-0.3v-2.3c0-0.3,0-0.5,0-0.5c0-0.1,0-0.1-0.1-0.1c0,0-0.1,0-0.1,0c-0.1,0-0.1,0-0.2,0l-0.1-0.1l0.8-0.3H274.2"/>
<path class="st3" d="M71.7,135.6l0.1,1.8h-0.1c-0.2-0.5-0.4-0.9-0.7-1.2c-0.3-0.2-0.7-0.4-1.1-0.4c-0.3,0-0.7,0.1-1,0.3
	c-0.3,0.2-0.5,0.5-0.7,0.9c-0.2,0.4-0.2,0.9-0.2,1.5c0,0.5,0.1,0.9,0.2,1.2c0.2,0.4,0.4,0.6,0.7,0.8c0.3,0.2,0.7,0.3,1.1,0.3
	c0.4,0,0.7-0.1,0.9-0.2c0.3-0.1,0.6-0.4,0.9-0.9l0.1,0.1c-0.3,0.5-0.6,0.8-1,1c-0.4,0.2-0.8,0.3-1.3,0.3c-0.9,0-1.6-0.3-2.1-1
	c-0.4-0.5-0.6-1.1-0.6-1.7c0-0.5,0.1-1,0.4-1.5c0.2-0.4,0.6-0.8,1-1c0.4-0.2,0.9-0.4,1.4-0.4c0.4,0,0.8,0.1,1.2,0.3
	c0.1,0.1,0.2,0.1,0.2,0.1c0.1,0,0.1,0,0.2-0.1c0.1-0.1,0.1-0.2,0.2-0.3H71.7"/>
<path class="st3" d="M124,135.6l0.1,1.8H124c-0.2-0.5-0.4-0.9-0.7-1.2c-0.3-0.2-0.7-0.4-1.1-0.4c-0.4,0-0.7,0.1-1,0.3
	c-0.3,0.2-0.5,0.5-0.7,0.9c-0.2,0.4-0.2,0.9-0.2,1.5c0,0.5,0.1,0.9,0.2,1.2c0.2,0.4,0.4,0.6,0.7,0.8c0.3,0.2,0.7,0.3,1.1,0.3
	c0.4,0,0.7-0.1,0.9-0.2c0.3-0.1,0.6-0.4,0.9-0.9l0.1,0.1c-0.3,0.5-0.6,0.8-1,1c-0.4,0.2-0.8,0.3-1.3,0.3c-0.9,0-1.6-0.3-2.1-1
	c-0.4-0.5-0.5-1.1-0.5-1.7c0-0.5,0.1-1,0.4-1.5c0.2-0.4,0.6-0.8,1-1c0.4-0.2,0.9-0.4,1.4-0.4c0.4,0,0.8,0.1,1.2,0.3
	c0.1,0.1,0.2,0.1,0.2,0.1c0.1,0,0.1,0,0.2-0.1c0.1-0.1,0.1-0.2,0.2-0.3H124"/>
<path class="st1" d="M161.1,157.9c4.6,0,4.6-6.7,0-6.7c-2.9,0-2.9,2.2,0,2.2c4.6,0,4.6-6.7,0-6.7c-2.9,0-2.9,2.2,0,2.2
	c4.6,0,4.6-6.7,0-6.7c-2.9,0-2.9,2.2,0,2.2c4.6,0,4.6-6.7,0-6.7c-2.9,0-2.9,2.2,0,2.2c4.6,0,4.6-7.8,0-7.8"/>
<path class="st3" d="M173.9,139.6l0.1,0l-0.5,1.4h-4.3v-0.2h0.2c0.2,0,0.4-0.1,0.5-0.2c0.1-0.1,0.1-0.3,0.1-0.6v-3.4
	c0-0.3,0-0.6-0.1-0.6c-0.1-0.1-0.3-0.2-0.5-0.2h-0.2v-0.2h2.5v0.2c-0.3,0-0.5,0-0.6,0.1c-0.1,0.1-0.2,0.1-0.2,0.2
	c0,0.1-0.1,0.3-0.1,0.6v3.3c0,0.2,0,0.4,0.1,0.4c0,0.1,0.1,0.1,0.2,0.1c0.1,0,0.3,0,0.6,0h0.4c0.4,0,0.7,0,0.9-0.1
	c0.2-0.1,0.3-0.2,0.5-0.3C173.6,140.1,173.8,139.9,173.9,139.6"/>
<path class="st1" d="M161.1,157.9c4.6,0,4.6-6.7,0-6.7c-2.9,0-2.9,2.2,0,2.2c4.6,0,4.6-6.7,0-6.7c-2.9,0-2.9,2.2,0,2.2
	c4.6,0,4.6-6.7,0-6.7c-2.9,0-2.9,2.2,0,2.2c4.6,0,4.6-6.7,0-6.7c-2.9,0-2.9,2.2,0,2.2c4.6,0,4.6-7.8,0-7.8"/>
<path class="st3" d="M226.2,139.6l0.1,0l-0.5,1.4h-4.3v-0.2h0.2c0.2,0,0.4-0.1,0.5-0.2c0-0.1,0.1-0.3,0.1-0.6v-3.4
	c0-0.3,0-0.6-0.1-0.6c-0.1-0.1-0.3-0.2-0.5-0.2h-0.2v-0.2h2.5v0.2c-0.3,0-0.5,0-0.6,0.1c-0.1,0.1-0.2,0.1-0.2,0.2
	c-0.1,0.1-0.1,0.3-0.1,0.6v3.3c0,0.2,0,0.4,0.1,0.4c0,0.1,0.1,0.1,0.1,0.1c0.1,0,0.3,0,0.6,0h0.4c0.4,0,0.7,0,0.9-0.1
	c0.2-0.1,0.3-0.2,0.5-0.3C226,140.1,226.1,139.9,226.2,139.6"/>
<path class="st1" d="M265.7,34.6V41"/>
<path class="st3" d="M161,6l0.1,1.2h-0.2c0-0.2-0.1-0.4-0.1-0.5c-0.1-0.1-0.2-0.3-0.3-0.3c-0.1-0.1-0.3-0.1-0.5-0.1h-0.8v4.1
	c0,0.3,0,0.5,0.1,0.6c0.1,0.1,0.3,0.2,0.5,0.2h0.2v0.1h-2.3v-0.1h0.2c0.2,0,0.4-0.1,0.5-0.2c0.1-0.1,0.1-0.3,0.1-0.6V6.3h-0.7
	c-0.3,0-0.4,0-0.6,0.1c-0.1,0.1-0.3,0.1-0.4,0.3c-0.1,0.1-0.2,0.3-0.2,0.6h-0.2l0.1-1.2H161z M162.6,7.6v0.8
	c0.3-0.5,0.6-0.8,0.9-0.8c0.1,0,0.3,0,0.4,0.1c0.1,0.1,0.1,0.2,0.1,0.3c0,0.1,0,0.2-0.1,0.3c-0.1,0.1-0.1,0.1-0.2,0.1
	s-0.2-0.1-0.3-0.1c-0.1-0.1-0.2-0.1-0.3-0.1c-0.1,0-0.1,0-0.2,0.1c-0.1,0.1-0.2,0.3-0.4,0.5v1.7c0,0.2,0,0.3,0.1,0.4
	c0,0.1,0.1,0.1,0.2,0.2c0.1,0.1,0.2,0.1,0.4,0.1v0.1h-1.9v-0.1c0.2,0,0.3,0,0.4-0.1c0.1-0.1,0.1-0.1,0.1-0.2c0,0,0-0.2,0-0.4V9.1
	c0-0.4,0-0.7,0-0.8c0-0.1,0-0.1-0.1-0.2c0,0-0.1-0.1-0.2-0.1c-0.1,0-0.2,0-0.3,0.1L161.3,8l1.1-0.4H162.6z M166.4,10.8
	c-0.4,0.3-0.6,0.5-0.7,0.5c-0.1,0.1-0.3,0.1-0.5,0.1c-0.2,0-0.5-0.1-0.6-0.2c-0.2-0.2-0.2-0.4-0.2-0.7c0-0.2,0-0.3,0.1-0.5
	c0.1-0.2,0.3-0.3,0.6-0.5c0.3-0.2,0.7-0.4,1.4-0.6V8.8c0-0.3-0.1-0.6-0.2-0.7c-0.1-0.1-0.3-0.2-0.5-0.2c-0.2,0-0.3,0-0.4,0.1
	c-0.1,0.1-0.1,0.2-0.1,0.3v0.2c0,0.1,0,0.2-0.1,0.3c-0.1,0-0.1,0.1-0.2,0.1c-0.1,0-0.2,0-0.2-0.1c-0.1,0-0.1-0.1-0.1-0.3
	c0-0.2,0.1-0.4,0.4-0.6c0.2-0.2,0.6-0.3,1-0.3c0.3,0,0.6,0,0.8,0.2c0.2,0.1,0.3,0.2,0.4,0.4c0.1,0.1,0.1,0.4,0.1,0.7V10
	c0,0.3,0,0.6,0,0.6c0,0.1,0,0.1,0.1,0.2c0,0,0.1,0,0.1,0c0,0,0.1,0,0.1,0c0.1,0,0.2-0.1,0.3-0.3v0.2c-0.3,0.4-0.6,0.6-0.9,0.6
	c-0.1,0-0.2,0-0.3-0.1C166.4,11.1,166.4,11,166.4,10.8z M166.4,10.5V9.1c-0.4,0.2-0.7,0.3-0.8,0.3c-0.2,0.1-0.4,0.2-0.4,0.4
	c-0.1,0.1-0.1,0.3-0.1,0.4c0,0.2,0.1,0.4,0.2,0.5c0.1,0.1,0.3,0.2,0.4,0.2C165.8,10.9,166,10.8,166.4,10.5z M169,8.3
	c0.4-0.5,0.9-0.8,1.2-0.8c0.2,0,0.4,0,0.5,0.1c0.1,0.1,0.3,0.3,0.3,0.5c0.1,0.1,0.1,0.4,0.1,0.7v1.5c0,0.2,0,0.4,0.1,0.5
	c0,0.1,0.1,0.1,0.1,0.2c0.1,0,0.2,0.1,0.4,0.1v0.1H170v-0.1h0.1c0.2,0,0.3,0,0.4-0.1c0.1-0.1,0.1-0.1,0.1-0.2c0,0,0-0.2,0-0.4V9
	c0-0.3-0.1-0.6-0.1-0.7c-0.1-0.2-0.2-0.2-0.4-0.2c-0.3,0-0.7,0.2-1,0.5v1.9c0,0.2,0,0.4,0.1,0.5c0.1,0.1,0.1,0.1,0.2,0.2
	s0.2,0.1,0.4,0.1v0.1h-1.8v-0.1h0.1c0.2,0,0.3,0,0.4-0.1c0.1-0.1,0.1-0.3,0.1-0.5V9.1c0-0.4,0-0.7,0-0.8c0-0.1-0.1-0.2-0.1-0.2
	c-0.1,0-0.1-0.1-0.2-0.1c-0.1,0-0.2,0-0.3,0.1L167.7,8l1.1-0.4h0.2V8.3z M174.5,7.6v1.2h-0.1c-0.1-0.4-0.2-0.6-0.4-0.8
	c-0.2-0.1-0.4-0.2-0.6-0.2c-0.2,0-0.4,0-0.5,0.1c-0.1,0.1-0.2,0.2-0.2,0.3c0,0.1,0,0.3,0.1,0.4c0.1,0.1,0.3,0.2,0.5,0.3l0.6,0.3
	c0.6,0.3,0.8,0.6,0.8,1c0,0.3-0.1,0.6-0.4,0.8c-0.3,0.2-0.6,0.3-0.9,0.3c-0.2,0-0.5,0-0.8-0.1c-0.1,0-0.2,0-0.2,0
	c-0.1,0-0.1,0-0.1,0.1h-0.1v-1.3h0.1c0.1,0.4,0.2,0.6,0.4,0.8s0.5,0.3,0.7,0.3c0.2,0,0.3-0.1,0.5-0.2c0.1-0.1,0.2-0.2,0.2-0.4
	c0-0.2-0.1-0.3-0.2-0.5c-0.2-0.1-0.4-0.3-0.8-0.5c-0.4-0.2-0.7-0.3-0.8-0.5c-0.1-0.2-0.2-0.3-0.2-0.6c0-0.3,0.1-0.5,0.3-0.7
	c0.2-0.2,0.5-0.3,0.8-0.3c0.1,0,0.3,0,0.5,0.1c0.1,0,0.2,0.1,0.3,0.1c0,0,0.1,0,0.1,0c0,0,0.1-0.1,0.1-0.1H174.5z M176.5,8.3
	c0.3-0.3,0.4-0.4,0.5-0.5c0.1-0.1,0.3-0.2,0.4-0.2c0.1-0.1,0.3-0.1,0.4-0.1c0.2,0,0.4,0,0.6,0.2c0.2,0.1,0.3,0.3,0.3,0.6
	c0.3-0.3,0.5-0.5,0.7-0.6c0.2-0.1,0.4-0.1,0.6-0.1c0.2,0,0.4,0,0.5,0.1c0.1,0.1,0.3,0.3,0.4,0.5c0.1,0.1,0.1,0.4,0.1,0.7v1.5
	c0,0.2,0,0.4,0.1,0.5c0,0.1,0.1,0.1,0.1,0.1c0.1,0,0.2,0.1,0.4,0.1v0.1h-1.8v-0.1h0.1c0.2,0,0.3,0,0.4-0.1c0.1-0.1,0.1-0.1,0.1-0.2
	c0-0.1,0-0.2,0-0.4V8.9c0-0.3,0-0.5-0.1-0.6c-0.1-0.2-0.3-0.2-0.5-0.2c-0.1,0-0.3,0-0.4,0.1c-0.1,0.1-0.3,0.2-0.5,0.4l0,0l0,0.2v1.7
	c0,0.3,0,0.4,0,0.5c0,0.1,0.1,0.1,0.2,0.1c0.1,0,0.2,0.1,0.4,0.1v0.1h-1.9v-0.1c0.2,0,0.3,0,0.4-0.1c0.1,0,0.1-0.1,0.2-0.2
	c0,0,0-0.2,0-0.4V8.9c0-0.3-0.1-0.5-0.1-0.6c-0.1-0.2-0.3-0.2-0.5-0.2c-0.1,0-0.3,0-0.4,0.1c-0.2,0.1-0.4,0.2-0.5,0.4v1.9
	c0,0.2,0,0.4,0.1,0.5c0,0.1,0.1,0.1,0.1,0.2c0.1,0,0.2,0.1,0.4,0.1v0.1h-1.8v-0.1c0.2,0,0.3,0,0.4-0.1s0.1-0.1,0.2-0.2
	c0-0.1,0-0.2,0-0.5V9.1c0-0.4,0-0.7,0-0.8c0-0.1,0-0.1-0.1-0.2c0,0-0.1-0.1-0.2-0.1c-0.1,0-0.2,0-0.3,0.1L175.2,8l1.1-0.4h0.2V8.3z
	 M182.8,5.7c0.1,0,0.2,0,0.3,0.1c0.1,0.1,0.1,0.2,0.1,0.3s0,0.2-0.1,0.3c-0.1,0.1-0.2,0.1-0.3,0.1c-0.1,0-0.2,0-0.3-0.1
	c-0.1-0.1-0.1-0.2-0.1-0.3s0-0.2,0.1-0.3C182.6,5.7,182.7,5.7,182.8,5.7z M183.1,7.6v2.9c0,0.2,0,0.4,0.1,0.5c0,0.1,0.1,0.1,0.2,0.2
	c0.1,0,0.2,0.1,0.4,0.1v0.1h-1.8v-0.1c0.2,0,0.3,0,0.4-0.1c0.1,0,0.1-0.1,0.2-0.2c0-0.1,0-0.2,0-0.5V9.1c0-0.4,0-0.6,0-0.8
	c0-0.1-0.1-0.1-0.1-0.2c-0.1,0-0.1-0.1-0.2-0.1c-0.1,0-0.2,0-0.3,0.1l0-0.1l1.1-0.4H183.1z M186.5,7.6v1.2h-0.1
	c-0.1-0.4-0.2-0.6-0.4-0.8c-0.2-0.1-0.3-0.2-0.6-0.2c-0.2,0-0.3,0-0.5,0.1c-0.1,0.1-0.2,0.2-0.2,0.3c0,0.1,0.1,0.3,0.1,0.4
	c0.1,0.1,0.3,0.2,0.5,0.3l0.6,0.3c0.6,0.3,0.8,0.6,0.8,1c0,0.3-0.1,0.6-0.4,0.8c-0.2,0.2-0.5,0.3-0.8,0.3c-0.2,0-0.5,0-0.8-0.1
	c-0.1,0-0.2,0-0.2,0c0,0-0.1,0-0.1,0.1h-0.1v-1.3h0.1c0.1,0.4,0.2,0.6,0.4,0.8c0.2,0.2,0.5,0.3,0.7,0.3c0.2,0,0.3-0.1,0.4-0.2
	c0.1-0.1,0.2-0.2,0.2-0.4c0-0.2-0.1-0.3-0.2-0.5c-0.1-0.1-0.4-0.3-0.8-0.5s-0.6-0.3-0.8-0.5c-0.1-0.2-0.2-0.3-0.2-0.6
	c0-0.3,0.1-0.5,0.3-0.7s0.5-0.3,0.8-0.3c0.1,0,0.3,0,0.5,0.1c0.1,0,0.2,0.1,0.3,0.1c0,0,0.1,0,0.1,0c0,0,0-0.1,0.1-0.1H186.5z
	 M189.8,7.6v1.2h-0.1c-0.1-0.4-0.2-0.6-0.4-0.8c-0.2-0.1-0.4-0.2-0.6-0.2c-0.2,0-0.3,0-0.5,0.1c-0.1,0.1-0.2,0.2-0.2,0.3
	c0,0.1,0.1,0.3,0.1,0.4c0.1,0.1,0.2,0.2,0.5,0.3l0.6,0.3c0.6,0.3,0.8,0.6,0.8,1c0,0.3-0.1,0.6-0.4,0.8c-0.2,0.2-0.5,0.3-0.8,0.3
	c-0.2,0-0.5,0-0.8-0.1c-0.1,0-0.2,0-0.2,0c-0.1,0-0.1,0-0.2,0.1h-0.1v-1.3h0.1c0.1,0.4,0.2,0.6,0.4,0.8s0.4,0.3,0.7,0.3
	c0.2,0,0.3-0.1,0.5-0.2c0.1-0.1,0.2-0.2,0.2-0.4c0-0.2,0-0.3-0.2-0.5c-0.1-0.1-0.4-0.3-0.8-0.5c-0.4-0.2-0.6-0.3-0.8-0.5
	c-0.1-0.2-0.2-0.3-0.2-0.6c0-0.3,0.1-0.5,0.3-0.7c0.2-0.2,0.5-0.3,0.8-0.3c0.1,0,0.3,0,0.5,0.1c0.1,0,0.2,0.1,0.3,0.1
	c0.1,0,0.1,0,0.1,0c0,0,0-0.1,0.1-0.1H189.8z M191.5,5.7c0.1,0,0.2,0,0.3,0.1c0.1,0.1,0.1,0.2,0.1,0.3s0,0.2-0.1,0.3
	c-0.1,0.1-0.2,0.1-0.3,0.1s-0.2,0-0.3-0.1c-0.1-0.1-0.1-0.2-0.1-0.3s0-0.2,0.1-0.3C191.3,5.7,191.4,5.7,191.5,5.7z M191.9,7.6v2.9
	c0,0.2,0,0.4,0,0.5c0,0.1,0.1,0.1,0.1,0.2s0.2,0.1,0.4,0.1v0.1h-1.8v-0.1c0.2,0,0.3,0,0.4-0.1c0.1,0,0.1-0.1,0.1-0.2
	c0.1-0.1,0.1-0.2,0.1-0.5V9.1c0-0.4,0-0.6,0-0.8c0-0.1,0-0.1-0.1-0.2c0,0-0.1-0.1-0.2-0.1c-0.1,0-0.2,0-0.3,0.1L190.6,8l1.1-0.4
	H191.9z M194.7,7.6c0.6,0,1,0.2,1.4,0.6c0.3,0.3,0.4,0.8,0.4,1.2c0,0.3-0.1,0.6-0.2,1c-0.2,0.3-0.4,0.6-0.7,0.8
	c-0.3,0.2-0.6,0.2-0.9,0.2c-0.6,0-1-0.2-1.3-0.6c-0.3-0.4-0.4-0.8-0.4-1.2c0-0.3,0.1-0.7,0.2-1c0.2-0.3,0.4-0.6,0.7-0.7
	C194.1,7.7,194.4,7.6,194.7,7.6z M194.6,7.8c-0.1,0-0.3,0-0.4,0.1c-0.1,0.1-0.3,0.2-0.4,0.4c-0.1,0.2-0.1,0.5-0.1,0.8
	c0,0.5,0.1,1,0.3,1.4c0.2,0.4,0.5,0.6,0.8,0.6c0.3,0,0.5-0.1,0.7-0.3c0.2-0.2,0.2-0.6,0.2-1.1c0-0.6-0.1-1.2-0.4-1.5
	C195.1,8,194.9,7.8,194.6,7.8z M198.2,8.3c0.4-0.5,0.9-0.8,1.2-0.8c0.2,0,0.4,0,0.5,0.1c0.1,0.1,0.3,0.3,0.3,0.5
	c0.1,0.1,0.1,0.4,0.1,0.7v1.5c0,0.2,0,0.4,0.1,0.5c0,0.1,0.1,0.1,0.1,0.2c0.1,0,0.2,0.1,0.4,0.1v0.1h-1.8v-0.1h0.1
	c0.2,0,0.3,0,0.4-0.1c0.1-0.1,0.1-0.1,0.1-0.2c0,0,0-0.2,0-0.4V9c0-0.3,0-0.6-0.1-0.7c-0.1-0.2-0.2-0.2-0.4-0.2
	c-0.3,0-0.7,0.2-1,0.5v1.9c0,0.2,0,0.4,0.1,0.5c0,0.1,0.1,0.1,0.1,0.2c0.1,0,0.2,0.1,0.4,0.1v0.1h-1.8v-0.1h0.1c0.2,0,0.3,0,0.4-0.1
	c0.1-0.1,0.1-0.3,0.1-0.5V9.1c0-0.4,0-0.7,0-0.8c0-0.1-0.1-0.2-0.1-0.2c0,0-0.1-0.1-0.2-0.1c-0.1,0-0.2,0-0.3,0.1L196.8,8l1.1-0.4
	h0.2V8.3z M207.8,9.8l0.1,0l-0.5,1.4h-4.3v-0.1h0.2c0.2,0,0.4-0.1,0.5-0.2c0.1-0.1,0.1-0.3,0.1-0.6V6.9c0-0.3,0-0.6-0.1-0.6
	c-0.1-0.1-0.3-0.2-0.5-0.2h-0.2V6h2.5v0.2c-0.3,0-0.5,0-0.6,0.1c-0.1,0.1-0.2,0.1-0.2,0.2c0,0.1-0.1,0.3-0.1,0.6v3.4
	c0,0.2,0,0.3,0.1,0.4c0,0.1,0.1,0.1,0.2,0.1c0.1,0,0.3,0,0.6,0h0.4c0.4,0,0.7,0,0.9-0.1c0.2-0.1,0.3-0.2,0.5-0.3
	C207.5,10.4,207.7,10.1,207.8,9.8z M209.3,5.7c0.1,0,0.2,0,0.3,0.1c0.1,0.1,0.1,0.2,0.1,0.3s0,0.2-0.1,0.3c-0.1,0.1-0.2,0.1-0.3,0.1
	c-0.1,0-0.2,0-0.3-0.1c-0.1-0.1-0.1-0.2-0.1-0.3s0-0.2,0.1-0.3C209.1,5.7,209.2,5.7,209.3,5.7z M209.7,7.6v2.9c0,0.2,0,0.4,0.1,0.5
	c0,0.1,0.1,0.1,0.2,0.2c0.1,0,0.2,0.1,0.4,0.1v0.1h-1.8v-0.1c0.2,0,0.3,0,0.4-0.1c0.1,0,0.1-0.1,0.1-0.2c0-0.1,0.1-0.2,0.1-0.5V9.1
	c0-0.4,0-0.6-0.1-0.8c0-0.1,0-0.1-0.1-0.2c0,0-0.1-0.1-0.2-0.1s-0.2,0-0.3,0.1l0-0.1l1.1-0.4H209.7z M211.8,8.3
	c0.4-0.5,0.9-0.8,1.2-0.8c0.2,0,0.4,0,0.5,0.1c0.1,0.1,0.3,0.3,0.3,0.5c0.1,0.1,0.1,0.4,0.1,0.7v1.5c0,0.2,0,0.4,0.1,0.5
	c0,0.1,0.1,0.1,0.1,0.2c0.1,0,0.2,0.1,0.4,0.1v0.1h-1.8v-0.1h0.1c0.2,0,0.3,0,0.4-0.1c0.1-0.1,0.1-0.1,0.2-0.2c0,0,0-0.2,0-0.4V9
	c0-0.3-0.1-0.6-0.1-0.7c-0.1-0.2-0.2-0.2-0.4-0.2c-0.3,0-0.7,0.2-1,0.5v1.9c0,0.2,0,0.4,0.1,0.5c0,0.1,0.1,0.1,0.1,0.2
	c0.1,0,0.2,0.1,0.4,0.1v0.1h-1.8v-0.1h0.1c0.2,0,0.3,0,0.4-0.1c0.1-0.1,0.1-0.3,0.1-0.5V9.1c0-0.4,0-0.7,0-0.8
	c0-0.1-0.1-0.2-0.1-0.2c0,0-0.1-0.1-0.2-0.1c-0.1,0-0.2,0-0.3,0.1L210.5,8l1.1-0.4h0.2V8.3z M215.5,9c0,0.5,0.1,0.9,0.4,1.2
	c0.3,0.3,0.6,0.5,0.9,0.5c0.2,0,0.4-0.1,0.6-0.2c0.2-0.1,0.3-0.3,0.4-0.7l0.1,0.1c-0.1,0.3-0.2,0.7-0.5,1c-0.3,0.3-0.6,0.4-1,0.4
	c-0.4,0-0.8-0.2-1.1-0.5c-0.3-0.3-0.5-0.8-0.5-1.4c0-0.6,0.2-1.1,0.5-1.4c0.3-0.3,0.7-0.5,1.2-0.5c0.4,0,0.8,0.1,1,0.4
	c0.3,0.3,0.4,0.6,0.4,1.1H215.5z M215.5,8.8h1.7c0-0.2,0-0.4-0.1-0.5c-0.1-0.1-0.2-0.2-0.3-0.3c-0.1-0.1-0.3-0.1-0.4-0.1
	c-0.2,0-0.4,0.1-0.6,0.3C215.6,8.3,215.5,8.5,215.5,8.8"/>
<path class="st1" d="M36.8,15H305"/>
<path class="st1" d="M265.7,138.5v-10.2"/>
<path class="st3" d="M265.7,119l-2.4,9.4h4.7L265.7,119"/>
<path class="st7" d="M266,119l-2.3,9.4l-0.3-0.4h4.7l-0.3,0.4l-2.3-9.4c0-0.2,0.1-0.4,0.2-0.4c0.2,0,0.4,0.1,0.4,0.2l2.4,9.3
	c0,0.1,0,0.2-0.1,0.3c-0.1,0.1-0.2,0.1-0.3,0.1h-4.7c-0.1,0-0.2,0-0.3-0.1c-0.1-0.1-0.1-0.2-0.1-0.3l2.4-9.3
	c0.1-0.2,0.2-0.3,0.4-0.2C265.9,118.7,266.1,118.9,266,119"/>
<path class="st1" d="M305,86.5h-9.8"/>
<path class="st3" d="M285.3,86.5l9.4,2.2v-4.5L285.3,86.5"/>
<path class="st7" d="M285.4,86.2l9.4,2.2l-0.4,0.3v-4.5l0.4,0.3l-9.4,2.3c-0.2,0-0.4-0.1-0.4-0.2c-0.1-0.2,0.1-0.4,0.2-0.4l9.4-2.3
	c0.1,0,0.2,0,0.3,0.1c0.1,0.1,0.1,0.2,0.1,0.3v4.5c0,0.1-0.1,0.2-0.1,0.3c-0.1,0.1-0.2,0.1-0.3,0.1l-9.4-2.2c-0.2,0-0.3-0.2-0.2-0.4
	C285,86.2,285.2,86.1,285.4,86.2"/>
<path class="st1" d="M305,105.9h-9.8"/>
<path class="st3" d="M285.3,105.9l9.4,2.3v-4.5L285.3,105.9"/>
<path class="st7" d="M285.4,105.6l9.4,2.3l-0.4,0.3v-4.5l0.4,0.3l-9.4,2.2c-0.2,0-0.4-0.1-0.4-0.3c-0.1-0.2,0.1-0.4,0.2-0.4l9.4-2.2
	c0.1,0,0.2,0,0.3,0.1c0.1,0.1,0.1,0.2,0.1,0.3v4.5c0,0.1-0.1,0.2-0.1,0.3c-0.1,0.1-0.2,0.1-0.3,0.1l-9.4-2.3
	c-0.2-0.1-0.3-0.2-0.2-0.4C285,105.6,285.2,105.5,285.4,105.6"/>
<path class="st8" d="M128.3,60.6c0,3.6-2.9,6.5-6.6,6.5c-3.6,0-6.6-2.9-6.6-6.5c0-3.6,3-6.5,6.6-6.5C125.4,54.1,128.3,57,128.3,60.6
	"/>
<path class="st1" d="M128.3,60.6c0,3.6-2.9,6.5-6.6,6.5c-3.6,0-6.6-2.9-6.6-6.5c0-3.6,3-6.5,6.6-6.5C125.4,54.1,128.3,57,128.3,60.6
	z"/>
<path class="st1" d="M128.3,54c0,3.6-2.9,6.5-6.6,6.5c-3.6,0-6.6-2.9-6.6-6.5c0-3.6,3-6.5,6.6-6.5C125.4,47.5,128.3,50.4,128.3,54z"
	/>
<path class="st1" d="M36.8,105.9l-6.5,6.6"/>
<path class="st1" d="M108.8,132v9.6"/>
<path class="st1" d="M98.9,141.6h19.6"/>
<path class="st1" d="M98.9,148.2h19.6"/>
<path class="st1" d="M108.8,158v-9.8"/>
<path class="st1" d="M56.5,132v9.6"/>
<path class="st1" d="M46.6,141.6h19.6"/>
<path class="st1" d="M46.6,148.2h19.6"/>
<path class="st1" d="M56.5,158v-9.8"/>
<path class="st3" d="M285.7,46.9V47c-0.2,0-0.3,0.1-0.4,0.2c-0.2,0.1-0.3,0.3-0.4,0.6l-1.9,4.5h-0.1l-2.1-4.6
	c-0.1-0.2-0.2-0.4-0.2-0.4c-0.1-0.1-0.1-0.2-0.2-0.2c-0.1-0.1-0.2-0.1-0.4-0.1v-0.1h2.2V47c-0.2,0-0.4,0.1-0.5,0.1
	c-0.1,0.1-0.1,0.1-0.1,0.2c0,0.1,0.1,0.4,0.2,0.6l1.4,3.1l1.3-3.1c0.1-0.3,0.2-0.5,0.2-0.6c0-0.1,0-0.1-0.1-0.2
	c-0.1-0.1-0.2-0.1-0.4-0.1c0,0,0,0-0.1,0v-0.1H285.7z M290.6,46.9l0.1,1.2h-0.2c0-0.2-0.1-0.4-0.1-0.5c-0.1-0.1-0.2-0.3-0.3-0.3
	c-0.1-0.1-0.3-0.1-0.6-0.1h-0.8v4.1c0,0.3,0,0.5,0.1,0.6c0.1,0.1,0.3,0.2,0.5,0.2h0.2v0.1h-2.3v-0.1h0.2c0.2,0,0.4-0.1,0.5-0.2
	c0.1-0.1,0.1-0.3,0.1-0.6v-4.1h-0.7c-0.2,0-0.4,0-0.5,0.1c-0.1,0-0.3,0.1-0.4,0.3s-0.2,0.3-0.2,0.6H286l0.1-1.2H290.6"/>
<path class="st8" d="M272.3,54c0,3.6-2.9,6.5-6.6,6.5c-3.6,0-6.6-2.9-6.6-6.5c0-3.6,3-6.5,6.6-6.5C269.4,47.5,272.3,50.4,272.3,54"
	/>
<path class="st1" d="M272.3,54c0,3.6-2.9,6.5-6.6,6.5c-3.6,0-6.6-2.9-6.6-6.5c0-3.6,3-6.5,6.6-6.5C269.4,47.5,272.3,50.4,272.3,54z"
	/>
<path class="st1" d="M272.3,47.5c0,3.6-2.9,6.5-6.6,6.5c-3.6,0-6.6-2.9-6.6-6.5c0-3.6,3-6.5,6.6-6.5C269.4,41,272.3,43.9,272.3,47.5
	z"/>
<path class="st1" d="M265.7,60.5v10"/>
<path class="st3" d="M265.7,79.9l2.3-9.3h-4.7L265.7,79.9"/>
<path class="st7" d="M265.3,79.8l2.4-9.4l0.3,0.4h-4.7l0.3-0.4l2.4,9.4c0,0.2-0.1,0.4-0.2,0.4c-0.2,0.1-0.4-0.1-0.4-0.2l-2.4-9.3
	c0-0.1,0-0.2,0.1-0.3c0.1-0.1,0.2-0.1,0.3-0.1h4.7c0.1,0,0.2,0,0.3,0.1c0.1,0.1,0.1,0.2,0.1,0.3L266,80c-0.1,0.2-0.2,0.3-0.4,0.2
	C265.4,80.2,265.3,80,265.3,79.8"/>
</svg>
